%FSLAX32Y32*%
%MOMM*%
%LNBESTUECKUNG2*%
G71*
G01*
%ADD10C, 0.07*%
%ADD11C, 0.06*%
%ADD12C, 0.20*%
%ADD13C, 0.17*%
%ADD14C, 0.10*%
%ADD15C, 0.19*%
%LPD*%
G54D10*
X9758Y7526D02*
X9778Y7579D01*
X9798Y7526D01*
G54D10*
X9766Y7546D02*
X9790Y7546D01*
G54D10*
X9813Y7526D02*
X9813Y7579D01*
X9833Y7579D01*
X9841Y7576D01*
X9845Y7569D01*
X9845Y7536D01*
X9841Y7529D01*
X9833Y7526D01*
X9813Y7526D01*
G54D10*
X9892Y7526D02*
X9860Y7526D01*
X9860Y7529D01*
X9864Y7536D01*
X9888Y7556D01*
X9892Y7562D01*
X9892Y7569D01*
X9888Y7576D01*
X9880Y7579D01*
X9872Y7579D01*
X9864Y7576D01*
X9860Y7569D01*
G54D10*
X9534Y7569D02*
X9534Y7536D01*
X9530Y7529D01*
X9522Y7526D01*
X9514Y7526D01*
X9506Y7529D01*
X9502Y7536D01*
X9502Y7569D01*
X9506Y7576D01*
X9514Y7579D01*
X9522Y7579D01*
X9530Y7576D01*
X9534Y7569D01*
G54D10*
X9581Y7536D02*
X9577Y7529D01*
X9569Y7526D01*
X9561Y7526D01*
X9553Y7529D01*
X9549Y7536D01*
X9549Y7569D01*
X9553Y7576D01*
X9561Y7579D01*
X9569Y7579D01*
X9577Y7576D01*
X9581Y7569D01*
G54D10*
X9596Y7559D02*
X9616Y7579D01*
X9616Y7526D01*
G54D10*
X9631Y7552D02*
X9639Y7556D01*
X9649Y7556D01*
X9655Y7549D01*
X9655Y7526D01*
G54D10*
X9655Y7536D02*
X9651Y7542D01*
X9643Y7544D01*
X9635Y7542D01*
X9631Y7536D01*
X9633Y7529D01*
X9639Y7526D01*
X9643Y7526D01*
X9645Y7526D01*
X9651Y7529D01*
X9655Y7536D01*
G54D11*
X9207Y7467D02*
X9210Y7461D01*
X9217Y7458D01*
X9223Y7458D01*
X9230Y7461D01*
X9233Y7467D01*
X9233Y7472D01*
X9230Y7478D01*
X9223Y7481D01*
X9217Y7481D01*
X9210Y7483D01*
X9207Y7489D01*
X9207Y7494D01*
X9210Y7500D01*
X9217Y7503D01*
X9223Y7503D01*
X9230Y7500D01*
X9233Y7494D01*
G54D11*
X9246Y7458D02*
X9246Y7503D01*
X9262Y7503D01*
X9269Y7500D01*
X9272Y7494D01*
X9272Y7467D01*
X9269Y7461D01*
X9262Y7458D01*
X9246Y7458D01*
G54D11*
X9285Y7458D02*
X9301Y7503D01*
X9318Y7458D01*
G54D11*
X9291Y7475D02*
X9311Y7475D01*
G54D11*
X9330Y7458D02*
X9356Y7503D01*
G54D11*
X9369Y7458D02*
X9385Y7503D01*
X9402Y7458D01*
G54D11*
X9375Y7475D02*
X9395Y7475D01*
G54D11*
X9414Y7458D02*
X9414Y7503D01*
X9430Y7503D01*
X9437Y7500D01*
X9440Y7494D01*
X9440Y7467D01*
X9437Y7461D01*
X9430Y7458D01*
X9414Y7458D01*
G54D11*
X9473Y7458D02*
X9473Y7503D01*
X9453Y7475D01*
X9453Y7469D01*
X9479Y7469D01*
G54D11*
X8906Y7475D02*
X8909Y7469D01*
X8916Y7466D01*
X8923Y7466D01*
X8929Y7469D01*
X8933Y7475D01*
X8933Y7480D01*
X8929Y7486D01*
X8923Y7488D01*
X8916Y7488D01*
X8909Y7491D01*
X8906Y7497D01*
X8906Y7502D01*
X8909Y7508D01*
X8916Y7511D01*
X8923Y7511D01*
X8929Y7508D01*
X8933Y7502D01*
G54D11*
X8972Y7475D02*
X8968Y7469D01*
X8962Y7466D01*
X8955Y7466D01*
X8948Y7469D01*
X8945Y7475D01*
X8945Y7502D01*
X8948Y7508D01*
X8955Y7511D01*
X8962Y7511D01*
X8968Y7508D01*
X8972Y7502D01*
G54D11*
X8984Y7511D02*
X8984Y7466D01*
X9007Y7466D01*
G54D11*
X9019Y7466D02*
X9046Y7511D01*
G54D11*
X9058Y7466D02*
X9075Y7511D01*
X9091Y7466D01*
G54D11*
X9065Y7483D02*
X9085Y7483D01*
G54D11*
X9103Y7466D02*
X9103Y7511D01*
X9120Y7511D01*
X9126Y7508D01*
X9130Y7502D01*
X9130Y7475D01*
X9126Y7469D01*
X9120Y7466D01*
X9103Y7466D01*
G54D11*
X9169Y7511D02*
X9142Y7511D01*
X9142Y7491D01*
X9145Y7491D01*
X9152Y7494D01*
X9159Y7494D01*
X9165Y7491D01*
X9169Y7486D01*
X9169Y7475D01*
X9165Y7469D01*
X9159Y7466D01*
X9152Y7466D01*
X9145Y7469D01*
X9142Y7475D01*
G54D10*
X8767Y7488D02*
X8779Y7482D01*
X8783Y7475D01*
X8783Y7462D01*
G54D10*
X8751Y7462D02*
X8751Y7515D01*
X8771Y7515D01*
X8779Y7512D01*
X8783Y7505D01*
X8783Y7498D01*
X8779Y7492D01*
X8771Y7488D01*
X8751Y7488D01*
G54D10*
X8798Y7515D02*
X8838Y7462D01*
G54D10*
X8798Y7462D02*
X8838Y7515D01*
G54D10*
X8529Y7462D02*
X8529Y7515D01*
G54D10*
X8513Y7515D02*
X8545Y7515D01*
G54D10*
X8560Y7515D02*
X8600Y7462D01*
G54D10*
X8560Y7462D02*
X8600Y7515D01*
G54D10*
X10181Y7761D02*
X10234Y7741D01*
X10181Y7721D01*
G54D10*
X10201Y7753D02*
X10201Y7729D01*
G54D10*
X10181Y7706D02*
X10234Y7706D01*
X10234Y7686D01*
X10231Y7678D01*
X10224Y7674D01*
X10191Y7674D01*
X10184Y7678D01*
X10181Y7686D01*
X10181Y7706D01*
G54D10*
X10224Y7659D02*
X10231Y7655D01*
X10234Y7647D01*
X10234Y7639D01*
X10231Y7631D01*
X10224Y7627D01*
X10218Y7627D01*
X10211Y7631D01*
X10208Y7639D01*
X10204Y7631D01*
X10198Y7627D01*
X10191Y7627D01*
X10184Y7631D01*
X10181Y7639D01*
X10181Y7647D01*
X10184Y7655D01*
X10191Y7659D01*
G54D12*
X9858Y6024D02*
X9762Y6024D01*
G54D10*
X8484Y6021D02*
X8488Y6028D01*
X8496Y6031D01*
X8504Y6031D01*
X8512Y6028D01*
X8516Y6021D01*
X8516Y6014D01*
X8512Y6008D01*
X8504Y6004D01*
X8512Y6001D01*
X8516Y5994D01*
X8516Y5988D01*
X8512Y5981D01*
X8504Y5978D01*
X8496Y5978D01*
X8488Y5981D01*
X8484Y5988D01*
G54D10*
X8540Y5978D02*
X8540Y5971D01*
X8536Y5964D01*
X8532Y5964D01*
G54D10*
X8554Y6021D02*
X8558Y6028D01*
X8566Y6031D01*
X8574Y6031D01*
X8582Y6028D01*
X8586Y6021D01*
X8586Y6014D01*
X8582Y6008D01*
X8574Y6004D01*
X8582Y6001D01*
X8586Y5994D01*
X8586Y5988D01*
X8582Y5981D01*
X8574Y5978D01*
X8566Y5978D01*
X8558Y5981D01*
X8554Y5988D01*
G54D10*
X8602Y6031D02*
X8622Y5978D01*
X8642Y6031D01*
G54D10*
X9492Y6014D02*
X9492Y6067D01*
X9512Y6034D01*
X9532Y6067D01*
X9532Y6014D01*
G54D10*
X9548Y6014D02*
X9548Y6044D01*
G54D10*
X9548Y6054D02*
X9548Y6054D01*
G54D10*
X9562Y6017D02*
X9570Y6014D01*
X9578Y6014D01*
X9586Y6017D01*
X9586Y6024D01*
X9582Y6027D01*
X9566Y6030D01*
X9562Y6034D01*
X9562Y6040D01*
X9570Y6044D01*
X9578Y6044D01*
X9586Y6040D01*
G54D10*
X9626Y6022D02*
X9626Y6035D01*
X9622Y6042D01*
X9614Y6044D01*
X9606Y6042D01*
X9602Y6035D01*
X9602Y6022D01*
X9606Y6015D01*
X9614Y6014D01*
X9622Y6015D01*
X9626Y6022D01*
G54D10*
X9231Y6014D02*
X9231Y6067D01*
X9251Y6034D01*
X9271Y6067D01*
X9271Y6014D01*
G54D10*
X9310Y6022D02*
X9310Y6035D01*
X9306Y6042D01*
X9298Y6044D01*
X9290Y6042D01*
X9286Y6035D01*
X9286Y6022D01*
X9290Y6015D01*
X9298Y6014D01*
X9306Y6015D01*
X9310Y6022D01*
G54D10*
X9325Y6017D02*
X9333Y6014D01*
X9341Y6014D01*
X9349Y6017D01*
X9349Y6024D01*
X9345Y6027D01*
X9329Y6030D01*
X9325Y6034D01*
X9325Y6040D01*
X9333Y6044D01*
X9341Y6044D01*
X9349Y6040D01*
G54D10*
X9364Y6014D02*
X9364Y6044D01*
G54D10*
X9364Y6054D02*
X9364Y6054D01*
G54D10*
X8986Y6016D02*
X8990Y6009D01*
X8998Y6006D01*
X9006Y6006D01*
X9014Y6009D01*
X9018Y6016D01*
X9018Y6022D01*
X9014Y6029D01*
X9006Y6032D01*
X8998Y6032D01*
X8990Y6036D01*
X8986Y6042D01*
X8986Y6049D01*
X8990Y6056D01*
X8998Y6059D01*
X9006Y6059D01*
X9014Y6056D01*
X9018Y6049D01*
G54D10*
X9064Y6016D02*
X9060Y6009D01*
X9052Y6006D01*
X9044Y6006D01*
X9036Y6009D01*
X9032Y6016D01*
X9032Y6049D01*
X9036Y6056D01*
X9044Y6059D01*
X9052Y6059D01*
X9060Y6056D01*
X9064Y6049D01*
G54D10*
X9080Y6006D02*
X9080Y6059D01*
G54D10*
X9080Y6022D02*
X9112Y6059D01*
G54D10*
X9092Y6032D02*
X9112Y6006D01*
G54D10*
X8748Y6032D02*
X8760Y6026D01*
X8764Y6019D01*
X8764Y6006D01*
G54D10*
X8732Y6006D02*
X8732Y6059D01*
X8752Y6059D01*
X8760Y6056D01*
X8764Y6049D01*
X8764Y6042D01*
X8760Y6036D01*
X8752Y6032D01*
X8732Y6032D01*
G54D10*
X8804Y6009D02*
X8797Y6006D01*
X8789Y6006D01*
X8781Y6009D01*
X8780Y6016D01*
X8780Y6027D01*
X8784Y6034D01*
X8792Y6036D01*
X8800Y6034D01*
X8804Y6029D01*
X8804Y6022D01*
X8780Y6022D01*
G54D10*
X8818Y6009D02*
X8826Y6006D01*
X8834Y6006D01*
X8842Y6009D01*
X8842Y6016D01*
X8838Y6019D01*
X8822Y6022D01*
X8818Y6026D01*
X8818Y6032D01*
X8826Y6036D01*
X8834Y6036D01*
X8842Y6032D01*
G54D13*
X10223Y7035D02*
X10143Y7035D01*
G54D13*
X10183Y7068D02*
X10183Y7001D01*
G54D10*
X10063Y6051D02*
X10031Y6051D01*
X10031Y6028D01*
X10035Y6028D01*
X10043Y6031D01*
X10051Y6031D01*
X10059Y6028D01*
X10063Y6021D01*
X10063Y6008D01*
X10059Y6001D01*
X10051Y5998D01*
X10043Y5998D01*
X10035Y6001D01*
X10031Y6008D01*
G54D10*
X10078Y6051D02*
X10098Y5998D01*
X10118Y6051D01*
G54D10*
X9909Y7474D02*
X9909Y7441D01*
X9905Y7434D01*
X9897Y7431D01*
X9889Y7431D01*
X9881Y7434D01*
X9877Y7441D01*
X9877Y7474D01*
X9881Y7481D01*
X9889Y7484D01*
X9897Y7484D01*
X9905Y7481D01*
X9909Y7474D01*
G54D10*
X9924Y7431D02*
X9924Y7484D01*
X9952Y7484D01*
G54D10*
X9924Y7458D02*
X9952Y7458D01*
G54D10*
X9967Y7431D02*
X9967Y7484D01*
X9995Y7484D01*
G54D10*
X9967Y7458D02*
X9995Y7458D01*
G54D10*
X9911Y7404D02*
X9911Y7371D01*
X9907Y7364D01*
X9899Y7361D01*
X9891Y7361D01*
X9883Y7364D01*
X9879Y7371D01*
X9879Y7404D01*
X9883Y7411D01*
X9891Y7414D01*
X9899Y7414D01*
X9907Y7411D01*
X9911Y7404D01*
G54D10*
X9926Y7361D02*
X9926Y7414D01*
X9958Y7361D01*
X9958Y7414D01*
G54D14*
X8332Y6144D02*
X8403Y6144D01*
X8364Y6184D01*
X8364Y6176D01*
X8332Y6144D01*
G54D14*
X8332Y6184D02*
X8395Y6184D01*
X8403Y6184D01*
G54D14*
X8530Y6629D02*
X8530Y6558D01*
X8569Y6597D01*
X8561Y6597D01*
X8530Y6629D01*
G54D14*
X8569Y6629D02*
X8569Y6566D01*
X8569Y6558D01*
G54D14*
X9022Y6399D02*
X9022Y6327D01*
X9061Y6367D01*
X9054Y6367D01*
X9022Y6399D01*
G54D14*
X9061Y6399D02*
X9061Y6335D01*
X9061Y6327D01*
G54D14*
X9371Y6383D02*
X9371Y6312D01*
X9411Y6351D01*
X9403Y6351D01*
X9371Y6383D01*
G54D14*
X9411Y6383D02*
X9411Y6319D01*
X9411Y6312D01*
G54D14*
X9720Y6462D02*
X9720Y6391D01*
X9760Y6431D01*
X9752Y6431D01*
X9720Y6462D01*
G54D14*
X9760Y6462D02*
X9760Y6399D01*
X9760Y6391D01*
G54D10*
X10340Y6986D02*
X10340Y7040D01*
G54D10*
X10372Y6986D02*
X10372Y7040D01*
G54D10*
X10340Y7013D02*
X10372Y7013D01*
G54D10*
X10340Y6590D02*
X10340Y6643D01*
G54D10*
X10372Y6590D02*
X10372Y6643D01*
G54D10*
X10340Y6616D02*
X10372Y6616D01*
G54D10*
X10339Y7248D02*
X10339Y7194D01*
X10367Y7194D01*
G54D10*
X10347Y6359D02*
X10347Y6305D01*
X10375Y6305D01*
G54D15*
X10358Y7328D02*
X10358Y7419D01*
G54D15*
X10358Y7670D02*
X10358Y7760D01*
G54D15*
X10358Y7519D02*
X10358Y7610D01*
G54D10*
X12052Y7526D02*
X12072Y7579D01*
X12092Y7526D01*
G54D10*
X12060Y7546D02*
X12084Y7546D01*
G54D10*
X12107Y7526D02*
X12107Y7579D01*
X12127Y7579D01*
X12135Y7576D01*
X12139Y7569D01*
X12139Y7536D01*
X12135Y7529D01*
X12127Y7526D01*
X12107Y7526D01*
G54D10*
X12186Y7526D02*
X12154Y7526D01*
X12154Y7529D01*
X12158Y7536D01*
X12182Y7556D01*
X12186Y7562D01*
X12186Y7569D01*
X12182Y7576D01*
X12174Y7579D01*
X12166Y7579D01*
X12158Y7576D01*
X12154Y7569D01*
G54D10*
X11828Y7569D02*
X11828Y7536D01*
X11824Y7529D01*
X11816Y7526D01*
X11808Y7526D01*
X11800Y7529D01*
X11796Y7536D01*
X11796Y7569D01*
X11800Y7576D01*
X11808Y7579D01*
X11816Y7579D01*
X11824Y7576D01*
X11828Y7569D01*
G54D10*
X11875Y7536D02*
X11871Y7529D01*
X11863Y7526D01*
X11855Y7526D01*
X11847Y7529D01*
X11843Y7536D01*
X11843Y7569D01*
X11847Y7576D01*
X11855Y7579D01*
X11863Y7579D01*
X11871Y7576D01*
X11875Y7569D01*
G54D10*
X11890Y7559D02*
X11910Y7579D01*
X11910Y7526D01*
G54D10*
X11925Y7552D02*
X11933Y7556D01*
X11943Y7556D01*
X11949Y7549D01*
X11949Y7526D01*
G54D10*
X11949Y7536D02*
X11945Y7542D01*
X11937Y7544D01*
X11929Y7542D01*
X11925Y7536D01*
X11927Y7529D01*
X11933Y7526D01*
X11937Y7526D01*
X11939Y7526D01*
X11945Y7529D01*
X11949Y7536D01*
G54D11*
X11501Y7467D02*
X11504Y7461D01*
X11511Y7458D01*
X11517Y7458D01*
X11524Y7461D01*
X11527Y7467D01*
X11527Y7472D01*
X11524Y7478D01*
X11517Y7481D01*
X11511Y7481D01*
X11504Y7483D01*
X11501Y7489D01*
X11501Y7494D01*
X11504Y7500D01*
X11511Y7503D01*
X11517Y7503D01*
X11524Y7500D01*
X11527Y7494D01*
G54D11*
X11540Y7458D02*
X11540Y7503D01*
X11556Y7503D01*
X11563Y7500D01*
X11566Y7494D01*
X11566Y7467D01*
X11563Y7461D01*
X11556Y7458D01*
X11540Y7458D01*
G54D11*
X11579Y7458D02*
X11595Y7503D01*
X11612Y7458D01*
G54D11*
X11585Y7475D02*
X11605Y7475D01*
G54D11*
X11624Y7458D02*
X11650Y7503D01*
G54D11*
X11663Y7458D02*
X11679Y7503D01*
X11696Y7458D01*
G54D11*
X11669Y7475D02*
X11689Y7475D01*
G54D11*
X11708Y7458D02*
X11708Y7503D01*
X11724Y7503D01*
X11731Y7500D01*
X11734Y7494D01*
X11734Y7467D01*
X11731Y7461D01*
X11724Y7458D01*
X11708Y7458D01*
G54D11*
X11767Y7458D02*
X11767Y7503D01*
X11747Y7475D01*
X11747Y7469D01*
X11773Y7469D01*
G54D11*
X11200Y7475D02*
X11203Y7469D01*
X11210Y7466D01*
X11217Y7466D01*
X11223Y7469D01*
X11227Y7475D01*
X11227Y7480D01*
X11223Y7486D01*
X11217Y7488D01*
X11210Y7488D01*
X11203Y7491D01*
X11200Y7497D01*
X11200Y7502D01*
X11203Y7508D01*
X11210Y7511D01*
X11217Y7511D01*
X11223Y7508D01*
X11227Y7502D01*
G54D11*
X11266Y7475D02*
X11262Y7469D01*
X11256Y7466D01*
X11249Y7466D01*
X11242Y7469D01*
X11239Y7475D01*
X11239Y7502D01*
X11242Y7508D01*
X11249Y7511D01*
X11256Y7511D01*
X11262Y7508D01*
X11266Y7502D01*
G54D11*
X11278Y7511D02*
X11278Y7466D01*
X11301Y7466D01*
G54D11*
X11313Y7466D02*
X11340Y7511D01*
G54D11*
X11352Y7466D02*
X11369Y7511D01*
X11385Y7466D01*
G54D11*
X11359Y7483D02*
X11379Y7483D01*
G54D11*
X11397Y7466D02*
X11397Y7511D01*
X11414Y7511D01*
X11420Y7508D01*
X11424Y7502D01*
X11424Y7475D01*
X11420Y7469D01*
X11414Y7466D01*
X11397Y7466D01*
G54D11*
X11463Y7511D02*
X11436Y7511D01*
X11436Y7491D01*
X11439Y7491D01*
X11446Y7494D01*
X11453Y7494D01*
X11459Y7491D01*
X11463Y7486D01*
X11463Y7475D01*
X11459Y7469D01*
X11453Y7466D01*
X11446Y7466D01*
X11439Y7469D01*
X11436Y7475D01*
G54D10*
X11061Y7488D02*
X11073Y7482D01*
X11077Y7475D01*
X11077Y7462D01*
G54D10*
X11045Y7462D02*
X11045Y7515D01*
X11065Y7515D01*
X11073Y7512D01*
X11077Y7505D01*
X11077Y7498D01*
X11073Y7492D01*
X11065Y7488D01*
X11045Y7488D01*
G54D10*
X11092Y7515D02*
X11132Y7462D01*
G54D10*
X11092Y7462D02*
X11132Y7515D01*
G54D10*
X10823Y7462D02*
X10823Y7515D01*
G54D10*
X10807Y7515D02*
X10839Y7515D01*
G54D10*
X10854Y7515D02*
X10894Y7462D01*
G54D10*
X10854Y7462D02*
X10894Y7515D01*
G54D10*
X12475Y7761D02*
X12528Y7741D01*
X12475Y7721D01*
G54D10*
X12495Y7753D02*
X12495Y7729D01*
G54D10*
X12475Y7706D02*
X12528Y7706D01*
X12528Y7686D01*
X12525Y7678D01*
X12518Y7674D01*
X12485Y7674D01*
X12478Y7678D01*
X12475Y7686D01*
X12475Y7706D01*
G54D10*
X12518Y7659D02*
X12525Y7655D01*
X12528Y7647D01*
X12528Y7639D01*
X12525Y7631D01*
X12518Y7627D01*
X12512Y7627D01*
X12505Y7631D01*
X12502Y7639D01*
X12498Y7631D01*
X12492Y7627D01*
X12485Y7627D01*
X12478Y7631D01*
X12475Y7639D01*
X12475Y7647D01*
X12478Y7655D01*
X12485Y7659D01*
G54D12*
X12152Y6024D02*
X12056Y6024D01*
G54D10*
X10778Y6021D02*
X10782Y6028D01*
X10790Y6031D01*
X10798Y6031D01*
X10806Y6028D01*
X10810Y6021D01*
X10810Y6014D01*
X10806Y6008D01*
X10798Y6004D01*
X10806Y6001D01*
X10810Y5994D01*
X10810Y5988D01*
X10806Y5981D01*
X10798Y5978D01*
X10790Y5978D01*
X10782Y5981D01*
X10778Y5988D01*
G54D10*
X10833Y5978D02*
X10833Y5971D01*
X10829Y5964D01*
X10825Y5964D01*
G54D10*
X10848Y6021D02*
X10852Y6028D01*
X10860Y6031D01*
X10868Y6031D01*
X10876Y6028D01*
X10880Y6021D01*
X10880Y6014D01*
X10876Y6008D01*
X10868Y6004D01*
X10876Y6001D01*
X10880Y5994D01*
X10880Y5988D01*
X10876Y5981D01*
X10868Y5978D01*
X10860Y5978D01*
X10852Y5981D01*
X10848Y5988D01*
G54D10*
X10895Y6031D02*
X10915Y5978D01*
X10935Y6031D01*
G54D10*
X11786Y6014D02*
X11786Y6067D01*
X11806Y6034D01*
X11826Y6067D01*
X11826Y6014D01*
G54D10*
X11841Y6014D02*
X11841Y6044D01*
G54D10*
X11841Y6054D02*
X11841Y6054D01*
G54D10*
X11856Y6017D02*
X11864Y6014D01*
X11872Y6014D01*
X11880Y6017D01*
X11880Y6024D01*
X11876Y6027D01*
X11860Y6030D01*
X11856Y6034D01*
X11856Y6040D01*
X11864Y6044D01*
X11872Y6044D01*
X11880Y6040D01*
G54D10*
X11919Y6022D02*
X11919Y6035D01*
X11915Y6042D01*
X11907Y6044D01*
X11899Y6042D01*
X11895Y6035D01*
X11895Y6022D01*
X11899Y6015D01*
X11907Y6014D01*
X11915Y6015D01*
X11919Y6022D01*
G54D10*
X11524Y6014D02*
X11524Y6067D01*
X11544Y6034D01*
X11564Y6067D01*
X11564Y6014D01*
G54D10*
X11604Y6022D02*
X11604Y6035D01*
X11600Y6042D01*
X11592Y6044D01*
X11584Y6042D01*
X11580Y6035D01*
X11580Y6022D01*
X11584Y6015D01*
X11592Y6014D01*
X11600Y6015D01*
X11604Y6022D01*
G54D10*
X11618Y6017D02*
X11626Y6014D01*
X11634Y6014D01*
X11642Y6017D01*
X11642Y6024D01*
X11638Y6027D01*
X11622Y6030D01*
X11618Y6034D01*
X11618Y6040D01*
X11626Y6044D01*
X11634Y6044D01*
X11642Y6040D01*
G54D10*
X11658Y6014D02*
X11658Y6044D01*
G54D10*
X11658Y6054D02*
X11658Y6054D01*
G54D10*
X11279Y6016D02*
X11283Y6009D01*
X11291Y6006D01*
X11299Y6006D01*
X11307Y6009D01*
X11311Y6016D01*
X11311Y6022D01*
X11307Y6029D01*
X11299Y6032D01*
X11291Y6032D01*
X11283Y6036D01*
X11279Y6042D01*
X11279Y6049D01*
X11283Y6056D01*
X11291Y6059D01*
X11299Y6059D01*
X11307Y6056D01*
X11311Y6049D01*
G54D10*
X11358Y6016D02*
X11354Y6009D01*
X11346Y6006D01*
X11338Y6006D01*
X11330Y6009D01*
X11326Y6016D01*
X11326Y6049D01*
X11330Y6056D01*
X11338Y6059D01*
X11346Y6059D01*
X11354Y6056D01*
X11358Y6049D01*
G54D10*
X11373Y6006D02*
X11373Y6059D01*
G54D10*
X11373Y6022D02*
X11405Y6059D01*
G54D10*
X11385Y6032D02*
X11405Y6006D01*
G54D10*
X11042Y6032D02*
X11054Y6026D01*
X11058Y6019D01*
X11058Y6006D01*
G54D10*
X11026Y6006D02*
X11026Y6059D01*
X11046Y6059D01*
X11054Y6056D01*
X11058Y6049D01*
X11058Y6042D01*
X11054Y6036D01*
X11046Y6032D01*
X11026Y6032D01*
G54D10*
X11097Y6009D02*
X11091Y6006D01*
X11083Y6006D01*
X11075Y6009D01*
X11073Y6016D01*
X11073Y6027D01*
X11077Y6034D01*
X11085Y6036D01*
X11093Y6034D01*
X11097Y6029D01*
X11097Y6022D01*
X11073Y6022D01*
G54D10*
X11112Y6009D02*
X11120Y6006D01*
X11128Y6006D01*
X11136Y6009D01*
X11136Y6016D01*
X11132Y6019D01*
X11116Y6022D01*
X11112Y6026D01*
X11112Y6032D01*
X11120Y6036D01*
X11128Y6036D01*
X11136Y6032D01*
G54D13*
X12517Y7035D02*
X12437Y7035D01*
G54D13*
X12477Y7068D02*
X12477Y7001D01*
G54D10*
X12357Y6051D02*
X12325Y6051D01*
X12325Y6028D01*
X12329Y6028D01*
X12337Y6031D01*
X12345Y6031D01*
X12353Y6028D01*
X12357Y6021D01*
X12357Y6008D01*
X12353Y6001D01*
X12345Y5998D01*
X12337Y5998D01*
X12329Y6001D01*
X12325Y6008D01*
G54D10*
X12372Y6051D02*
X12392Y5998D01*
X12412Y6051D01*
G54D10*
X12203Y7474D02*
X12203Y7441D01*
X12199Y7434D01*
X12191Y7431D01*
X12183Y7431D01*
X12175Y7434D01*
X12171Y7441D01*
X12171Y7474D01*
X12175Y7481D01*
X12183Y7484D01*
X12191Y7484D01*
X12199Y7481D01*
X12203Y7474D01*
G54D10*
X12218Y7431D02*
X12218Y7484D01*
X12246Y7484D01*
G54D10*
X12218Y7458D02*
X12246Y7458D01*
G54D10*
X12261Y7431D02*
X12261Y7484D01*
X12289Y7484D01*
G54D10*
X12261Y7458D02*
X12289Y7458D01*
G54D10*
X12205Y7404D02*
X12205Y7371D01*
X12201Y7364D01*
X12193Y7361D01*
X12185Y7361D01*
X12177Y7364D01*
X12173Y7371D01*
X12173Y7404D01*
X12177Y7411D01*
X12185Y7414D01*
X12193Y7414D01*
X12201Y7411D01*
X12205Y7404D01*
G54D10*
X12220Y7361D02*
X12220Y7414D01*
X12252Y7361D01*
X12252Y7414D01*
G54D14*
X10626Y6144D02*
X10697Y6144D01*
X10658Y6184D01*
X10658Y6176D01*
X10626Y6144D01*
G54D14*
X10626Y6184D02*
X10689Y6184D01*
X10697Y6184D01*
G54D14*
X10824Y6629D02*
X10824Y6558D01*
X10863Y6597D01*
X10855Y6597D01*
X10824Y6629D01*
G54D14*
X10863Y6629D02*
X10863Y6566D01*
X10863Y6558D01*
G54D14*
X11316Y6399D02*
X11316Y6327D01*
X11355Y6367D01*
X11347Y6367D01*
X11316Y6399D01*
G54D14*
X11355Y6399D02*
X11355Y6335D01*
X11355Y6327D01*
G54D14*
X11665Y6383D02*
X11665Y6312D01*
X11705Y6351D01*
X11697Y6351D01*
X11665Y6383D01*
G54D14*
X11705Y6383D02*
X11705Y6319D01*
X11705Y6312D01*
G54D14*
X12014Y6462D02*
X12014Y6391D01*
X12054Y6431D01*
X12046Y6431D01*
X12014Y6462D01*
G54D14*
X12054Y6462D02*
X12054Y6399D01*
X12054Y6391D01*
G54D10*
X12634Y6986D02*
X12634Y7040D01*
G54D10*
X12666Y6986D02*
X12666Y7040D01*
G54D10*
X12634Y7013D02*
X12666Y7013D01*
G54D10*
X12634Y6590D02*
X12634Y6643D01*
G54D10*
X12666Y6590D02*
X12666Y6643D01*
G54D10*
X12634Y6616D02*
X12666Y6616D01*
G54D10*
X12633Y7248D02*
X12633Y7194D01*
X12661Y7194D01*
G54D10*
X12641Y6359D02*
X12641Y6305D01*
X12669Y6305D01*
G54D15*
X12652Y7328D02*
X12652Y7419D01*
G54D15*
X12652Y7670D02*
X12652Y7760D01*
G54D15*
X12652Y7519D02*
X12652Y7610D01*
G54D10*
X9758Y5470D02*
X9778Y5523D01*
X9798Y5470D01*
G54D10*
X9766Y5490D02*
X9790Y5490D01*
G54D10*
X9813Y5470D02*
X9813Y5523D01*
X9833Y5523D01*
X9841Y5520D01*
X9845Y5513D01*
X9845Y5480D01*
X9841Y5473D01*
X9833Y5470D01*
X9813Y5470D01*
G54D10*
X9892Y5470D02*
X9860Y5470D01*
X9860Y5473D01*
X9864Y5480D01*
X9888Y5500D01*
X9892Y5506D01*
X9892Y5513D01*
X9888Y5520D01*
X9880Y5523D01*
X9872Y5523D01*
X9864Y5520D01*
X9860Y5513D01*
G54D10*
X9534Y5513D02*
X9534Y5480D01*
X9530Y5473D01*
X9522Y5470D01*
X9514Y5470D01*
X9506Y5473D01*
X9502Y5480D01*
X9502Y5513D01*
X9506Y5520D01*
X9514Y5523D01*
X9522Y5523D01*
X9530Y5520D01*
X9534Y5513D01*
G54D10*
X9581Y5480D02*
X9577Y5473D01*
X9569Y5470D01*
X9561Y5470D01*
X9553Y5473D01*
X9549Y5480D01*
X9549Y5513D01*
X9553Y5520D01*
X9561Y5523D01*
X9569Y5523D01*
X9577Y5520D01*
X9581Y5513D01*
G54D10*
X9596Y5503D02*
X9616Y5523D01*
X9616Y5470D01*
G54D10*
X9631Y5496D02*
X9639Y5500D01*
X9649Y5500D01*
X9655Y5493D01*
X9655Y5470D01*
G54D10*
X9655Y5480D02*
X9651Y5486D01*
X9643Y5488D01*
X9635Y5486D01*
X9631Y5480D01*
X9633Y5473D01*
X9639Y5470D01*
X9643Y5470D01*
X9645Y5470D01*
X9651Y5473D01*
X9655Y5480D01*
G54D11*
X9207Y5411D02*
X9210Y5405D01*
X9217Y5402D01*
X9223Y5402D01*
X9230Y5405D01*
X9233Y5411D01*
X9233Y5416D01*
X9230Y5422D01*
X9223Y5425D01*
X9217Y5425D01*
X9210Y5428D01*
X9207Y5433D01*
X9207Y5439D01*
X9210Y5444D01*
X9217Y5447D01*
X9223Y5447D01*
X9230Y5444D01*
X9233Y5439D01*
G54D11*
X9246Y5402D02*
X9246Y5447D01*
X9262Y5447D01*
X9269Y5444D01*
X9272Y5439D01*
X9272Y5411D01*
X9269Y5405D01*
X9262Y5402D01*
X9246Y5402D01*
G54D11*
X9285Y5402D02*
X9301Y5447D01*
X9318Y5402D01*
G54D11*
X9291Y5419D02*
X9311Y5419D01*
G54D11*
X9330Y5402D02*
X9356Y5447D01*
G54D11*
X9369Y5402D02*
X9385Y5447D01*
X9402Y5402D01*
G54D11*
X9375Y5419D02*
X9395Y5419D01*
G54D11*
X9414Y5402D02*
X9414Y5447D01*
X9430Y5447D01*
X9437Y5444D01*
X9440Y5439D01*
X9440Y5411D01*
X9437Y5405D01*
X9430Y5402D01*
X9414Y5402D01*
G54D11*
X9473Y5402D02*
X9473Y5447D01*
X9453Y5419D01*
X9453Y5414D01*
X9479Y5414D01*
G54D11*
X8906Y5419D02*
X8909Y5413D01*
X8916Y5410D01*
X8923Y5410D01*
X8929Y5413D01*
X8933Y5419D01*
X8933Y5424D01*
X8929Y5430D01*
X8923Y5433D01*
X8916Y5433D01*
X8909Y5435D01*
X8906Y5441D01*
X8906Y5447D01*
X8909Y5452D01*
X8916Y5455D01*
X8923Y5455D01*
X8929Y5452D01*
X8933Y5447D01*
G54D11*
X8972Y5419D02*
X8968Y5413D01*
X8962Y5410D01*
X8955Y5410D01*
X8948Y5413D01*
X8945Y5419D01*
X8945Y5447D01*
X8948Y5452D01*
X8955Y5455D01*
X8962Y5455D01*
X8968Y5452D01*
X8972Y5447D01*
G54D11*
X8984Y5455D02*
X8984Y5410D01*
X9007Y5410D01*
G54D11*
X9019Y5410D02*
X9046Y5455D01*
G54D11*
X9058Y5410D02*
X9075Y5455D01*
X9091Y5410D01*
G54D11*
X9065Y5427D02*
X9085Y5427D01*
G54D11*
X9103Y5410D02*
X9103Y5455D01*
X9120Y5455D01*
X9126Y5452D01*
X9130Y5447D01*
X9130Y5419D01*
X9126Y5413D01*
X9120Y5410D01*
X9103Y5410D01*
G54D11*
X9169Y5455D02*
X9142Y5455D01*
X9142Y5435D01*
X9145Y5435D01*
X9152Y5438D01*
X9159Y5438D01*
X9165Y5435D01*
X9169Y5430D01*
X9169Y5419D01*
X9165Y5413D01*
X9159Y5410D01*
X9152Y5410D01*
X9145Y5413D01*
X9142Y5419D01*
G54D10*
X8767Y5433D02*
X8779Y5426D01*
X8783Y5419D01*
X8783Y5406D01*
G54D10*
X8751Y5406D02*
X8751Y5459D01*
X8771Y5459D01*
X8779Y5456D01*
X8783Y5449D01*
X8783Y5443D01*
X8779Y5436D01*
X8771Y5433D01*
X8751Y5433D01*
G54D10*
X8798Y5459D02*
X8838Y5406D01*
G54D10*
X8798Y5406D02*
X8838Y5459D01*
G54D10*
X8529Y5406D02*
X8529Y5459D01*
G54D10*
X8513Y5459D02*
X8545Y5459D01*
G54D10*
X8560Y5459D02*
X8600Y5406D01*
G54D10*
X8560Y5406D02*
X8600Y5459D01*
G54D10*
X10181Y5705D02*
X10234Y5685D01*
X10181Y5665D01*
G54D10*
X10201Y5697D02*
X10201Y5673D01*
G54D10*
X10181Y5650D02*
X10234Y5650D01*
X10234Y5630D01*
X10231Y5622D01*
X10224Y5618D01*
X10191Y5618D01*
X10184Y5622D01*
X10181Y5630D01*
X10181Y5650D01*
G54D10*
X10224Y5603D02*
X10231Y5599D01*
X10234Y5591D01*
X10234Y5583D01*
X10231Y5575D01*
X10224Y5571D01*
X10218Y5571D01*
X10211Y5575D01*
X10208Y5583D01*
X10204Y5575D01*
X10198Y5571D01*
X10191Y5571D01*
X10184Y5575D01*
X10181Y5583D01*
X10181Y5591D01*
X10184Y5599D01*
X10191Y5603D01*
G54D12*
X9858Y3968D02*
X9762Y3968D01*
G54D10*
X8484Y3965D02*
X8488Y3972D01*
X8496Y3975D01*
X8504Y3975D01*
X8512Y3972D01*
X8516Y3965D01*
X8516Y3958D01*
X8512Y3952D01*
X8504Y3948D01*
X8512Y3945D01*
X8516Y3938D01*
X8516Y3932D01*
X8512Y3925D01*
X8504Y3922D01*
X8496Y3922D01*
X8488Y3925D01*
X8484Y3932D01*
G54D10*
X8540Y3922D02*
X8540Y3915D01*
X8536Y3908D01*
X8532Y3908D01*
G54D10*
X8554Y3965D02*
X8558Y3972D01*
X8566Y3975D01*
X8574Y3975D01*
X8582Y3972D01*
X8586Y3965D01*
X8586Y3958D01*
X8582Y3952D01*
X8574Y3948D01*
X8582Y3945D01*
X8586Y3938D01*
X8586Y3932D01*
X8582Y3925D01*
X8574Y3922D01*
X8566Y3922D01*
X8558Y3925D01*
X8554Y3932D01*
G54D10*
X8602Y3975D02*
X8622Y3922D01*
X8642Y3975D01*
G54D10*
X9492Y3958D02*
X9492Y4011D01*
X9512Y3978D01*
X9532Y4011D01*
X9532Y3958D01*
G54D10*
X9548Y3958D02*
X9548Y3988D01*
G54D10*
X9548Y3998D02*
X9548Y3998D01*
G54D10*
X9562Y3961D02*
X9570Y3958D01*
X9578Y3958D01*
X9586Y3961D01*
X9586Y3968D01*
X9582Y3971D01*
X9566Y3975D01*
X9562Y3978D01*
X9562Y3985D01*
X9570Y3988D01*
X9578Y3988D01*
X9586Y3985D01*
G54D10*
X9626Y3966D02*
X9626Y3979D01*
X9622Y3986D01*
X9614Y3988D01*
X9606Y3986D01*
X9602Y3979D01*
X9602Y3966D01*
X9606Y3959D01*
X9614Y3958D01*
X9622Y3959D01*
X9626Y3966D01*
G54D10*
X9231Y3958D02*
X9231Y4011D01*
X9251Y3978D01*
X9271Y4011D01*
X9271Y3958D01*
G54D10*
X9310Y3966D02*
X9310Y3979D01*
X9306Y3986D01*
X9298Y3988D01*
X9290Y3986D01*
X9286Y3979D01*
X9286Y3966D01*
X9290Y3959D01*
X9298Y3958D01*
X9306Y3959D01*
X9310Y3966D01*
G54D10*
X9325Y3961D02*
X9333Y3958D01*
X9341Y3958D01*
X9349Y3961D01*
X9349Y3968D01*
X9345Y3971D01*
X9329Y3975D01*
X9325Y3978D01*
X9325Y3985D01*
X9333Y3988D01*
X9341Y3988D01*
X9349Y3985D01*
G54D10*
X9364Y3958D02*
X9364Y3988D01*
G54D10*
X9364Y3998D02*
X9364Y3998D01*
G54D10*
X8986Y3960D02*
X8990Y3953D01*
X8998Y3950D01*
X9006Y3950D01*
X9014Y3953D01*
X9018Y3960D01*
X9018Y3967D01*
X9014Y3973D01*
X9006Y3977D01*
X8998Y3977D01*
X8990Y3980D01*
X8986Y3987D01*
X8986Y3993D01*
X8990Y4000D01*
X8998Y4003D01*
X9006Y4003D01*
X9014Y4000D01*
X9018Y3993D01*
G54D10*
X9064Y3960D02*
X9060Y3953D01*
X9052Y3950D01*
X9044Y3950D01*
X9036Y3953D01*
X9032Y3960D01*
X9032Y3993D01*
X9036Y4000D01*
X9044Y4003D01*
X9052Y4003D01*
X9060Y4000D01*
X9064Y3993D01*
G54D10*
X9080Y3950D02*
X9080Y4003D01*
G54D10*
X9080Y3967D02*
X9112Y4003D01*
G54D10*
X9092Y3977D02*
X9112Y3950D01*
G54D10*
X8748Y3977D02*
X8760Y3970D01*
X8764Y3963D01*
X8764Y3950D01*
G54D10*
X8732Y3950D02*
X8732Y4003D01*
X8752Y4003D01*
X8760Y4000D01*
X8764Y3993D01*
X8764Y3987D01*
X8760Y3980D01*
X8752Y3977D01*
X8732Y3977D01*
G54D10*
X8804Y3953D02*
X8797Y3950D01*
X8789Y3950D01*
X8781Y3953D01*
X8780Y3960D01*
X8780Y3971D01*
X8784Y3978D01*
X8792Y3980D01*
X8800Y3978D01*
X8804Y3973D01*
X8804Y3967D01*
X8780Y3967D01*
G54D10*
X8818Y3953D02*
X8826Y3950D01*
X8834Y3950D01*
X8842Y3953D01*
X8842Y3960D01*
X8838Y3963D01*
X8822Y3967D01*
X8818Y3970D01*
X8818Y3977D01*
X8826Y3980D01*
X8834Y3980D01*
X8842Y3977D01*
G54D13*
X10223Y4979D02*
X10143Y4979D01*
G54D13*
X10183Y5012D02*
X10183Y4946D01*
G54D10*
X10063Y3995D02*
X10031Y3995D01*
X10031Y3972D01*
X10035Y3972D01*
X10043Y3975D01*
X10051Y3975D01*
X10059Y3972D01*
X10063Y3965D01*
X10063Y3952D01*
X10059Y3945D01*
X10051Y3942D01*
X10043Y3942D01*
X10035Y3945D01*
X10031Y3952D01*
G54D10*
X10078Y3995D02*
X10098Y3942D01*
X10118Y3995D01*
G54D10*
X9909Y5418D02*
X9909Y5385D01*
X9905Y5378D01*
X9897Y5375D01*
X9889Y5375D01*
X9881Y5378D01*
X9877Y5385D01*
X9877Y5418D01*
X9881Y5425D01*
X9889Y5428D01*
X9897Y5428D01*
X9905Y5425D01*
X9909Y5418D01*
G54D10*
X9924Y5375D02*
X9924Y5428D01*
X9952Y5428D01*
G54D10*
X9924Y5402D02*
X9952Y5402D01*
G54D10*
X9967Y5375D02*
X9967Y5428D01*
X9995Y5428D01*
G54D10*
X9967Y5402D02*
X9995Y5402D01*
G54D10*
X9911Y5348D02*
X9911Y5315D01*
X9907Y5308D01*
X9899Y5305D01*
X9891Y5305D01*
X9883Y5308D01*
X9879Y5315D01*
X9879Y5348D01*
X9883Y5355D01*
X9891Y5358D01*
X9899Y5358D01*
X9907Y5355D01*
X9911Y5348D01*
G54D10*
X9926Y5305D02*
X9926Y5358D01*
X9958Y5305D01*
X9958Y5358D01*
G54D14*
X8332Y4089D02*
X8403Y4089D01*
X8364Y4128D01*
X8364Y4120D01*
X8332Y4089D01*
G54D14*
X8332Y4128D02*
X8395Y4128D01*
X8403Y4128D01*
G54D14*
X8530Y4573D02*
X8530Y4502D01*
X8569Y4542D01*
X8561Y4542D01*
X8530Y4573D01*
G54D14*
X8569Y4573D02*
X8569Y4510D01*
X8569Y4502D01*
G54D14*
X9022Y4343D02*
X9022Y4272D01*
X9061Y4311D01*
X9054Y4311D01*
X9022Y4343D01*
G54D14*
X9061Y4343D02*
X9061Y4280D01*
X9061Y4272D01*
G54D14*
X9371Y4327D02*
X9371Y4256D01*
X9411Y4295D01*
X9403Y4295D01*
X9371Y4327D01*
G54D14*
X9411Y4327D02*
X9411Y4264D01*
X9411Y4256D01*
G54D14*
X9720Y4407D02*
X9720Y4335D01*
X9760Y4375D01*
X9752Y4375D01*
X9720Y4407D01*
G54D14*
X9760Y4407D02*
X9760Y4343D01*
X9760Y4335D01*
G54D10*
X10340Y4931D02*
X10340Y4984D01*
G54D10*
X10372Y4931D02*
X10372Y4984D01*
G54D10*
X10340Y4957D02*
X10372Y4957D01*
G54D10*
X10340Y4534D02*
X10340Y4587D01*
G54D10*
X10372Y4534D02*
X10372Y4587D01*
G54D10*
X10340Y4560D02*
X10372Y4560D01*
G54D10*
X10339Y5192D02*
X10339Y5139D01*
X10367Y5139D01*
G54D10*
X10347Y4303D02*
X10347Y4250D01*
X10375Y4250D01*
G54D15*
X10358Y5273D02*
X10358Y5363D01*
G54D15*
X10358Y5614D02*
X10358Y5705D01*
G54D15*
X10358Y5463D02*
X10358Y5554D01*
G54D10*
X12052Y5470D02*
X12072Y5523D01*
X12092Y5470D01*
G54D10*
X12060Y5490D02*
X12084Y5490D01*
G54D10*
X12107Y5470D02*
X12107Y5523D01*
X12127Y5523D01*
X12135Y5520D01*
X12139Y5513D01*
X12139Y5480D01*
X12135Y5473D01*
X12127Y5470D01*
X12107Y5470D01*
G54D10*
X12186Y5470D02*
X12154Y5470D01*
X12154Y5473D01*
X12158Y5480D01*
X12182Y5500D01*
X12186Y5506D01*
X12186Y5513D01*
X12182Y5520D01*
X12174Y5523D01*
X12166Y5523D01*
X12158Y5520D01*
X12154Y5513D01*
G54D10*
X11828Y5513D02*
X11828Y5480D01*
X11824Y5473D01*
X11816Y5470D01*
X11808Y5470D01*
X11800Y5473D01*
X11796Y5480D01*
X11796Y5513D01*
X11800Y5520D01*
X11808Y5523D01*
X11816Y5523D01*
X11824Y5520D01*
X11828Y5513D01*
G54D10*
X11875Y5480D02*
X11871Y5473D01*
X11863Y5470D01*
X11855Y5470D01*
X11847Y5473D01*
X11843Y5480D01*
X11843Y5513D01*
X11847Y5520D01*
X11855Y5523D01*
X11863Y5523D01*
X11871Y5520D01*
X11875Y5513D01*
G54D10*
X11890Y5503D02*
X11910Y5523D01*
X11910Y5470D01*
G54D10*
X11925Y5496D02*
X11933Y5500D01*
X11943Y5500D01*
X11949Y5493D01*
X11949Y5470D01*
G54D10*
X11949Y5480D02*
X11945Y5486D01*
X11937Y5488D01*
X11929Y5486D01*
X11925Y5480D01*
X11927Y5473D01*
X11933Y5470D01*
X11937Y5470D01*
X11939Y5470D01*
X11945Y5473D01*
X11949Y5480D01*
G54D11*
X11501Y5411D02*
X11504Y5405D01*
X11511Y5402D01*
X11517Y5402D01*
X11524Y5405D01*
X11527Y5411D01*
X11527Y5416D01*
X11524Y5422D01*
X11517Y5425D01*
X11511Y5425D01*
X11504Y5428D01*
X11501Y5433D01*
X11501Y5439D01*
X11504Y5444D01*
X11511Y5447D01*
X11517Y5447D01*
X11524Y5444D01*
X11527Y5439D01*
G54D11*
X11540Y5402D02*
X11540Y5447D01*
X11556Y5447D01*
X11563Y5444D01*
X11566Y5439D01*
X11566Y5411D01*
X11563Y5405D01*
X11556Y5402D01*
X11540Y5402D01*
G54D11*
X11579Y5402D02*
X11595Y5447D01*
X11612Y5402D01*
G54D11*
X11585Y5419D02*
X11605Y5419D01*
G54D11*
X11624Y5402D02*
X11650Y5447D01*
G54D11*
X11663Y5402D02*
X11679Y5447D01*
X11696Y5402D01*
G54D11*
X11669Y5419D02*
X11689Y5419D01*
G54D11*
X11708Y5402D02*
X11708Y5447D01*
X11724Y5447D01*
X11731Y5444D01*
X11734Y5439D01*
X11734Y5411D01*
X11731Y5405D01*
X11724Y5402D01*
X11708Y5402D01*
G54D11*
X11767Y5402D02*
X11767Y5447D01*
X11747Y5419D01*
X11747Y5414D01*
X11773Y5414D01*
G54D11*
X11200Y5419D02*
X11203Y5413D01*
X11210Y5410D01*
X11217Y5410D01*
X11223Y5413D01*
X11227Y5419D01*
X11227Y5424D01*
X11223Y5430D01*
X11217Y5433D01*
X11210Y5433D01*
X11203Y5435D01*
X11200Y5441D01*
X11200Y5447D01*
X11203Y5452D01*
X11210Y5455D01*
X11217Y5455D01*
X11223Y5452D01*
X11227Y5447D01*
G54D11*
X11266Y5419D02*
X11262Y5413D01*
X11256Y5410D01*
X11249Y5410D01*
X11242Y5413D01*
X11239Y5419D01*
X11239Y5447D01*
X11242Y5452D01*
X11249Y5455D01*
X11256Y5455D01*
X11262Y5452D01*
X11266Y5447D01*
G54D11*
X11278Y5455D02*
X11278Y5410D01*
X11301Y5410D01*
G54D11*
X11313Y5410D02*
X11340Y5455D01*
G54D11*
X11352Y5410D02*
X11369Y5455D01*
X11385Y5410D01*
G54D11*
X11359Y5427D02*
X11379Y5427D01*
G54D11*
X11397Y5410D02*
X11397Y5455D01*
X11414Y5455D01*
X11420Y5452D01*
X11424Y5447D01*
X11424Y5419D01*
X11420Y5413D01*
X11414Y5410D01*
X11397Y5410D01*
G54D11*
X11463Y5455D02*
X11436Y5455D01*
X11436Y5435D01*
X11439Y5435D01*
X11446Y5438D01*
X11453Y5438D01*
X11459Y5435D01*
X11463Y5430D01*
X11463Y5419D01*
X11459Y5413D01*
X11453Y5410D01*
X11446Y5410D01*
X11439Y5413D01*
X11436Y5419D01*
G54D10*
X11061Y5433D02*
X11073Y5426D01*
X11077Y5419D01*
X11077Y5406D01*
G54D10*
X11045Y5406D02*
X11045Y5459D01*
X11065Y5459D01*
X11073Y5456D01*
X11077Y5449D01*
X11077Y5443D01*
X11073Y5436D01*
X11065Y5433D01*
X11045Y5433D01*
G54D10*
X11092Y5459D02*
X11132Y5406D01*
G54D10*
X11092Y5406D02*
X11132Y5459D01*
G54D10*
X10823Y5406D02*
X10823Y5459D01*
G54D10*
X10807Y5459D02*
X10839Y5459D01*
G54D10*
X10854Y5459D02*
X10894Y5406D01*
G54D10*
X10854Y5406D02*
X10894Y5459D01*
G54D10*
X12475Y5705D02*
X12528Y5685D01*
X12475Y5665D01*
G54D10*
X12495Y5697D02*
X12495Y5673D01*
G54D10*
X12475Y5650D02*
X12528Y5650D01*
X12528Y5630D01*
X12525Y5622D01*
X12518Y5618D01*
X12485Y5618D01*
X12478Y5622D01*
X12475Y5630D01*
X12475Y5650D01*
G54D10*
X12518Y5603D02*
X12525Y5599D01*
X12528Y5591D01*
X12528Y5583D01*
X12525Y5575D01*
X12518Y5571D01*
X12512Y5571D01*
X12505Y5575D01*
X12502Y5583D01*
X12498Y5575D01*
X12492Y5571D01*
X12485Y5571D01*
X12478Y5575D01*
X12475Y5583D01*
X12475Y5591D01*
X12478Y5599D01*
X12485Y5603D01*
G54D12*
X12152Y3968D02*
X12056Y3968D01*
G54D10*
X10778Y3965D02*
X10782Y3972D01*
X10790Y3975D01*
X10798Y3975D01*
X10806Y3972D01*
X10810Y3965D01*
X10810Y3958D01*
X10806Y3952D01*
X10798Y3948D01*
X10806Y3945D01*
X10810Y3938D01*
X10810Y3932D01*
X10806Y3925D01*
X10798Y3922D01*
X10790Y3922D01*
X10782Y3925D01*
X10778Y3932D01*
G54D10*
X10833Y3922D02*
X10833Y3915D01*
X10829Y3908D01*
X10825Y3908D01*
G54D10*
X10848Y3965D02*
X10852Y3972D01*
X10860Y3975D01*
X10868Y3975D01*
X10876Y3972D01*
X10880Y3965D01*
X10880Y3958D01*
X10876Y3952D01*
X10868Y3948D01*
X10876Y3945D01*
X10880Y3938D01*
X10880Y3932D01*
X10876Y3925D01*
X10868Y3922D01*
X10860Y3922D01*
X10852Y3925D01*
X10848Y3932D01*
G54D10*
X10895Y3975D02*
X10915Y3922D01*
X10935Y3975D01*
G54D10*
X11786Y3958D02*
X11786Y4011D01*
X11806Y3978D01*
X11826Y4011D01*
X11826Y3958D01*
G54D10*
X11841Y3958D02*
X11841Y3988D01*
G54D10*
X11841Y3998D02*
X11841Y3998D01*
G54D10*
X11856Y3961D02*
X11864Y3958D01*
X11872Y3958D01*
X11880Y3961D01*
X11880Y3968D01*
X11876Y3971D01*
X11860Y3975D01*
X11856Y3978D01*
X11856Y3985D01*
X11864Y3988D01*
X11872Y3988D01*
X11880Y3985D01*
G54D10*
X11919Y3966D02*
X11919Y3979D01*
X11915Y3986D01*
X11907Y3988D01*
X11899Y3986D01*
X11895Y3979D01*
X11895Y3966D01*
X11899Y3959D01*
X11907Y3958D01*
X11915Y3959D01*
X11919Y3966D01*
G54D10*
X11524Y3958D02*
X11524Y4011D01*
X11544Y3978D01*
X11564Y4011D01*
X11564Y3958D01*
G54D10*
X11604Y3966D02*
X11604Y3979D01*
X11600Y3986D01*
X11592Y3988D01*
X11584Y3986D01*
X11580Y3979D01*
X11580Y3966D01*
X11584Y3959D01*
X11592Y3958D01*
X11600Y3959D01*
X11604Y3966D01*
G54D10*
X11618Y3961D02*
X11626Y3958D01*
X11634Y3958D01*
X11642Y3961D01*
X11642Y3968D01*
X11638Y3971D01*
X11622Y3975D01*
X11618Y3978D01*
X11618Y3985D01*
X11626Y3988D01*
X11634Y3988D01*
X11642Y3985D01*
G54D10*
X11658Y3958D02*
X11658Y3988D01*
G54D10*
X11658Y3998D02*
X11658Y3998D01*
G54D10*
X11279Y3960D02*
X11283Y3953D01*
X11291Y3950D01*
X11299Y3950D01*
X11307Y3953D01*
X11311Y3960D01*
X11311Y3967D01*
X11307Y3973D01*
X11299Y3977D01*
X11291Y3977D01*
X11283Y3980D01*
X11279Y3987D01*
X11279Y3993D01*
X11283Y4000D01*
X11291Y4003D01*
X11299Y4003D01*
X11307Y4000D01*
X11311Y3993D01*
G54D10*
X11358Y3960D02*
X11354Y3953D01*
X11346Y3950D01*
X11338Y3950D01*
X11330Y3953D01*
X11326Y3960D01*
X11326Y3993D01*
X11330Y4000D01*
X11338Y4003D01*
X11346Y4003D01*
X11354Y4000D01*
X11358Y3993D01*
G54D10*
X11373Y3950D02*
X11373Y4003D01*
G54D10*
X11373Y3967D02*
X11405Y4003D01*
G54D10*
X11385Y3977D02*
X11405Y3950D01*
G54D10*
X11042Y3977D02*
X11054Y3970D01*
X11058Y3963D01*
X11058Y3950D01*
G54D10*
X11026Y3950D02*
X11026Y4003D01*
X11046Y4003D01*
X11054Y4000D01*
X11058Y3993D01*
X11058Y3987D01*
X11054Y3980D01*
X11046Y3977D01*
X11026Y3977D01*
G54D10*
X11097Y3953D02*
X11091Y3950D01*
X11083Y3950D01*
X11075Y3953D01*
X11073Y3960D01*
X11073Y3971D01*
X11077Y3978D01*
X11085Y3980D01*
X11093Y3978D01*
X11097Y3973D01*
X11097Y3967D01*
X11073Y3967D01*
G54D10*
X11112Y3953D02*
X11120Y3950D01*
X11128Y3950D01*
X11136Y3953D01*
X11136Y3960D01*
X11132Y3963D01*
X11116Y3967D01*
X11112Y3970D01*
X11112Y3977D01*
X11120Y3980D01*
X11128Y3980D01*
X11136Y3977D01*
G54D13*
X12517Y4979D02*
X12437Y4979D01*
G54D13*
X12477Y5012D02*
X12477Y4946D01*
G54D10*
X12357Y3995D02*
X12325Y3995D01*
X12325Y3972D01*
X12329Y3972D01*
X12337Y3975D01*
X12345Y3975D01*
X12353Y3972D01*
X12357Y3965D01*
X12357Y3952D01*
X12353Y3945D01*
X12345Y3942D01*
X12337Y3942D01*
X12329Y3945D01*
X12325Y3952D01*
G54D10*
X12372Y3995D02*
X12392Y3942D01*
X12412Y3995D01*
G54D10*
X12203Y5418D02*
X12203Y5385D01*
X12199Y5378D01*
X12191Y5375D01*
X12183Y5375D01*
X12175Y5378D01*
X12171Y5385D01*
X12171Y5418D01*
X12175Y5425D01*
X12183Y5428D01*
X12191Y5428D01*
X12199Y5425D01*
X12203Y5418D01*
G54D10*
X12218Y5375D02*
X12218Y5428D01*
X12246Y5428D01*
G54D10*
X12218Y5402D02*
X12246Y5402D01*
G54D10*
X12261Y5375D02*
X12261Y5428D01*
X12289Y5428D01*
G54D10*
X12261Y5402D02*
X12289Y5402D01*
G54D10*
X12205Y5348D02*
X12205Y5315D01*
X12201Y5308D01*
X12193Y5305D01*
X12185Y5305D01*
X12177Y5308D01*
X12173Y5315D01*
X12173Y5348D01*
X12177Y5355D01*
X12185Y5358D01*
X12193Y5358D01*
X12201Y5355D01*
X12205Y5348D01*
G54D10*
X12220Y5305D02*
X12220Y5358D01*
X12252Y5305D01*
X12252Y5358D01*
G54D14*
X10626Y4089D02*
X10697Y4089D01*
X10658Y4128D01*
X10658Y4120D01*
X10626Y4089D01*
G54D14*
X10626Y4128D02*
X10689Y4128D01*
X10697Y4128D01*
G54D14*
X10824Y4573D02*
X10824Y4502D01*
X10863Y4542D01*
X10855Y4542D01*
X10824Y4573D01*
G54D14*
X10863Y4573D02*
X10863Y4510D01*
X10863Y4502D01*
G54D14*
X11316Y4343D02*
X11316Y4272D01*
X11355Y4311D01*
X11347Y4311D01*
X11316Y4343D01*
G54D14*
X11355Y4343D02*
X11355Y4280D01*
X11355Y4272D01*
G54D14*
X11665Y4327D02*
X11665Y4256D01*
X11705Y4295D01*
X11697Y4295D01*
X11665Y4327D01*
G54D14*
X11705Y4327D02*
X11705Y4264D01*
X11705Y4256D01*
G54D14*
X12014Y4407D02*
X12014Y4335D01*
X12054Y4375D01*
X12046Y4375D01*
X12014Y4407D01*
G54D14*
X12054Y4407D02*
X12054Y4343D01*
X12054Y4335D01*
G54D10*
X12634Y4931D02*
X12634Y4984D01*
G54D10*
X12666Y4931D02*
X12666Y4984D01*
G54D10*
X12634Y4957D02*
X12666Y4957D01*
G54D10*
X12634Y4534D02*
X12634Y4587D01*
G54D10*
X12666Y4534D02*
X12666Y4587D01*
G54D10*
X12634Y4560D02*
X12666Y4560D01*
G54D10*
X12633Y5192D02*
X12633Y5139D01*
X12661Y5139D01*
G54D10*
X12641Y4303D02*
X12641Y4250D01*
X12669Y4250D01*
G54D15*
X12652Y5273D02*
X12652Y5363D01*
G54D15*
X12652Y5614D02*
X12652Y5705D01*
G54D15*
X12652Y5463D02*
X12652Y5554D01*
M02*
