; Drill file
; Format: 2.4 (00.0000)
M48
INCH
T01C0.012
T02C0.031
%
G05
G90
T01
X032940Y015740
X033280Y015810
X034220Y016870
X034590Y017620
X034220Y017710
X033750Y018460
X034190Y018710
X034970Y019030
X033910Y019930
X033630Y020310
X033410Y020840
X033030Y020810
X032970Y021400
X032940Y022210
X032940Y023840
X033280Y023900
X034220Y024960
X034590Y025710
X034220Y025810
X033750Y026560
X034190Y026810
X034970Y027120
X033910Y028030
X033630Y028400
X033410Y028930
X033030Y028900
X032970Y029500
X032940Y030310
X034220Y028870
X035440Y028650
X035780Y028650
X036060Y028530
X036340Y028340
X036560Y028650
X037060Y028500
X037310Y028030
X037560Y028280
X038190Y029150
X039160Y028840
X039250Y028030
X039370Y027650
X038970Y027590
X038970Y026810
X037500Y026620
X036720Y025930
X036410Y025930
X035810Y025960
X036000Y025000
X037280Y024740
X038000Y025240
X037810Y025500
X038440Y024840
X039130Y024840
X039190Y025310
X040410Y024870
X040530Y025500
X040530Y026530
X040500Y027340
X040500Y028400
X040500Y028840
X040470Y030280
X041970Y030310
X042000Y029500
X042060Y028900
X042440Y028930
X042660Y028400
X042940Y028030
X042090Y028030
X043250Y028870
X044470Y028650
X044810Y028650
X045090Y028530
X045370Y028340
X045590Y028650
X046090Y028500
X046340Y028030
X046590Y028280
X047220Y029150
X048190Y028840
X048280Y028030
X048410Y027650
X048000Y027590
X048000Y026810
X046530Y026620
X045750Y025930
X045440Y025930
X044840Y025960
X045030Y025000
X046310Y024740
X047030Y025240
X046840Y025500
X047470Y024840
X048160Y024840
X048220Y025310
X049440Y024870
X049560Y025500
X049560Y026530
X049530Y027340
X049530Y028400
X049530Y028840
X049500Y030280
X044000Y027120
X043220Y026810
X042780Y026560
X043250Y025810
X043630Y025710
X043250Y024960
X042310Y023900
X041970Y023840
X040370Y023870
X040470Y022180
X040500Y020740
X040500Y020310
X040500Y019240
X040530Y018430
X040530Y017400
X040410Y016780
X040370Y015780
X039130Y016740
X039190Y017210
X038440Y016740
X038000Y017150
X037810Y017400
X037280Y016650
X036000Y016900
X035810Y017870
X036410Y017840
X036720Y017840
X037500Y018530
X037310Y019930
X037560Y020180
X037060Y020400
X036560Y020560
X036340Y020240
X036060Y020430
X035780Y020560
X035440Y020560
X034220Y020780
X033060Y019930
X032840Y017930
X038970Y018710
X038970Y019500
X039370Y019560
X039250Y019930
X039160Y020740
X038190Y021060
X042000Y021400
X042060Y020810
X042440Y020840
X042660Y020310
X042940Y019930
X042090Y019930
X043250Y020780
X044470Y020560
X044810Y020560
X045090Y020430
X045370Y020240
X045590Y020560
X046090Y020400
X046340Y019930
X046590Y020180
X047220Y021060
X048190Y020740
X048280Y019930
X048410Y019560
X048000Y019500
X048000Y018710
X046530Y018530
X045750Y017840
X045440Y017840
X044840Y017870
X045030Y016900
X046310Y016650
X047030Y017150
X046840Y017400
X047470Y016740
X048160Y016740
X048220Y017210
X049440Y016780
X049560Y017400
X049560Y018430
X049530Y019240
X049530Y020310
X049530Y020740
X049500Y022180
X049410Y023870
X044000Y019030
X043220Y018710
X042780Y018460
X043250Y017710
X043630Y017620
X043250Y016870
X042310Y015810
X041970Y015740
X041870Y017930
X041970Y022210
X041870Y026030
X032840Y026030
X033060Y028030
X049410Y015780
T02
X033660Y016150
X034660Y016150
X035660Y016150
X036660Y016150
X037660Y016150
X038660Y016150
X039660Y016120
X042690Y016150
X043690Y016150
X044690Y016150
X045690Y016150
X046690Y016150
X047690Y016150
X048690Y016120
X048910Y021180
X048690Y022150
X047690Y022150
X046690Y022150
X045690Y022150
X044690Y022150
X043690Y022150
X042690Y022150
X042690Y024240
X043690Y024240
X044690Y024240
X045690Y024240
X046690Y024240
X047690Y024240
X048690Y024210
X048910Y029280
X048690Y030240
X047690Y030240
X046690Y030240
X045690Y030240
X044690Y030240
X043690Y030240
X042690Y030240
X039870Y029280
X039660Y030240
X038660Y030240
X037660Y030240
X036660Y030240
X035660Y030240
X034660Y030240
X033660Y030240
X033660Y024240
X034660Y024240
X035660Y024240
X036660Y024240
X037660Y024240
X038660Y024240
X039660Y024210
X039660Y022150
X039870Y021180
X038660Y022150
X037660Y022150
X036660Y022150
X035660Y022150
X034660Y022150
X033660Y022150
M30
