%FSLAX32Y32*%
%MOMM*%
%LNKUPFERSEITE2*%
G71*
G01*
%ADD10C, 1.10*%
%ADD11C, 0.60*%
%ADD12C, 1.70*%
%ADD13C, 1.60*%
%ADD14C, 0.30*%
%ADD15C, 1.80*%
%ADD16C, 1.00*%
%LPD*%
X9977Y6324D02*
G54D10*
D03*
X8387Y6324D02*
G54D10*
D03*
X9977Y6524D02*
G54D10*
D03*
X8387Y6524D02*
G54D10*
D03*
X9977Y6724D02*
G54D10*
D03*
X8387Y6724D02*
G54D10*
D03*
X9977Y6924D02*
G54D10*
D03*
X8387Y6924D02*
G54D10*
D03*
X9977Y7124D02*
G54D10*
D03*
X8387Y7124D02*
G54D10*
D03*
X9977Y7324D02*
G54D10*
D03*
X8387Y7324D02*
G54D10*
D03*
X9977Y7524D02*
G54D10*
D03*
X8387Y7524D02*
G54D10*
D03*
X9160Y7246D02*
G54D11*
D03*
X9819Y6158D02*
G54D12*
D03*
X9565Y6158D02*
G54D12*
D03*
X9311Y6158D02*
G54D12*
D03*
X9057Y6158D02*
G54D13*
D03*
X8803Y6158D02*
G54D12*
D03*
X8549Y6158D02*
G54D12*
D03*
G54D14*
X9604Y6476D02*
X9739Y6476D01*
X9977Y6714D01*
X9604Y6476D02*
G54D11*
D03*
G54D14*
X9946Y6500D02*
X9882Y6500D01*
X9668Y6349D01*
X9602Y6351D01*
X9267Y6353D01*
X9154Y6422D01*
X9046Y6425D01*
X9041Y6380D01*
X9041Y6206D01*
X9247Y6587D02*
G54D11*
D03*
G54D14*
X9247Y6587D02*
X9247Y7103D01*
X9573Y7603D01*
X9327Y6587D02*
G54D11*
D03*
G54D14*
X9327Y6587D02*
X9327Y7087D01*
G54D14*
X8541Y7627D02*
X8604Y7595D01*
X8715Y7484D01*
X8922Y7277D01*
X9001Y7277D01*
X9001Y7277D02*
G54D11*
D03*
X9088Y7277D02*
G54D11*
D03*
G54D14*
X9088Y7277D02*
X9088Y7325D01*
X9073Y7341D01*
X8930Y7341D01*
X8795Y7476D01*
X8795Y7611D01*
G54D14*
X9057Y7611D02*
X9057Y7555D01*
X9120Y7492D01*
X9223Y7492D01*
X9223Y7321D01*
X9223Y7198D01*
G54D14*
X9287Y7277D02*
X9323Y7325D01*
X9327Y7611D01*
X8684Y6809D02*
G54D11*
D03*
G54D14*
X8612Y7135D02*
X8612Y7317D01*
X8430Y7500D01*
X9819Y7682D02*
G54D12*
D03*
X9565Y7682D02*
G54D12*
D03*
X9311Y7682D02*
G54D12*
D03*
X9057Y7682D02*
G54D12*
D03*
X8803Y7682D02*
G54D12*
D03*
X8549Y7682D02*
G54D12*
D03*
X8787Y6531D02*
G54D11*
D03*
G54D14*
X8787Y6531D02*
X8826Y6575D01*
X8826Y6825D01*
X8882Y6888D01*
X8882Y6888D02*
G54D11*
D03*
X10073Y6150D02*
G54D15*
D03*
X8612Y7119D02*
G54D11*
D03*
X8692Y7333D02*
G54D11*
D03*
G54D14*
X8692Y7333D02*
X8692Y6904D01*
X8668Y6801D01*
X8541Y7214D02*
G54D11*
D03*
G54D14*
X8541Y7214D02*
X8541Y6841D01*
X8430Y6730D01*
G54D14*
X9977Y6928D02*
X9462Y6928D01*
X9462Y7111D01*
X9477Y7119D02*
G54D11*
D03*
X10073Y7682D02*
G54D15*
D03*
X10128Y7436D02*
G54D12*
D03*
X8692Y6341D02*
G54D11*
D03*
G54D14*
X8700Y6523D02*
X8700Y6238D01*
X8676Y6214D01*
X8676Y6039D01*
X9938Y6039D01*
X10041Y6142D01*
G54D14*
X8430Y6928D02*
X8430Y6952D01*
X8485Y7008D01*
X8485Y7174D01*
X8461Y7198D01*
X8461Y7254D01*
X8481Y7285D01*
X8485Y7349D01*
X8485Y7349D02*
G54D11*
D03*
X9652Y6412D02*
G54D11*
D03*
G54D14*
X9652Y6412D02*
X9271Y6412D01*
X9088Y6595D01*
G54D14*
X8811Y6230D02*
X8811Y6309D01*
X8811Y6325D01*
X8878Y6369D01*
X8993Y6508D01*
X8993Y6587D01*
X9168Y6762D01*
X9168Y7254D01*
X9096Y6595D02*
G54D11*
D03*
X9898Y7008D02*
G54D11*
D03*
G54D14*
X9906Y7016D02*
X9882Y7016D01*
X9819Y7079D01*
X9819Y7174D01*
X9946Y7301D01*
X9144Y6349D02*
G54D11*
D03*
X9469Y6285D02*
G54D11*
D03*
X9763Y6309D02*
G54D11*
D03*
G54D14*
X9144Y6333D02*
X9168Y6333D01*
X9200Y6301D01*
X9454Y6301D01*
X9469Y6285D01*
X9739Y6285D01*
X9763Y6309D01*
G54D16*
X9977Y7524D02*
X10073Y7524D01*
X10128Y7436D01*
X9700Y7404D02*
G54D11*
D03*
X9541Y7182D02*
G54D11*
D03*
G54D14*
X9541Y7182D02*
X9541Y7246D01*
X9700Y7404D01*
G36*
X10053Y7329D02*
X10203Y7329D01*
X10203Y7179D01*
X10053Y7179D01*
X10053Y7329D01*
G37*
G54D16*
X9970Y7127D02*
X10104Y7238D01*
X10144Y7238D01*
X8390Y7341D02*
G54D11*
D03*
X8398Y7119D02*
G54D11*
D03*
X8342Y6611D02*
G54D11*
D03*
X8366Y6055D02*
G54D11*
D03*
X9946Y7325D02*
G54D11*
D03*
X9970Y7119D02*
G54D11*
D03*
X9954Y6428D02*
G54D11*
D03*
X9938Y6309D02*
G54D11*
D03*
X8572Y6746D02*
G54D11*
D03*
G54D14*
X8612Y7135D02*
X8612Y6833D01*
X8565Y6754D01*
G54D14*
X8374Y6047D02*
X8374Y6309D01*
G54D14*
X8342Y6611D02*
X8342Y6579D01*
X8366Y6555D01*
G54D14*
X8668Y6793D02*
X8668Y6746D01*
X8549Y6627D01*
X8493Y6627D01*
X8493Y6222D01*
X8517Y6198D01*
X8692Y6555D02*
G54D11*
D03*
G54D14*
X8700Y6523D02*
X8700Y6634D01*
X8763Y6698D01*
X8755Y7214D01*
X8819Y7301D01*
X8612Y7508D01*
X8525Y7539D01*
X8366Y7698D01*
X8366Y7698D02*
G54D11*
D03*
X8374Y7492D02*
G54D11*
D03*
G36*
X10343Y6963D02*
X10233Y6963D01*
X10233Y7073D01*
X10343Y7073D01*
X10343Y6963D01*
G37*
G36*
X10153Y6963D02*
X10043Y6963D01*
X10043Y7073D01*
X10153Y7073D01*
X10153Y6963D01*
G37*
G36*
X10248Y6741D02*
X10138Y6741D01*
X10138Y6851D01*
X10248Y6851D01*
X10248Y6741D01*
G37*
X8453Y6071D02*
G54D11*
D03*
G54D14*
X8453Y6063D02*
X8525Y5992D01*
X10096Y5992D01*
X10319Y5992D01*
X10319Y6214D01*
G36*
X10351Y6558D02*
X10241Y6558D01*
X10241Y6668D01*
X10351Y6668D01*
X10351Y6558D01*
G37*
G36*
X10161Y6558D02*
X10051Y6558D01*
X10051Y6668D01*
X10161Y6668D01*
X10161Y6558D01*
G37*
G36*
X10256Y6336D02*
X10146Y6336D01*
X10146Y6446D01*
X10256Y6446D01*
X10256Y6336D01*
G37*
G54D14*
X10073Y6992D02*
X10073Y6634D01*
X10295Y6476D02*
G54D11*
D03*
X10287Y6944D02*
G54D11*
D03*
X10295Y6738D02*
G54D11*
D03*
G54D14*
X10287Y6611D02*
X10287Y6484D01*
G54D14*
X10295Y6746D02*
X10295Y6698D01*
X10128Y6698D01*
X10096Y6666D01*
G54D14*
X10279Y7206D02*
X10255Y7166D01*
X10219Y7143D01*
X10190Y7113D01*
X10192Y7071D01*
X10192Y6817D01*
X10287Y7214D02*
G54D11*
D03*
X10263Y6317D02*
G54D11*
D03*
G54D14*
X10231Y6357D02*
X10231Y6333D01*
X10255Y6309D01*
X10255Y6063D02*
G54D11*
D03*
G54D14*
X10128Y6119D02*
X10192Y6119D01*
X10247Y6063D01*
G54D14*
X10089Y6587D02*
X10089Y6325D01*
X10118Y6299D01*
X10164Y6273D01*
X10241Y6224D01*
X10319Y6222D01*
G36*
X10251Y7274D02*
X10371Y7274D01*
X10371Y7154D01*
X10251Y7154D01*
X10251Y7274D01*
G37*
G36*
X10251Y6385D02*
X10371Y6385D01*
X10371Y6265D01*
X10251Y6265D01*
X10251Y6385D01*
G37*
G36*
X10251Y6663D02*
X10371Y6663D01*
X10371Y6543D01*
X10251Y6543D01*
X10251Y6663D01*
G37*
G36*
X10251Y7115D02*
X10371Y7115D01*
X10371Y6995D01*
X10251Y6995D01*
X10251Y7115D01*
G37*
G54D14*
X9954Y6428D02*
X9954Y6500D01*
X9962Y6508D01*
X10001Y7023D02*
G54D11*
D03*
G54D14*
X10001Y7023D02*
X10089Y7023D01*
X9898Y6809D02*
G54D11*
D03*
X9525Y6762D02*
G54D11*
D03*
G54D14*
X9525Y6762D02*
X9850Y6762D01*
X9898Y6809D01*
G36*
X10251Y7433D02*
X10371Y7433D01*
X10371Y7313D01*
X10251Y7313D01*
X10251Y7433D01*
G37*
X10287Y7325D02*
G54D11*
D03*
G36*
X10243Y7777D02*
X10363Y7777D01*
X10363Y7477D01*
X10243Y7477D01*
X10243Y7777D01*
G37*
X10279Y7690D02*
G54D11*
D03*
X9231Y7198D02*
G54D11*
D03*
X9287Y7277D02*
G54D11*
D03*
X9414Y7238D02*
G54D11*
D03*
G54D14*
X9787Y7627D02*
X9561Y7424D01*
X9414Y7238D01*
G54D14*
X9327Y7087D02*
X9374Y7166D01*
X12271Y6324D02*
G54D10*
D03*
X10681Y6324D02*
G54D10*
D03*
X12271Y6524D02*
G54D10*
D03*
X10681Y6524D02*
G54D10*
D03*
X12271Y6724D02*
G54D10*
D03*
X10681Y6724D02*
G54D10*
D03*
X12271Y6924D02*
G54D10*
D03*
X10681Y6924D02*
G54D10*
D03*
X12271Y7124D02*
G54D10*
D03*
X10681Y7124D02*
G54D10*
D03*
X12271Y7324D02*
G54D10*
D03*
X10681Y7324D02*
G54D10*
D03*
X12271Y7524D02*
G54D10*
D03*
X10681Y7524D02*
G54D10*
D03*
X11454Y7246D02*
G54D11*
D03*
X12113Y6158D02*
G54D12*
D03*
X11859Y6158D02*
G54D12*
D03*
X11605Y6158D02*
G54D12*
D03*
X11351Y6158D02*
G54D13*
D03*
X11097Y6158D02*
G54D12*
D03*
X10843Y6158D02*
G54D12*
D03*
G54D14*
X11898Y6476D02*
X12033Y6476D01*
X12271Y6714D01*
X11898Y6476D02*
G54D11*
D03*
G54D14*
X12240Y6500D02*
X12176Y6500D01*
X11962Y6349D01*
X11896Y6351D01*
X11561Y6353D01*
X11448Y6422D01*
X11340Y6425D01*
X11335Y6380D01*
X11335Y6206D01*
X11541Y6587D02*
G54D11*
D03*
G54D14*
X11541Y6587D02*
X11541Y7103D01*
X11867Y7603D01*
X11620Y6587D02*
G54D11*
D03*
G54D14*
X11620Y6587D02*
X11620Y7087D01*
G54D14*
X10835Y7627D02*
X10898Y7595D01*
X11009Y7484D01*
X11216Y7277D01*
X11295Y7277D01*
X11295Y7277D02*
G54D11*
D03*
X11382Y7277D02*
G54D11*
D03*
G54D14*
X11382Y7277D02*
X11382Y7325D01*
X11366Y7341D01*
X11224Y7341D01*
X11089Y7476D01*
X11089Y7611D01*
G54D14*
X11351Y7611D02*
X11351Y7555D01*
X11414Y7492D01*
X11517Y7492D01*
X11517Y7321D01*
X11517Y7198D01*
G54D14*
X11581Y7277D02*
X11617Y7325D01*
X11620Y7611D01*
X10978Y6809D02*
G54D11*
D03*
G54D14*
X10906Y7135D02*
X10906Y7317D01*
X10724Y7500D01*
X12113Y7682D02*
G54D12*
D03*
X11859Y7682D02*
G54D12*
D03*
X11605Y7682D02*
G54D12*
D03*
X11351Y7682D02*
G54D12*
D03*
X11097Y7682D02*
G54D12*
D03*
X10843Y7682D02*
G54D12*
D03*
X11081Y6531D02*
G54D11*
D03*
G54D14*
X11081Y6531D02*
X11120Y6575D01*
X11120Y6825D01*
X11176Y6888D01*
X11176Y6888D02*
G54D11*
D03*
X12367Y6150D02*
G54D15*
D03*
X10906Y7119D02*
G54D11*
D03*
X10986Y7333D02*
G54D11*
D03*
G54D14*
X10986Y7333D02*
X10986Y6904D01*
X10962Y6801D01*
X10835Y7214D02*
G54D11*
D03*
G54D14*
X10835Y7214D02*
X10835Y6841D01*
X10724Y6730D01*
G54D14*
X12271Y6928D02*
X11755Y6928D01*
X11755Y7111D01*
X11771Y7119D02*
G54D11*
D03*
X12367Y7682D02*
G54D15*
D03*
X12422Y7436D02*
G54D12*
D03*
X10986Y6341D02*
G54D11*
D03*
G54D14*
X10993Y6523D02*
X10993Y6238D01*
X10970Y6214D01*
X10970Y6039D01*
X12232Y6039D01*
X12335Y6142D01*
G54D14*
X10724Y6928D02*
X10724Y6952D01*
X10779Y7008D01*
X10779Y7174D01*
X10755Y7198D01*
X10755Y7254D01*
X10775Y7285D01*
X10779Y7349D01*
X10779Y7349D02*
G54D11*
D03*
X11946Y6412D02*
G54D11*
D03*
G54D14*
X11946Y6412D02*
X11565Y6412D01*
X11382Y6595D01*
G54D14*
X11105Y6230D02*
X11105Y6309D01*
X11105Y6325D01*
X11172Y6369D01*
X11287Y6508D01*
X11287Y6587D01*
X11462Y6762D01*
X11462Y7254D01*
X11390Y6595D02*
G54D11*
D03*
X12192Y7008D02*
G54D11*
D03*
G54D14*
X12200Y7016D02*
X12176Y7016D01*
X12113Y7079D01*
X12113Y7174D01*
X12240Y7301D01*
X11438Y6349D02*
G54D11*
D03*
X11763Y6285D02*
G54D11*
D03*
X12057Y6309D02*
G54D11*
D03*
G54D14*
X11438Y6333D02*
X11462Y6333D01*
X11494Y6301D01*
X11748Y6301D01*
X11763Y6285D01*
X12033Y6285D01*
X12057Y6309D01*
G54D16*
X12271Y7524D02*
X12367Y7524D01*
X12422Y7436D01*
X11994Y7404D02*
G54D11*
D03*
X11835Y7182D02*
G54D11*
D03*
G54D14*
X11835Y7182D02*
X11835Y7246D01*
X11994Y7404D01*
G36*
X12347Y7329D02*
X12497Y7329D01*
X12497Y7179D01*
X12347Y7179D01*
X12347Y7329D01*
G37*
G54D16*
X12263Y7127D02*
X12398Y7238D01*
X12438Y7238D01*
X10684Y7341D02*
G54D11*
D03*
X10692Y7119D02*
G54D11*
D03*
X10636Y6611D02*
G54D11*
D03*
X10660Y6055D02*
G54D11*
D03*
X12240Y7325D02*
G54D11*
D03*
X12263Y7119D02*
G54D11*
D03*
X12248Y6428D02*
G54D11*
D03*
X12232Y6309D02*
G54D11*
D03*
X10866Y6746D02*
G54D11*
D03*
G54D14*
X10906Y7135D02*
X10906Y6833D01*
X10858Y6754D01*
G54D14*
X10668Y6047D02*
X10668Y6309D01*
G54D14*
X10636Y6611D02*
X10636Y6579D01*
X10660Y6555D01*
G54D14*
X10962Y6793D02*
X10962Y6746D01*
X10843Y6627D01*
X10787Y6627D01*
X10787Y6222D01*
X10811Y6198D01*
X10986Y6555D02*
G54D11*
D03*
G54D14*
X10993Y6523D02*
X10993Y6634D01*
X11057Y6698D01*
X11049Y7214D01*
X11112Y7301D01*
X10906Y7508D01*
X10819Y7539D01*
X10660Y7698D01*
X10660Y7698D02*
G54D11*
D03*
X10668Y7492D02*
G54D11*
D03*
G36*
X12637Y6963D02*
X12527Y6963D01*
X12527Y7073D01*
X12637Y7073D01*
X12637Y6963D01*
G37*
G36*
X12447Y6963D02*
X12337Y6963D01*
X12337Y7073D01*
X12447Y7073D01*
X12447Y6963D01*
G37*
G36*
X12542Y6741D02*
X12432Y6741D01*
X12432Y6851D01*
X12542Y6851D01*
X12542Y6741D01*
G37*
X10747Y6071D02*
G54D11*
D03*
G54D14*
X10747Y6063D02*
X10819Y5992D01*
X12390Y5992D01*
X12613Y5992D01*
X12613Y6214D01*
G36*
X12645Y6558D02*
X12535Y6558D01*
X12535Y6668D01*
X12645Y6668D01*
X12645Y6558D01*
G37*
G36*
X12455Y6558D02*
X12345Y6558D01*
X12345Y6668D01*
X12455Y6668D01*
X12455Y6558D01*
G37*
G36*
X12550Y6336D02*
X12440Y6336D01*
X12440Y6446D01*
X12550Y6446D01*
X12550Y6336D01*
G37*
G54D14*
X12367Y6992D02*
X12367Y6634D01*
X12589Y6476D02*
G54D11*
D03*
X12581Y6944D02*
G54D11*
D03*
X12589Y6738D02*
G54D11*
D03*
G54D14*
X12581Y6611D02*
X12581Y6484D01*
G54D14*
X12589Y6746D02*
X12589Y6698D01*
X12422Y6698D01*
X12390Y6666D01*
G54D14*
X12573Y7206D02*
X12549Y7166D01*
X12512Y7143D01*
X12484Y7113D01*
X12486Y7071D01*
X12486Y6817D01*
X12581Y7214D02*
G54D11*
D03*
X12557Y6317D02*
G54D11*
D03*
G54D14*
X12525Y6357D02*
X12525Y6333D01*
X12549Y6309D01*
X12549Y6063D02*
G54D11*
D03*
G54D14*
X12422Y6119D02*
X12486Y6119D01*
X12541Y6063D01*
G54D14*
X12382Y6587D02*
X12382Y6325D01*
X12412Y6299D01*
X12458Y6273D01*
X12535Y6224D01*
X12613Y6222D01*
G36*
X12545Y7274D02*
X12665Y7274D01*
X12665Y7154D01*
X12545Y7154D01*
X12545Y7274D01*
G37*
G36*
X12545Y6385D02*
X12665Y6385D01*
X12665Y6265D01*
X12545Y6265D01*
X12545Y6385D01*
G37*
G36*
X12545Y6663D02*
X12665Y6663D01*
X12665Y6543D01*
X12545Y6543D01*
X12545Y6663D01*
G37*
G36*
X12545Y7115D02*
X12665Y7115D01*
X12665Y6995D01*
X12545Y6995D01*
X12545Y7115D01*
G37*
G54D14*
X12248Y6428D02*
X12248Y6500D01*
X12256Y6508D01*
X12295Y7023D02*
G54D11*
D03*
G54D14*
X12295Y7023D02*
X12382Y7023D01*
X12192Y6809D02*
G54D11*
D03*
X11819Y6762D02*
G54D11*
D03*
G54D14*
X11819Y6762D02*
X12144Y6762D01*
X12192Y6809D01*
G36*
X12545Y7433D02*
X12665Y7433D01*
X12665Y7313D01*
X12545Y7313D01*
X12545Y7433D01*
G37*
X12581Y7325D02*
G54D11*
D03*
G36*
X12537Y7777D02*
X12657Y7777D01*
X12657Y7477D01*
X12537Y7477D01*
X12537Y7777D01*
G37*
X12573Y7690D02*
G54D11*
D03*
X11525Y7198D02*
G54D11*
D03*
X11581Y7277D02*
G54D11*
D03*
X11708Y7238D02*
G54D11*
D03*
G54D14*
X12081Y7627D02*
X11855Y7424D01*
X11708Y7238D01*
G54D14*
X11620Y7087D02*
X11668Y7166D01*
X9977Y4268D02*
G54D10*
D03*
X8387Y4268D02*
G54D10*
D03*
X9977Y4468D02*
G54D10*
D03*
X8387Y4468D02*
G54D10*
D03*
X9977Y4668D02*
G54D10*
D03*
X8387Y4668D02*
G54D10*
D03*
X9977Y4868D02*
G54D10*
D03*
X8387Y4868D02*
G54D10*
D03*
X9977Y5068D02*
G54D10*
D03*
X8387Y5068D02*
G54D10*
D03*
X9977Y5268D02*
G54D10*
D03*
X8387Y5268D02*
G54D10*
D03*
X9977Y5468D02*
G54D10*
D03*
X8387Y5468D02*
G54D10*
D03*
X9160Y5190D02*
G54D11*
D03*
X9819Y4102D02*
G54D12*
D03*
X9565Y4102D02*
G54D12*
D03*
X9311Y4102D02*
G54D12*
D03*
X9057Y4102D02*
G54D13*
D03*
X8803Y4102D02*
G54D12*
D03*
X8549Y4102D02*
G54D12*
D03*
G54D14*
X9604Y4420D02*
X9739Y4420D01*
X9977Y4658D01*
X9604Y4420D02*
G54D11*
D03*
G54D14*
X9946Y4444D02*
X9882Y4444D01*
X9668Y4293D01*
X9602Y4295D01*
X9267Y4297D01*
X9154Y4366D01*
X9046Y4369D01*
X9041Y4325D01*
X9041Y4150D01*
X9247Y4531D02*
G54D11*
D03*
G54D14*
X9247Y4531D02*
X9247Y5047D01*
X9573Y5547D01*
X9327Y4531D02*
G54D11*
D03*
G54D14*
X9327Y4531D02*
X9327Y5031D01*
G54D14*
X8541Y5571D02*
X8604Y5539D01*
X8715Y5428D01*
X8922Y5222D01*
X9001Y5222D01*
X9001Y5222D02*
G54D11*
D03*
X9088Y5222D02*
G54D11*
D03*
G54D14*
X9088Y5222D02*
X9088Y5269D01*
X9073Y5285D01*
X8930Y5285D01*
X8795Y5420D01*
X8795Y5555D01*
G54D14*
X9057Y5555D02*
X9057Y5499D01*
X9120Y5436D01*
X9223Y5436D01*
X9223Y5265D01*
X9223Y5142D01*
G54D14*
X9287Y5222D02*
X9323Y5269D01*
X9327Y5555D01*
X8684Y4753D02*
G54D11*
D03*
G54D14*
X8612Y5079D02*
X8612Y5261D01*
X8430Y5444D01*
X9819Y5626D02*
G54D12*
D03*
X9565Y5626D02*
G54D12*
D03*
X9311Y5626D02*
G54D12*
D03*
X9057Y5626D02*
G54D12*
D03*
X8803Y5626D02*
G54D12*
D03*
X8549Y5626D02*
G54D12*
D03*
X8787Y4476D02*
G54D11*
D03*
G54D14*
X8787Y4476D02*
X8826Y4519D01*
X8826Y4769D01*
X8882Y4833D01*
X8882Y4833D02*
G54D11*
D03*
X10073Y4094D02*
G54D15*
D03*
X8612Y5063D02*
G54D11*
D03*
X8692Y5277D02*
G54D11*
D03*
G54D14*
X8692Y5277D02*
X8692Y4849D01*
X8668Y4745D01*
X8541Y5158D02*
G54D11*
D03*
G54D14*
X8541Y5158D02*
X8541Y4785D01*
X8430Y4674D01*
G54D14*
X9977Y4872D02*
X9462Y4872D01*
X9462Y5055D01*
X9477Y5063D02*
G54D11*
D03*
X10073Y5626D02*
G54D15*
D03*
X10128Y5380D02*
G54D12*
D03*
X8692Y4285D02*
G54D11*
D03*
G54D14*
X8700Y4468D02*
X8700Y4182D01*
X8676Y4158D01*
X8676Y3983D01*
X9938Y3983D01*
X10041Y4087D01*
G54D14*
X8430Y4872D02*
X8430Y4896D01*
X8485Y4952D01*
X8485Y5118D01*
X8461Y5142D01*
X8461Y5198D01*
X8481Y5230D01*
X8485Y5293D01*
X8485Y5293D02*
G54D11*
D03*
X9652Y4356D02*
G54D11*
D03*
G54D14*
X9652Y4356D02*
X9271Y4356D01*
X9088Y4539D01*
G54D14*
X8811Y4174D02*
X8811Y4253D01*
X8811Y4269D01*
X8878Y4313D01*
X8993Y4452D01*
X8993Y4531D01*
X9168Y4706D01*
X9168Y5198D01*
X9096Y4539D02*
G54D11*
D03*
X9898Y4952D02*
G54D11*
D03*
G54D14*
X9906Y4960D02*
X9882Y4960D01*
X9819Y5023D01*
X9819Y5118D01*
X9946Y5245D01*
X9144Y4293D02*
G54D11*
D03*
X9469Y4229D02*
G54D11*
D03*
X9763Y4253D02*
G54D11*
D03*
G54D14*
X9144Y4277D02*
X9168Y4277D01*
X9200Y4245D01*
X9454Y4245D01*
X9469Y4229D01*
X9739Y4229D01*
X9763Y4253D01*
G54D16*
X9977Y5468D02*
X10073Y5468D01*
X10128Y5380D01*
X9700Y5349D02*
G54D11*
D03*
X9541Y5126D02*
G54D11*
D03*
G54D14*
X9541Y5126D02*
X9541Y5190D01*
X9700Y5349D01*
G36*
X10053Y5273D02*
X10203Y5273D01*
X10203Y5123D01*
X10053Y5123D01*
X10053Y5273D01*
G37*
G54D16*
X9970Y5071D02*
X10104Y5182D01*
X10144Y5182D01*
X8390Y5285D02*
G54D11*
D03*
X8398Y5063D02*
G54D11*
D03*
X8342Y4555D02*
G54D11*
D03*
X8366Y3999D02*
G54D11*
D03*
X9946Y5269D02*
G54D11*
D03*
X9970Y5063D02*
G54D11*
D03*
X9954Y4372D02*
G54D11*
D03*
X9938Y4253D02*
G54D11*
D03*
X8572Y4690D02*
G54D11*
D03*
G54D14*
X8612Y5079D02*
X8612Y4777D01*
X8565Y4698D01*
G54D14*
X8374Y3991D02*
X8374Y4253D01*
G54D14*
X8342Y4555D02*
X8342Y4523D01*
X8366Y4499D01*
G54D14*
X8668Y4737D02*
X8668Y4690D01*
X8549Y4571D01*
X8493Y4571D01*
X8493Y4166D01*
X8517Y4142D01*
X8692Y4499D02*
G54D11*
D03*
G54D14*
X8700Y4468D02*
X8700Y4579D01*
X8763Y4642D01*
X8755Y5158D01*
X8819Y5245D01*
X8612Y5452D01*
X8525Y5484D01*
X8366Y5642D01*
X8366Y5642D02*
G54D11*
D03*
X8374Y5436D02*
G54D11*
D03*
G36*
X10343Y4907D02*
X10233Y4907D01*
X10233Y5017D01*
X10343Y5017D01*
X10343Y4907D01*
G37*
G36*
X10153Y4907D02*
X10043Y4907D01*
X10043Y5017D01*
X10153Y5017D01*
X10153Y4907D01*
G37*
G36*
X10248Y4685D02*
X10138Y4685D01*
X10138Y4795D01*
X10248Y4795D01*
X10248Y4685D01*
G37*
X8453Y4015D02*
G54D11*
D03*
G54D14*
X8453Y4007D02*
X8525Y3936D01*
X10096Y3936D01*
X10319Y3936D01*
X10319Y4158D01*
G36*
X10351Y4502D02*
X10241Y4502D01*
X10241Y4612D01*
X10351Y4612D01*
X10351Y4502D01*
G37*
G36*
X10161Y4502D02*
X10051Y4502D01*
X10051Y4612D01*
X10161Y4612D01*
X10161Y4502D01*
G37*
G36*
X10256Y4280D02*
X10146Y4280D01*
X10146Y4390D01*
X10256Y4390D01*
X10256Y4280D01*
G37*
G54D14*
X10073Y4936D02*
X10073Y4579D01*
X10295Y4420D02*
G54D11*
D03*
X10287Y4888D02*
G54D11*
D03*
X10295Y4682D02*
G54D11*
D03*
G54D14*
X10287Y4555D02*
X10287Y4428D01*
G54D14*
X10295Y4690D02*
X10295Y4642D01*
X10128Y4642D01*
X10096Y4610D01*
G54D14*
X10279Y5150D02*
X10255Y5110D01*
X10219Y5088D01*
X10190Y5057D01*
X10192Y5015D01*
X10192Y4761D01*
X10287Y5158D02*
G54D11*
D03*
X10263Y4261D02*
G54D11*
D03*
G54D14*
X10231Y4301D02*
X10231Y4277D01*
X10255Y4253D01*
X10255Y4007D02*
G54D11*
D03*
G54D14*
X10128Y4063D02*
X10192Y4063D01*
X10247Y4007D01*
G54D14*
X10089Y4531D02*
X10089Y4269D01*
X10118Y4243D01*
X10164Y4218D01*
X10241Y4168D01*
X10319Y4166D01*
G36*
X10251Y5218D02*
X10371Y5218D01*
X10371Y5098D01*
X10251Y5098D01*
X10251Y5218D01*
G37*
G36*
X10251Y4329D02*
X10371Y4329D01*
X10371Y4209D01*
X10251Y4209D01*
X10251Y4329D01*
G37*
G36*
X10251Y4607D02*
X10371Y4607D01*
X10371Y4487D01*
X10251Y4487D01*
X10251Y4607D01*
G37*
G36*
X10251Y5059D02*
X10371Y5059D01*
X10371Y4939D01*
X10251Y4939D01*
X10251Y5059D01*
G37*
G54D14*
X9954Y4372D02*
X9954Y4444D01*
X9962Y4452D01*
X10001Y4968D02*
G54D11*
D03*
G54D14*
X10001Y4968D02*
X10089Y4968D01*
X9898Y4753D02*
G54D11*
D03*
X9525Y4706D02*
G54D11*
D03*
G54D14*
X9525Y4706D02*
X9850Y4706D01*
X9898Y4753D01*
G36*
X10251Y5377D02*
X10371Y5377D01*
X10371Y5257D01*
X10251Y5257D01*
X10251Y5377D01*
G37*
X10287Y5269D02*
G54D11*
D03*
G36*
X10243Y5721D02*
X10363Y5721D01*
X10363Y5421D01*
X10243Y5421D01*
X10243Y5721D01*
G37*
X10279Y5634D02*
G54D11*
D03*
X9231Y5142D02*
G54D11*
D03*
X9287Y5222D02*
G54D11*
D03*
X9414Y5182D02*
G54D11*
D03*
G54D14*
X9787Y5571D02*
X9561Y5368D01*
X9414Y5182D01*
G54D14*
X9327Y5031D02*
X9374Y5110D01*
X12271Y4268D02*
G54D10*
D03*
X10681Y4268D02*
G54D10*
D03*
X12271Y4468D02*
G54D10*
D03*
X10681Y4468D02*
G54D10*
D03*
X12271Y4668D02*
G54D10*
D03*
X10681Y4668D02*
G54D10*
D03*
X12271Y4868D02*
G54D10*
D03*
X10681Y4868D02*
G54D10*
D03*
X12271Y5068D02*
G54D10*
D03*
X10681Y5068D02*
G54D10*
D03*
X12271Y5268D02*
G54D10*
D03*
X10681Y5268D02*
G54D10*
D03*
X12271Y5468D02*
G54D10*
D03*
X10681Y5468D02*
G54D10*
D03*
X11454Y5190D02*
G54D11*
D03*
X12113Y4102D02*
G54D12*
D03*
X11859Y4102D02*
G54D12*
D03*
X11605Y4102D02*
G54D12*
D03*
X11351Y4102D02*
G54D13*
D03*
X11097Y4102D02*
G54D12*
D03*
X10843Y4102D02*
G54D12*
D03*
G54D14*
X11898Y4420D02*
X12033Y4420D01*
X12271Y4658D01*
X11898Y4420D02*
G54D11*
D03*
G54D14*
X12240Y4444D02*
X12176Y4444D01*
X11962Y4293D01*
X11896Y4295D01*
X11561Y4297D01*
X11448Y4366D01*
X11340Y4369D01*
X11335Y4325D01*
X11335Y4150D01*
X11541Y4531D02*
G54D11*
D03*
G54D14*
X11541Y4531D02*
X11541Y5047D01*
X11867Y5547D01*
X11620Y4531D02*
G54D11*
D03*
G54D14*
X11620Y4531D02*
X11620Y5031D01*
G54D14*
X10835Y5571D02*
X10898Y5539D01*
X11009Y5428D01*
X11216Y5222D01*
X11295Y5222D01*
X11295Y5222D02*
G54D11*
D03*
X11382Y5222D02*
G54D11*
D03*
G54D14*
X11382Y5222D02*
X11382Y5269D01*
X11366Y5285D01*
X11224Y5285D01*
X11089Y5420D01*
X11089Y5555D01*
G54D14*
X11351Y5555D02*
X11351Y5499D01*
X11414Y5436D01*
X11517Y5436D01*
X11517Y5265D01*
X11517Y5142D01*
G54D14*
X11581Y5222D02*
X11617Y5269D01*
X11620Y5555D01*
X10978Y4753D02*
G54D11*
D03*
G54D14*
X10906Y5079D02*
X10906Y5261D01*
X10724Y5444D01*
X12113Y5626D02*
G54D12*
D03*
X11859Y5626D02*
G54D12*
D03*
X11605Y5626D02*
G54D12*
D03*
X11351Y5626D02*
G54D12*
D03*
X11097Y5626D02*
G54D12*
D03*
X10843Y5626D02*
G54D12*
D03*
X11081Y4476D02*
G54D11*
D03*
G54D14*
X11081Y4476D02*
X11120Y4519D01*
X11120Y4769D01*
X11176Y4833D01*
X11176Y4833D02*
G54D11*
D03*
X12367Y4094D02*
G54D15*
D03*
X10906Y5063D02*
G54D11*
D03*
X10986Y5277D02*
G54D11*
D03*
G54D14*
X10986Y5277D02*
X10986Y4849D01*
X10962Y4745D01*
X10835Y5158D02*
G54D11*
D03*
G54D14*
X10835Y5158D02*
X10835Y4785D01*
X10724Y4674D01*
G54D14*
X12271Y4872D02*
X11755Y4872D01*
X11755Y5055D01*
X11771Y5063D02*
G54D11*
D03*
X12367Y5626D02*
G54D15*
D03*
X12422Y5380D02*
G54D12*
D03*
X10986Y4285D02*
G54D11*
D03*
G54D14*
X10993Y4468D02*
X10993Y4182D01*
X10970Y4158D01*
X10970Y3983D01*
X12232Y3983D01*
X12335Y4087D01*
G54D14*
X10724Y4872D02*
X10724Y4896D01*
X10779Y4952D01*
X10779Y5118D01*
X10755Y5142D01*
X10755Y5198D01*
X10775Y5230D01*
X10779Y5293D01*
X10779Y5293D02*
G54D11*
D03*
X11946Y4356D02*
G54D11*
D03*
G54D14*
X11946Y4356D02*
X11565Y4356D01*
X11382Y4539D01*
G54D14*
X11105Y4174D02*
X11105Y4253D01*
X11105Y4269D01*
X11172Y4313D01*
X11287Y4452D01*
X11287Y4531D01*
X11462Y4706D01*
X11462Y5198D01*
X11390Y4539D02*
G54D11*
D03*
X12192Y4952D02*
G54D11*
D03*
G54D14*
X12200Y4960D02*
X12176Y4960D01*
X12113Y5023D01*
X12113Y5118D01*
X12240Y5245D01*
X11438Y4293D02*
G54D11*
D03*
X11763Y4229D02*
G54D11*
D03*
X12057Y4253D02*
G54D11*
D03*
G54D14*
X11438Y4277D02*
X11462Y4277D01*
X11494Y4245D01*
X11748Y4245D01*
X11763Y4229D01*
X12033Y4229D01*
X12057Y4253D01*
G54D16*
X12271Y5468D02*
X12367Y5468D01*
X12422Y5380D01*
X11994Y5349D02*
G54D11*
D03*
X11835Y5126D02*
G54D11*
D03*
G54D14*
X11835Y5126D02*
X11835Y5190D01*
X11994Y5349D01*
G36*
X12347Y5273D02*
X12497Y5273D01*
X12497Y5123D01*
X12347Y5123D01*
X12347Y5273D01*
G37*
G54D16*
X12263Y5071D02*
X12398Y5182D01*
X12438Y5182D01*
X10684Y5285D02*
G54D11*
D03*
X10692Y5063D02*
G54D11*
D03*
X10636Y4555D02*
G54D11*
D03*
X10660Y3999D02*
G54D11*
D03*
X12240Y5269D02*
G54D11*
D03*
X12263Y5063D02*
G54D11*
D03*
X12248Y4372D02*
G54D11*
D03*
X12232Y4253D02*
G54D11*
D03*
X10866Y4690D02*
G54D11*
D03*
G54D14*
X10906Y5079D02*
X10906Y4777D01*
X10858Y4698D01*
G54D14*
X10668Y3991D02*
X10668Y4253D01*
G54D14*
X10636Y4555D02*
X10636Y4523D01*
X10660Y4499D01*
G54D14*
X10962Y4737D02*
X10962Y4690D01*
X10843Y4571D01*
X10787Y4571D01*
X10787Y4166D01*
X10811Y4142D01*
X10986Y4499D02*
G54D11*
D03*
G54D14*
X10993Y4468D02*
X10993Y4579D01*
X11057Y4642D01*
X11049Y5158D01*
X11112Y5245D01*
X10906Y5452D01*
X10819Y5484D01*
X10660Y5642D01*
X10660Y5642D02*
G54D11*
D03*
X10668Y5436D02*
G54D11*
D03*
G36*
X12637Y4907D02*
X12527Y4907D01*
X12527Y5017D01*
X12637Y5017D01*
X12637Y4907D01*
G37*
G36*
X12447Y4907D02*
X12337Y4907D01*
X12337Y5017D01*
X12447Y5017D01*
X12447Y4907D01*
G37*
G36*
X12542Y4685D02*
X12432Y4685D01*
X12432Y4795D01*
X12542Y4795D01*
X12542Y4685D01*
G37*
X10747Y4015D02*
G54D11*
D03*
G54D14*
X10747Y4007D02*
X10819Y3936D01*
X12390Y3936D01*
X12613Y3936D01*
X12613Y4158D01*
G36*
X12645Y4502D02*
X12535Y4502D01*
X12535Y4612D01*
X12645Y4612D01*
X12645Y4502D01*
G37*
G36*
X12455Y4502D02*
X12345Y4502D01*
X12345Y4612D01*
X12455Y4612D01*
X12455Y4502D01*
G37*
G36*
X12550Y4280D02*
X12440Y4280D01*
X12440Y4390D01*
X12550Y4390D01*
X12550Y4280D01*
G37*
G54D14*
X12367Y4936D02*
X12367Y4579D01*
X12589Y4420D02*
G54D11*
D03*
X12581Y4888D02*
G54D11*
D03*
X12589Y4682D02*
G54D11*
D03*
G54D14*
X12581Y4555D02*
X12581Y4428D01*
G54D14*
X12589Y4690D02*
X12589Y4642D01*
X12422Y4642D01*
X12390Y4610D01*
G54D14*
X12573Y5150D02*
X12549Y5110D01*
X12512Y5088D01*
X12484Y5057D01*
X12486Y5015D01*
X12486Y4761D01*
X12581Y5158D02*
G54D11*
D03*
X12557Y4261D02*
G54D11*
D03*
G54D14*
X12525Y4301D02*
X12525Y4277D01*
X12549Y4253D01*
X12549Y4007D02*
G54D11*
D03*
G54D14*
X12422Y4063D02*
X12486Y4063D01*
X12541Y4007D01*
G54D14*
X12382Y4531D02*
X12382Y4269D01*
X12412Y4243D01*
X12458Y4218D01*
X12535Y4168D01*
X12613Y4166D01*
G36*
X12545Y5218D02*
X12665Y5218D01*
X12665Y5098D01*
X12545Y5098D01*
X12545Y5218D01*
G37*
G36*
X12545Y4329D02*
X12665Y4329D01*
X12665Y4209D01*
X12545Y4209D01*
X12545Y4329D01*
G37*
G36*
X12545Y4607D02*
X12665Y4607D01*
X12665Y4487D01*
X12545Y4487D01*
X12545Y4607D01*
G37*
G36*
X12545Y5059D02*
X12665Y5059D01*
X12665Y4939D01*
X12545Y4939D01*
X12545Y5059D01*
G37*
G54D14*
X12248Y4372D02*
X12248Y4444D01*
X12256Y4452D01*
X12295Y4968D02*
G54D11*
D03*
G54D14*
X12295Y4968D02*
X12382Y4968D01*
X12192Y4753D02*
G54D11*
D03*
X11819Y4706D02*
G54D11*
D03*
G54D14*
X11819Y4706D02*
X12144Y4706D01*
X12192Y4753D01*
G36*
X12545Y5377D02*
X12665Y5377D01*
X12665Y5257D01*
X12545Y5257D01*
X12545Y5377D01*
G37*
X12581Y5269D02*
G54D11*
D03*
G36*
X12537Y5721D02*
X12657Y5721D01*
X12657Y5421D01*
X12537Y5421D01*
X12537Y5721D01*
G37*
X12573Y5634D02*
G54D11*
D03*
X11525Y5142D02*
G54D11*
D03*
X11581Y5222D02*
G54D11*
D03*
X11708Y5182D02*
G54D11*
D03*
G54D14*
X12081Y5571D02*
X11855Y5368D01*
X11708Y5182D01*
G54D14*
X11620Y5031D02*
X11668Y5110D01*
M02*
