%FSLAX32Y32*%
%MOMM*%
%LNKUPFERSEITE1*%
G71*
G01*
%ADD10C, 0.30*%
%ADD11C, 0.40*%
%ADD12C, 0.60*%
%ADD13C, 1.70*%
%ADD14C, 1.60*%
%ADD15C, 1.80*%
%LPD*%
G36*
X8705Y7226D02*
X8805Y7226D01*
X8805Y7186D01*
X8705Y7186D01*
X8705Y7226D01*
G37*
G36*
X8705Y7146D02*
X8805Y7146D01*
X8805Y7106D01*
X8705Y7106D01*
X8705Y7146D01*
G37*
G36*
X8705Y7066D02*
X8805Y7066D01*
X8805Y7026D01*
X8705Y7026D01*
X8705Y7066D01*
G37*
G36*
X8705Y6986D02*
X8805Y6986D01*
X8805Y6946D01*
X8705Y6946D01*
X8705Y6986D01*
G37*
G36*
X8705Y6906D02*
X8805Y6906D01*
X8805Y6866D01*
X8705Y6866D01*
X8705Y6906D01*
G37*
G36*
X8705Y6826D02*
X8805Y6826D01*
X8805Y6786D01*
X8705Y6786D01*
X8705Y6826D01*
G37*
G36*
X8705Y6746D02*
X8805Y6746D01*
X8805Y6706D01*
X8705Y6706D01*
X8705Y6746D01*
G37*
G36*
X8705Y6666D02*
X8805Y6666D01*
X8805Y6626D01*
X8705Y6626D01*
X8705Y6666D01*
G37*
G36*
X9605Y7226D02*
X9705Y7226D01*
X9705Y7186D01*
X9605Y7186D01*
X9605Y7226D01*
G37*
G36*
X9605Y7146D02*
X9705Y7146D01*
X9705Y7106D01*
X9605Y7106D01*
X9605Y7146D01*
G37*
G36*
X9605Y7066D02*
X9705Y7066D01*
X9705Y7026D01*
X9605Y7026D01*
X9605Y7066D01*
G37*
G36*
X9605Y6986D02*
X9705Y6986D01*
X9705Y6946D01*
X9605Y6946D01*
X9605Y6986D01*
G37*
G36*
X9605Y6906D02*
X9705Y6906D01*
X9705Y6866D01*
X9605Y6866D01*
X9605Y6906D01*
G37*
G36*
X9605Y6826D02*
X9705Y6826D01*
X9705Y6786D01*
X9605Y6786D01*
X9605Y6826D01*
G37*
G36*
X9605Y6746D02*
X9705Y6746D01*
X9705Y6706D01*
X9605Y6706D01*
X9605Y6746D01*
G37*
G36*
X9605Y6666D02*
X9705Y6666D01*
X9705Y6626D01*
X9605Y6626D01*
X9605Y6666D01*
G37*
G36*
X8905Y7426D02*
X8945Y7426D01*
X8945Y7326D01*
X8905Y7326D01*
X8905Y7426D01*
G37*
G36*
X8985Y7426D02*
X9025Y7426D01*
X9025Y7326D01*
X8985Y7326D01*
X8985Y7426D01*
G37*
G36*
X9065Y7426D02*
X9105Y7426D01*
X9105Y7326D01*
X9065Y7326D01*
X9065Y7426D01*
G37*
G36*
X9145Y7426D02*
X9185Y7426D01*
X9185Y7326D01*
X9145Y7326D01*
X9145Y7426D01*
G37*
G36*
X9225Y7426D02*
X9265Y7426D01*
X9265Y7326D01*
X9225Y7326D01*
X9225Y7426D01*
G37*
G36*
X9305Y7426D02*
X9345Y7426D01*
X9345Y7326D01*
X9305Y7326D01*
X9305Y7426D01*
G37*
G36*
X9385Y7426D02*
X9425Y7426D01*
X9425Y7326D01*
X9385Y7326D01*
X9385Y7426D01*
G37*
G36*
X9465Y7426D02*
X9505Y7426D01*
X9505Y7326D01*
X9465Y7326D01*
X9465Y7426D01*
G37*
G36*
X8905Y6526D02*
X8945Y6526D01*
X8945Y6426D01*
X8905Y6426D01*
X8905Y6526D01*
G37*
G36*
X8985Y6526D02*
X9025Y6526D01*
X9025Y6426D01*
X8985Y6426D01*
X8985Y6526D01*
G37*
G36*
X9075Y6526D02*
X9115Y6526D01*
X9115Y6426D01*
X9075Y6426D01*
X9075Y6526D01*
G37*
G36*
X9145Y6526D02*
X9185Y6526D01*
X9185Y6426D01*
X9145Y6426D01*
X9145Y6526D01*
G37*
G36*
X9225Y6526D02*
X9265Y6526D01*
X9265Y6426D01*
X9225Y6426D01*
X9225Y6526D01*
G37*
G36*
X9305Y6526D02*
X9345Y6526D01*
X9345Y6426D01*
X9305Y6426D01*
X9305Y6526D01*
G37*
G36*
X9385Y6526D02*
X9425Y6526D01*
X9425Y6426D01*
X9385Y6426D01*
X9385Y6526D01*
G37*
G36*
X9465Y6526D02*
X9505Y6526D01*
X9505Y6426D01*
X9465Y6426D01*
X9465Y6526D01*
G37*
G54D10*
X9406Y6500D02*
X9406Y6563D01*
X9549Y6563D01*
X9604Y6476D01*
G54D11*
X8771Y7047D02*
X8866Y7047D01*
X8866Y6881D01*
X8763Y6881D01*
G54D11*
X8731Y6968D02*
X8660Y6968D01*
X8660Y6809D01*
X8874Y6809D01*
G54D11*
X8874Y6809D02*
X9430Y6809D01*
X9509Y6888D01*
X9628Y6888D01*
G54D11*
X9620Y6968D02*
X9509Y6968D01*
X9493Y6968D01*
X9406Y6881D01*
X8842Y6881D01*
G54D11*
X9684Y6968D02*
X9755Y6968D01*
X9842Y7063D01*
X9954Y7127D01*
G54D10*
X9684Y6881D02*
X9787Y6881D01*
X9862Y6948D01*
X9906Y7016D01*
G36*
X9837Y7081D02*
X9837Y6991D01*
X9747Y6991D01*
X9747Y7081D01*
X9837Y7081D01*
G37*
G36*
X9836Y6914D02*
X9836Y6824D01*
X9746Y6824D01*
X9746Y6914D01*
X9836Y6914D01*
G37*
G36*
X8653Y7136D02*
X8653Y7046D01*
X8563Y7046D01*
X8563Y7136D01*
X8653Y7136D01*
G37*
G36*
X8652Y6969D02*
X8652Y6879D01*
X8562Y6879D01*
X8562Y6969D01*
X8652Y6969D01*
G37*
G54D10*
X8406Y7111D02*
X8485Y7111D01*
X8509Y7087D01*
X8509Y6881D01*
X8553Y6841D01*
X8583Y6817D01*
X8611Y6797D01*
X8622Y6777D01*
X8652Y6730D01*
X8739Y6730D01*
G54D11*
X8723Y7047D02*
X8652Y7047D01*
X8628Y7071D01*
X9160Y7246D02*
G54D12*
D03*
G54D11*
X9168Y7341D02*
X9168Y7254D01*
X9819Y6158D02*
G54D13*
D03*
X9565Y6158D02*
G54D13*
D03*
X9311Y6158D02*
G54D13*
D03*
X9057Y6158D02*
G54D14*
D03*
X8803Y6158D02*
G54D13*
D03*
X8549Y6158D02*
G54D13*
D03*
X9604Y6476D02*
G54D12*
D03*
G54D10*
X9398Y6436D02*
X9398Y6325D01*
X9392Y6283D01*
X9378Y6242D01*
X9366Y6206D01*
G54D10*
X9485Y6428D02*
X9565Y6428D01*
X9565Y6238D01*
X9247Y6587D02*
G54D12*
D03*
G54D10*
X9247Y6587D02*
X9247Y6500D01*
X9327Y6587D02*
G54D12*
D03*
G54D10*
X9327Y6587D02*
X9327Y6515D01*
X9001Y7277D02*
G54D12*
D03*
X9088Y7277D02*
G54D12*
D03*
G54D10*
X9001Y7277D02*
X9001Y7349D01*
G54D10*
X9088Y7277D02*
X9088Y7357D01*
G54D10*
X9930Y6309D02*
X9882Y6436D01*
X9731Y6436D01*
X9517Y6674D01*
X8684Y6809D02*
G54D12*
D03*
G36*
X9869Y7383D02*
X9869Y7293D01*
X9779Y7293D01*
X9779Y7383D01*
X9869Y7383D01*
G37*
G36*
X9868Y7216D02*
X9868Y7126D01*
X9778Y7126D01*
X9778Y7216D01*
X9868Y7216D01*
G37*
G54D10*
X9168Y7254D02*
X9170Y7095D01*
X9251Y7095D01*
X9398Y7095D01*
X9424Y7158D01*
X9468Y7206D01*
X9497Y7254D01*
X9549Y7254D01*
X9565Y7262D01*
X9723Y7262D01*
X9803Y7182D01*
G54D10*
X9795Y7341D02*
X9914Y7341D01*
X9946Y7325D01*
X9819Y7682D02*
G54D13*
D03*
X9565Y7682D02*
G54D13*
D03*
X9311Y7682D02*
G54D13*
D03*
X9057Y7682D02*
G54D13*
D03*
X8803Y7682D02*
G54D13*
D03*
X8549Y7682D02*
G54D13*
D03*
G36*
X8387Y6331D02*
X8387Y6401D01*
X8487Y6401D01*
X8487Y6331D01*
X8387Y6331D01*
G37*
G36*
X8387Y6521D02*
X8387Y6591D01*
X8487Y6591D01*
X8487Y6521D01*
X8387Y6521D01*
G37*
G36*
X8625Y6331D02*
X8625Y6401D01*
X8725Y6401D01*
X8725Y6331D01*
X8625Y6331D01*
G37*
G36*
X8625Y6521D02*
X8625Y6591D01*
X8725Y6591D01*
X8725Y6521D01*
X8625Y6521D01*
G37*
G36*
X8625Y6426D02*
X8625Y6496D01*
X8725Y6496D01*
X8725Y6426D01*
X8625Y6426D01*
G37*
G54D10*
X8461Y6325D02*
X8473Y6285D01*
X8485Y6166D01*
X8787Y6531D02*
G54D12*
D03*
X8882Y6888D02*
G54D12*
D03*
X10073Y6150D02*
G54D15*
D03*
X8612Y7119D02*
G54D12*
D03*
G36*
X8637Y7422D02*
X8637Y7332D01*
X8547Y7332D01*
X8547Y7422D01*
X8637Y7422D01*
G37*
G36*
X8636Y7255D02*
X8636Y7165D01*
X8546Y7165D01*
X8546Y7255D01*
X8636Y7255D01*
G37*
X8692Y7333D02*
G54D12*
D03*
X8541Y7214D02*
G54D12*
D03*
G54D10*
X8604Y7396D02*
X8692Y7333D01*
G54D10*
X8604Y7214D02*
X8620Y7214D01*
X8672Y7170D01*
X8707Y7127D01*
G54D10*
X8390Y7365D02*
X8406Y7389D01*
X8465Y7464D01*
X8501Y7516D01*
X8668Y7516D01*
X8858Y7325D01*
X8906Y7325D01*
X8922Y7341D01*
G54D10*
X9787Y6849D02*
X9731Y6762D01*
X9660Y6722D01*
X9477Y7119D02*
G54D12*
D03*
G54D10*
X9065Y7047D02*
X9628Y7047D01*
X10073Y7682D02*
G54D15*
D03*
G54D10*
X9406Y7404D02*
X9406Y7428D01*
X9525Y7547D01*
X9842Y7547D01*
X9894Y7583D01*
X10009Y7698D01*
G54D10*
X9477Y7119D02*
X9545Y7119D01*
X9644Y7119D01*
G54D10*
X9565Y6095D02*
X9565Y5992D01*
X8485Y5992D01*
X8426Y6000D01*
X8382Y6023D01*
X10128Y7436D02*
G54D13*
D03*
X8692Y6341D02*
G54D12*
D03*
X8485Y7349D02*
G54D12*
D03*
G54D10*
X9065Y7047D02*
X8854Y7246D01*
X8826Y7293D01*
X8707Y7412D01*
X8676Y7444D01*
X8652Y7468D01*
X8533Y7468D01*
X8509Y7444D01*
X8485Y7349D01*
G36*
X10170Y6899D02*
X10170Y6809D01*
X10080Y6809D01*
X10080Y6899D01*
X10170Y6899D01*
G37*
G36*
X10169Y6732D02*
X10169Y6642D01*
X10079Y6642D01*
X10079Y6732D01*
X10169Y6732D01*
G37*
G36*
X10162Y6573D02*
X10162Y6483D01*
X10072Y6483D01*
X10072Y6573D01*
X10162Y6573D01*
G37*
G36*
X10161Y6406D02*
X10161Y6316D01*
X10071Y6316D01*
X10071Y6406D01*
X10161Y6406D01*
G37*
G54D10*
X10200Y6523D02*
X10136Y6523D01*
G36*
X10070Y6994D02*
X10170Y6994D01*
X10170Y6894D01*
X10070Y6894D01*
X10070Y6994D01*
G37*
G54D10*
X10120Y6936D02*
X10120Y6888D01*
X10120Y6865D01*
G36*
X9173Y6313D02*
X9084Y6312D01*
X9083Y6402D01*
X9173Y6403D01*
X9173Y6313D01*
G37*
G36*
X9006Y6314D02*
X8916Y6314D01*
X8916Y6404D01*
X9006Y6404D01*
X9006Y6314D01*
G37*
G36*
X9523Y6305D02*
X9433Y6305D01*
X9433Y6395D01*
X9523Y6395D01*
X9523Y6305D01*
G37*
G36*
X9356Y6306D02*
X9266Y6306D01*
X9266Y6396D01*
X9356Y6396D01*
X9356Y6306D01*
G37*
G54D10*
X8922Y6444D02*
X8938Y6373D01*
G54D10*
X9009Y6452D02*
X9041Y6416D01*
X9041Y6277D01*
X9287Y6277D01*
X9327Y6317D01*
G54D10*
X9517Y6674D02*
X9223Y6674D01*
X9168Y6619D01*
X9168Y6484D01*
G36*
X9769Y6500D02*
X9768Y6590D01*
X9858Y6590D01*
X9859Y6500D01*
X9769Y6500D01*
G37*
G36*
X9770Y6667D02*
X9770Y6757D01*
X9860Y6757D01*
X9860Y6667D01*
X9770Y6667D01*
G37*
G36*
X9864Y6297D02*
X9774Y6297D01*
X9774Y6387D01*
X9864Y6387D01*
X9864Y6297D01*
G37*
G36*
X9697Y6298D02*
X9607Y6298D01*
X9607Y6388D01*
X9697Y6388D01*
X9697Y6298D01*
G37*
X9652Y6412D02*
G54D12*
D03*
X9096Y6595D02*
G54D12*
D03*
G54D10*
X9096Y6595D02*
X9096Y6500D01*
G36*
X10070Y7056D02*
X10070Y7146D01*
X10160Y7146D01*
X10160Y7056D01*
X10070Y7056D01*
G37*
G36*
X10071Y7223D02*
X10071Y7313D01*
X10161Y7313D01*
X10161Y7223D01*
X10071Y7223D01*
G37*
X9898Y7008D02*
G54D12*
D03*
G54D10*
X9970Y7127D02*
X9970Y7166D01*
X10017Y7206D01*
X10017Y7341D01*
X9144Y6349D02*
G54D12*
D03*
X9469Y6285D02*
G54D12*
D03*
X9763Y6309D02*
G54D12*
D03*
G54D10*
X9763Y6301D02*
X9692Y6230D01*
X9692Y6047D01*
X9716Y6023D01*
X10128Y6023D01*
X10200Y6095D01*
X10200Y6285D01*
X10144Y6341D01*
G36*
X9544Y7449D02*
X9634Y7449D01*
X9634Y7359D01*
X9544Y7359D01*
X9544Y7449D01*
G37*
G36*
X9655Y7449D02*
X9745Y7449D01*
X9745Y7359D01*
X9655Y7359D01*
X9655Y7449D01*
G37*
G36*
X9543Y7342D02*
X9793Y7342D01*
X9793Y7292D01*
X9543Y7292D01*
X9543Y7342D01*
G37*
G36*
X9545Y7517D02*
X9775Y7517D01*
X9775Y7467D01*
X9545Y7467D01*
X9545Y7517D01*
G37*
G54D10*
X9485Y7396D02*
X9565Y7396D01*
G54D10*
X9747Y7492D02*
X9811Y7488D01*
X9811Y7420D01*
X9970Y7420D01*
X10017Y7341D01*
X9700Y7404D02*
G54D12*
D03*
X9541Y7182D02*
G54D12*
D03*
G54D10*
X9541Y7182D02*
X9565Y7182D01*
X9588Y7206D01*
X9636Y7206D01*
G54D10*
X9676Y6650D02*
X9700Y6650D01*
X9723Y6627D01*
X9882Y6627D01*
X9906Y6575D01*
X9938Y6420D01*
X8390Y7341D02*
G54D12*
D03*
X8398Y7119D02*
G54D12*
D03*
X8342Y6611D02*
G54D12*
D03*
X8366Y6055D02*
G54D12*
D03*
X9946Y7325D02*
G54D12*
D03*
X9970Y7119D02*
G54D12*
D03*
X9954Y6428D02*
G54D12*
D03*
X9938Y6309D02*
G54D12*
D03*
G54D10*
X9811Y6539D02*
X9811Y6436D01*
G54D10*
X9676Y6722D02*
X9819Y6722D01*
G36*
X10043Y6764D02*
X10043Y6674D01*
X9953Y6674D01*
X9953Y6764D01*
X10043Y6764D01*
G37*
G36*
X10042Y6597D02*
X10042Y6507D01*
X9952Y6507D01*
X9952Y6597D01*
X10042Y6597D01*
G37*
G54D10*
X9803Y6714D02*
X9902Y6690D01*
X9923Y6652D01*
X9945Y6631D01*
X10059Y6634D01*
X10128Y6706D01*
G36*
X8525Y6920D02*
X8525Y6890D01*
X8365Y6890D01*
X8365Y6920D01*
X8525Y6920D01*
G37*
G36*
X8525Y6825D02*
X8525Y6795D01*
X8365Y6795D01*
X8365Y6825D01*
X8525Y6825D01*
G37*
G36*
X8525Y6730D02*
X8525Y6700D01*
X8365Y6700D01*
X8365Y6730D01*
X8525Y6730D01*
G37*
G54D10*
X8493Y6706D02*
X8509Y6690D01*
X8549Y6650D01*
X8731Y6650D01*
X8572Y6746D02*
G54D12*
D03*
G54D10*
X8493Y6801D02*
X8493Y6785D01*
X8565Y6754D01*
G36*
X8408Y7738D02*
X8408Y7648D01*
X8318Y7648D01*
X8318Y7738D01*
X8408Y7738D01*
G37*
G36*
X8407Y7572D02*
X8407Y7482D01*
X8317Y7482D01*
X8317Y7572D01*
X8407Y7572D01*
G37*
G36*
X8316Y6211D02*
X8316Y6301D01*
X8406Y6301D01*
X8406Y6211D01*
X8316Y6211D01*
G37*
G36*
X8317Y6426D02*
X8317Y6516D01*
X8407Y6516D01*
X8407Y6426D01*
X8317Y6426D01*
G37*
G54D10*
X8779Y6531D02*
X8755Y6460D01*
X8707Y6444D01*
X8692Y6555D02*
G54D12*
D03*
G36*
X8606Y6516D02*
X8606Y6426D01*
X8516Y6426D01*
X8516Y6516D01*
X8606Y6516D01*
G37*
G36*
X8605Y6349D02*
X8605Y6259D01*
X8515Y6259D01*
X8515Y6349D01*
X8605Y6349D01*
G37*
G54D10*
X8453Y6555D02*
X8557Y6476D01*
X8366Y7698D02*
G54D12*
D03*
X8374Y7492D02*
G54D12*
D03*
G36*
X9005Y6313D02*
X8915Y6313D01*
X8915Y6403D01*
X9005Y6403D01*
X9005Y6313D01*
G37*
G36*
X8838Y6314D02*
X8748Y6314D01*
X8748Y6404D01*
X8838Y6404D01*
X8838Y6314D01*
G37*
G54D10*
X8580Y6309D02*
X8596Y6289D01*
X8628Y6269D01*
X8723Y6269D01*
X8747Y6285D01*
X8811Y6357D01*
G54D10*
X9041Y6269D02*
X8954Y6269D01*
X8930Y6246D01*
X8930Y6039D01*
X8493Y6039D01*
X8358Y6174D01*
X8358Y6246D01*
G54D10*
X8358Y6484D02*
X8414Y6539D01*
X8453Y6071D02*
G54D12*
D03*
G54D10*
X9970Y7124D02*
X10172Y7122D01*
X10176Y7033D01*
X10192Y7030D01*
X10208Y6996D01*
X10208Y6523D01*
G54D10*
X9866Y6190D02*
X9930Y6190D01*
X10025Y6285D01*
X10025Y6444D01*
X10033Y6444D01*
X10096Y6508D01*
G36*
X10329Y6621D02*
X10329Y6531D01*
X10239Y6531D01*
X10239Y6621D01*
X10329Y6621D01*
G37*
G36*
X10328Y6454D02*
X10328Y6364D01*
X10238Y6364D01*
X10238Y6454D01*
X10328Y6454D01*
G37*
G36*
X10329Y6931D02*
X10329Y6841D01*
X10239Y6841D01*
X10239Y6931D01*
X10329Y6931D01*
G37*
G36*
X10328Y6764D02*
X10328Y6674D01*
X10238Y6674D01*
X10238Y6764D01*
X10328Y6764D01*
G37*
G36*
X10329Y7264D02*
X10329Y7174D01*
X10239Y7174D01*
X10239Y7264D01*
X10329Y7264D01*
G37*
G36*
X10328Y7097D02*
X10328Y7007D01*
X10238Y7007D01*
X10238Y7097D01*
X10328Y7097D01*
G37*
G36*
X10329Y6311D02*
X10329Y6221D01*
X10239Y6221D01*
X10239Y6311D01*
X10329Y6311D01*
G37*
G36*
X10328Y6144D02*
X10328Y6054D01*
X10238Y6054D01*
X10238Y6144D01*
X10328Y6144D01*
G37*
X10295Y6476D02*
G54D12*
D03*
X10287Y6944D02*
G54D12*
D03*
G54D10*
X10295Y6571D02*
X10295Y6722D01*
X10295Y6738D02*
G54D12*
D03*
X10287Y7214D02*
G54D12*
D03*
G54D10*
X10287Y7047D02*
X10358Y6980D01*
X10358Y6111D01*
X10311Y6079D01*
X10263Y6317D02*
G54D12*
D03*
X10255Y6063D02*
G54D12*
D03*
G36*
X10043Y7010D02*
X10043Y6920D01*
X9953Y6920D01*
X9953Y7010D01*
X10043Y7010D01*
G37*
G36*
X10042Y6843D02*
X10042Y6753D01*
X9952Y6753D01*
X9952Y6843D01*
X10042Y6843D01*
G37*
G54D10*
X10009Y6531D02*
X10081Y6531D01*
X10096Y6515D01*
X10001Y7023D02*
G54D12*
D03*
X9898Y6809D02*
G54D12*
D03*
X9525Y6762D02*
G54D12*
D03*
G54D10*
X9525Y6762D02*
X9525Y6769D01*
X9557Y6801D01*
X9636Y6801D01*
G54D10*
X9898Y6809D02*
X9922Y6809D01*
X9977Y6754D01*
G54D10*
X10128Y7293D02*
X10184Y7293D01*
X10287Y7341D01*
X10287Y7325D02*
G54D12*
D03*
G36*
X10353Y7747D02*
X10353Y7642D01*
X10263Y7642D01*
X10263Y7747D01*
X10353Y7747D01*
G37*
G36*
X10353Y7500D02*
X10353Y7395D01*
X10263Y7395D01*
X10263Y7500D01*
X10353Y7500D01*
G37*
G54D10*
X10358Y6976D02*
X10358Y7373D01*
X10295Y7436D01*
G54D10*
X9970Y7420D02*
X9970Y7500D01*
X10017Y7547D01*
X10128Y7555D01*
X10279Y7698D01*
X10279Y7690D02*
G54D12*
D03*
G54D10*
X8723Y7206D02*
X8723Y7222D01*
X8644Y7293D01*
X8517Y7293D01*
X8453Y7230D01*
X8382Y7230D01*
X8334Y7182D01*
X8334Y6619D01*
X8342Y6611D01*
X9231Y7198D02*
G54D12*
D03*
X9287Y7277D02*
G54D12*
D03*
G54D10*
X9223Y7222D02*
X9223Y7325D01*
X9239Y7341D01*
G54D10*
X9327Y7349D02*
X9327Y7317D01*
X9287Y7277D01*
G36*
X8715Y7562D02*
X9415Y7562D01*
X9415Y7532D01*
X8715Y7532D01*
X8715Y7562D01*
G37*
G36*
X8660Y7640D02*
X8744Y7555D01*
X8723Y7534D01*
X8638Y7619D01*
X8660Y7640D01*
G37*
G36*
X9475Y7603D02*
X9405Y7533D01*
X9383Y7554D01*
X9454Y7625D01*
X9475Y7603D01*
G37*
G54D10*
X8398Y7563D02*
X8692Y7563D01*
X9414Y7238D02*
G54D12*
D03*
G54D10*
X9485Y7341D02*
X9485Y7325D01*
X9414Y7254D01*
G36*
X10999Y7226D02*
X11099Y7226D01*
X11099Y7186D01*
X10999Y7186D01*
X10999Y7226D01*
G37*
G36*
X10999Y7146D02*
X11099Y7146D01*
X11099Y7106D01*
X10999Y7106D01*
X10999Y7146D01*
G37*
G36*
X10999Y7066D02*
X11099Y7066D01*
X11099Y7026D01*
X10999Y7026D01*
X10999Y7066D01*
G37*
G36*
X10999Y6986D02*
X11099Y6986D01*
X11099Y6946D01*
X10999Y6946D01*
X10999Y6986D01*
G37*
G36*
X10999Y6906D02*
X11099Y6906D01*
X11099Y6866D01*
X10999Y6866D01*
X10999Y6906D01*
G37*
G36*
X10999Y6826D02*
X11099Y6826D01*
X11099Y6786D01*
X10999Y6786D01*
X10999Y6826D01*
G37*
G36*
X10999Y6746D02*
X11099Y6746D01*
X11099Y6706D01*
X10999Y6706D01*
X10999Y6746D01*
G37*
G36*
X10999Y6666D02*
X11099Y6666D01*
X11099Y6626D01*
X10999Y6626D01*
X10999Y6666D01*
G37*
G36*
X11899Y7226D02*
X11999Y7226D01*
X11999Y7186D01*
X11899Y7186D01*
X11899Y7226D01*
G37*
G36*
X11899Y7146D02*
X11999Y7146D01*
X11999Y7106D01*
X11899Y7106D01*
X11899Y7146D01*
G37*
G36*
X11899Y7066D02*
X11999Y7066D01*
X11999Y7026D01*
X11899Y7026D01*
X11899Y7066D01*
G37*
G36*
X11899Y6986D02*
X11999Y6986D01*
X11999Y6946D01*
X11899Y6946D01*
X11899Y6986D01*
G37*
G36*
X11899Y6906D02*
X11999Y6906D01*
X11999Y6866D01*
X11899Y6866D01*
X11899Y6906D01*
G37*
G36*
X11899Y6826D02*
X11999Y6826D01*
X11999Y6786D01*
X11899Y6786D01*
X11899Y6826D01*
G37*
G36*
X11899Y6746D02*
X11999Y6746D01*
X11999Y6706D01*
X11899Y6706D01*
X11899Y6746D01*
G37*
G36*
X11899Y6666D02*
X11999Y6666D01*
X11999Y6626D01*
X11899Y6626D01*
X11899Y6666D01*
G37*
G36*
X11199Y7426D02*
X11239Y7426D01*
X11239Y7326D01*
X11199Y7326D01*
X11199Y7426D01*
G37*
G36*
X11279Y7426D02*
X11319Y7426D01*
X11319Y7326D01*
X11279Y7326D01*
X11279Y7426D01*
G37*
G36*
X11359Y7426D02*
X11399Y7426D01*
X11399Y7326D01*
X11359Y7326D01*
X11359Y7426D01*
G37*
G36*
X11439Y7426D02*
X11479Y7426D01*
X11479Y7326D01*
X11439Y7326D01*
X11439Y7426D01*
G37*
G36*
X11519Y7426D02*
X11559Y7426D01*
X11559Y7326D01*
X11519Y7326D01*
X11519Y7426D01*
G37*
G36*
X11599Y7426D02*
X11639Y7426D01*
X11639Y7326D01*
X11599Y7326D01*
X11599Y7426D01*
G37*
G36*
X11679Y7426D02*
X11719Y7426D01*
X11719Y7326D01*
X11679Y7326D01*
X11679Y7426D01*
G37*
G36*
X11759Y7426D02*
X11799Y7426D01*
X11799Y7326D01*
X11759Y7326D01*
X11759Y7426D01*
G37*
G36*
X11199Y6526D02*
X11239Y6526D01*
X11239Y6426D01*
X11199Y6426D01*
X11199Y6526D01*
G37*
G36*
X11279Y6526D02*
X11319Y6526D01*
X11319Y6426D01*
X11279Y6426D01*
X11279Y6526D01*
G37*
G36*
X11369Y6526D02*
X11409Y6526D01*
X11409Y6426D01*
X11369Y6426D01*
X11369Y6526D01*
G37*
G36*
X11439Y6526D02*
X11479Y6526D01*
X11479Y6426D01*
X11439Y6426D01*
X11439Y6526D01*
G37*
G36*
X11519Y6526D02*
X11559Y6526D01*
X11559Y6426D01*
X11519Y6426D01*
X11519Y6526D01*
G37*
G36*
X11599Y6526D02*
X11639Y6526D01*
X11639Y6426D01*
X11599Y6426D01*
X11599Y6526D01*
G37*
G36*
X11679Y6526D02*
X11719Y6526D01*
X11719Y6426D01*
X11679Y6426D01*
X11679Y6526D01*
G37*
G36*
X11759Y6526D02*
X11799Y6526D01*
X11799Y6426D01*
X11759Y6426D01*
X11759Y6526D01*
G37*
G54D10*
X11700Y6500D02*
X11700Y6563D01*
X11843Y6563D01*
X11898Y6476D01*
G54D11*
X11065Y7047D02*
X11160Y7047D01*
X11160Y6881D01*
X11057Y6881D01*
G54D11*
X11025Y6968D02*
X10954Y6968D01*
X10954Y6809D01*
X11168Y6809D01*
G54D11*
X11168Y6809D02*
X11724Y6809D01*
X11803Y6888D01*
X11922Y6888D01*
G54D11*
X11914Y6968D02*
X11803Y6968D01*
X11787Y6968D01*
X11700Y6881D01*
X11136Y6881D01*
G54D11*
X11978Y6968D02*
X12049Y6968D01*
X12136Y7063D01*
X12248Y7127D01*
G54D10*
X11978Y6881D02*
X12081Y6881D01*
X12156Y6948D01*
X12200Y7016D01*
G36*
X12131Y7081D02*
X12131Y6991D01*
X12041Y6991D01*
X12041Y7081D01*
X12131Y7081D01*
G37*
G36*
X12130Y6914D02*
X12130Y6824D01*
X12040Y6824D01*
X12040Y6914D01*
X12130Y6914D01*
G37*
G36*
X10947Y7136D02*
X10947Y7046D01*
X10857Y7046D01*
X10857Y7136D01*
X10947Y7136D01*
G37*
G36*
X10946Y6969D02*
X10946Y6879D01*
X10856Y6879D01*
X10856Y6969D01*
X10946Y6969D01*
G37*
G54D10*
X10700Y7111D02*
X10779Y7111D01*
X10803Y7087D01*
X10803Y6881D01*
X10847Y6841D01*
X10877Y6817D01*
X10905Y6797D01*
X10916Y6777D01*
X10946Y6730D01*
X11033Y6730D01*
G54D11*
X11017Y7047D02*
X10946Y7047D01*
X10922Y7071D01*
X11454Y7246D02*
G54D12*
D03*
G54D11*
X11462Y7341D02*
X11462Y7254D01*
X12113Y6158D02*
G54D13*
D03*
X11859Y6158D02*
G54D13*
D03*
X11605Y6158D02*
G54D13*
D03*
X11351Y6158D02*
G54D14*
D03*
X11097Y6158D02*
G54D13*
D03*
X10843Y6158D02*
G54D13*
D03*
X11898Y6476D02*
G54D12*
D03*
G54D10*
X11692Y6436D02*
X11692Y6325D01*
X11686Y6283D01*
X11672Y6242D01*
X11660Y6206D01*
G54D10*
X11779Y6428D02*
X11859Y6428D01*
X11859Y6238D01*
X11541Y6587D02*
G54D12*
D03*
G54D10*
X11541Y6587D02*
X11541Y6500D01*
X11620Y6587D02*
G54D12*
D03*
G54D10*
X11620Y6587D02*
X11620Y6515D01*
X11295Y7277D02*
G54D12*
D03*
X11382Y7277D02*
G54D12*
D03*
G54D10*
X11295Y7277D02*
X11295Y7349D01*
G54D10*
X11382Y7277D02*
X11382Y7357D01*
G54D10*
X12224Y6309D02*
X12176Y6436D01*
X12025Y6436D01*
X11811Y6674D01*
X10978Y6809D02*
G54D12*
D03*
G36*
X12162Y7383D02*
X12162Y7293D01*
X12072Y7293D01*
X12072Y7383D01*
X12162Y7383D01*
G37*
G36*
X12162Y7216D02*
X12162Y7126D01*
X12072Y7126D01*
X12072Y7216D01*
X12162Y7216D01*
G37*
G54D10*
X11462Y7254D02*
X11464Y7095D01*
X11545Y7095D01*
X11692Y7095D01*
X11718Y7158D01*
X11762Y7206D01*
X11791Y7254D01*
X11843Y7254D01*
X11859Y7262D01*
X12017Y7262D01*
X12097Y7182D01*
G54D10*
X12089Y7341D02*
X12208Y7341D01*
X12240Y7325D01*
X12113Y7682D02*
G54D13*
D03*
X11859Y7682D02*
G54D13*
D03*
X11605Y7682D02*
G54D13*
D03*
X11351Y7682D02*
G54D13*
D03*
X11097Y7682D02*
G54D13*
D03*
X10843Y7682D02*
G54D13*
D03*
G36*
X10681Y6331D02*
X10681Y6401D01*
X10781Y6401D01*
X10781Y6331D01*
X10681Y6331D01*
G37*
G36*
X10681Y6521D02*
X10681Y6591D01*
X10781Y6591D01*
X10781Y6521D01*
X10681Y6521D01*
G37*
G36*
X10919Y6331D02*
X10919Y6401D01*
X11019Y6401D01*
X11019Y6331D01*
X10919Y6331D01*
G37*
G36*
X10919Y6521D02*
X10919Y6591D01*
X11019Y6591D01*
X11019Y6521D01*
X10919Y6521D01*
G37*
G36*
X10919Y6426D02*
X10919Y6496D01*
X11019Y6496D01*
X11019Y6426D01*
X10919Y6426D01*
G37*
G54D10*
X10755Y6325D02*
X10767Y6285D01*
X10779Y6166D01*
X11081Y6531D02*
G54D12*
D03*
X11176Y6888D02*
G54D12*
D03*
X12367Y6150D02*
G54D15*
D03*
X10906Y7119D02*
G54D12*
D03*
G36*
X10931Y7422D02*
X10931Y7332D01*
X10841Y7332D01*
X10841Y7422D01*
X10931Y7422D01*
G37*
G36*
X10930Y7255D02*
X10930Y7165D01*
X10840Y7165D01*
X10840Y7255D01*
X10930Y7255D01*
G37*
X10986Y7333D02*
G54D12*
D03*
X10835Y7214D02*
G54D12*
D03*
G54D10*
X10898Y7396D02*
X10986Y7333D01*
G54D10*
X10898Y7214D02*
X10914Y7214D01*
X10966Y7170D01*
X11001Y7127D01*
G54D10*
X10684Y7365D02*
X10700Y7389D01*
X10759Y7464D01*
X10795Y7516D01*
X10962Y7516D01*
X11152Y7325D01*
X11200Y7325D01*
X11216Y7341D01*
G54D10*
X12081Y6849D02*
X12025Y6762D01*
X11954Y6722D01*
X11771Y7119D02*
G54D12*
D03*
G54D10*
X11359Y7047D02*
X11922Y7047D01*
X12367Y7682D02*
G54D15*
D03*
G54D10*
X11700Y7404D02*
X11700Y7428D01*
X11819Y7547D01*
X12136Y7547D01*
X12188Y7583D01*
X12303Y7698D01*
G54D10*
X11771Y7119D02*
X11839Y7119D01*
X11938Y7119D01*
G54D10*
X11859Y6095D02*
X11859Y5992D01*
X10779Y5992D01*
X10720Y6000D01*
X10676Y6023D01*
X12422Y7436D02*
G54D13*
D03*
X10986Y6341D02*
G54D12*
D03*
X10779Y7349D02*
G54D12*
D03*
G54D10*
X11359Y7047D02*
X11148Y7246D01*
X11120Y7293D01*
X11001Y7412D01*
X10970Y7444D01*
X10946Y7468D01*
X10827Y7468D01*
X10803Y7444D01*
X10779Y7349D01*
G36*
X12464Y6899D02*
X12464Y6809D01*
X12374Y6809D01*
X12374Y6899D01*
X12464Y6899D01*
G37*
G36*
X12463Y6732D02*
X12463Y6642D01*
X12373Y6642D01*
X12373Y6732D01*
X12463Y6732D01*
G37*
G36*
X12456Y6573D02*
X12456Y6483D01*
X12366Y6483D01*
X12366Y6573D01*
X12456Y6573D01*
G37*
G36*
X12455Y6406D02*
X12455Y6316D01*
X12365Y6316D01*
X12365Y6406D01*
X12455Y6406D01*
G37*
G54D10*
X12494Y6523D02*
X12430Y6523D01*
G36*
X12364Y6994D02*
X12464Y6994D01*
X12464Y6894D01*
X12364Y6894D01*
X12364Y6994D01*
G37*
G54D10*
X12414Y6936D02*
X12414Y6888D01*
X12414Y6865D01*
G36*
X11467Y6313D02*
X11377Y6312D01*
X11377Y6402D01*
X11467Y6403D01*
X11467Y6313D01*
G37*
G36*
X11300Y6314D02*
X11210Y6314D01*
X11210Y6404D01*
X11300Y6404D01*
X11300Y6314D01*
G37*
G36*
X11817Y6305D02*
X11727Y6305D01*
X11727Y6395D01*
X11817Y6395D01*
X11817Y6305D01*
G37*
G36*
X11650Y6306D02*
X11560Y6306D01*
X11560Y6396D01*
X11650Y6396D01*
X11650Y6306D01*
G37*
G54D10*
X11216Y6444D02*
X11232Y6373D01*
G54D10*
X11303Y6452D02*
X11335Y6416D01*
X11335Y6277D01*
X11581Y6277D01*
X11620Y6317D01*
G54D10*
X11811Y6674D02*
X11517Y6674D01*
X11462Y6619D01*
X11462Y6484D01*
G36*
X12062Y6500D02*
X12062Y6590D01*
X12152Y6590D01*
X12152Y6500D01*
X12062Y6500D01*
G37*
G36*
X12063Y6667D02*
X12063Y6757D01*
X12153Y6757D01*
X12153Y6667D01*
X12063Y6667D01*
G37*
G36*
X12158Y6297D02*
X12068Y6297D01*
X12068Y6387D01*
X12158Y6387D01*
X12158Y6297D01*
G37*
G36*
X11991Y6298D02*
X11901Y6298D01*
X11901Y6388D01*
X11991Y6388D01*
X11991Y6298D01*
G37*
X11946Y6412D02*
G54D12*
D03*
X11390Y6595D02*
G54D12*
D03*
G54D10*
X11390Y6595D02*
X11390Y6500D01*
G36*
X12364Y7056D02*
X12364Y7146D01*
X12454Y7146D01*
X12454Y7056D01*
X12364Y7056D01*
G37*
G36*
X12365Y7223D02*
X12365Y7313D01*
X12455Y7313D01*
X12455Y7223D01*
X12365Y7223D01*
G37*
X12192Y7008D02*
G54D12*
D03*
G54D10*
X12263Y7127D02*
X12263Y7166D01*
X12311Y7206D01*
X12311Y7341D01*
X11438Y6349D02*
G54D12*
D03*
X11763Y6285D02*
G54D12*
D03*
X12057Y6309D02*
G54D12*
D03*
G54D10*
X12057Y6301D02*
X11986Y6230D01*
X11986Y6047D01*
X12009Y6023D01*
X12422Y6023D01*
X12494Y6095D01*
X12494Y6285D01*
X12438Y6341D01*
G36*
X11837Y7449D02*
X11927Y7449D01*
X11927Y7359D01*
X11837Y7359D01*
X11837Y7449D01*
G37*
G36*
X11949Y7449D02*
X12039Y7449D01*
X12039Y7359D01*
X11949Y7359D01*
X11949Y7449D01*
G37*
G36*
X11837Y7342D02*
X12087Y7342D01*
X12087Y7292D01*
X11837Y7292D01*
X11837Y7342D01*
G37*
G36*
X11839Y7517D02*
X12069Y7517D01*
X12069Y7467D01*
X11839Y7467D01*
X11839Y7517D01*
G37*
G54D10*
X11779Y7396D02*
X11859Y7396D01*
G54D10*
X12041Y7492D02*
X12105Y7488D01*
X12105Y7420D01*
X12263Y7420D01*
X12311Y7341D01*
X11994Y7404D02*
G54D12*
D03*
X11835Y7182D02*
G54D12*
D03*
G54D10*
X11835Y7182D02*
X11859Y7182D01*
X11882Y7206D01*
X11930Y7206D01*
G54D10*
X11970Y6650D02*
X11994Y6650D01*
X12017Y6627D01*
X12176Y6627D01*
X12200Y6575D01*
X12232Y6420D01*
X10684Y7341D02*
G54D12*
D03*
X10692Y7119D02*
G54D12*
D03*
X10636Y6611D02*
G54D12*
D03*
X10660Y6055D02*
G54D12*
D03*
X12240Y7325D02*
G54D12*
D03*
X12263Y7119D02*
G54D12*
D03*
X12248Y6428D02*
G54D12*
D03*
X12232Y6309D02*
G54D12*
D03*
G54D10*
X12105Y6539D02*
X12105Y6436D01*
G54D10*
X11970Y6722D02*
X12113Y6722D01*
G36*
X12337Y6764D02*
X12337Y6674D01*
X12247Y6674D01*
X12247Y6764D01*
X12337Y6764D01*
G37*
G36*
X12336Y6597D02*
X12336Y6507D01*
X12246Y6507D01*
X12246Y6597D01*
X12336Y6597D01*
G37*
G54D10*
X12097Y6714D02*
X12196Y6690D01*
X12217Y6652D01*
X12239Y6631D01*
X12353Y6634D01*
X12422Y6706D01*
G36*
X10819Y6920D02*
X10819Y6890D01*
X10659Y6890D01*
X10659Y6920D01*
X10819Y6920D01*
G37*
G36*
X10819Y6825D02*
X10819Y6795D01*
X10659Y6795D01*
X10659Y6825D01*
X10819Y6825D01*
G37*
G36*
X10819Y6730D02*
X10819Y6700D01*
X10659Y6700D01*
X10659Y6730D01*
X10819Y6730D01*
G37*
G54D10*
X10787Y6706D02*
X10803Y6690D01*
X10843Y6650D01*
X11025Y6650D01*
X10866Y6746D02*
G54D12*
D03*
G54D10*
X10787Y6801D02*
X10787Y6785D01*
X10858Y6754D01*
G36*
X10702Y7738D02*
X10702Y7648D01*
X10612Y7648D01*
X10612Y7738D01*
X10702Y7738D01*
G37*
G36*
X10700Y7572D02*
X10700Y7482D01*
X10610Y7482D01*
X10610Y7572D01*
X10700Y7572D01*
G37*
G36*
X10610Y6211D02*
X10610Y6301D01*
X10700Y6301D01*
X10700Y6211D01*
X10610Y6211D01*
G37*
G36*
X10611Y6426D02*
X10611Y6516D01*
X10701Y6516D01*
X10701Y6426D01*
X10611Y6426D01*
G37*
G54D10*
X11073Y6531D02*
X11049Y6460D01*
X11001Y6444D01*
X10986Y6555D02*
G54D12*
D03*
G36*
X10900Y6516D02*
X10900Y6426D01*
X10810Y6426D01*
X10810Y6516D01*
X10900Y6516D01*
G37*
G36*
X10899Y6349D02*
X10899Y6259D01*
X10809Y6259D01*
X10809Y6349D01*
X10899Y6349D01*
G37*
G54D10*
X10747Y6555D02*
X10851Y6476D01*
X10660Y7698D02*
G54D12*
D03*
X10668Y7492D02*
G54D12*
D03*
G36*
X11299Y6313D02*
X11209Y6313D01*
X11209Y6403D01*
X11299Y6403D01*
X11299Y6313D01*
G37*
G36*
X11132Y6314D02*
X11042Y6314D01*
X11042Y6404D01*
X11132Y6404D01*
X11132Y6314D01*
G37*
G54D10*
X10874Y6309D02*
X10890Y6289D01*
X10922Y6269D01*
X11017Y6269D01*
X11041Y6285D01*
X11105Y6357D01*
G54D10*
X11335Y6269D02*
X11247Y6269D01*
X11224Y6246D01*
X11224Y6039D01*
X10787Y6039D01*
X10652Y6174D01*
X10652Y6246D01*
G54D10*
X10652Y6484D02*
X10708Y6539D01*
X10747Y6071D02*
G54D12*
D03*
G54D10*
X12263Y7124D02*
X12466Y7122D01*
X12470Y7033D01*
X12486Y7030D01*
X12502Y6996D01*
X12502Y6523D01*
G54D10*
X12160Y6190D02*
X12224Y6190D01*
X12319Y6285D01*
X12319Y6444D01*
X12327Y6444D01*
X12390Y6508D01*
G36*
X12623Y6621D02*
X12623Y6531D01*
X12533Y6531D01*
X12533Y6621D01*
X12623Y6621D01*
G37*
G36*
X12622Y6454D02*
X12622Y6364D01*
X12532Y6364D01*
X12532Y6454D01*
X12622Y6454D01*
G37*
G36*
X12623Y6931D02*
X12623Y6841D01*
X12533Y6841D01*
X12533Y6931D01*
X12623Y6931D01*
G37*
G36*
X12622Y6764D02*
X12622Y6674D01*
X12532Y6674D01*
X12532Y6764D01*
X12622Y6764D01*
G37*
G36*
X12623Y7264D02*
X12623Y7174D01*
X12533Y7174D01*
X12533Y7264D01*
X12623Y7264D01*
G37*
G36*
X12622Y7097D02*
X12622Y7007D01*
X12532Y7007D01*
X12532Y7097D01*
X12622Y7097D01*
G37*
G36*
X12623Y6311D02*
X12623Y6221D01*
X12533Y6221D01*
X12533Y6311D01*
X12623Y6311D01*
G37*
G36*
X12622Y6144D02*
X12622Y6054D01*
X12532Y6054D01*
X12532Y6144D01*
X12622Y6144D01*
G37*
X12589Y6476D02*
G54D12*
D03*
X12581Y6944D02*
G54D12*
D03*
G54D10*
X12589Y6571D02*
X12589Y6722D01*
X12589Y6738D02*
G54D12*
D03*
X12581Y7214D02*
G54D12*
D03*
G54D10*
X12581Y7047D02*
X12652Y6980D01*
X12652Y6111D01*
X12605Y6079D01*
X12557Y6317D02*
G54D12*
D03*
X12549Y6063D02*
G54D12*
D03*
G36*
X12337Y7010D02*
X12337Y6920D01*
X12247Y6920D01*
X12247Y7010D01*
X12337Y7010D01*
G37*
G36*
X12336Y6843D02*
X12336Y6753D01*
X12246Y6753D01*
X12246Y6843D01*
X12336Y6843D01*
G37*
G54D10*
X12303Y6531D02*
X12375Y6531D01*
X12390Y6515D01*
X12295Y7023D02*
G54D12*
D03*
X12192Y6809D02*
G54D12*
D03*
X11819Y6762D02*
G54D12*
D03*
G54D10*
X11819Y6762D02*
X11819Y6769D01*
X11851Y6801D01*
X11930Y6801D01*
G54D10*
X12192Y6809D02*
X12216Y6809D01*
X12271Y6754D01*
G54D10*
X12422Y7293D02*
X12478Y7293D01*
X12581Y7341D01*
X12581Y7325D02*
G54D12*
D03*
G36*
X12647Y7747D02*
X12647Y7642D01*
X12557Y7642D01*
X12557Y7747D01*
X12647Y7747D01*
G37*
G36*
X12647Y7500D02*
X12647Y7395D01*
X12557Y7395D01*
X12557Y7500D01*
X12647Y7500D01*
G37*
G54D10*
X12652Y6976D02*
X12652Y7373D01*
X12589Y7436D01*
G54D10*
X12263Y7420D02*
X12263Y7500D01*
X12311Y7547D01*
X12422Y7555D01*
X12573Y7698D01*
X12573Y7690D02*
G54D12*
D03*
G54D10*
X11017Y7206D02*
X11017Y7222D01*
X10938Y7293D01*
X10811Y7293D01*
X10747Y7230D01*
X10676Y7230D01*
X10628Y7182D01*
X10628Y6619D01*
X10636Y6611D01*
X11525Y7198D02*
G54D12*
D03*
X11581Y7277D02*
G54D12*
D03*
G54D10*
X11517Y7222D02*
X11517Y7325D01*
X11533Y7341D01*
G54D10*
X11620Y7349D02*
X11620Y7317D01*
X11581Y7277D01*
G36*
X11009Y7562D02*
X11709Y7562D01*
X11709Y7532D01*
X11009Y7532D01*
X11009Y7562D01*
G37*
G36*
X10954Y7640D02*
X11038Y7555D01*
X11017Y7534D01*
X10932Y7619D01*
X10954Y7640D01*
G37*
G36*
X11769Y7603D02*
X11698Y7533D01*
X11677Y7554D01*
X11748Y7625D01*
X11769Y7603D01*
G37*
G54D10*
X10692Y7563D02*
X10986Y7563D01*
X11708Y7238D02*
G54D12*
D03*
G54D10*
X11779Y7341D02*
X11779Y7325D01*
X11708Y7254D01*
G36*
X8705Y5170D02*
X8805Y5170D01*
X8805Y5130D01*
X8705Y5130D01*
X8705Y5170D01*
G37*
G36*
X8705Y5090D02*
X8805Y5090D01*
X8805Y5050D01*
X8705Y5050D01*
X8705Y5090D01*
G37*
G36*
X8705Y5010D02*
X8805Y5010D01*
X8805Y4970D01*
X8705Y4970D01*
X8705Y5010D01*
G37*
G36*
X8705Y4930D02*
X8805Y4930D01*
X8805Y4890D01*
X8705Y4890D01*
X8705Y4930D01*
G37*
G36*
X8705Y4850D02*
X8805Y4850D01*
X8805Y4810D01*
X8705Y4810D01*
X8705Y4850D01*
G37*
G36*
X8705Y4770D02*
X8805Y4770D01*
X8805Y4730D01*
X8705Y4730D01*
X8705Y4770D01*
G37*
G36*
X8705Y4690D02*
X8805Y4690D01*
X8805Y4650D01*
X8705Y4650D01*
X8705Y4690D01*
G37*
G36*
X8705Y4610D02*
X8805Y4610D01*
X8805Y4570D01*
X8705Y4570D01*
X8705Y4610D01*
G37*
G36*
X9605Y5170D02*
X9705Y5170D01*
X9705Y5130D01*
X9605Y5130D01*
X9605Y5170D01*
G37*
G36*
X9605Y5090D02*
X9705Y5090D01*
X9705Y5050D01*
X9605Y5050D01*
X9605Y5090D01*
G37*
G36*
X9605Y5010D02*
X9705Y5010D01*
X9705Y4970D01*
X9605Y4970D01*
X9605Y5010D01*
G37*
G36*
X9605Y4930D02*
X9705Y4930D01*
X9705Y4890D01*
X9605Y4890D01*
X9605Y4930D01*
G37*
G36*
X9605Y4850D02*
X9705Y4850D01*
X9705Y4810D01*
X9605Y4810D01*
X9605Y4850D01*
G37*
G36*
X9605Y4770D02*
X9705Y4770D01*
X9705Y4730D01*
X9605Y4730D01*
X9605Y4770D01*
G37*
G36*
X9605Y4690D02*
X9705Y4690D01*
X9705Y4650D01*
X9605Y4650D01*
X9605Y4690D01*
G37*
G36*
X9605Y4610D02*
X9705Y4610D01*
X9705Y4570D01*
X9605Y4570D01*
X9605Y4610D01*
G37*
G36*
X8905Y5370D02*
X8945Y5370D01*
X8945Y5270D01*
X8905Y5270D01*
X8905Y5370D01*
G37*
G36*
X8985Y5370D02*
X9025Y5370D01*
X9025Y5270D01*
X8985Y5270D01*
X8985Y5370D01*
G37*
G36*
X9065Y5370D02*
X9105Y5370D01*
X9105Y5270D01*
X9065Y5270D01*
X9065Y5370D01*
G37*
G36*
X9145Y5370D02*
X9185Y5370D01*
X9185Y5270D01*
X9145Y5270D01*
X9145Y5370D01*
G37*
G36*
X9225Y5370D02*
X9265Y5370D01*
X9265Y5270D01*
X9225Y5270D01*
X9225Y5370D01*
G37*
G36*
X9305Y5370D02*
X9345Y5370D01*
X9345Y5270D01*
X9305Y5270D01*
X9305Y5370D01*
G37*
G36*
X9385Y5370D02*
X9425Y5370D01*
X9425Y5270D01*
X9385Y5270D01*
X9385Y5370D01*
G37*
G36*
X9465Y5370D02*
X9505Y5370D01*
X9505Y5270D01*
X9465Y5270D01*
X9465Y5370D01*
G37*
G36*
X8905Y4470D02*
X8945Y4470D01*
X8945Y4370D01*
X8905Y4370D01*
X8905Y4470D01*
G37*
G36*
X8985Y4470D02*
X9025Y4470D01*
X9025Y4370D01*
X8985Y4370D01*
X8985Y4470D01*
G37*
G36*
X9075Y4470D02*
X9115Y4470D01*
X9115Y4370D01*
X9075Y4370D01*
X9075Y4470D01*
G37*
G36*
X9145Y4470D02*
X9185Y4470D01*
X9185Y4370D01*
X9145Y4370D01*
X9145Y4470D01*
G37*
G36*
X9225Y4470D02*
X9265Y4470D01*
X9265Y4370D01*
X9225Y4370D01*
X9225Y4470D01*
G37*
G36*
X9305Y4470D02*
X9345Y4470D01*
X9345Y4370D01*
X9305Y4370D01*
X9305Y4470D01*
G37*
G36*
X9385Y4470D02*
X9425Y4470D01*
X9425Y4370D01*
X9385Y4370D01*
X9385Y4470D01*
G37*
G36*
X9465Y4470D02*
X9505Y4470D01*
X9505Y4370D01*
X9465Y4370D01*
X9465Y4470D01*
G37*
G54D10*
X9406Y4444D02*
X9406Y4507D01*
X9549Y4507D01*
X9604Y4420D01*
G54D11*
X8771Y4991D02*
X8866Y4991D01*
X8866Y4825D01*
X8763Y4825D01*
G54D11*
X8731Y4912D02*
X8660Y4912D01*
X8660Y4753D01*
X8874Y4753D01*
G54D11*
X8874Y4753D02*
X9430Y4753D01*
X9509Y4833D01*
X9628Y4833D01*
G54D11*
X9620Y4912D02*
X9509Y4912D01*
X9493Y4912D01*
X9406Y4825D01*
X8842Y4825D01*
G54D11*
X9684Y4912D02*
X9755Y4912D01*
X9842Y5007D01*
X9954Y5071D01*
G54D10*
X9684Y4825D02*
X9787Y4825D01*
X9862Y4892D01*
X9906Y4960D01*
G36*
X9837Y5026D02*
X9837Y4936D01*
X9747Y4936D01*
X9747Y5026D01*
X9837Y5026D01*
G37*
G36*
X9836Y4859D02*
X9836Y4769D01*
X9746Y4769D01*
X9746Y4859D01*
X9836Y4859D01*
G37*
G36*
X8653Y5080D02*
X8653Y4990D01*
X8563Y4990D01*
X8563Y5080D01*
X8653Y5080D01*
G37*
G36*
X8652Y4913D02*
X8652Y4823D01*
X8562Y4823D01*
X8562Y4913D01*
X8652Y4913D01*
G37*
G54D10*
X8406Y5055D02*
X8485Y5055D01*
X8509Y5031D01*
X8509Y4825D01*
X8553Y4785D01*
X8583Y4761D01*
X8611Y4741D01*
X8622Y4722D01*
X8652Y4674D01*
X8739Y4674D01*
G54D11*
X8723Y4991D02*
X8652Y4991D01*
X8628Y5015D01*
X9160Y5190D02*
G54D12*
D03*
G54D11*
X9168Y5285D02*
X9168Y5198D01*
X9819Y4102D02*
G54D13*
D03*
X9565Y4102D02*
G54D13*
D03*
X9311Y4102D02*
G54D13*
D03*
X9057Y4102D02*
G54D14*
D03*
X8803Y4102D02*
G54D13*
D03*
X8549Y4102D02*
G54D13*
D03*
X9604Y4420D02*
G54D12*
D03*
G54D10*
X9398Y4380D02*
X9398Y4269D01*
X9392Y4227D01*
X9378Y4186D01*
X9366Y4150D01*
G54D10*
X9485Y4372D02*
X9565Y4372D01*
X9565Y4182D01*
X9247Y4531D02*
G54D12*
D03*
G54D10*
X9247Y4531D02*
X9247Y4444D01*
X9327Y4531D02*
G54D12*
D03*
G54D10*
X9327Y4531D02*
X9327Y4460D01*
X9001Y5222D02*
G54D12*
D03*
X9088Y5222D02*
G54D12*
D03*
G54D10*
X9001Y5222D02*
X9001Y5293D01*
G54D10*
X9088Y5222D02*
X9088Y5301D01*
G54D10*
X9930Y4253D02*
X9882Y4380D01*
X9731Y4380D01*
X9517Y4618D01*
X8684Y4753D02*
G54D12*
D03*
G36*
X9869Y5327D02*
X9869Y5237D01*
X9779Y5237D01*
X9779Y5327D01*
X9869Y5327D01*
G37*
G36*
X9868Y5160D02*
X9868Y5070D01*
X9778Y5070D01*
X9778Y5160D01*
X9868Y5160D01*
G37*
G54D10*
X9168Y5198D02*
X9170Y5039D01*
X9251Y5039D01*
X9398Y5039D01*
X9424Y5103D01*
X9468Y5150D01*
X9497Y5198D01*
X9549Y5198D01*
X9565Y5206D01*
X9723Y5206D01*
X9803Y5126D01*
G54D10*
X9795Y5285D02*
X9914Y5285D01*
X9946Y5269D01*
X9819Y5626D02*
G54D13*
D03*
X9565Y5626D02*
G54D13*
D03*
X9311Y5626D02*
G54D13*
D03*
X9057Y5626D02*
G54D13*
D03*
X8803Y5626D02*
G54D13*
D03*
X8549Y5626D02*
G54D13*
D03*
G36*
X8387Y4275D02*
X8387Y4345D01*
X8487Y4345D01*
X8487Y4275D01*
X8387Y4275D01*
G37*
G36*
X8387Y4465D02*
X8387Y4535D01*
X8487Y4535D01*
X8487Y4465D01*
X8387Y4465D01*
G37*
G36*
X8625Y4275D02*
X8625Y4345D01*
X8725Y4345D01*
X8725Y4275D01*
X8625Y4275D01*
G37*
G36*
X8625Y4465D02*
X8625Y4535D01*
X8725Y4535D01*
X8725Y4465D01*
X8625Y4465D01*
G37*
G36*
X8625Y4370D02*
X8625Y4440D01*
X8725Y4440D01*
X8725Y4370D01*
X8625Y4370D01*
G37*
G54D10*
X8461Y4269D02*
X8473Y4229D01*
X8485Y4110D01*
X8787Y4476D02*
G54D12*
D03*
X8882Y4833D02*
G54D12*
D03*
X10073Y4094D02*
G54D15*
D03*
X8612Y5063D02*
G54D12*
D03*
G36*
X8637Y5366D02*
X8637Y5276D01*
X8547Y5276D01*
X8547Y5366D01*
X8637Y5366D01*
G37*
G36*
X8636Y5199D02*
X8636Y5109D01*
X8546Y5109D01*
X8546Y5199D01*
X8636Y5199D01*
G37*
X8692Y5277D02*
G54D12*
D03*
X8541Y5158D02*
G54D12*
D03*
G54D10*
X8604Y5341D02*
X8692Y5277D01*
G54D10*
X8604Y5158D02*
X8620Y5158D01*
X8672Y5114D01*
X8707Y5071D01*
G54D10*
X8390Y5309D02*
X8406Y5333D01*
X8465Y5408D01*
X8501Y5460D01*
X8668Y5460D01*
X8858Y5269D01*
X8906Y5269D01*
X8922Y5285D01*
G54D10*
X9787Y4793D02*
X9731Y4706D01*
X9660Y4666D01*
X9477Y5063D02*
G54D12*
D03*
G54D10*
X9065Y4991D02*
X9628Y4991D01*
X10073Y5626D02*
G54D15*
D03*
G54D10*
X9406Y5349D02*
X9406Y5372D01*
X9525Y5492D01*
X9842Y5492D01*
X9894Y5527D01*
X10009Y5642D01*
G54D10*
X9477Y5063D02*
X9545Y5063D01*
X9644Y5063D01*
G54D10*
X9565Y4039D02*
X9565Y3936D01*
X8485Y3936D01*
X8426Y3944D01*
X8382Y3968D01*
X10128Y5380D02*
G54D13*
D03*
X8692Y4285D02*
G54D12*
D03*
X8485Y5293D02*
G54D12*
D03*
G54D10*
X9065Y4991D02*
X8854Y5190D01*
X8826Y5238D01*
X8707Y5357D01*
X8676Y5388D01*
X8652Y5412D01*
X8533Y5412D01*
X8509Y5388D01*
X8485Y5293D01*
G36*
X10170Y4843D02*
X10170Y4753D01*
X10080Y4753D01*
X10080Y4843D01*
X10170Y4843D01*
G37*
G36*
X10169Y4676D02*
X10169Y4586D01*
X10079Y4586D01*
X10079Y4676D01*
X10169Y4676D01*
G37*
G36*
X10162Y4518D02*
X10162Y4428D01*
X10072Y4428D01*
X10072Y4518D01*
X10162Y4518D01*
G37*
G36*
X10161Y4351D02*
X10161Y4261D01*
X10071Y4261D01*
X10071Y4351D01*
X10161Y4351D01*
G37*
G54D10*
X10200Y4468D02*
X10136Y4468D01*
G36*
X10070Y4938D02*
X10170Y4938D01*
X10170Y4838D01*
X10070Y4838D01*
X10070Y4938D01*
G37*
G54D10*
X10120Y4880D02*
X10120Y4833D01*
X10120Y4809D01*
G36*
X9173Y4257D02*
X9084Y4257D01*
X9083Y4347D01*
X9173Y4347D01*
X9173Y4257D01*
G37*
G36*
X9006Y4258D02*
X8916Y4258D01*
X8916Y4348D01*
X9006Y4348D01*
X9006Y4258D01*
G37*
G36*
X9523Y4249D02*
X9433Y4249D01*
X9433Y4339D01*
X9523Y4339D01*
X9523Y4249D01*
G37*
G36*
X9356Y4250D02*
X9266Y4250D01*
X9266Y4340D01*
X9356Y4340D01*
X9356Y4250D01*
G37*
G54D10*
X8922Y4388D02*
X8938Y4317D01*
G54D10*
X9009Y4396D02*
X9041Y4360D01*
X9041Y4222D01*
X9287Y4222D01*
X9327Y4261D01*
G54D10*
X9517Y4618D02*
X9223Y4618D01*
X9168Y4563D01*
X9168Y4428D01*
G36*
X9769Y4444D02*
X9768Y4534D01*
X9858Y4535D01*
X9859Y4445D01*
X9769Y4444D01*
G37*
G36*
X9770Y4612D02*
X9770Y4702D01*
X9860Y4702D01*
X9860Y4612D01*
X9770Y4612D01*
G37*
G36*
X9864Y4241D02*
X9774Y4241D01*
X9774Y4331D01*
X9864Y4331D01*
X9864Y4241D01*
G37*
G36*
X9697Y4242D02*
X9607Y4242D01*
X9607Y4332D01*
X9697Y4332D01*
X9697Y4242D01*
G37*
X9652Y4356D02*
G54D12*
D03*
X9096Y4539D02*
G54D12*
D03*
G54D10*
X9096Y4539D02*
X9096Y4444D01*
G36*
X10070Y5000D02*
X10070Y5090D01*
X10160Y5090D01*
X10160Y5000D01*
X10070Y5000D01*
G37*
G36*
X10071Y5167D02*
X10071Y5257D01*
X10161Y5257D01*
X10161Y5167D01*
X10071Y5167D01*
G37*
X9898Y4952D02*
G54D12*
D03*
G54D10*
X9970Y5071D02*
X9970Y5110D01*
X10017Y5150D01*
X10017Y5285D01*
X9144Y4293D02*
G54D12*
D03*
X9469Y4229D02*
G54D12*
D03*
X9763Y4253D02*
G54D12*
D03*
G54D10*
X9763Y4245D02*
X9692Y4174D01*
X9692Y3991D01*
X9716Y3968D01*
X10128Y3968D01*
X10200Y4039D01*
X10200Y4229D01*
X10144Y4285D01*
G36*
X9544Y5394D02*
X9634Y5394D01*
X9634Y5304D01*
X9544Y5304D01*
X9544Y5394D01*
G37*
G36*
X9655Y5394D02*
X9745Y5394D01*
X9745Y5304D01*
X9655Y5304D01*
X9655Y5394D01*
G37*
G36*
X9543Y5286D02*
X9793Y5286D01*
X9793Y5236D01*
X9543Y5236D01*
X9543Y5286D01*
G37*
G36*
X9545Y5461D02*
X9775Y5461D01*
X9775Y5411D01*
X9545Y5411D01*
X9545Y5461D01*
G37*
G54D10*
X9485Y5341D02*
X9565Y5341D01*
G54D10*
X9747Y5436D02*
X9811Y5432D01*
X9811Y5364D01*
X9970Y5364D01*
X10017Y5285D01*
X9700Y5349D02*
G54D12*
D03*
X9541Y5126D02*
G54D12*
D03*
G54D10*
X9541Y5126D02*
X9565Y5126D01*
X9588Y5150D01*
X9636Y5150D01*
G54D10*
X9676Y4595D02*
X9700Y4595D01*
X9723Y4571D01*
X9882Y4571D01*
X9906Y4519D01*
X9938Y4364D01*
X8390Y5285D02*
G54D12*
D03*
X8398Y5063D02*
G54D12*
D03*
X8342Y4555D02*
G54D12*
D03*
X8366Y3999D02*
G54D12*
D03*
X9946Y5269D02*
G54D12*
D03*
X9970Y5063D02*
G54D12*
D03*
X9954Y4372D02*
G54D12*
D03*
X9938Y4253D02*
G54D12*
D03*
G54D10*
X9811Y4483D02*
X9811Y4380D01*
G54D10*
X9676Y4666D02*
X9819Y4666D01*
G36*
X10043Y4708D02*
X10043Y4618D01*
X9953Y4618D01*
X9953Y4708D01*
X10043Y4708D01*
G37*
G36*
X10042Y4541D02*
X10042Y4451D01*
X9952Y4451D01*
X9952Y4541D01*
X10042Y4541D01*
G37*
G54D10*
X9803Y4658D02*
X9902Y4634D01*
X9923Y4597D01*
X9945Y4575D01*
X10059Y4579D01*
X10128Y4650D01*
G36*
X8525Y4864D02*
X8525Y4834D01*
X8365Y4834D01*
X8365Y4864D01*
X8525Y4864D01*
G37*
G36*
X8525Y4769D02*
X8525Y4739D01*
X8365Y4739D01*
X8365Y4769D01*
X8525Y4769D01*
G37*
G36*
X8525Y4674D02*
X8525Y4644D01*
X8365Y4644D01*
X8365Y4674D01*
X8525Y4674D01*
G37*
G54D10*
X8493Y4650D02*
X8509Y4634D01*
X8549Y4595D01*
X8731Y4595D01*
X8572Y4690D02*
G54D12*
D03*
G54D10*
X8493Y4745D02*
X8493Y4730D01*
X8565Y4698D01*
G36*
X8408Y5683D02*
X8408Y5593D01*
X8318Y5593D01*
X8318Y5683D01*
X8408Y5683D01*
G37*
G36*
X8407Y5516D02*
X8407Y5426D01*
X8317Y5426D01*
X8317Y5516D01*
X8407Y5516D01*
G37*
G36*
X8316Y4156D02*
X8316Y4246D01*
X8406Y4246D01*
X8406Y4156D01*
X8316Y4156D01*
G37*
G36*
X8317Y4370D02*
X8317Y4460D01*
X8407Y4460D01*
X8407Y4370D01*
X8317Y4370D01*
G37*
G54D10*
X8779Y4476D02*
X8755Y4404D01*
X8707Y4388D01*
X8692Y4499D02*
G54D12*
D03*
G36*
X8606Y4460D02*
X8606Y4370D01*
X8516Y4370D01*
X8516Y4460D01*
X8606Y4460D01*
G37*
G36*
X8605Y4293D02*
X8605Y4203D01*
X8515Y4203D01*
X8515Y4293D01*
X8605Y4293D01*
G37*
G54D10*
X8453Y4499D02*
X8557Y4420D01*
X8366Y5642D02*
G54D12*
D03*
X8374Y5436D02*
G54D12*
D03*
G36*
X9005Y4258D02*
X8915Y4258D01*
X8915Y4348D01*
X9005Y4348D01*
X9005Y4258D01*
G37*
G36*
X8838Y4259D02*
X8748Y4259D01*
X8748Y4349D01*
X8838Y4349D01*
X8838Y4259D01*
G37*
G54D10*
X8580Y4253D02*
X8596Y4233D01*
X8628Y4214D01*
X8723Y4214D01*
X8747Y4229D01*
X8811Y4301D01*
G54D10*
X9041Y4214D02*
X8954Y4214D01*
X8930Y4190D01*
X8930Y3983D01*
X8493Y3983D01*
X8358Y4118D01*
X8358Y4190D01*
G54D10*
X8358Y4428D02*
X8414Y4483D01*
X8453Y4015D02*
G54D12*
D03*
G54D10*
X9970Y5068D02*
X10172Y5066D01*
X10176Y4978D01*
X10192Y4975D01*
X10208Y4940D01*
X10208Y4468D01*
G54D10*
X9866Y4134D02*
X9930Y4134D01*
X10025Y4229D01*
X10025Y4388D01*
X10033Y4388D01*
X10096Y4452D01*
G36*
X10329Y4565D02*
X10329Y4475D01*
X10239Y4475D01*
X10239Y4565D01*
X10329Y4565D01*
G37*
G36*
X10328Y4398D02*
X10328Y4308D01*
X10238Y4308D01*
X10238Y4398D01*
X10328Y4398D01*
G37*
G36*
X10329Y4875D02*
X10329Y4785D01*
X10239Y4785D01*
X10239Y4875D01*
X10329Y4875D01*
G37*
G36*
X10328Y4708D02*
X10328Y4618D01*
X10238Y4618D01*
X10238Y4708D01*
X10328Y4708D01*
G37*
G36*
X10329Y5208D02*
X10329Y5118D01*
X10239Y5118D01*
X10239Y5208D01*
X10329Y5208D01*
G37*
G36*
X10328Y5041D02*
X10328Y4951D01*
X10238Y4951D01*
X10238Y5041D01*
X10328Y5041D01*
G37*
G36*
X10329Y4256D02*
X10329Y4166D01*
X10239Y4166D01*
X10239Y4256D01*
X10329Y4256D01*
G37*
G36*
X10328Y4089D02*
X10328Y3999D01*
X10238Y3999D01*
X10238Y4089D01*
X10328Y4089D01*
G37*
X10295Y4420D02*
G54D12*
D03*
X10287Y4888D02*
G54D12*
D03*
G54D10*
X10295Y4515D02*
X10295Y4666D01*
X10295Y4682D02*
G54D12*
D03*
X10287Y5158D02*
G54D12*
D03*
G54D10*
X10287Y4991D02*
X10358Y4924D01*
X10358Y4055D01*
X10311Y4023D01*
X10263Y4261D02*
G54D12*
D03*
X10255Y4007D02*
G54D12*
D03*
G36*
X10043Y4954D02*
X10043Y4864D01*
X9953Y4864D01*
X9953Y4954D01*
X10043Y4954D01*
G37*
G36*
X10042Y4787D02*
X10042Y4697D01*
X9952Y4697D01*
X9952Y4787D01*
X10042Y4787D01*
G37*
G54D10*
X10009Y4476D02*
X10081Y4476D01*
X10096Y4460D01*
X10001Y4968D02*
G54D12*
D03*
X9898Y4753D02*
G54D12*
D03*
X9525Y4706D02*
G54D12*
D03*
G54D10*
X9525Y4706D02*
X9525Y4714D01*
X9557Y4745D01*
X9636Y4745D01*
G54D10*
X9898Y4753D02*
X9922Y4753D01*
X9977Y4698D01*
G54D10*
X10128Y5238D02*
X10184Y5238D01*
X10287Y5285D01*
X10287Y5269D02*
G54D12*
D03*
G36*
X10353Y5691D02*
X10353Y5586D01*
X10263Y5586D01*
X10263Y5691D01*
X10353Y5691D01*
G37*
G36*
X10353Y5444D02*
X10353Y5339D01*
X10263Y5339D01*
X10263Y5444D01*
X10353Y5444D01*
G37*
G54D10*
X10358Y4920D02*
X10358Y5317D01*
X10295Y5380D01*
G54D10*
X9970Y5364D02*
X9970Y5444D01*
X10017Y5492D01*
X10128Y5499D01*
X10279Y5642D01*
X10279Y5634D02*
G54D12*
D03*
G54D10*
X8723Y5150D02*
X8723Y5166D01*
X8644Y5238D01*
X8517Y5238D01*
X8453Y5174D01*
X8382Y5174D01*
X8334Y5126D01*
X8334Y4563D01*
X8342Y4555D01*
X9231Y5142D02*
G54D12*
D03*
X9287Y5222D02*
G54D12*
D03*
G54D10*
X9223Y5166D02*
X9223Y5269D01*
X9239Y5285D01*
G54D10*
X9327Y5293D02*
X9327Y5261D01*
X9287Y5222D01*
G36*
X8715Y5506D02*
X9415Y5506D01*
X9415Y5476D01*
X8715Y5476D01*
X8715Y5506D01*
G37*
G36*
X8660Y5584D02*
X8744Y5499D01*
X8723Y5478D01*
X8638Y5563D01*
X8660Y5584D01*
G37*
G36*
X9475Y5548D02*
X9405Y5477D01*
X9383Y5498D01*
X9454Y5569D01*
X9475Y5548D01*
G37*
G54D10*
X8398Y5507D02*
X8692Y5507D01*
X9414Y5182D02*
G54D12*
D03*
G54D10*
X9485Y5285D02*
X9485Y5269D01*
X9414Y5198D01*
G36*
X10999Y5170D02*
X11099Y5170D01*
X11099Y5130D01*
X10999Y5130D01*
X10999Y5170D01*
G37*
G36*
X10999Y5090D02*
X11099Y5090D01*
X11099Y5050D01*
X10999Y5050D01*
X10999Y5090D01*
G37*
G36*
X10999Y5010D02*
X11099Y5010D01*
X11099Y4970D01*
X10999Y4970D01*
X10999Y5010D01*
G37*
G36*
X10999Y4930D02*
X11099Y4930D01*
X11099Y4890D01*
X10999Y4890D01*
X10999Y4930D01*
G37*
G36*
X10999Y4850D02*
X11099Y4850D01*
X11099Y4810D01*
X10999Y4810D01*
X10999Y4850D01*
G37*
G36*
X10999Y4770D02*
X11099Y4770D01*
X11099Y4730D01*
X10999Y4730D01*
X10999Y4770D01*
G37*
G36*
X10999Y4690D02*
X11099Y4690D01*
X11099Y4650D01*
X10999Y4650D01*
X10999Y4690D01*
G37*
G36*
X10999Y4610D02*
X11099Y4610D01*
X11099Y4570D01*
X10999Y4570D01*
X10999Y4610D01*
G37*
G36*
X11899Y5170D02*
X11999Y5170D01*
X11999Y5130D01*
X11899Y5130D01*
X11899Y5170D01*
G37*
G36*
X11899Y5090D02*
X11999Y5090D01*
X11999Y5050D01*
X11899Y5050D01*
X11899Y5090D01*
G37*
G36*
X11899Y5010D02*
X11999Y5010D01*
X11999Y4970D01*
X11899Y4970D01*
X11899Y5010D01*
G37*
G36*
X11899Y4930D02*
X11999Y4930D01*
X11999Y4890D01*
X11899Y4890D01*
X11899Y4930D01*
G37*
G36*
X11899Y4850D02*
X11999Y4850D01*
X11999Y4810D01*
X11899Y4810D01*
X11899Y4850D01*
G37*
G36*
X11899Y4770D02*
X11999Y4770D01*
X11999Y4730D01*
X11899Y4730D01*
X11899Y4770D01*
G37*
G36*
X11899Y4690D02*
X11999Y4690D01*
X11999Y4650D01*
X11899Y4650D01*
X11899Y4690D01*
G37*
G36*
X11899Y4610D02*
X11999Y4610D01*
X11999Y4570D01*
X11899Y4570D01*
X11899Y4610D01*
G37*
G36*
X11199Y5370D02*
X11239Y5370D01*
X11239Y5270D01*
X11199Y5270D01*
X11199Y5370D01*
G37*
G36*
X11279Y5370D02*
X11319Y5370D01*
X11319Y5270D01*
X11279Y5270D01*
X11279Y5370D01*
G37*
G36*
X11359Y5370D02*
X11399Y5370D01*
X11399Y5270D01*
X11359Y5270D01*
X11359Y5370D01*
G37*
G36*
X11439Y5370D02*
X11479Y5370D01*
X11479Y5270D01*
X11439Y5270D01*
X11439Y5370D01*
G37*
G36*
X11519Y5370D02*
X11559Y5370D01*
X11559Y5270D01*
X11519Y5270D01*
X11519Y5370D01*
G37*
G36*
X11599Y5370D02*
X11639Y5370D01*
X11639Y5270D01*
X11599Y5270D01*
X11599Y5370D01*
G37*
G36*
X11679Y5370D02*
X11719Y5370D01*
X11719Y5270D01*
X11679Y5270D01*
X11679Y5370D01*
G37*
G36*
X11759Y5370D02*
X11799Y5370D01*
X11799Y5270D01*
X11759Y5270D01*
X11759Y5370D01*
G37*
G36*
X11199Y4470D02*
X11239Y4470D01*
X11239Y4370D01*
X11199Y4370D01*
X11199Y4470D01*
G37*
G36*
X11279Y4470D02*
X11319Y4470D01*
X11319Y4370D01*
X11279Y4370D01*
X11279Y4470D01*
G37*
G36*
X11369Y4470D02*
X11409Y4470D01*
X11409Y4370D01*
X11369Y4370D01*
X11369Y4470D01*
G37*
G36*
X11439Y4470D02*
X11479Y4470D01*
X11479Y4370D01*
X11439Y4370D01*
X11439Y4470D01*
G37*
G36*
X11519Y4470D02*
X11559Y4470D01*
X11559Y4370D01*
X11519Y4370D01*
X11519Y4470D01*
G37*
G36*
X11599Y4470D02*
X11639Y4470D01*
X11639Y4370D01*
X11599Y4370D01*
X11599Y4470D01*
G37*
G36*
X11679Y4470D02*
X11719Y4470D01*
X11719Y4370D01*
X11679Y4370D01*
X11679Y4470D01*
G37*
G36*
X11759Y4470D02*
X11799Y4470D01*
X11799Y4370D01*
X11759Y4370D01*
X11759Y4470D01*
G37*
G54D10*
X11700Y4444D02*
X11700Y4507D01*
X11843Y4507D01*
X11898Y4420D01*
G54D11*
X11065Y4991D02*
X11160Y4991D01*
X11160Y4825D01*
X11057Y4825D01*
G54D11*
X11025Y4912D02*
X10954Y4912D01*
X10954Y4753D01*
X11168Y4753D01*
G54D11*
X11168Y4753D02*
X11724Y4753D01*
X11803Y4833D01*
X11922Y4833D01*
G54D11*
X11914Y4912D02*
X11803Y4912D01*
X11787Y4912D01*
X11700Y4825D01*
X11136Y4825D01*
G54D11*
X11978Y4912D02*
X12049Y4912D01*
X12136Y5007D01*
X12248Y5071D01*
G54D10*
X11978Y4825D02*
X12081Y4825D01*
X12156Y4892D01*
X12200Y4960D01*
G36*
X12131Y5026D02*
X12131Y4936D01*
X12041Y4936D01*
X12041Y5026D01*
X12131Y5026D01*
G37*
G36*
X12130Y4859D02*
X12130Y4769D01*
X12040Y4769D01*
X12040Y4859D01*
X12130Y4859D01*
G37*
G36*
X10947Y5080D02*
X10947Y4990D01*
X10857Y4990D01*
X10857Y5080D01*
X10947Y5080D01*
G37*
G36*
X10946Y4913D02*
X10946Y4823D01*
X10856Y4823D01*
X10856Y4913D01*
X10946Y4913D01*
G37*
G54D10*
X10700Y5055D02*
X10779Y5055D01*
X10803Y5031D01*
X10803Y4825D01*
X10847Y4785D01*
X10877Y4761D01*
X10905Y4741D01*
X10916Y4722D01*
X10946Y4674D01*
X11033Y4674D01*
G54D11*
X11017Y4991D02*
X10946Y4991D01*
X10922Y5015D01*
X11454Y5190D02*
G54D12*
D03*
G54D11*
X11462Y5285D02*
X11462Y5198D01*
X12113Y4102D02*
G54D13*
D03*
X11859Y4102D02*
G54D13*
D03*
X11605Y4102D02*
G54D13*
D03*
X11351Y4102D02*
G54D14*
D03*
X11097Y4102D02*
G54D13*
D03*
X10843Y4102D02*
G54D13*
D03*
X11898Y4420D02*
G54D12*
D03*
G54D10*
X11692Y4380D02*
X11692Y4269D01*
X11686Y4227D01*
X11672Y4186D01*
X11660Y4150D01*
G54D10*
X11779Y4372D02*
X11859Y4372D01*
X11859Y4182D01*
X11541Y4531D02*
G54D12*
D03*
G54D10*
X11541Y4531D02*
X11541Y4444D01*
X11620Y4531D02*
G54D12*
D03*
G54D10*
X11620Y4531D02*
X11620Y4460D01*
X11295Y5222D02*
G54D12*
D03*
X11382Y5222D02*
G54D12*
D03*
G54D10*
X11295Y5222D02*
X11295Y5293D01*
G54D10*
X11382Y5222D02*
X11382Y5301D01*
G54D10*
X12224Y4253D02*
X12176Y4380D01*
X12025Y4380D01*
X11811Y4618D01*
X10978Y4753D02*
G54D12*
D03*
G36*
X12162Y5327D02*
X12162Y5237D01*
X12072Y5237D01*
X12072Y5327D01*
X12162Y5327D01*
G37*
G36*
X12162Y5160D02*
X12162Y5070D01*
X12072Y5070D01*
X12072Y5160D01*
X12162Y5160D01*
G37*
G54D10*
X11462Y5198D02*
X11464Y5039D01*
X11545Y5039D01*
X11692Y5039D01*
X11718Y5103D01*
X11762Y5150D01*
X11791Y5198D01*
X11843Y5198D01*
X11859Y5206D01*
X12017Y5206D01*
X12097Y5126D01*
G54D10*
X12089Y5285D02*
X12208Y5285D01*
X12240Y5269D01*
X12113Y5626D02*
G54D13*
D03*
X11859Y5626D02*
G54D13*
D03*
X11605Y5626D02*
G54D13*
D03*
X11351Y5626D02*
G54D13*
D03*
X11097Y5626D02*
G54D13*
D03*
X10843Y5626D02*
G54D13*
D03*
G36*
X10681Y4275D02*
X10681Y4345D01*
X10781Y4345D01*
X10781Y4275D01*
X10681Y4275D01*
G37*
G36*
X10681Y4465D02*
X10681Y4535D01*
X10781Y4535D01*
X10781Y4465D01*
X10681Y4465D01*
G37*
G36*
X10919Y4275D02*
X10919Y4345D01*
X11019Y4345D01*
X11019Y4275D01*
X10919Y4275D01*
G37*
G36*
X10919Y4465D02*
X10919Y4535D01*
X11019Y4535D01*
X11019Y4465D01*
X10919Y4465D01*
G37*
G36*
X10919Y4370D02*
X10919Y4440D01*
X11019Y4440D01*
X11019Y4370D01*
X10919Y4370D01*
G37*
G54D10*
X10755Y4269D02*
X10767Y4229D01*
X10779Y4110D01*
X11081Y4476D02*
G54D12*
D03*
X11176Y4833D02*
G54D12*
D03*
X12367Y4094D02*
G54D15*
D03*
X10906Y5063D02*
G54D12*
D03*
G36*
X10931Y5366D02*
X10931Y5276D01*
X10841Y5276D01*
X10841Y5366D01*
X10931Y5366D01*
G37*
G36*
X10930Y5199D02*
X10930Y5109D01*
X10840Y5109D01*
X10840Y5199D01*
X10930Y5199D01*
G37*
X10986Y5277D02*
G54D12*
D03*
X10835Y5158D02*
G54D12*
D03*
G54D10*
X10898Y5341D02*
X10986Y5277D01*
G54D10*
X10898Y5158D02*
X10914Y5158D01*
X10966Y5114D01*
X11001Y5071D01*
G54D10*
X10684Y5309D02*
X10700Y5333D01*
X10759Y5408D01*
X10795Y5460D01*
X10962Y5460D01*
X11152Y5269D01*
X11200Y5269D01*
X11216Y5285D01*
G54D10*
X12081Y4793D02*
X12025Y4706D01*
X11954Y4666D01*
X11771Y5063D02*
G54D12*
D03*
G54D10*
X11359Y4991D02*
X11922Y4991D01*
X12367Y5626D02*
G54D15*
D03*
G54D10*
X11700Y5349D02*
X11700Y5372D01*
X11819Y5492D01*
X12136Y5492D01*
X12188Y5527D01*
X12303Y5642D01*
G54D10*
X11771Y5063D02*
X11839Y5063D01*
X11938Y5063D01*
G54D10*
X11859Y4039D02*
X11859Y3936D01*
X10779Y3936D01*
X10720Y3944D01*
X10676Y3968D01*
X12422Y5380D02*
G54D13*
D03*
X10986Y4285D02*
G54D12*
D03*
X10779Y5293D02*
G54D12*
D03*
G54D10*
X11359Y4991D02*
X11148Y5190D01*
X11120Y5238D01*
X11001Y5357D01*
X10970Y5388D01*
X10946Y5412D01*
X10827Y5412D01*
X10803Y5388D01*
X10779Y5293D01*
G36*
X12464Y4843D02*
X12464Y4753D01*
X12374Y4753D01*
X12374Y4843D01*
X12464Y4843D01*
G37*
G36*
X12463Y4676D02*
X12463Y4586D01*
X12373Y4586D01*
X12373Y4676D01*
X12463Y4676D01*
G37*
G36*
X12456Y4518D02*
X12456Y4428D01*
X12366Y4428D01*
X12366Y4518D01*
X12456Y4518D01*
G37*
G36*
X12455Y4351D02*
X12455Y4261D01*
X12365Y4261D01*
X12365Y4351D01*
X12455Y4351D01*
G37*
G54D10*
X12494Y4468D02*
X12430Y4468D01*
G36*
X12364Y4938D02*
X12464Y4938D01*
X12464Y4838D01*
X12364Y4838D01*
X12364Y4938D01*
G37*
G54D10*
X12414Y4880D02*
X12414Y4833D01*
X12414Y4809D01*
G36*
X11467Y4257D02*
X11377Y4257D01*
X11377Y4347D01*
X11467Y4347D01*
X11467Y4257D01*
G37*
G36*
X11300Y4258D02*
X11210Y4258D01*
X11210Y4348D01*
X11300Y4348D01*
X11300Y4258D01*
G37*
G36*
X11817Y4249D02*
X11727Y4249D01*
X11727Y4339D01*
X11817Y4339D01*
X11817Y4249D01*
G37*
G36*
X11650Y4250D02*
X11560Y4250D01*
X11560Y4340D01*
X11650Y4340D01*
X11650Y4250D01*
G37*
G54D10*
X11216Y4388D02*
X11232Y4317D01*
G54D10*
X11303Y4396D02*
X11335Y4360D01*
X11335Y4222D01*
X11581Y4222D01*
X11620Y4261D01*
G54D10*
X11811Y4618D02*
X11517Y4618D01*
X11462Y4563D01*
X11462Y4428D01*
G36*
X12062Y4444D02*
X12062Y4534D01*
X12152Y4535D01*
X12152Y4445D01*
X12062Y4444D01*
G37*
G36*
X12063Y4612D02*
X12063Y4702D01*
X12153Y4702D01*
X12153Y4612D01*
X12063Y4612D01*
G37*
G36*
X12158Y4241D02*
X12068Y4241D01*
X12068Y4331D01*
X12158Y4331D01*
X12158Y4241D01*
G37*
G36*
X11991Y4242D02*
X11901Y4242D01*
X11901Y4332D01*
X11991Y4332D01*
X11991Y4242D01*
G37*
X11946Y4356D02*
G54D12*
D03*
X11390Y4539D02*
G54D12*
D03*
G54D10*
X11390Y4539D02*
X11390Y4444D01*
G36*
X12364Y5000D02*
X12364Y5090D01*
X12454Y5090D01*
X12454Y5000D01*
X12364Y5000D01*
G37*
G36*
X12365Y5167D02*
X12365Y5257D01*
X12455Y5257D01*
X12455Y5167D01*
X12365Y5167D01*
G37*
X12192Y4952D02*
G54D12*
D03*
G54D10*
X12263Y5071D02*
X12263Y5110D01*
X12311Y5150D01*
X12311Y5285D01*
X11438Y4293D02*
G54D12*
D03*
X11763Y4229D02*
G54D12*
D03*
X12057Y4253D02*
G54D12*
D03*
G54D10*
X12057Y4245D02*
X11986Y4174D01*
X11986Y3991D01*
X12009Y3968D01*
X12422Y3968D01*
X12494Y4039D01*
X12494Y4229D01*
X12438Y4285D01*
G36*
X11837Y5394D02*
X11927Y5394D01*
X11927Y5304D01*
X11837Y5304D01*
X11837Y5394D01*
G37*
G36*
X11949Y5394D02*
X12039Y5394D01*
X12039Y5304D01*
X11949Y5304D01*
X11949Y5394D01*
G37*
G36*
X11837Y5286D02*
X12087Y5286D01*
X12087Y5236D01*
X11837Y5236D01*
X11837Y5286D01*
G37*
G36*
X11839Y5461D02*
X12069Y5461D01*
X12069Y5411D01*
X11839Y5411D01*
X11839Y5461D01*
G37*
G54D10*
X11779Y5341D02*
X11859Y5341D01*
G54D10*
X12041Y5436D02*
X12105Y5432D01*
X12105Y5364D01*
X12263Y5364D01*
X12311Y5285D01*
X11994Y5349D02*
G54D12*
D03*
X11835Y5126D02*
G54D12*
D03*
G54D10*
X11835Y5126D02*
X11859Y5126D01*
X11882Y5150D01*
X11930Y5150D01*
G54D10*
X11970Y4595D02*
X11994Y4595D01*
X12017Y4571D01*
X12176Y4571D01*
X12200Y4519D01*
X12232Y4364D01*
X10684Y5285D02*
G54D12*
D03*
X10692Y5063D02*
G54D12*
D03*
X10636Y4555D02*
G54D12*
D03*
X10660Y3999D02*
G54D12*
D03*
X12240Y5269D02*
G54D12*
D03*
X12263Y5063D02*
G54D12*
D03*
X12248Y4372D02*
G54D12*
D03*
X12232Y4253D02*
G54D12*
D03*
G54D10*
X12105Y4483D02*
X12105Y4380D01*
G54D10*
X11970Y4666D02*
X12113Y4666D01*
G36*
X12337Y4708D02*
X12337Y4618D01*
X12247Y4618D01*
X12247Y4708D01*
X12337Y4708D01*
G37*
G36*
X12336Y4541D02*
X12336Y4451D01*
X12246Y4451D01*
X12246Y4541D01*
X12336Y4541D01*
G37*
G54D10*
X12097Y4658D02*
X12196Y4634D01*
X12217Y4597D01*
X12239Y4575D01*
X12353Y4579D01*
X12422Y4650D01*
G36*
X10819Y4864D02*
X10819Y4834D01*
X10659Y4834D01*
X10659Y4864D01*
X10819Y4864D01*
G37*
G36*
X10819Y4769D02*
X10819Y4739D01*
X10659Y4739D01*
X10659Y4769D01*
X10819Y4769D01*
G37*
G36*
X10819Y4674D02*
X10819Y4644D01*
X10659Y4644D01*
X10659Y4674D01*
X10819Y4674D01*
G37*
G54D10*
X10787Y4650D02*
X10803Y4634D01*
X10843Y4595D01*
X11025Y4595D01*
X10866Y4690D02*
G54D12*
D03*
G54D10*
X10787Y4745D02*
X10787Y4730D01*
X10858Y4698D01*
G36*
X10702Y5683D02*
X10702Y5593D01*
X10612Y5593D01*
X10612Y5683D01*
X10702Y5683D01*
G37*
G36*
X10700Y5516D02*
X10700Y5426D01*
X10610Y5426D01*
X10610Y5516D01*
X10700Y5516D01*
G37*
G36*
X10610Y4156D02*
X10610Y4246D01*
X10700Y4246D01*
X10700Y4156D01*
X10610Y4156D01*
G37*
G36*
X10611Y4370D02*
X10611Y4460D01*
X10701Y4460D01*
X10701Y4370D01*
X10611Y4370D01*
G37*
G54D10*
X11073Y4476D02*
X11049Y4404D01*
X11001Y4388D01*
X10986Y4499D02*
G54D12*
D03*
G36*
X10900Y4460D02*
X10900Y4370D01*
X10810Y4370D01*
X10810Y4460D01*
X10900Y4460D01*
G37*
G36*
X10899Y4293D02*
X10899Y4203D01*
X10809Y4203D01*
X10809Y4293D01*
X10899Y4293D01*
G37*
G54D10*
X10747Y4499D02*
X10851Y4420D01*
X10660Y5642D02*
G54D12*
D03*
X10668Y5436D02*
G54D12*
D03*
G36*
X11299Y4258D02*
X11209Y4258D01*
X11209Y4348D01*
X11299Y4348D01*
X11299Y4258D01*
G37*
G36*
X11132Y4259D02*
X11042Y4259D01*
X11042Y4349D01*
X11132Y4349D01*
X11132Y4259D01*
G37*
G54D10*
X10874Y4253D02*
X10890Y4233D01*
X10922Y4214D01*
X11017Y4214D01*
X11041Y4229D01*
X11105Y4301D01*
G54D10*
X11335Y4214D02*
X11247Y4214D01*
X11224Y4190D01*
X11224Y3983D01*
X10787Y3983D01*
X10652Y4118D01*
X10652Y4190D01*
G54D10*
X10652Y4428D02*
X10708Y4483D01*
X10747Y4015D02*
G54D12*
D03*
G54D10*
X12263Y5068D02*
X12466Y5066D01*
X12470Y4978D01*
X12486Y4975D01*
X12502Y4940D01*
X12502Y4468D01*
G54D10*
X12160Y4134D02*
X12224Y4134D01*
X12319Y4229D01*
X12319Y4388D01*
X12327Y4388D01*
X12390Y4452D01*
G36*
X12623Y4565D02*
X12623Y4475D01*
X12533Y4475D01*
X12533Y4565D01*
X12623Y4565D01*
G37*
G36*
X12622Y4398D02*
X12622Y4308D01*
X12532Y4308D01*
X12532Y4398D01*
X12622Y4398D01*
G37*
G36*
X12623Y4875D02*
X12623Y4785D01*
X12533Y4785D01*
X12533Y4875D01*
X12623Y4875D01*
G37*
G36*
X12622Y4708D02*
X12622Y4618D01*
X12532Y4618D01*
X12532Y4708D01*
X12622Y4708D01*
G37*
G36*
X12623Y5208D02*
X12623Y5118D01*
X12533Y5118D01*
X12533Y5208D01*
X12623Y5208D01*
G37*
G36*
X12622Y5041D02*
X12622Y4951D01*
X12532Y4951D01*
X12532Y5041D01*
X12622Y5041D01*
G37*
G36*
X12623Y4256D02*
X12623Y4166D01*
X12533Y4166D01*
X12533Y4256D01*
X12623Y4256D01*
G37*
G36*
X12622Y4089D02*
X12622Y3999D01*
X12532Y3999D01*
X12532Y4089D01*
X12622Y4089D01*
G37*
X12589Y4420D02*
G54D12*
D03*
X12581Y4888D02*
G54D12*
D03*
G54D10*
X12589Y4515D02*
X12589Y4666D01*
X12589Y4682D02*
G54D12*
D03*
X12581Y5158D02*
G54D12*
D03*
G54D10*
X12581Y4991D02*
X12652Y4924D01*
X12652Y4055D01*
X12605Y4023D01*
X12557Y4261D02*
G54D12*
D03*
X12549Y4007D02*
G54D12*
D03*
G36*
X12337Y4954D02*
X12337Y4864D01*
X12247Y4864D01*
X12247Y4954D01*
X12337Y4954D01*
G37*
G36*
X12336Y4787D02*
X12336Y4697D01*
X12246Y4697D01*
X12246Y4787D01*
X12336Y4787D01*
G37*
G54D10*
X12303Y4476D02*
X12375Y4476D01*
X12390Y4460D01*
X12295Y4968D02*
G54D12*
D03*
X12192Y4753D02*
G54D12*
D03*
X11819Y4706D02*
G54D12*
D03*
G54D10*
X11819Y4706D02*
X11819Y4714D01*
X11851Y4745D01*
X11930Y4745D01*
G54D10*
X12192Y4753D02*
X12216Y4753D01*
X12271Y4698D01*
G54D10*
X12422Y5238D02*
X12478Y5238D01*
X12581Y5285D01*
X12581Y5269D02*
G54D12*
D03*
G36*
X12647Y5691D02*
X12647Y5586D01*
X12557Y5586D01*
X12557Y5691D01*
X12647Y5691D01*
G37*
G36*
X12647Y5444D02*
X12647Y5339D01*
X12557Y5339D01*
X12557Y5444D01*
X12647Y5444D01*
G37*
G54D10*
X12652Y4920D02*
X12652Y5317D01*
X12589Y5380D01*
G54D10*
X12263Y5364D02*
X12263Y5444D01*
X12311Y5492D01*
X12422Y5499D01*
X12573Y5642D01*
X12573Y5634D02*
G54D12*
D03*
G54D10*
X11017Y5150D02*
X11017Y5166D01*
X10938Y5238D01*
X10811Y5238D01*
X10747Y5174D01*
X10676Y5174D01*
X10628Y5126D01*
X10628Y4563D01*
X10636Y4555D01*
X11525Y5142D02*
G54D12*
D03*
X11581Y5222D02*
G54D12*
D03*
G54D10*
X11517Y5166D02*
X11517Y5269D01*
X11533Y5285D01*
G54D10*
X11620Y5293D02*
X11620Y5261D01*
X11581Y5222D01*
G36*
X11009Y5506D02*
X11709Y5506D01*
X11709Y5476D01*
X11009Y5476D01*
X11009Y5506D01*
G37*
G36*
X10954Y5584D02*
X11038Y5499D01*
X11017Y5478D01*
X10932Y5563D01*
X10954Y5584D01*
G37*
G36*
X11769Y5548D02*
X11698Y5477D01*
X11677Y5498D01*
X11748Y5569D01*
X11769Y5548D01*
G37*
G54D10*
X10692Y5507D02*
X10986Y5507D01*
X11708Y5182D02*
G54D12*
D03*
G54D10*
X11779Y5285D02*
X11779Y5269D01*
X11708Y5198D01*
M02*
