%FSLAX32Y32*%
%MOMM*%
%LNLOETSTOP2*%
G71*
G01*
%ADD10C, 1.20*%
%ADD11C, 0.70*%
%ADD12C, 1.80*%
%ADD13C, 1.70*%
%ADD14C, 1.90*%
%LPD*%
X9977Y6324D02*
G54D10*
D03*
X8387Y6324D02*
G54D10*
D03*
X9977Y6524D02*
G54D10*
D03*
X8387Y6524D02*
G54D10*
D03*
X9977Y6724D02*
G54D10*
D03*
X8387Y6724D02*
G54D10*
D03*
X9977Y6924D02*
G54D10*
D03*
X8387Y6924D02*
G54D10*
D03*
X9977Y7124D02*
G54D10*
D03*
X8387Y7124D02*
G54D10*
D03*
X9977Y7324D02*
G54D10*
D03*
X8387Y7324D02*
G54D10*
D03*
X9977Y7524D02*
G54D10*
D03*
X8387Y7524D02*
G54D10*
D03*
X9160Y7246D02*
G54D11*
D03*
X9819Y6158D02*
G54D12*
D03*
X9565Y6158D02*
G54D12*
D03*
X9311Y6158D02*
G54D12*
D03*
X9057Y6158D02*
G54D13*
D03*
X8803Y6158D02*
G54D12*
D03*
X8549Y6158D02*
G54D12*
D03*
X9604Y6476D02*
G54D11*
D03*
X9247Y6587D02*
G54D11*
D03*
X9327Y6587D02*
G54D11*
D03*
X9001Y7277D02*
G54D11*
D03*
X9088Y7277D02*
G54D11*
D03*
X8684Y6809D02*
G54D11*
D03*
X9819Y7682D02*
G54D12*
D03*
X9565Y7682D02*
G54D12*
D03*
X9311Y7682D02*
G54D12*
D03*
X9057Y7682D02*
G54D12*
D03*
X8803Y7682D02*
G54D12*
D03*
X8549Y7682D02*
G54D12*
D03*
X8787Y6531D02*
G54D11*
D03*
X8882Y6888D02*
G54D11*
D03*
X10073Y6150D02*
G54D14*
D03*
X8612Y7119D02*
G54D11*
D03*
X8692Y7333D02*
G54D11*
D03*
X8541Y7214D02*
G54D11*
D03*
X9477Y7119D02*
G54D11*
D03*
X10073Y7682D02*
G54D14*
D03*
X10128Y7436D02*
G54D12*
D03*
X8692Y6341D02*
G54D11*
D03*
X8485Y7349D02*
G54D11*
D03*
X9652Y6412D02*
G54D11*
D03*
X9096Y6595D02*
G54D11*
D03*
X9898Y7008D02*
G54D11*
D03*
X9144Y6349D02*
G54D11*
D03*
X9469Y6285D02*
G54D11*
D03*
X9763Y6309D02*
G54D11*
D03*
X9700Y7404D02*
G54D11*
D03*
X9541Y7182D02*
G54D11*
D03*
G36*
X10048Y7334D02*
X10208Y7334D01*
X10208Y7174D01*
X10048Y7174D01*
X10048Y7334D01*
G37*
X8390Y7341D02*
G54D11*
D03*
X8398Y7119D02*
G54D11*
D03*
X8342Y6611D02*
G54D11*
D03*
X8366Y6055D02*
G54D11*
D03*
X9946Y7325D02*
G54D11*
D03*
X9970Y7119D02*
G54D11*
D03*
X9954Y6428D02*
G54D11*
D03*
X9938Y6309D02*
G54D11*
D03*
X8572Y6746D02*
G54D11*
D03*
X8692Y6555D02*
G54D11*
D03*
X8366Y7698D02*
G54D11*
D03*
X8374Y7492D02*
G54D11*
D03*
G36*
X10348Y6958D02*
X10228Y6958D01*
X10228Y7078D01*
X10348Y7078D01*
X10348Y6958D01*
G37*
G36*
X10158Y6958D02*
X10038Y6958D01*
X10038Y7078D01*
X10158Y7078D01*
X10158Y6958D01*
G37*
G36*
X10253Y6736D02*
X10133Y6736D01*
X10133Y6856D01*
X10253Y6856D01*
X10253Y6736D01*
G37*
X8453Y6071D02*
G54D11*
D03*
G36*
X10356Y6553D02*
X10236Y6553D01*
X10236Y6673D01*
X10356Y6673D01*
X10356Y6553D01*
G37*
G36*
X10166Y6553D02*
X10046Y6553D01*
X10046Y6673D01*
X10166Y6673D01*
X10166Y6553D01*
G37*
G36*
X10261Y6331D02*
X10141Y6331D01*
X10141Y6451D01*
X10261Y6451D01*
X10261Y6331D01*
G37*
X10295Y6476D02*
G54D11*
D03*
X10287Y6944D02*
G54D11*
D03*
X10295Y6738D02*
G54D11*
D03*
X10287Y7214D02*
G54D11*
D03*
X10263Y6317D02*
G54D11*
D03*
X10255Y6063D02*
G54D11*
D03*
G36*
X10246Y7279D02*
X10376Y7279D01*
X10376Y7149D01*
X10246Y7149D01*
X10246Y7279D01*
G37*
G36*
X10246Y6390D02*
X10376Y6390D01*
X10376Y6260D01*
X10246Y6260D01*
X10246Y6390D01*
G37*
G36*
X10246Y6668D02*
X10376Y6668D01*
X10376Y6538D01*
X10246Y6538D01*
X10246Y6668D01*
G37*
G36*
X10246Y7120D02*
X10376Y7120D01*
X10376Y6990D01*
X10246Y6990D01*
X10246Y7120D01*
G37*
X10001Y7023D02*
G54D11*
D03*
X9898Y6809D02*
G54D11*
D03*
X9525Y6762D02*
G54D11*
D03*
G36*
X10246Y7438D02*
X10376Y7438D01*
X10376Y7308D01*
X10246Y7308D01*
X10246Y7438D01*
G37*
X10287Y7325D02*
G54D11*
D03*
G36*
X10238Y7782D02*
X10368Y7782D01*
X10368Y7472D01*
X10238Y7472D01*
X10238Y7782D01*
G37*
X10279Y7690D02*
G54D11*
D03*
X9231Y7198D02*
G54D11*
D03*
X9287Y7277D02*
G54D11*
D03*
X9414Y7238D02*
G54D11*
D03*
X12271Y6324D02*
G54D10*
D03*
X10681Y6324D02*
G54D10*
D03*
X12271Y6524D02*
G54D10*
D03*
X10681Y6524D02*
G54D10*
D03*
X12271Y6724D02*
G54D10*
D03*
X10681Y6724D02*
G54D10*
D03*
X12271Y6924D02*
G54D10*
D03*
X10681Y6924D02*
G54D10*
D03*
X12271Y7124D02*
G54D10*
D03*
X10681Y7124D02*
G54D10*
D03*
X12271Y7324D02*
G54D10*
D03*
X10681Y7324D02*
G54D10*
D03*
X12271Y7524D02*
G54D10*
D03*
X10681Y7524D02*
G54D10*
D03*
X11454Y7246D02*
G54D11*
D03*
X12113Y6158D02*
G54D12*
D03*
X11859Y6158D02*
G54D12*
D03*
X11605Y6158D02*
G54D12*
D03*
X11351Y6158D02*
G54D13*
D03*
X11097Y6158D02*
G54D12*
D03*
X10843Y6158D02*
G54D12*
D03*
X11898Y6476D02*
G54D11*
D03*
X11541Y6587D02*
G54D11*
D03*
X11620Y6587D02*
G54D11*
D03*
X11295Y7277D02*
G54D11*
D03*
X11382Y7277D02*
G54D11*
D03*
X10978Y6809D02*
G54D11*
D03*
X12113Y7682D02*
G54D12*
D03*
X11859Y7682D02*
G54D12*
D03*
X11605Y7682D02*
G54D12*
D03*
X11351Y7682D02*
G54D12*
D03*
X11097Y7682D02*
G54D12*
D03*
X10843Y7682D02*
G54D12*
D03*
X11081Y6531D02*
G54D11*
D03*
X11176Y6888D02*
G54D11*
D03*
X12367Y6150D02*
G54D14*
D03*
X10906Y7119D02*
G54D11*
D03*
X10986Y7333D02*
G54D11*
D03*
X10835Y7214D02*
G54D11*
D03*
X11771Y7119D02*
G54D11*
D03*
X12367Y7682D02*
G54D14*
D03*
X12422Y7436D02*
G54D12*
D03*
X10986Y6341D02*
G54D11*
D03*
X10779Y7349D02*
G54D11*
D03*
X11946Y6412D02*
G54D11*
D03*
X11390Y6595D02*
G54D11*
D03*
X12192Y7008D02*
G54D11*
D03*
X11438Y6349D02*
G54D11*
D03*
X11763Y6285D02*
G54D11*
D03*
X12057Y6309D02*
G54D11*
D03*
X11994Y7404D02*
G54D11*
D03*
X11835Y7182D02*
G54D11*
D03*
G36*
X12342Y7334D02*
X12502Y7334D01*
X12502Y7174D01*
X12342Y7174D01*
X12342Y7334D01*
G37*
X10684Y7341D02*
G54D11*
D03*
X10692Y7119D02*
G54D11*
D03*
X10636Y6611D02*
G54D11*
D03*
X10660Y6055D02*
G54D11*
D03*
X12240Y7325D02*
G54D11*
D03*
X12263Y7119D02*
G54D11*
D03*
X12248Y6428D02*
G54D11*
D03*
X12232Y6309D02*
G54D11*
D03*
X10866Y6746D02*
G54D11*
D03*
X10986Y6555D02*
G54D11*
D03*
X10660Y7698D02*
G54D11*
D03*
X10668Y7492D02*
G54D11*
D03*
G36*
X12642Y6958D02*
X12522Y6958D01*
X12522Y7078D01*
X12642Y7078D01*
X12642Y6958D01*
G37*
G36*
X12452Y6958D02*
X12332Y6958D01*
X12332Y7078D01*
X12452Y7078D01*
X12452Y6958D01*
G37*
G36*
X12547Y6736D02*
X12427Y6736D01*
X12427Y6856D01*
X12547Y6856D01*
X12547Y6736D01*
G37*
X10747Y6071D02*
G54D11*
D03*
G36*
X12650Y6553D02*
X12530Y6553D01*
X12530Y6673D01*
X12650Y6673D01*
X12650Y6553D01*
G37*
G36*
X12460Y6553D02*
X12340Y6553D01*
X12340Y6673D01*
X12460Y6673D01*
X12460Y6553D01*
G37*
G36*
X12555Y6331D02*
X12435Y6331D01*
X12435Y6451D01*
X12555Y6451D01*
X12555Y6331D01*
G37*
X12589Y6476D02*
G54D11*
D03*
X12581Y6944D02*
G54D11*
D03*
X12589Y6738D02*
G54D11*
D03*
X12581Y7214D02*
G54D11*
D03*
X12557Y6317D02*
G54D11*
D03*
X12549Y6063D02*
G54D11*
D03*
G36*
X12540Y7279D02*
X12670Y7279D01*
X12670Y7149D01*
X12540Y7149D01*
X12540Y7279D01*
G37*
G36*
X12540Y6390D02*
X12670Y6390D01*
X12670Y6260D01*
X12540Y6260D01*
X12540Y6390D01*
G37*
G36*
X12540Y6668D02*
X12670Y6668D01*
X12670Y6538D01*
X12540Y6538D01*
X12540Y6668D01*
G37*
G36*
X12540Y7120D02*
X12670Y7120D01*
X12670Y6990D01*
X12540Y6990D01*
X12540Y7120D01*
G37*
X12295Y7023D02*
G54D11*
D03*
X12192Y6809D02*
G54D11*
D03*
X11819Y6762D02*
G54D11*
D03*
G36*
X12540Y7438D02*
X12670Y7438D01*
X12670Y7308D01*
X12540Y7308D01*
X12540Y7438D01*
G37*
X12581Y7325D02*
G54D11*
D03*
G36*
X12532Y7782D02*
X12662Y7782D01*
X12662Y7472D01*
X12532Y7472D01*
X12532Y7782D01*
G37*
X12573Y7690D02*
G54D11*
D03*
X11525Y7198D02*
G54D11*
D03*
X11581Y7277D02*
G54D11*
D03*
X11708Y7238D02*
G54D11*
D03*
X9977Y4268D02*
G54D10*
D03*
X8387Y4268D02*
G54D10*
D03*
X9977Y4468D02*
G54D10*
D03*
X8387Y4468D02*
G54D10*
D03*
X9977Y4668D02*
G54D10*
D03*
X8387Y4668D02*
G54D10*
D03*
X9977Y4868D02*
G54D10*
D03*
X8387Y4868D02*
G54D10*
D03*
X9977Y5068D02*
G54D10*
D03*
X8387Y5068D02*
G54D10*
D03*
X9977Y5268D02*
G54D10*
D03*
X8387Y5268D02*
G54D10*
D03*
X9977Y5468D02*
G54D10*
D03*
X8387Y5468D02*
G54D10*
D03*
X9160Y5190D02*
G54D11*
D03*
X9819Y4102D02*
G54D12*
D03*
X9565Y4102D02*
G54D12*
D03*
X9311Y4102D02*
G54D12*
D03*
X9057Y4102D02*
G54D13*
D03*
X8803Y4102D02*
G54D12*
D03*
X8549Y4102D02*
G54D12*
D03*
X9604Y4420D02*
G54D11*
D03*
X9247Y4531D02*
G54D11*
D03*
X9327Y4531D02*
G54D11*
D03*
X9001Y5222D02*
G54D11*
D03*
X9088Y5222D02*
G54D11*
D03*
X8684Y4753D02*
G54D11*
D03*
X9819Y5626D02*
G54D12*
D03*
X9565Y5626D02*
G54D12*
D03*
X9311Y5626D02*
G54D12*
D03*
X9057Y5626D02*
G54D12*
D03*
X8803Y5626D02*
G54D12*
D03*
X8549Y5626D02*
G54D12*
D03*
X8787Y4476D02*
G54D11*
D03*
X8882Y4833D02*
G54D11*
D03*
X10073Y4094D02*
G54D14*
D03*
X8612Y5063D02*
G54D11*
D03*
X8692Y5277D02*
G54D11*
D03*
X8541Y5158D02*
G54D11*
D03*
X9477Y5063D02*
G54D11*
D03*
X10073Y5626D02*
G54D14*
D03*
X10128Y5380D02*
G54D12*
D03*
X8692Y4285D02*
G54D11*
D03*
X8485Y5293D02*
G54D11*
D03*
X9652Y4356D02*
G54D11*
D03*
X9096Y4539D02*
G54D11*
D03*
X9898Y4952D02*
G54D11*
D03*
X9144Y4293D02*
G54D11*
D03*
X9469Y4229D02*
G54D11*
D03*
X9763Y4253D02*
G54D11*
D03*
X9700Y5349D02*
G54D11*
D03*
X9541Y5126D02*
G54D11*
D03*
G36*
X10048Y5278D02*
X10208Y5278D01*
X10208Y5118D01*
X10048Y5118D01*
X10048Y5278D01*
G37*
X8390Y5285D02*
G54D11*
D03*
X8398Y5063D02*
G54D11*
D03*
X8342Y4555D02*
G54D11*
D03*
X8366Y3999D02*
G54D11*
D03*
X9946Y5269D02*
G54D11*
D03*
X9970Y5063D02*
G54D11*
D03*
X9954Y4372D02*
G54D11*
D03*
X9938Y4253D02*
G54D11*
D03*
X8572Y4690D02*
G54D11*
D03*
X8692Y4499D02*
G54D11*
D03*
X8366Y5642D02*
G54D11*
D03*
X8374Y5436D02*
G54D11*
D03*
G36*
X10348Y4902D02*
X10228Y4902D01*
X10228Y5022D01*
X10348Y5022D01*
X10348Y4902D01*
G37*
G36*
X10158Y4902D02*
X10038Y4902D01*
X10038Y5022D01*
X10158Y5022D01*
X10158Y4902D01*
G37*
G36*
X10253Y4680D02*
X10133Y4680D01*
X10133Y4800D01*
X10253Y4800D01*
X10253Y4680D01*
G37*
X8453Y4015D02*
G54D11*
D03*
G36*
X10356Y4497D02*
X10236Y4497D01*
X10236Y4617D01*
X10356Y4617D01*
X10356Y4497D01*
G37*
G36*
X10166Y4497D02*
X10046Y4497D01*
X10046Y4617D01*
X10166Y4617D01*
X10166Y4497D01*
G37*
G36*
X10261Y4275D02*
X10141Y4275D01*
X10141Y4395D01*
X10261Y4395D01*
X10261Y4275D01*
G37*
X10295Y4420D02*
G54D11*
D03*
X10287Y4888D02*
G54D11*
D03*
X10295Y4682D02*
G54D11*
D03*
X10287Y5158D02*
G54D11*
D03*
X10263Y4261D02*
G54D11*
D03*
X10255Y4007D02*
G54D11*
D03*
G36*
X10246Y5223D02*
X10376Y5223D01*
X10376Y5093D01*
X10246Y5093D01*
X10246Y5223D01*
G37*
G36*
X10246Y4334D02*
X10376Y4334D01*
X10376Y4204D01*
X10246Y4204D01*
X10246Y4334D01*
G37*
G36*
X10246Y4612D02*
X10376Y4612D01*
X10376Y4482D01*
X10246Y4482D01*
X10246Y4612D01*
G37*
G36*
X10246Y5064D02*
X10376Y5064D01*
X10376Y4934D01*
X10246Y4934D01*
X10246Y5064D01*
G37*
X10001Y4968D02*
G54D11*
D03*
X9898Y4753D02*
G54D11*
D03*
X9525Y4706D02*
G54D11*
D03*
G36*
X10246Y5382D02*
X10376Y5382D01*
X10376Y5252D01*
X10246Y5252D01*
X10246Y5382D01*
G37*
X10287Y5269D02*
G54D11*
D03*
G36*
X10238Y5726D02*
X10368Y5726D01*
X10368Y5416D01*
X10238Y5416D01*
X10238Y5726D01*
G37*
X10279Y5634D02*
G54D11*
D03*
X9231Y5142D02*
G54D11*
D03*
X9287Y5222D02*
G54D11*
D03*
X9414Y5182D02*
G54D11*
D03*
X12271Y4268D02*
G54D10*
D03*
X10681Y4268D02*
G54D10*
D03*
X12271Y4468D02*
G54D10*
D03*
X10681Y4468D02*
G54D10*
D03*
X12271Y4668D02*
G54D10*
D03*
X10681Y4668D02*
G54D10*
D03*
X12271Y4868D02*
G54D10*
D03*
X10681Y4868D02*
G54D10*
D03*
X12271Y5068D02*
G54D10*
D03*
X10681Y5068D02*
G54D10*
D03*
X12271Y5268D02*
G54D10*
D03*
X10681Y5268D02*
G54D10*
D03*
X12271Y5468D02*
G54D10*
D03*
X10681Y5468D02*
G54D10*
D03*
X11454Y5190D02*
G54D11*
D03*
X12113Y4102D02*
G54D12*
D03*
X11859Y4102D02*
G54D12*
D03*
X11605Y4102D02*
G54D12*
D03*
X11351Y4102D02*
G54D13*
D03*
X11097Y4102D02*
G54D12*
D03*
X10843Y4102D02*
G54D12*
D03*
X11898Y4420D02*
G54D11*
D03*
X11541Y4531D02*
G54D11*
D03*
X11620Y4531D02*
G54D11*
D03*
X11295Y5222D02*
G54D11*
D03*
X11382Y5222D02*
G54D11*
D03*
X10978Y4753D02*
G54D11*
D03*
X12113Y5626D02*
G54D12*
D03*
X11859Y5626D02*
G54D12*
D03*
X11605Y5626D02*
G54D12*
D03*
X11351Y5626D02*
G54D12*
D03*
X11097Y5626D02*
G54D12*
D03*
X10843Y5626D02*
G54D12*
D03*
X11081Y4476D02*
G54D11*
D03*
X11176Y4833D02*
G54D11*
D03*
X12367Y4094D02*
G54D14*
D03*
X10906Y5063D02*
G54D11*
D03*
X10986Y5277D02*
G54D11*
D03*
X10835Y5158D02*
G54D11*
D03*
X11771Y5063D02*
G54D11*
D03*
X12367Y5626D02*
G54D14*
D03*
X12422Y5380D02*
G54D12*
D03*
X10986Y4285D02*
G54D11*
D03*
X10779Y5293D02*
G54D11*
D03*
X11946Y4356D02*
G54D11*
D03*
X11390Y4539D02*
G54D11*
D03*
X12192Y4952D02*
G54D11*
D03*
X11438Y4293D02*
G54D11*
D03*
X11763Y4229D02*
G54D11*
D03*
X12057Y4253D02*
G54D11*
D03*
X11994Y5349D02*
G54D11*
D03*
X11835Y5126D02*
G54D11*
D03*
G36*
X12342Y5278D02*
X12502Y5278D01*
X12502Y5118D01*
X12342Y5118D01*
X12342Y5278D01*
G37*
X10684Y5285D02*
G54D11*
D03*
X10692Y5063D02*
G54D11*
D03*
X10636Y4555D02*
G54D11*
D03*
X10660Y3999D02*
G54D11*
D03*
X12240Y5269D02*
G54D11*
D03*
X12263Y5063D02*
G54D11*
D03*
X12248Y4372D02*
G54D11*
D03*
X12232Y4253D02*
G54D11*
D03*
X10866Y4690D02*
G54D11*
D03*
X10986Y4499D02*
G54D11*
D03*
X10660Y5642D02*
G54D11*
D03*
X10668Y5436D02*
G54D11*
D03*
G36*
X12642Y4902D02*
X12522Y4902D01*
X12522Y5022D01*
X12642Y5022D01*
X12642Y4902D01*
G37*
G36*
X12452Y4902D02*
X12332Y4902D01*
X12332Y5022D01*
X12452Y5022D01*
X12452Y4902D01*
G37*
G36*
X12547Y4680D02*
X12427Y4680D01*
X12427Y4800D01*
X12547Y4800D01*
X12547Y4680D01*
G37*
X10747Y4015D02*
G54D11*
D03*
G36*
X12650Y4497D02*
X12530Y4497D01*
X12530Y4617D01*
X12650Y4617D01*
X12650Y4497D01*
G37*
G36*
X12460Y4497D02*
X12340Y4497D01*
X12340Y4617D01*
X12460Y4617D01*
X12460Y4497D01*
G37*
G36*
X12555Y4275D02*
X12435Y4275D01*
X12435Y4395D01*
X12555Y4395D01*
X12555Y4275D01*
G37*
X12589Y4420D02*
G54D11*
D03*
X12581Y4888D02*
G54D11*
D03*
X12589Y4682D02*
G54D11*
D03*
X12581Y5158D02*
G54D11*
D03*
X12557Y4261D02*
G54D11*
D03*
X12549Y4007D02*
G54D11*
D03*
G36*
X12540Y5223D02*
X12670Y5223D01*
X12670Y5093D01*
X12540Y5093D01*
X12540Y5223D01*
G37*
G36*
X12540Y4334D02*
X12670Y4334D01*
X12670Y4204D01*
X12540Y4204D01*
X12540Y4334D01*
G37*
G36*
X12540Y4612D02*
X12670Y4612D01*
X12670Y4482D01*
X12540Y4482D01*
X12540Y4612D01*
G37*
G36*
X12540Y5064D02*
X12670Y5064D01*
X12670Y4934D01*
X12540Y4934D01*
X12540Y5064D01*
G37*
X12295Y4968D02*
G54D11*
D03*
X12192Y4753D02*
G54D11*
D03*
X11819Y4706D02*
G54D11*
D03*
G36*
X12540Y5382D02*
X12670Y5382D01*
X12670Y5252D01*
X12540Y5252D01*
X12540Y5382D01*
G37*
X12581Y5269D02*
G54D11*
D03*
G36*
X12532Y5726D02*
X12662Y5726D01*
X12662Y5416D01*
X12532Y5416D01*
X12532Y5726D01*
G37*
X12573Y5634D02*
G54D11*
D03*
X11525Y5142D02*
G54D11*
D03*
X11581Y5222D02*
G54D11*
D03*
X11708Y5182D02*
G54D11*
D03*
M02*
