%FSLAX32Y32*%
%MOMM*%
%LNSMD_Maske1*%
G71*
G01*
%LPD*%
G36*
X8715Y7216D02*
X8795Y7216D01*
X8795Y7196D01*
X8715Y7196D01*
X8715Y7216D01*
G37*
G36*
X8715Y7136D02*
X8795Y7136D01*
X8795Y7116D01*
X8715Y7116D01*
X8715Y7136D01*
G37*
G36*
X8715Y7056D02*
X8795Y7056D01*
X8795Y7036D01*
X8715Y7036D01*
X8715Y7056D01*
G37*
G36*
X8715Y6976D02*
X8795Y6976D01*
X8795Y6956D01*
X8715Y6956D01*
X8715Y6976D01*
G37*
G36*
X8715Y6896D02*
X8795Y6896D01*
X8795Y6876D01*
X8715Y6876D01*
X8715Y6896D01*
G37*
G36*
X8715Y6816D02*
X8795Y6816D01*
X8795Y6796D01*
X8715Y6796D01*
X8715Y6816D01*
G37*
G36*
X8715Y6736D02*
X8795Y6736D01*
X8795Y6716D01*
X8715Y6716D01*
X8715Y6736D01*
G37*
G36*
X8715Y6656D02*
X8795Y6656D01*
X8795Y6636D01*
X8715Y6636D01*
X8715Y6656D01*
G37*
G36*
X9615Y7216D02*
X9695Y7216D01*
X9695Y7196D01*
X9615Y7196D01*
X9615Y7216D01*
G37*
G36*
X9615Y7136D02*
X9695Y7136D01*
X9695Y7116D01*
X9615Y7116D01*
X9615Y7136D01*
G37*
G36*
X9615Y7056D02*
X9695Y7056D01*
X9695Y7036D01*
X9615Y7036D01*
X9615Y7056D01*
G37*
G36*
X9615Y6976D02*
X9695Y6976D01*
X9695Y6956D01*
X9615Y6956D01*
X9615Y6976D01*
G37*
G36*
X9615Y6896D02*
X9695Y6896D01*
X9695Y6876D01*
X9615Y6876D01*
X9615Y6896D01*
G37*
G36*
X9615Y6816D02*
X9695Y6816D01*
X9695Y6796D01*
X9615Y6796D01*
X9615Y6816D01*
G37*
G36*
X9615Y6736D02*
X9695Y6736D01*
X9695Y6716D01*
X9615Y6716D01*
X9615Y6736D01*
G37*
G36*
X9615Y6656D02*
X9695Y6656D01*
X9695Y6636D01*
X9615Y6636D01*
X9615Y6656D01*
G37*
G36*
X8915Y7416D02*
X8935Y7416D01*
X8935Y7336D01*
X8915Y7336D01*
X8915Y7416D01*
G37*
G36*
X8995Y7416D02*
X9015Y7416D01*
X9015Y7336D01*
X8995Y7336D01*
X8995Y7416D01*
G37*
G36*
X9075Y7416D02*
X9095Y7416D01*
X9095Y7336D01*
X9075Y7336D01*
X9075Y7416D01*
G37*
G36*
X9155Y7416D02*
X9175Y7416D01*
X9175Y7336D01*
X9155Y7336D01*
X9155Y7416D01*
G37*
G36*
X9235Y7416D02*
X9255Y7416D01*
X9255Y7336D01*
X9235Y7336D01*
X9235Y7416D01*
G37*
G36*
X9315Y7416D02*
X9335Y7416D01*
X9335Y7336D01*
X9315Y7336D01*
X9315Y7416D01*
G37*
G36*
X9395Y7416D02*
X9415Y7416D01*
X9415Y7336D01*
X9395Y7336D01*
X9395Y7416D01*
G37*
G36*
X9475Y7416D02*
X9495Y7416D01*
X9495Y7336D01*
X9475Y7336D01*
X9475Y7416D01*
G37*
G36*
X8915Y6516D02*
X8935Y6516D01*
X8935Y6436D01*
X8915Y6436D01*
X8915Y6516D01*
G37*
G36*
X8995Y6516D02*
X9015Y6516D01*
X9015Y6436D01*
X8995Y6436D01*
X8995Y6516D01*
G37*
G36*
X9085Y6516D02*
X9105Y6516D01*
X9105Y6436D01*
X9085Y6436D01*
X9085Y6516D01*
G37*
G36*
X9155Y6516D02*
X9175Y6516D01*
X9175Y6436D01*
X9155Y6436D01*
X9155Y6516D01*
G37*
G36*
X9235Y6516D02*
X9255Y6516D01*
X9255Y6436D01*
X9235Y6436D01*
X9235Y6516D01*
G37*
G36*
X9315Y6516D02*
X9335Y6516D01*
X9335Y6436D01*
X9315Y6436D01*
X9315Y6516D01*
G37*
G36*
X9395Y6516D02*
X9415Y6516D01*
X9415Y6436D01*
X9395Y6436D01*
X9395Y6516D01*
G37*
G36*
X9475Y6516D02*
X9495Y6516D01*
X9495Y6436D01*
X9475Y6436D01*
X9475Y6516D01*
G37*
G36*
X9827Y7071D02*
X9827Y7001D01*
X9757Y7001D01*
X9757Y7071D01*
X9827Y7071D01*
G37*
G36*
X9826Y6904D02*
X9826Y6834D01*
X9756Y6834D01*
X9756Y6904D01*
X9826Y6904D01*
G37*
G36*
X8643Y7126D02*
X8643Y7056D01*
X8573Y7056D01*
X8573Y7126D01*
X8643Y7126D01*
G37*
G36*
X8642Y6959D02*
X8642Y6889D01*
X8572Y6889D01*
X8572Y6959D01*
X8642Y6959D01*
G37*
G36*
X9859Y7373D02*
X9859Y7303D01*
X9789Y7303D01*
X9789Y7373D01*
X9859Y7373D01*
G37*
G36*
X9858Y7206D02*
X9858Y7136D01*
X9788Y7136D01*
X9788Y7206D01*
X9858Y7206D01*
G37*
G36*
X8397Y6341D02*
X8397Y6391D01*
X8477Y6391D01*
X8477Y6341D01*
X8397Y6341D01*
G37*
G36*
X8397Y6531D02*
X8397Y6581D01*
X8477Y6581D01*
X8477Y6531D01*
X8397Y6531D01*
G37*
G36*
X8635Y6341D02*
X8635Y6391D01*
X8715Y6391D01*
X8715Y6341D01*
X8635Y6341D01*
G37*
G36*
X8635Y6531D02*
X8635Y6581D01*
X8715Y6581D01*
X8715Y6531D01*
X8635Y6531D01*
G37*
G36*
X8635Y6436D02*
X8635Y6486D01*
X8715Y6486D01*
X8715Y6436D01*
X8635Y6436D01*
G37*
G36*
X8627Y7412D02*
X8627Y7342D01*
X8557Y7342D01*
X8557Y7412D01*
X8627Y7412D01*
G37*
G36*
X8626Y7245D02*
X8626Y7175D01*
X8556Y7175D01*
X8556Y7245D01*
X8626Y7245D01*
G37*
G36*
X10160Y6889D02*
X10160Y6819D01*
X10090Y6819D01*
X10090Y6889D01*
X10160Y6889D01*
G37*
G36*
X10159Y6722D02*
X10159Y6652D01*
X10089Y6652D01*
X10089Y6722D01*
X10159Y6722D01*
G37*
G36*
X10152Y6563D02*
X10152Y6493D01*
X10082Y6493D01*
X10082Y6563D01*
X10152Y6563D01*
G37*
G36*
X10151Y6396D02*
X10151Y6326D01*
X10081Y6326D01*
X10081Y6396D01*
X10151Y6396D01*
G37*
G36*
X10080Y6984D02*
X10160Y6984D01*
X10160Y6904D01*
X10080Y6904D01*
X10080Y6984D01*
G37*
G36*
X9163Y6323D02*
X9094Y6322D01*
X9093Y6392D01*
X9163Y6393D01*
X9163Y6323D01*
G37*
G36*
X8996Y6324D02*
X8926Y6324D01*
X8926Y6394D01*
X8996Y6394D01*
X8996Y6324D01*
G37*
G36*
X9513Y6315D02*
X9443Y6315D01*
X9443Y6385D01*
X9513Y6385D01*
X9513Y6315D01*
G37*
G36*
X9346Y6316D02*
X9276Y6316D01*
X9276Y6386D01*
X9346Y6386D01*
X9346Y6316D01*
G37*
G36*
X9779Y6510D02*
X9778Y6580D01*
X9848Y6580D01*
X9849Y6510D01*
X9779Y6510D01*
G37*
G36*
X9780Y6677D02*
X9780Y6747D01*
X9850Y6747D01*
X9850Y6677D01*
X9780Y6677D01*
G37*
G36*
X9854Y6307D02*
X9784Y6307D01*
X9784Y6377D01*
X9854Y6377D01*
X9854Y6307D01*
G37*
G36*
X9687Y6308D02*
X9617Y6308D01*
X9617Y6378D01*
X9687Y6378D01*
X9687Y6308D01*
G37*
G36*
X10080Y7066D02*
X10080Y7136D01*
X10150Y7136D01*
X10150Y7066D01*
X10080Y7066D01*
G37*
G36*
X10081Y7233D02*
X10081Y7303D01*
X10151Y7303D01*
X10151Y7233D01*
X10081Y7233D01*
G37*
G36*
X9554Y7439D02*
X9624Y7439D01*
X9624Y7369D01*
X9554Y7369D01*
X9554Y7439D01*
G37*
G36*
X9665Y7439D02*
X9735Y7439D01*
X9735Y7369D01*
X9665Y7369D01*
X9665Y7439D01*
G37*
G36*
X9553Y7332D02*
X9783Y7332D01*
X9783Y7302D01*
X9553Y7302D01*
X9553Y7332D01*
G37*
G36*
X9555Y7507D02*
X9765Y7507D01*
X9765Y7477D01*
X9555Y7477D01*
X9555Y7507D01*
G37*
G36*
X10033Y6754D02*
X10033Y6684D01*
X9963Y6684D01*
X9963Y6754D01*
X10033Y6754D01*
G37*
G36*
X10032Y6587D02*
X10032Y6517D01*
X9962Y6517D01*
X9962Y6587D01*
X10032Y6587D01*
G37*
G36*
X8515Y6910D02*
X8515Y6900D01*
X8375Y6900D01*
X8375Y6910D01*
X8515Y6910D01*
G37*
G36*
X8515Y6815D02*
X8515Y6805D01*
X8375Y6805D01*
X8375Y6815D01*
X8515Y6815D01*
G37*
G36*
X8515Y6720D02*
X8515Y6710D01*
X8375Y6710D01*
X8375Y6720D01*
X8515Y6720D01*
G37*
G36*
X8398Y7728D02*
X8398Y7658D01*
X8328Y7658D01*
X8328Y7728D01*
X8398Y7728D01*
G37*
G36*
X8397Y7562D02*
X8397Y7492D01*
X8327Y7492D01*
X8327Y7562D01*
X8397Y7562D01*
G37*
G36*
X8326Y6221D02*
X8326Y6291D01*
X8396Y6291D01*
X8396Y6221D01*
X8326Y6221D01*
G37*
G36*
X8327Y6436D02*
X8327Y6506D01*
X8397Y6506D01*
X8397Y6436D01*
X8327Y6436D01*
G37*
G36*
X8596Y6506D02*
X8596Y6436D01*
X8526Y6436D01*
X8526Y6506D01*
X8596Y6506D01*
G37*
G36*
X8595Y6339D02*
X8595Y6269D01*
X8525Y6269D01*
X8525Y6339D01*
X8595Y6339D01*
G37*
G36*
X8995Y6323D02*
X8925Y6323D01*
X8925Y6393D01*
X8995Y6393D01*
X8995Y6323D01*
G37*
G36*
X8828Y6324D02*
X8758Y6324D01*
X8758Y6394D01*
X8828Y6394D01*
X8828Y6324D01*
G37*
G36*
X10319Y6611D02*
X10319Y6541D01*
X10249Y6541D01*
X10249Y6611D01*
X10319Y6611D01*
G37*
G36*
X10318Y6444D02*
X10318Y6374D01*
X10248Y6374D01*
X10248Y6444D01*
X10318Y6444D01*
G37*
G36*
X10319Y6921D02*
X10319Y6851D01*
X10249Y6851D01*
X10249Y6921D01*
X10319Y6921D01*
G37*
G36*
X10318Y6754D02*
X10318Y6684D01*
X10248Y6684D01*
X10248Y6754D01*
X10318Y6754D01*
G37*
G36*
X10319Y7254D02*
X10319Y7184D01*
X10249Y7184D01*
X10249Y7254D01*
X10319Y7254D01*
G37*
G36*
X10318Y7087D02*
X10318Y7017D01*
X10248Y7017D01*
X10248Y7087D01*
X10318Y7087D01*
G37*
G36*
X10319Y6301D02*
X10319Y6231D01*
X10249Y6231D01*
X10249Y6301D01*
X10319Y6301D01*
G37*
G36*
X10318Y6134D02*
X10318Y6064D01*
X10248Y6064D01*
X10248Y6134D01*
X10318Y6134D01*
G37*
G36*
X10033Y7000D02*
X10033Y6930D01*
X9963Y6930D01*
X9963Y7000D01*
X10033Y7000D01*
G37*
G36*
X10032Y6833D02*
X10032Y6763D01*
X9962Y6763D01*
X9962Y6833D01*
X10032Y6833D01*
G37*
G36*
X10343Y7737D02*
X10343Y7652D01*
X10273Y7652D01*
X10273Y7737D01*
X10343Y7737D01*
G37*
G36*
X10343Y7490D02*
X10343Y7405D01*
X10273Y7405D01*
X10273Y7490D01*
X10343Y7490D01*
G37*
G36*
X8725Y7552D02*
X9405Y7552D01*
X9405Y7542D01*
X8725Y7542D01*
X8725Y7552D01*
G37*
G36*
X8660Y7626D02*
X8730Y7555D01*
X8723Y7548D01*
X8653Y7619D01*
X8660Y7626D01*
G37*
G36*
X9461Y7603D02*
X9405Y7547D01*
X9397Y7554D01*
X9454Y7610D01*
X9461Y7603D01*
G37*
G36*
X11009Y7216D02*
X11089Y7216D01*
X11089Y7196D01*
X11009Y7196D01*
X11009Y7216D01*
G37*
G36*
X11009Y7136D02*
X11089Y7136D01*
X11089Y7116D01*
X11009Y7116D01*
X11009Y7136D01*
G37*
G36*
X11009Y7056D02*
X11089Y7056D01*
X11089Y7036D01*
X11009Y7036D01*
X11009Y7056D01*
G37*
G36*
X11009Y6976D02*
X11089Y6976D01*
X11089Y6956D01*
X11009Y6956D01*
X11009Y6976D01*
G37*
G36*
X11009Y6896D02*
X11089Y6896D01*
X11089Y6876D01*
X11009Y6876D01*
X11009Y6896D01*
G37*
G36*
X11009Y6816D02*
X11089Y6816D01*
X11089Y6796D01*
X11009Y6796D01*
X11009Y6816D01*
G37*
G36*
X11009Y6736D02*
X11089Y6736D01*
X11089Y6716D01*
X11009Y6716D01*
X11009Y6736D01*
G37*
G36*
X11009Y6656D02*
X11089Y6656D01*
X11089Y6636D01*
X11009Y6636D01*
X11009Y6656D01*
G37*
G36*
X11909Y7216D02*
X11989Y7216D01*
X11989Y7196D01*
X11909Y7196D01*
X11909Y7216D01*
G37*
G36*
X11909Y7136D02*
X11989Y7136D01*
X11989Y7116D01*
X11909Y7116D01*
X11909Y7136D01*
G37*
G36*
X11909Y7056D02*
X11989Y7056D01*
X11989Y7036D01*
X11909Y7036D01*
X11909Y7056D01*
G37*
G36*
X11909Y6976D02*
X11989Y6976D01*
X11989Y6956D01*
X11909Y6956D01*
X11909Y6976D01*
G37*
G36*
X11909Y6896D02*
X11989Y6896D01*
X11989Y6876D01*
X11909Y6876D01*
X11909Y6896D01*
G37*
G36*
X11909Y6816D02*
X11989Y6816D01*
X11989Y6796D01*
X11909Y6796D01*
X11909Y6816D01*
G37*
G36*
X11909Y6736D02*
X11989Y6736D01*
X11989Y6716D01*
X11909Y6716D01*
X11909Y6736D01*
G37*
G36*
X11909Y6656D02*
X11989Y6656D01*
X11989Y6636D01*
X11909Y6636D01*
X11909Y6656D01*
G37*
G36*
X11209Y7416D02*
X11229Y7416D01*
X11229Y7336D01*
X11209Y7336D01*
X11209Y7416D01*
G37*
G36*
X11289Y7416D02*
X11309Y7416D01*
X11309Y7336D01*
X11289Y7336D01*
X11289Y7416D01*
G37*
G36*
X11369Y7416D02*
X11389Y7416D01*
X11389Y7336D01*
X11369Y7336D01*
X11369Y7416D01*
G37*
G36*
X11449Y7416D02*
X11469Y7416D01*
X11469Y7336D01*
X11449Y7336D01*
X11449Y7416D01*
G37*
G36*
X11529Y7416D02*
X11549Y7416D01*
X11549Y7336D01*
X11529Y7336D01*
X11529Y7416D01*
G37*
G36*
X11609Y7416D02*
X11629Y7416D01*
X11629Y7336D01*
X11609Y7336D01*
X11609Y7416D01*
G37*
G36*
X11689Y7416D02*
X11709Y7416D01*
X11709Y7336D01*
X11689Y7336D01*
X11689Y7416D01*
G37*
G36*
X11769Y7416D02*
X11789Y7416D01*
X11789Y7336D01*
X11769Y7336D01*
X11769Y7416D01*
G37*
G36*
X11209Y6516D02*
X11229Y6516D01*
X11229Y6436D01*
X11209Y6436D01*
X11209Y6516D01*
G37*
G36*
X11289Y6516D02*
X11309Y6516D01*
X11309Y6436D01*
X11289Y6436D01*
X11289Y6516D01*
G37*
G36*
X11379Y6516D02*
X11399Y6516D01*
X11399Y6436D01*
X11379Y6436D01*
X11379Y6516D01*
G37*
G36*
X11449Y6516D02*
X11469Y6516D01*
X11469Y6436D01*
X11449Y6436D01*
X11449Y6516D01*
G37*
G36*
X11529Y6516D02*
X11549Y6516D01*
X11549Y6436D01*
X11529Y6436D01*
X11529Y6516D01*
G37*
G36*
X11609Y6516D02*
X11629Y6516D01*
X11629Y6436D01*
X11609Y6436D01*
X11609Y6516D01*
G37*
G36*
X11689Y6516D02*
X11709Y6516D01*
X11709Y6436D01*
X11689Y6436D01*
X11689Y6516D01*
G37*
G36*
X11769Y6516D02*
X11789Y6516D01*
X11789Y6436D01*
X11769Y6436D01*
X11769Y6516D01*
G37*
G36*
X12121Y7071D02*
X12121Y7001D01*
X12051Y7001D01*
X12051Y7071D01*
X12121Y7071D01*
G37*
G36*
X12120Y6904D02*
X12120Y6834D01*
X12050Y6834D01*
X12050Y6904D01*
X12120Y6904D01*
G37*
G36*
X10937Y7126D02*
X10937Y7056D01*
X10867Y7056D01*
X10867Y7126D01*
X10937Y7126D01*
G37*
G36*
X10936Y6959D02*
X10936Y6889D01*
X10866Y6889D01*
X10866Y6959D01*
X10936Y6959D01*
G37*
G36*
X12152Y7373D02*
X12152Y7303D01*
X12082Y7303D01*
X12082Y7373D01*
X12152Y7373D01*
G37*
G36*
X12152Y7206D02*
X12152Y7136D01*
X12082Y7136D01*
X12082Y7206D01*
X12152Y7206D01*
G37*
G36*
X10691Y6341D02*
X10691Y6391D01*
X10771Y6391D01*
X10771Y6341D01*
X10691Y6341D01*
G37*
G36*
X10691Y6531D02*
X10691Y6581D01*
X10771Y6581D01*
X10771Y6531D01*
X10691Y6531D01*
G37*
G36*
X10929Y6341D02*
X10929Y6391D01*
X11009Y6391D01*
X11009Y6341D01*
X10929Y6341D01*
G37*
G36*
X10929Y6531D02*
X10929Y6581D01*
X11009Y6581D01*
X11009Y6531D01*
X10929Y6531D01*
G37*
G36*
X10929Y6436D02*
X10929Y6486D01*
X11009Y6486D01*
X11009Y6436D01*
X10929Y6436D01*
G37*
G36*
X10921Y7412D02*
X10921Y7342D01*
X10851Y7342D01*
X10851Y7412D01*
X10921Y7412D01*
G37*
G36*
X10920Y7245D02*
X10920Y7175D01*
X10850Y7175D01*
X10850Y7245D01*
X10920Y7245D01*
G37*
G36*
X12454Y6889D02*
X12454Y6819D01*
X12384Y6819D01*
X12384Y6889D01*
X12454Y6889D01*
G37*
G36*
X12453Y6722D02*
X12453Y6652D01*
X12383Y6652D01*
X12383Y6722D01*
X12453Y6722D01*
G37*
G36*
X12446Y6563D02*
X12446Y6493D01*
X12376Y6493D01*
X12376Y6563D01*
X12446Y6563D01*
G37*
G36*
X12445Y6396D02*
X12445Y6326D01*
X12375Y6326D01*
X12375Y6396D01*
X12445Y6396D01*
G37*
G36*
X12374Y6984D02*
X12454Y6984D01*
X12454Y6904D01*
X12374Y6904D01*
X12374Y6984D01*
G37*
G36*
X11457Y6323D02*
X11387Y6322D01*
X11387Y6392D01*
X11457Y6393D01*
X11457Y6323D01*
G37*
G36*
X11290Y6324D02*
X11220Y6324D01*
X11220Y6394D01*
X11290Y6394D01*
X11290Y6324D01*
G37*
G36*
X11807Y6315D02*
X11737Y6315D01*
X11737Y6385D01*
X11807Y6385D01*
X11807Y6315D01*
G37*
G36*
X11640Y6316D02*
X11570Y6316D01*
X11570Y6386D01*
X11640Y6386D01*
X11640Y6316D01*
G37*
G36*
X12072Y6510D02*
X12072Y6580D01*
X12142Y6580D01*
X12142Y6510D01*
X12072Y6510D01*
G37*
G36*
X12073Y6677D02*
X12073Y6747D01*
X12143Y6747D01*
X12143Y6677D01*
X12073Y6677D01*
G37*
G36*
X12148Y6307D02*
X12078Y6307D01*
X12078Y6377D01*
X12148Y6377D01*
X12148Y6307D01*
G37*
G36*
X11981Y6308D02*
X11911Y6308D01*
X11911Y6378D01*
X11981Y6378D01*
X11981Y6308D01*
G37*
G36*
X12374Y7066D02*
X12374Y7136D01*
X12444Y7136D01*
X12444Y7066D01*
X12374Y7066D01*
G37*
G36*
X12375Y7233D02*
X12375Y7303D01*
X12445Y7303D01*
X12445Y7233D01*
X12375Y7233D01*
G37*
G36*
X11847Y7439D02*
X11917Y7439D01*
X11917Y7369D01*
X11847Y7369D01*
X11847Y7439D01*
G37*
G36*
X11959Y7439D02*
X12029Y7439D01*
X12029Y7369D01*
X11959Y7369D01*
X11959Y7439D01*
G37*
G36*
X11847Y7332D02*
X12077Y7332D01*
X12077Y7302D01*
X11847Y7302D01*
X11847Y7332D01*
G37*
G36*
X11849Y7507D02*
X12059Y7507D01*
X12059Y7477D01*
X11849Y7477D01*
X11849Y7507D01*
G37*
G36*
X12327Y6754D02*
X12327Y6684D01*
X12257Y6684D01*
X12257Y6754D01*
X12327Y6754D01*
G37*
G36*
X12326Y6587D02*
X12326Y6517D01*
X12256Y6517D01*
X12256Y6587D01*
X12326Y6587D01*
G37*
G36*
X10809Y6910D02*
X10809Y6900D01*
X10669Y6900D01*
X10669Y6910D01*
X10809Y6910D01*
G37*
G36*
X10809Y6815D02*
X10809Y6805D01*
X10669Y6805D01*
X10669Y6815D01*
X10809Y6815D01*
G37*
G36*
X10809Y6720D02*
X10809Y6710D01*
X10669Y6710D01*
X10669Y6720D01*
X10809Y6720D01*
G37*
G36*
X10692Y7728D02*
X10692Y7658D01*
X10622Y7658D01*
X10622Y7728D01*
X10692Y7728D01*
G37*
G36*
X10690Y7562D02*
X10690Y7492D01*
X10620Y7492D01*
X10620Y7562D01*
X10690Y7562D01*
G37*
G36*
X10620Y6221D02*
X10620Y6291D01*
X10690Y6291D01*
X10690Y6221D01*
X10620Y6221D01*
G37*
G36*
X10621Y6436D02*
X10621Y6506D01*
X10691Y6506D01*
X10691Y6436D01*
X10621Y6436D01*
G37*
G36*
X10890Y6506D02*
X10890Y6436D01*
X10820Y6436D01*
X10820Y6506D01*
X10890Y6506D01*
G37*
G36*
X10889Y6339D02*
X10889Y6269D01*
X10819Y6269D01*
X10819Y6339D01*
X10889Y6339D01*
G37*
G36*
X11289Y6323D02*
X11219Y6323D01*
X11219Y6393D01*
X11289Y6393D01*
X11289Y6323D01*
G37*
G36*
X11122Y6324D02*
X11052Y6324D01*
X11052Y6394D01*
X11122Y6394D01*
X11122Y6324D01*
G37*
G36*
X12613Y6611D02*
X12613Y6541D01*
X12543Y6541D01*
X12543Y6611D01*
X12613Y6611D01*
G37*
G36*
X12612Y6444D02*
X12612Y6374D01*
X12542Y6374D01*
X12542Y6444D01*
X12612Y6444D01*
G37*
G36*
X12613Y6921D02*
X12613Y6851D01*
X12543Y6851D01*
X12543Y6921D01*
X12613Y6921D01*
G37*
G36*
X12612Y6754D02*
X12612Y6684D01*
X12542Y6684D01*
X12542Y6754D01*
X12612Y6754D01*
G37*
G36*
X12613Y7254D02*
X12613Y7184D01*
X12543Y7184D01*
X12543Y7254D01*
X12613Y7254D01*
G37*
G36*
X12612Y7087D02*
X12612Y7017D01*
X12542Y7017D01*
X12542Y7087D01*
X12612Y7087D01*
G37*
G36*
X12613Y6301D02*
X12613Y6231D01*
X12543Y6231D01*
X12543Y6301D01*
X12613Y6301D01*
G37*
G36*
X12612Y6134D02*
X12612Y6064D01*
X12542Y6064D01*
X12542Y6134D01*
X12612Y6134D01*
G37*
G36*
X12327Y7000D02*
X12327Y6930D01*
X12257Y6930D01*
X12257Y7000D01*
X12327Y7000D01*
G37*
G36*
X12326Y6833D02*
X12326Y6763D01*
X12256Y6763D01*
X12256Y6833D01*
X12326Y6833D01*
G37*
G36*
X12637Y7737D02*
X12637Y7652D01*
X12567Y7652D01*
X12567Y7737D01*
X12637Y7737D01*
G37*
G36*
X12637Y7490D02*
X12637Y7405D01*
X12567Y7405D01*
X12567Y7490D01*
X12637Y7490D01*
G37*
G36*
X11019Y7552D02*
X11699Y7552D01*
X11699Y7542D01*
X11019Y7542D01*
X11019Y7552D01*
G37*
G36*
X10954Y7626D02*
X11024Y7555D01*
X11017Y7548D01*
X10946Y7619D01*
X10954Y7626D01*
G37*
G36*
X11755Y7603D02*
X11698Y7547D01*
X11691Y7554D01*
X11748Y7610D01*
X11755Y7603D01*
G37*
G36*
X8715Y5160D02*
X8795Y5160D01*
X8795Y5140D01*
X8715Y5140D01*
X8715Y5160D01*
G37*
G36*
X8715Y5080D02*
X8795Y5080D01*
X8795Y5060D01*
X8715Y5060D01*
X8715Y5080D01*
G37*
G36*
X8715Y5000D02*
X8795Y5000D01*
X8795Y4980D01*
X8715Y4980D01*
X8715Y5000D01*
G37*
G36*
X8715Y4920D02*
X8795Y4920D01*
X8795Y4900D01*
X8715Y4900D01*
X8715Y4920D01*
G37*
G36*
X8715Y4840D02*
X8795Y4840D01*
X8795Y4820D01*
X8715Y4820D01*
X8715Y4840D01*
G37*
G36*
X8715Y4760D02*
X8795Y4760D01*
X8795Y4740D01*
X8715Y4740D01*
X8715Y4760D01*
G37*
G36*
X8715Y4680D02*
X8795Y4680D01*
X8795Y4660D01*
X8715Y4660D01*
X8715Y4680D01*
G37*
G36*
X8715Y4600D02*
X8795Y4600D01*
X8795Y4580D01*
X8715Y4580D01*
X8715Y4600D01*
G37*
G36*
X9615Y5160D02*
X9695Y5160D01*
X9695Y5140D01*
X9615Y5140D01*
X9615Y5160D01*
G37*
G36*
X9615Y5080D02*
X9695Y5080D01*
X9695Y5060D01*
X9615Y5060D01*
X9615Y5080D01*
G37*
G36*
X9615Y5000D02*
X9695Y5000D01*
X9695Y4980D01*
X9615Y4980D01*
X9615Y5000D01*
G37*
G36*
X9615Y4920D02*
X9695Y4920D01*
X9695Y4900D01*
X9615Y4900D01*
X9615Y4920D01*
G37*
G36*
X9615Y4840D02*
X9695Y4840D01*
X9695Y4820D01*
X9615Y4820D01*
X9615Y4840D01*
G37*
G36*
X9615Y4760D02*
X9695Y4760D01*
X9695Y4740D01*
X9615Y4740D01*
X9615Y4760D01*
G37*
G36*
X9615Y4680D02*
X9695Y4680D01*
X9695Y4660D01*
X9615Y4660D01*
X9615Y4680D01*
G37*
G36*
X9615Y4600D02*
X9695Y4600D01*
X9695Y4580D01*
X9615Y4580D01*
X9615Y4600D01*
G37*
G36*
X8915Y5360D02*
X8935Y5360D01*
X8935Y5280D01*
X8915Y5280D01*
X8915Y5360D01*
G37*
G36*
X8995Y5360D02*
X9015Y5360D01*
X9015Y5280D01*
X8995Y5280D01*
X8995Y5360D01*
G37*
G36*
X9075Y5360D02*
X9095Y5360D01*
X9095Y5280D01*
X9075Y5280D01*
X9075Y5360D01*
G37*
G36*
X9155Y5360D02*
X9175Y5360D01*
X9175Y5280D01*
X9155Y5280D01*
X9155Y5360D01*
G37*
G36*
X9235Y5360D02*
X9255Y5360D01*
X9255Y5280D01*
X9235Y5280D01*
X9235Y5360D01*
G37*
G36*
X9315Y5360D02*
X9335Y5360D01*
X9335Y5280D01*
X9315Y5280D01*
X9315Y5360D01*
G37*
G36*
X9395Y5360D02*
X9415Y5360D01*
X9415Y5280D01*
X9395Y5280D01*
X9395Y5360D01*
G37*
G36*
X9475Y5360D02*
X9495Y5360D01*
X9495Y5280D01*
X9475Y5280D01*
X9475Y5360D01*
G37*
G36*
X8915Y4460D02*
X8935Y4460D01*
X8935Y4380D01*
X8915Y4380D01*
X8915Y4460D01*
G37*
G36*
X8995Y4460D02*
X9015Y4460D01*
X9015Y4380D01*
X8995Y4380D01*
X8995Y4460D01*
G37*
G36*
X9085Y4460D02*
X9105Y4460D01*
X9105Y4380D01*
X9085Y4380D01*
X9085Y4460D01*
G37*
G36*
X9155Y4460D02*
X9175Y4460D01*
X9175Y4380D01*
X9155Y4380D01*
X9155Y4460D01*
G37*
G36*
X9235Y4460D02*
X9255Y4460D01*
X9255Y4380D01*
X9235Y4380D01*
X9235Y4460D01*
G37*
G36*
X9315Y4460D02*
X9335Y4460D01*
X9335Y4380D01*
X9315Y4380D01*
X9315Y4460D01*
G37*
G36*
X9395Y4460D02*
X9415Y4460D01*
X9415Y4380D01*
X9395Y4380D01*
X9395Y4460D01*
G37*
G36*
X9475Y4460D02*
X9495Y4460D01*
X9495Y4380D01*
X9475Y4380D01*
X9475Y4460D01*
G37*
G36*
X9827Y5016D02*
X9827Y4946D01*
X9757Y4946D01*
X9757Y5016D01*
X9827Y5016D01*
G37*
G36*
X9826Y4849D02*
X9826Y4779D01*
X9756Y4779D01*
X9756Y4849D01*
X9826Y4849D01*
G37*
G36*
X8643Y5070D02*
X8643Y5000D01*
X8573Y5000D01*
X8573Y5070D01*
X8643Y5070D01*
G37*
G36*
X8642Y4903D02*
X8642Y4833D01*
X8572Y4833D01*
X8572Y4903D01*
X8642Y4903D01*
G37*
G36*
X9859Y5317D02*
X9859Y5247D01*
X9789Y5247D01*
X9789Y5317D01*
X9859Y5317D01*
G37*
G36*
X9858Y5150D02*
X9858Y5080D01*
X9788Y5080D01*
X9788Y5150D01*
X9858Y5150D01*
G37*
G36*
X8397Y4285D02*
X8397Y4335D01*
X8477Y4335D01*
X8477Y4285D01*
X8397Y4285D01*
G37*
G36*
X8397Y4475D02*
X8397Y4525D01*
X8477Y4525D01*
X8477Y4475D01*
X8397Y4475D01*
G37*
G36*
X8635Y4285D02*
X8635Y4335D01*
X8715Y4335D01*
X8715Y4285D01*
X8635Y4285D01*
G37*
G36*
X8635Y4475D02*
X8635Y4525D01*
X8715Y4525D01*
X8715Y4475D01*
X8635Y4475D01*
G37*
G36*
X8635Y4380D02*
X8635Y4430D01*
X8715Y4430D01*
X8715Y4380D01*
X8635Y4380D01*
G37*
G36*
X8627Y5356D02*
X8627Y5286D01*
X8557Y5286D01*
X8557Y5356D01*
X8627Y5356D01*
G37*
G36*
X8626Y5189D02*
X8626Y5119D01*
X8556Y5119D01*
X8556Y5189D01*
X8626Y5189D01*
G37*
G36*
X10160Y4833D02*
X10160Y4763D01*
X10090Y4763D01*
X10090Y4833D01*
X10160Y4833D01*
G37*
G36*
X10159Y4666D02*
X10159Y4596D01*
X10089Y4596D01*
X10089Y4666D01*
X10159Y4666D01*
G37*
G36*
X10152Y4508D02*
X10152Y4438D01*
X10082Y4438D01*
X10082Y4508D01*
X10152Y4508D01*
G37*
G36*
X10151Y4341D02*
X10151Y4271D01*
X10081Y4271D01*
X10081Y4341D01*
X10151Y4341D01*
G37*
G36*
X10080Y4928D02*
X10160Y4928D01*
X10160Y4848D01*
X10080Y4848D01*
X10080Y4928D01*
G37*
G36*
X9163Y4267D02*
X9094Y4267D01*
X9093Y4337D01*
X9163Y4337D01*
X9163Y4267D01*
G37*
G36*
X8996Y4268D02*
X8926Y4268D01*
X8926Y4338D01*
X8996Y4338D01*
X8996Y4268D01*
G37*
G36*
X9513Y4259D02*
X9443Y4259D01*
X9443Y4329D01*
X9513Y4329D01*
X9513Y4259D01*
G37*
G36*
X9346Y4260D02*
X9276Y4260D01*
X9276Y4330D01*
X9346Y4330D01*
X9346Y4260D01*
G37*
G36*
X9779Y4454D02*
X9778Y4524D01*
X9848Y4525D01*
X9849Y4455D01*
X9779Y4454D01*
G37*
G36*
X9780Y4622D02*
X9780Y4692D01*
X9850Y4692D01*
X9850Y4622D01*
X9780Y4622D01*
G37*
G36*
X9854Y4251D02*
X9784Y4251D01*
X9784Y4321D01*
X9854Y4321D01*
X9854Y4251D01*
G37*
G36*
X9687Y4252D02*
X9617Y4252D01*
X9617Y4322D01*
X9687Y4322D01*
X9687Y4252D01*
G37*
G36*
X10080Y5010D02*
X10080Y5080D01*
X10150Y5080D01*
X10150Y5010D01*
X10080Y5010D01*
G37*
G36*
X10081Y5177D02*
X10081Y5247D01*
X10151Y5247D01*
X10151Y5177D01*
X10081Y5177D01*
G37*
G36*
X9554Y5384D02*
X9624Y5384D01*
X9624Y5314D01*
X9554Y5314D01*
X9554Y5384D01*
G37*
G36*
X9665Y5384D02*
X9735Y5384D01*
X9735Y5314D01*
X9665Y5314D01*
X9665Y5384D01*
G37*
G36*
X9553Y5276D02*
X9783Y5276D01*
X9783Y5246D01*
X9553Y5246D01*
X9553Y5276D01*
G37*
G36*
X9555Y5451D02*
X9765Y5451D01*
X9765Y5421D01*
X9555Y5421D01*
X9555Y5451D01*
G37*
G36*
X10033Y4698D02*
X10033Y4628D01*
X9963Y4628D01*
X9963Y4698D01*
X10033Y4698D01*
G37*
G36*
X10032Y4531D02*
X10032Y4461D01*
X9962Y4461D01*
X9962Y4531D01*
X10032Y4531D01*
G37*
G36*
X8515Y4854D02*
X8515Y4844D01*
X8375Y4844D01*
X8375Y4854D01*
X8515Y4854D01*
G37*
G36*
X8515Y4759D02*
X8515Y4749D01*
X8375Y4749D01*
X8375Y4759D01*
X8515Y4759D01*
G37*
G36*
X8515Y4664D02*
X8515Y4654D01*
X8375Y4654D01*
X8375Y4664D01*
X8515Y4664D01*
G37*
G36*
X8398Y5673D02*
X8398Y5603D01*
X8328Y5603D01*
X8328Y5673D01*
X8398Y5673D01*
G37*
G36*
X8397Y5506D02*
X8397Y5436D01*
X8327Y5436D01*
X8327Y5506D01*
X8397Y5506D01*
G37*
G36*
X8326Y4166D02*
X8326Y4236D01*
X8396Y4236D01*
X8396Y4166D01*
X8326Y4166D01*
G37*
G36*
X8327Y4380D02*
X8327Y4450D01*
X8397Y4450D01*
X8397Y4380D01*
X8327Y4380D01*
G37*
G36*
X8596Y4450D02*
X8596Y4380D01*
X8526Y4380D01*
X8526Y4450D01*
X8596Y4450D01*
G37*
G36*
X8595Y4283D02*
X8595Y4213D01*
X8525Y4213D01*
X8525Y4283D01*
X8595Y4283D01*
G37*
G36*
X8995Y4268D02*
X8925Y4268D01*
X8925Y4338D01*
X8995Y4338D01*
X8995Y4268D01*
G37*
G36*
X8828Y4269D02*
X8758Y4269D01*
X8758Y4339D01*
X8828Y4339D01*
X8828Y4269D01*
G37*
G36*
X10319Y4555D02*
X10319Y4485D01*
X10249Y4485D01*
X10249Y4555D01*
X10319Y4555D01*
G37*
G36*
X10318Y4388D02*
X10318Y4318D01*
X10248Y4318D01*
X10248Y4388D01*
X10318Y4388D01*
G37*
G36*
X10319Y4865D02*
X10319Y4795D01*
X10249Y4795D01*
X10249Y4865D01*
X10319Y4865D01*
G37*
G36*
X10318Y4698D02*
X10318Y4628D01*
X10248Y4628D01*
X10248Y4698D01*
X10318Y4698D01*
G37*
G36*
X10319Y5198D02*
X10319Y5128D01*
X10249Y5128D01*
X10249Y5198D01*
X10319Y5198D01*
G37*
G36*
X10318Y5031D02*
X10318Y4961D01*
X10248Y4961D01*
X10248Y5031D01*
X10318Y5031D01*
G37*
G36*
X10319Y4246D02*
X10319Y4176D01*
X10249Y4176D01*
X10249Y4246D01*
X10319Y4246D01*
G37*
G36*
X10318Y4079D02*
X10318Y4009D01*
X10248Y4009D01*
X10248Y4079D01*
X10318Y4079D01*
G37*
G36*
X10033Y4944D02*
X10033Y4874D01*
X9963Y4874D01*
X9963Y4944D01*
X10033Y4944D01*
G37*
G36*
X10032Y4777D02*
X10032Y4707D01*
X9962Y4707D01*
X9962Y4777D01*
X10032Y4777D01*
G37*
G36*
X10343Y5681D02*
X10343Y5596D01*
X10273Y5596D01*
X10273Y5681D01*
X10343Y5681D01*
G37*
G36*
X10343Y5434D02*
X10343Y5349D01*
X10273Y5349D01*
X10273Y5434D01*
X10343Y5434D01*
G37*
G36*
X8725Y5496D02*
X9405Y5496D01*
X9405Y5486D01*
X8725Y5486D01*
X8725Y5496D01*
G37*
G36*
X8660Y5570D02*
X8730Y5499D01*
X8723Y5492D01*
X8653Y5563D01*
X8660Y5570D01*
G37*
G36*
X9461Y5548D02*
X9405Y5491D01*
X9397Y5498D01*
X9454Y5555D01*
X9461Y5548D01*
G37*
G36*
X11009Y5160D02*
X11089Y5160D01*
X11089Y5140D01*
X11009Y5140D01*
X11009Y5160D01*
G37*
G36*
X11009Y5080D02*
X11089Y5080D01*
X11089Y5060D01*
X11009Y5060D01*
X11009Y5080D01*
G37*
G36*
X11009Y5000D02*
X11089Y5000D01*
X11089Y4980D01*
X11009Y4980D01*
X11009Y5000D01*
G37*
G36*
X11009Y4920D02*
X11089Y4920D01*
X11089Y4900D01*
X11009Y4900D01*
X11009Y4920D01*
G37*
G36*
X11009Y4840D02*
X11089Y4840D01*
X11089Y4820D01*
X11009Y4820D01*
X11009Y4840D01*
G37*
G36*
X11009Y4760D02*
X11089Y4760D01*
X11089Y4740D01*
X11009Y4740D01*
X11009Y4760D01*
G37*
G36*
X11009Y4680D02*
X11089Y4680D01*
X11089Y4660D01*
X11009Y4660D01*
X11009Y4680D01*
G37*
G36*
X11009Y4600D02*
X11089Y4600D01*
X11089Y4580D01*
X11009Y4580D01*
X11009Y4600D01*
G37*
G36*
X11909Y5160D02*
X11989Y5160D01*
X11989Y5140D01*
X11909Y5140D01*
X11909Y5160D01*
G37*
G36*
X11909Y5080D02*
X11989Y5080D01*
X11989Y5060D01*
X11909Y5060D01*
X11909Y5080D01*
G37*
G36*
X11909Y5000D02*
X11989Y5000D01*
X11989Y4980D01*
X11909Y4980D01*
X11909Y5000D01*
G37*
G36*
X11909Y4920D02*
X11989Y4920D01*
X11989Y4900D01*
X11909Y4900D01*
X11909Y4920D01*
G37*
G36*
X11909Y4840D02*
X11989Y4840D01*
X11989Y4820D01*
X11909Y4820D01*
X11909Y4840D01*
G37*
G36*
X11909Y4760D02*
X11989Y4760D01*
X11989Y4740D01*
X11909Y4740D01*
X11909Y4760D01*
G37*
G36*
X11909Y4680D02*
X11989Y4680D01*
X11989Y4660D01*
X11909Y4660D01*
X11909Y4680D01*
G37*
G36*
X11909Y4600D02*
X11989Y4600D01*
X11989Y4580D01*
X11909Y4580D01*
X11909Y4600D01*
G37*
G36*
X11209Y5360D02*
X11229Y5360D01*
X11229Y5280D01*
X11209Y5280D01*
X11209Y5360D01*
G37*
G36*
X11289Y5360D02*
X11309Y5360D01*
X11309Y5280D01*
X11289Y5280D01*
X11289Y5360D01*
G37*
G36*
X11369Y5360D02*
X11389Y5360D01*
X11389Y5280D01*
X11369Y5280D01*
X11369Y5360D01*
G37*
G36*
X11449Y5360D02*
X11469Y5360D01*
X11469Y5280D01*
X11449Y5280D01*
X11449Y5360D01*
G37*
G36*
X11529Y5360D02*
X11549Y5360D01*
X11549Y5280D01*
X11529Y5280D01*
X11529Y5360D01*
G37*
G36*
X11609Y5360D02*
X11629Y5360D01*
X11629Y5280D01*
X11609Y5280D01*
X11609Y5360D01*
G37*
G36*
X11689Y5360D02*
X11709Y5360D01*
X11709Y5280D01*
X11689Y5280D01*
X11689Y5360D01*
G37*
G36*
X11769Y5360D02*
X11789Y5360D01*
X11789Y5280D01*
X11769Y5280D01*
X11769Y5360D01*
G37*
G36*
X11209Y4460D02*
X11229Y4460D01*
X11229Y4380D01*
X11209Y4380D01*
X11209Y4460D01*
G37*
G36*
X11289Y4460D02*
X11309Y4460D01*
X11309Y4380D01*
X11289Y4380D01*
X11289Y4460D01*
G37*
G36*
X11379Y4460D02*
X11399Y4460D01*
X11399Y4380D01*
X11379Y4380D01*
X11379Y4460D01*
G37*
G36*
X11449Y4460D02*
X11469Y4460D01*
X11469Y4380D01*
X11449Y4380D01*
X11449Y4460D01*
G37*
G36*
X11529Y4460D02*
X11549Y4460D01*
X11549Y4380D01*
X11529Y4380D01*
X11529Y4460D01*
G37*
G36*
X11609Y4460D02*
X11629Y4460D01*
X11629Y4380D01*
X11609Y4380D01*
X11609Y4460D01*
G37*
G36*
X11689Y4460D02*
X11709Y4460D01*
X11709Y4380D01*
X11689Y4380D01*
X11689Y4460D01*
G37*
G36*
X11769Y4460D02*
X11789Y4460D01*
X11789Y4380D01*
X11769Y4380D01*
X11769Y4460D01*
G37*
G36*
X12121Y5016D02*
X12121Y4946D01*
X12051Y4946D01*
X12051Y5016D01*
X12121Y5016D01*
G37*
G36*
X12120Y4849D02*
X12120Y4779D01*
X12050Y4779D01*
X12050Y4849D01*
X12120Y4849D01*
G37*
G36*
X10937Y5070D02*
X10937Y5000D01*
X10867Y5000D01*
X10867Y5070D01*
X10937Y5070D01*
G37*
G36*
X10936Y4903D02*
X10936Y4833D01*
X10866Y4833D01*
X10866Y4903D01*
X10936Y4903D01*
G37*
G36*
X12152Y5317D02*
X12152Y5247D01*
X12082Y5247D01*
X12082Y5317D01*
X12152Y5317D01*
G37*
G36*
X12152Y5150D02*
X12152Y5080D01*
X12082Y5080D01*
X12082Y5150D01*
X12152Y5150D01*
G37*
G36*
X10691Y4285D02*
X10691Y4335D01*
X10771Y4335D01*
X10771Y4285D01*
X10691Y4285D01*
G37*
G36*
X10691Y4475D02*
X10691Y4525D01*
X10771Y4525D01*
X10771Y4475D01*
X10691Y4475D01*
G37*
G36*
X10929Y4285D02*
X10929Y4335D01*
X11009Y4335D01*
X11009Y4285D01*
X10929Y4285D01*
G37*
G36*
X10929Y4475D02*
X10929Y4525D01*
X11009Y4525D01*
X11009Y4475D01*
X10929Y4475D01*
G37*
G36*
X10929Y4380D02*
X10929Y4430D01*
X11009Y4430D01*
X11009Y4380D01*
X10929Y4380D01*
G37*
G36*
X10921Y5356D02*
X10921Y5286D01*
X10851Y5286D01*
X10851Y5356D01*
X10921Y5356D01*
G37*
G36*
X10920Y5189D02*
X10920Y5119D01*
X10850Y5119D01*
X10850Y5189D01*
X10920Y5189D01*
G37*
G36*
X12454Y4833D02*
X12454Y4763D01*
X12384Y4763D01*
X12384Y4833D01*
X12454Y4833D01*
G37*
G36*
X12453Y4666D02*
X12453Y4596D01*
X12383Y4596D01*
X12383Y4666D01*
X12453Y4666D01*
G37*
G36*
X12446Y4508D02*
X12446Y4438D01*
X12376Y4438D01*
X12376Y4508D01*
X12446Y4508D01*
G37*
G36*
X12445Y4341D02*
X12445Y4271D01*
X12375Y4271D01*
X12375Y4341D01*
X12445Y4341D01*
G37*
G36*
X12374Y4928D02*
X12454Y4928D01*
X12454Y4848D01*
X12374Y4848D01*
X12374Y4928D01*
G37*
G36*
X11457Y4267D02*
X11387Y4267D01*
X11387Y4337D01*
X11457Y4337D01*
X11457Y4267D01*
G37*
G36*
X11290Y4268D02*
X11220Y4268D01*
X11220Y4338D01*
X11290Y4338D01*
X11290Y4268D01*
G37*
G36*
X11807Y4259D02*
X11737Y4259D01*
X11737Y4329D01*
X11807Y4329D01*
X11807Y4259D01*
G37*
G36*
X11640Y4260D02*
X11570Y4260D01*
X11570Y4330D01*
X11640Y4330D01*
X11640Y4260D01*
G37*
G36*
X12072Y4454D02*
X12072Y4524D01*
X12142Y4525D01*
X12142Y4455D01*
X12072Y4454D01*
G37*
G36*
X12073Y4622D02*
X12073Y4692D01*
X12143Y4692D01*
X12143Y4622D01*
X12073Y4622D01*
G37*
G36*
X12148Y4251D02*
X12078Y4251D01*
X12078Y4321D01*
X12148Y4321D01*
X12148Y4251D01*
G37*
G36*
X11981Y4252D02*
X11911Y4252D01*
X11911Y4322D01*
X11981Y4322D01*
X11981Y4252D01*
G37*
G36*
X12374Y5010D02*
X12374Y5080D01*
X12444Y5080D01*
X12444Y5010D01*
X12374Y5010D01*
G37*
G36*
X12375Y5177D02*
X12375Y5247D01*
X12445Y5247D01*
X12445Y5177D01*
X12375Y5177D01*
G37*
G36*
X11847Y5384D02*
X11917Y5384D01*
X11917Y5314D01*
X11847Y5314D01*
X11847Y5384D01*
G37*
G36*
X11959Y5384D02*
X12029Y5384D01*
X12029Y5314D01*
X11959Y5314D01*
X11959Y5384D01*
G37*
G36*
X11847Y5276D02*
X12077Y5276D01*
X12077Y5246D01*
X11847Y5246D01*
X11847Y5276D01*
G37*
G36*
X11849Y5451D02*
X12059Y5451D01*
X12059Y5421D01*
X11849Y5421D01*
X11849Y5451D01*
G37*
G36*
X12327Y4698D02*
X12327Y4628D01*
X12257Y4628D01*
X12257Y4698D01*
X12327Y4698D01*
G37*
G36*
X12326Y4531D02*
X12326Y4461D01*
X12256Y4461D01*
X12256Y4531D01*
X12326Y4531D01*
G37*
G36*
X10809Y4854D02*
X10809Y4844D01*
X10669Y4844D01*
X10669Y4854D01*
X10809Y4854D01*
G37*
G36*
X10809Y4759D02*
X10809Y4749D01*
X10669Y4749D01*
X10669Y4759D01*
X10809Y4759D01*
G37*
G36*
X10809Y4664D02*
X10809Y4654D01*
X10669Y4654D01*
X10669Y4664D01*
X10809Y4664D01*
G37*
G36*
X10692Y5673D02*
X10692Y5603D01*
X10622Y5603D01*
X10622Y5673D01*
X10692Y5673D01*
G37*
G36*
X10690Y5506D02*
X10690Y5436D01*
X10620Y5436D01*
X10620Y5506D01*
X10690Y5506D01*
G37*
G36*
X10620Y4166D02*
X10620Y4236D01*
X10690Y4236D01*
X10690Y4166D01*
X10620Y4166D01*
G37*
G36*
X10621Y4380D02*
X10621Y4450D01*
X10691Y4450D01*
X10691Y4380D01*
X10621Y4380D01*
G37*
G36*
X10890Y4450D02*
X10890Y4380D01*
X10820Y4380D01*
X10820Y4450D01*
X10890Y4450D01*
G37*
G36*
X10889Y4283D02*
X10889Y4213D01*
X10819Y4213D01*
X10819Y4283D01*
X10889Y4283D01*
G37*
G36*
X11289Y4268D02*
X11219Y4268D01*
X11219Y4338D01*
X11289Y4338D01*
X11289Y4268D01*
G37*
G36*
X11122Y4269D02*
X11052Y4269D01*
X11052Y4339D01*
X11122Y4339D01*
X11122Y4269D01*
G37*
G36*
X12613Y4555D02*
X12613Y4485D01*
X12543Y4485D01*
X12543Y4555D01*
X12613Y4555D01*
G37*
G36*
X12612Y4388D02*
X12612Y4318D01*
X12542Y4318D01*
X12542Y4388D01*
X12612Y4388D01*
G37*
G36*
X12613Y4865D02*
X12613Y4795D01*
X12543Y4795D01*
X12543Y4865D01*
X12613Y4865D01*
G37*
G36*
X12612Y4698D02*
X12612Y4628D01*
X12542Y4628D01*
X12542Y4698D01*
X12612Y4698D01*
G37*
G36*
X12613Y5198D02*
X12613Y5128D01*
X12543Y5128D01*
X12543Y5198D01*
X12613Y5198D01*
G37*
G36*
X12612Y5031D02*
X12612Y4961D01*
X12542Y4961D01*
X12542Y5031D01*
X12612Y5031D01*
G37*
G36*
X12613Y4246D02*
X12613Y4176D01*
X12543Y4176D01*
X12543Y4246D01*
X12613Y4246D01*
G37*
G36*
X12612Y4079D02*
X12612Y4009D01*
X12542Y4009D01*
X12542Y4079D01*
X12612Y4079D01*
G37*
G36*
X12327Y4944D02*
X12327Y4874D01*
X12257Y4874D01*
X12257Y4944D01*
X12327Y4944D01*
G37*
G36*
X12326Y4777D02*
X12326Y4707D01*
X12256Y4707D01*
X12256Y4777D01*
X12326Y4777D01*
G37*
G36*
X12637Y5681D02*
X12637Y5596D01*
X12567Y5596D01*
X12567Y5681D01*
X12637Y5681D01*
G37*
G36*
X12637Y5434D02*
X12637Y5349D01*
X12567Y5349D01*
X12567Y5434D01*
X12637Y5434D01*
G37*
G36*
X11019Y5496D02*
X11699Y5496D01*
X11699Y5486D01*
X11019Y5486D01*
X11019Y5496D01*
G37*
G36*
X10954Y5570D02*
X11024Y5499D01*
X11017Y5492D01*
X10946Y5563D01*
X10954Y5570D01*
G37*
G36*
X11755Y5548D02*
X11698Y5491D01*
X11691Y5498D01*
X11748Y5555D01*
X11755Y5548D01*
G37*
M02*
