; Drill file
; Format: 2.4 (00.0000)
M48
INCH
T01C0.012
T02C0.031
T03C0.035
T04C0.039
T05C0.059
%
G05
G90
T01
X007560Y003810
X009310Y003500
X009310Y004430
X008940Y005460
X010250Y005150
X010750Y005460
X011250Y005460
X010750Y004780
X011250Y004500
X012250Y003750
X014310Y007030
X014340Y008030
X014460Y008650
X014460Y009690
X014430Y010500
X014430Y011560
X014430Y012000
X013090Y012000
X013180Y011190
X013310Y010810
X012900Y010750
X013020Y010000
X013120Y008460
X013060Y008000
X012370Y008000
X011930Y008410
X011740Y008650
X011210Y007910
X009930Y008150
X009740Y009120
X010340Y009090
X010650Y009090
X011430Y009780
X011240Y011190
X011500Y011430
X010990Y011650
X010500Y011810
X010280Y011500
X009990Y011690
X009710Y011810
X009370Y011810
X008150Y012030
X007560Y011560
X007840Y011190
X006990Y011190
X006960Y012060
X007340Y012090
X006900Y012650
X006870Y013460
X005780Y014690
X005310Y014690
X006030Y010560
X006780Y009190
X007680Y009720
X008120Y009960
X008900Y010280
X008520Y008870
X008150Y008960
X008150Y008120
X007210Y007060
X006870Y007000
X012120Y012310
X013160Y013810
X012470Y014280
X013870Y014560
X014370Y014560
X014250Y014030
X014400Y013430
X015560Y014910
X015530Y015560
X011160Y015190
X009630Y015500
X009630Y015910
X019400Y009490
T02
X007590Y007400
X008590Y007400
X009590Y007400
X010590Y007400
X011590Y007400
X012590Y007400
X013590Y007370
X013810Y012430
X013590Y013400
X012590Y013400
X011590Y013400
X010590Y013400
X009590Y013400
X008590Y013400
X007590Y013400
T03
X006820Y003240
X007820Y003240
X008820Y003240
X013290Y003240
X014290Y003240
X015290Y003240
X011910Y014590
X010910Y014590
X009910Y014590
X008910Y014590
X007910Y014590
X007820Y015690
X008820Y015690
X010690Y015700
X011690Y015700
X012690Y015700
X013690Y015700
X014690Y015720
X006820Y015690
X005350Y013390
X005350Y012390
X005350Y011390
X005350Y010390
T04
X017990Y003380
X017990Y005360
X017990Y007330
X020960Y007330
X020960Y005360
X020960Y003380
X020970Y013290
X018000Y013290
T05
X022610Y003430
X022650Y005370
X022640Y007370
M30
