%FSLAX32Y32*%
%MOMM*%
%LNKUPFERSEITE1*%
G71*
G01*
%ADD10C, 1.80*%
%ADD11C, 0.30*%
%ADD12C, 0.40*%
%ADD13C, 0.60*%
%ADD14C, 1.70*%
%ADD15C, 1.60*%
%ADD16C, 1.80*%
%ADD17C, 1.70*%
%ADD18C, 2.00*%
%ADD19C, 3.00*%
%ADD20C, 0.50*%
%ADD21C, 3.00*%
%ADD22C, 3.00*%
%LPD*%
X3477Y3987D02*
G54D10*
D03*
X3223Y3987D02*
G54D10*
D03*
X2969Y3987D02*
G54D10*
D03*
X2715Y3987D02*
G54D10*
D03*
G36*
X2084Y2948D02*
X2184Y2948D01*
X2184Y2908D01*
X2084Y2908D01*
X2084Y2948D01*
G37*
G36*
X2084Y2868D02*
X2184Y2868D01*
X2184Y2828D01*
X2084Y2828D01*
X2084Y2868D01*
G37*
G36*
X2084Y2788D02*
X2184Y2788D01*
X2184Y2748D01*
X2084Y2748D01*
X2084Y2788D01*
G37*
G36*
X2084Y2708D02*
X2184Y2708D01*
X2184Y2668D01*
X2084Y2668D01*
X2084Y2708D01*
G37*
G36*
X2084Y2628D02*
X2184Y2628D01*
X2184Y2588D01*
X2084Y2588D01*
X2084Y2628D01*
G37*
G36*
X2084Y2548D02*
X2184Y2548D01*
X2184Y2508D01*
X2084Y2508D01*
X2084Y2548D01*
G37*
G36*
X2084Y2468D02*
X2184Y2468D01*
X2184Y2428D01*
X2084Y2428D01*
X2084Y2468D01*
G37*
G36*
X2084Y2388D02*
X2184Y2388D01*
X2184Y2348D01*
X2084Y2348D01*
X2084Y2388D01*
G37*
G36*
X2984Y2948D02*
X3084Y2948D01*
X3084Y2908D01*
X2984Y2908D01*
X2984Y2948D01*
G37*
G36*
X2984Y2868D02*
X3084Y2868D01*
X3084Y2828D01*
X2984Y2828D01*
X2984Y2868D01*
G37*
G36*
X2984Y2788D02*
X3084Y2788D01*
X3084Y2748D01*
X2984Y2748D01*
X2984Y2788D01*
G37*
G36*
X2984Y2708D02*
X3084Y2708D01*
X3084Y2668D01*
X2984Y2668D01*
X2984Y2708D01*
G37*
G36*
X2984Y2628D02*
X3084Y2628D01*
X3084Y2588D01*
X2984Y2588D01*
X2984Y2628D01*
G37*
G36*
X2984Y2548D02*
X3084Y2548D01*
X3084Y2508D01*
X2984Y2508D01*
X2984Y2548D01*
G37*
G36*
X2984Y2468D02*
X3084Y2468D01*
X3084Y2428D01*
X2984Y2428D01*
X2984Y2468D01*
G37*
G36*
X2984Y2388D02*
X3084Y2388D01*
X3084Y2348D01*
X2984Y2348D01*
X2984Y2388D01*
G37*
G36*
X2284Y3148D02*
X2324Y3148D01*
X2324Y3048D01*
X2284Y3048D01*
X2284Y3148D01*
G37*
G36*
X2364Y3148D02*
X2404Y3148D01*
X2404Y3048D01*
X2364Y3048D01*
X2364Y3148D01*
G37*
G36*
X2444Y3148D02*
X2484Y3148D01*
X2484Y3048D01*
X2444Y3048D01*
X2444Y3148D01*
G37*
G36*
X2524Y3148D02*
X2564Y3148D01*
X2564Y3048D01*
X2524Y3048D01*
X2524Y3148D01*
G37*
G36*
X2604Y3148D02*
X2644Y3148D01*
X2644Y3048D01*
X2604Y3048D01*
X2604Y3148D01*
G37*
G36*
X2684Y3148D02*
X2724Y3148D01*
X2724Y3048D01*
X2684Y3048D01*
X2684Y3148D01*
G37*
G36*
X2764Y3148D02*
X2804Y3148D01*
X2804Y3048D01*
X2764Y3048D01*
X2764Y3148D01*
G37*
G36*
X2844Y3148D02*
X2884Y3148D01*
X2884Y3048D01*
X2844Y3048D01*
X2844Y3148D01*
G37*
G36*
X2284Y2248D02*
X2324Y2248D01*
X2324Y2148D01*
X2284Y2148D01*
X2284Y2248D01*
G37*
G36*
X2364Y2248D02*
X2404Y2248D01*
X2404Y2148D01*
X2364Y2148D01*
X2364Y2248D01*
G37*
G36*
X2454Y2248D02*
X2494Y2248D01*
X2494Y2148D01*
X2454Y2148D01*
X2454Y2248D01*
G37*
G36*
X2524Y2248D02*
X2564Y2248D01*
X2564Y2148D01*
X2524Y2148D01*
X2524Y2248D01*
G37*
G36*
X2604Y2248D02*
X2644Y2248D01*
X2644Y2148D01*
X2604Y2148D01*
X2604Y2248D01*
G37*
G36*
X2684Y2248D02*
X2724Y2248D01*
X2724Y2148D01*
X2684Y2148D01*
X2684Y2248D01*
G37*
G36*
X2764Y2248D02*
X2804Y2248D01*
X2804Y2148D01*
X2764Y2148D01*
X2764Y2248D01*
G37*
G36*
X2844Y2248D02*
X2884Y2248D01*
X2884Y2148D01*
X2844Y2148D01*
X2844Y2248D01*
G37*
G54D11*
X2785Y2222D02*
X2785Y2285D01*
X2927Y2285D01*
X2983Y2198D01*
G54D12*
X2150Y2770D02*
X2245Y2770D01*
X2245Y2603D01*
X2142Y2603D01*
G54D11*
X2110Y2690D02*
X2038Y2690D01*
X2038Y2531D01*
X2253Y2531D01*
G54D12*
X2253Y2531D02*
X2737Y2531D01*
X2848Y2404D01*
X2923Y2404D01*
X2991Y2444D01*
G54D12*
X2999Y2690D02*
X2888Y2690D01*
X2872Y2690D01*
X2785Y2603D01*
X2221Y2603D01*
G54D12*
X3062Y2690D02*
X3134Y2690D01*
X3221Y2785D01*
X3332Y2849D01*
G54D11*
X3062Y2603D02*
X3166Y2603D01*
G36*
X3208Y2804D02*
X3208Y2714D01*
X3118Y2714D01*
X3118Y2804D01*
X3208Y2804D01*
G37*
G36*
X3206Y2637D02*
X3206Y2547D01*
X3116Y2547D01*
X3116Y2637D01*
X3206Y2637D01*
G37*
G36*
X2032Y2858D02*
X2032Y2768D01*
X1942Y2768D01*
X1942Y2858D01*
X2032Y2858D01*
G37*
G36*
X2031Y2691D02*
X2031Y2601D01*
X1941Y2601D01*
X1941Y2691D01*
X2031Y2691D01*
G37*
G54D11*
X1784Y2833D02*
X1864Y2833D01*
X1888Y2809D01*
X1888Y2603D01*
X1923Y2571D01*
X1962Y2539D01*
X1989Y2520D01*
X2001Y2500D01*
X2030Y2452D01*
X2118Y2452D01*
G54D12*
X2102Y2770D02*
X2030Y2770D01*
X2007Y2793D01*
X2538Y2968D02*
G54D13*
D03*
G54D12*
X2546Y3063D02*
X2546Y2976D01*
X3197Y1880D02*
G54D14*
D03*
X2943Y1880D02*
G54D14*
D03*
X2689Y1880D02*
G54D14*
D03*
X2435Y1880D02*
G54D15*
D03*
X2181Y1880D02*
G54D14*
D03*
X1927Y1880D02*
G54D14*
D03*
X2983Y2198D02*
G54D13*
D03*
G54D11*
X2777Y2158D02*
X2777Y2047D01*
X2771Y2006D01*
X2757Y1964D01*
X2745Y1928D01*
G54D11*
X2864Y2150D02*
X2943Y2150D01*
X2943Y1960D01*
X2626Y2309D02*
G54D13*
D03*
G54D11*
X2626Y2309D02*
X2626Y2222D01*
X2705Y2309D02*
G54D13*
D03*
G54D11*
X2705Y2309D02*
X2705Y2238D01*
X2380Y3000D02*
G54D13*
D03*
X2467Y3000D02*
G54D13*
D03*
G54D11*
X2380Y3000D02*
X2380Y3071D01*
G54D11*
X2467Y3000D02*
X2467Y3079D01*
G54D11*
X3308Y2031D02*
X3261Y2158D01*
X3110Y2158D01*
X2943Y2341D01*
X2062Y2531D02*
G54D13*
D03*
G36*
X3247Y3105D02*
X3247Y3015D01*
X3157Y3015D01*
X3157Y3105D01*
X3247Y3105D01*
G37*
G36*
X3246Y2938D02*
X3246Y2848D01*
X3156Y2848D01*
X3156Y2938D01*
X3246Y2938D01*
G37*
G54D11*
X2546Y2976D02*
X2548Y2817D01*
X2630Y2817D01*
X2777Y2817D01*
X2802Y2881D01*
X2847Y2928D01*
X2876Y2976D01*
X2927Y2976D01*
X2943Y2984D01*
X3102Y2984D01*
X3181Y2904D01*
G54D11*
X3174Y3063D02*
X3293Y3063D01*
X3324Y3047D01*
X3197Y3404D02*
G54D14*
D03*
X2943Y3404D02*
G54D14*
D03*
X2689Y3404D02*
G54D14*
D03*
X2435Y3404D02*
G54D14*
D03*
X2181Y3404D02*
G54D14*
D03*
X1927Y3404D02*
G54D14*
D03*
G36*
X1765Y2054D02*
X1765Y2124D01*
X1865Y2124D01*
X1865Y2054D01*
X1765Y2054D01*
G37*
G36*
X1765Y2244D02*
X1765Y2314D01*
X1865Y2314D01*
X1865Y2244D01*
X1765Y2244D01*
G37*
G36*
X2003Y2054D02*
X2003Y2124D01*
X2103Y2124D01*
X2103Y2054D01*
X2003Y2054D01*
G37*
G36*
X2003Y2244D02*
X2003Y2314D01*
X2103Y2314D01*
X2103Y2244D01*
X2003Y2244D01*
G37*
G36*
X2003Y2149D02*
X2003Y2219D01*
X2103Y2219D01*
X2103Y2149D01*
X2003Y2149D01*
G37*
G54D11*
X1840Y2047D02*
X1852Y2008D01*
X1864Y1888D01*
X2165Y2254D02*
G54D13*
D03*
X2261Y2611D02*
G54D13*
D03*
X3452Y1872D02*
G54D16*
D03*
X1991Y2841D02*
G54D13*
D03*
G36*
X2016Y3144D02*
X2016Y3054D01*
X1926Y3054D01*
X1926Y3144D01*
X2016Y3144D01*
G37*
G36*
X2015Y2977D02*
X2015Y2887D01*
X1925Y2887D01*
X1925Y2977D01*
X2015Y2977D01*
G37*
X2070Y3055D02*
G54D13*
D03*
X1919Y2936D02*
G54D13*
D03*
G54D11*
X1983Y3119D02*
X2070Y3055D01*
G54D11*
X1983Y2936D02*
X1999Y2936D01*
X2050Y2893D01*
X2086Y2849D01*
G54D11*
X1769Y3087D02*
X1784Y3111D01*
X1844Y3186D01*
X1880Y3238D01*
X2046Y3238D01*
X2237Y3047D01*
X2284Y3047D01*
X2300Y3063D01*
X2856Y2841D02*
G54D13*
D03*
G54D11*
X2443Y2770D02*
X3007Y2770D01*
X3452Y3404D02*
G54D16*
D03*
G54D11*
X2785Y3127D02*
X2785Y3151D01*
X2904Y3270D01*
X3221Y3270D01*
X3273Y3305D01*
X3388Y3420D01*
G54D11*
X2856Y2841D02*
X2923Y2841D01*
X3023Y2841D01*
G54D11*
X2943Y1817D02*
X2943Y1714D01*
X1864Y1714D01*
X1804Y1722D01*
X1761Y1746D01*
X3507Y3158D02*
G54D14*
D03*
X2070Y2063D02*
G54D13*
D03*
X1864Y3071D02*
G54D13*
D03*
G54D11*
X2443Y2770D02*
X2233Y2968D01*
X2205Y3016D01*
X2086Y3135D01*
X2054Y3166D01*
X2030Y3190D01*
X1911Y3190D01*
X1888Y3166D01*
X1864Y3071D01*
G36*
X3549Y2621D02*
X3549Y2531D01*
X3459Y2531D01*
X3459Y2621D01*
X3549Y2621D01*
G37*
G36*
X3548Y2454D02*
X3548Y2364D01*
X3458Y2364D01*
X3458Y2454D01*
X3548Y2454D01*
G37*
G36*
X3541Y2296D02*
X3541Y2206D01*
X3451Y2206D01*
X3451Y2296D01*
X3541Y2296D01*
G37*
G36*
X3540Y2129D02*
X3540Y2039D01*
X3450Y2039D01*
X3450Y2129D01*
X3540Y2129D01*
G37*
G54D11*
X3578Y2246D02*
X3515Y2246D01*
G36*
X3449Y2716D02*
X3549Y2716D01*
X3549Y2616D01*
X3449Y2616D01*
X3449Y2716D01*
G37*
G54D11*
X3499Y2658D02*
X3499Y2611D01*
X3499Y2587D01*
G36*
X2552Y2035D02*
X2462Y2035D01*
X2462Y2125D01*
X2552Y2125D01*
X2552Y2035D01*
G37*
G36*
X2385Y2036D02*
X2295Y2036D01*
X2295Y2126D01*
X2385Y2126D01*
X2385Y2036D01*
G37*
G36*
X2901Y2027D02*
X2811Y2027D01*
X2811Y2117D01*
X2901Y2117D01*
X2901Y2027D01*
G37*
G36*
X2734Y2028D02*
X2644Y2028D01*
X2644Y2118D01*
X2734Y2118D01*
X2734Y2028D01*
G37*
G54D11*
X2300Y2166D02*
X2316Y2095D01*
G54D11*
X2388Y2174D02*
X2419Y2139D01*
X2419Y2000D01*
X2666Y2000D01*
X2705Y2039D01*
G54D11*
X2935Y2341D02*
X2802Y2345D01*
X2773Y2396D01*
X2602Y2396D01*
X2546Y2341D01*
X2546Y2206D01*
G36*
X3139Y2223D02*
X3139Y2313D01*
X3229Y2313D01*
X3229Y2223D01*
X3139Y2223D01*
G37*
G36*
X3140Y2390D02*
X3140Y2480D01*
X3230Y2480D01*
X3230Y2390D01*
X3140Y2390D01*
G37*
G36*
X3243Y2019D02*
X3153Y2019D01*
X3153Y2109D01*
X3243Y2109D01*
X3243Y2019D01*
G37*
G36*
X3076Y2020D02*
X2986Y2020D01*
X2986Y2110D01*
X3076Y2110D01*
X3076Y2020D01*
G37*
X3031Y2135D02*
G54D13*
D03*
X2475Y2317D02*
G54D13*
D03*
G54D11*
X2475Y2317D02*
X2475Y2222D01*
G36*
X3449Y2778D02*
X3449Y2868D01*
X3539Y2868D01*
X3539Y2778D01*
X3449Y2778D01*
G37*
G36*
X3450Y2945D02*
X3450Y3035D01*
X3540Y3035D01*
X3540Y2945D01*
X3450Y2945D01*
G37*
X3277Y2730D02*
G54D13*
D03*
G54D11*
X3348Y2849D02*
X3348Y2889D01*
X3396Y2928D01*
X3396Y3063D01*
X2523Y2071D02*
G54D13*
D03*
X2848Y2008D02*
G54D13*
D03*
X3142Y2031D02*
G54D13*
D03*
G54D11*
X3142Y2023D02*
X3070Y1952D01*
X3070Y1769D01*
X3094Y1746D01*
X3507Y1746D01*
X3578Y1817D01*
X3578Y2008D01*
X3523Y2063D01*
G36*
X2922Y3172D02*
X3012Y3172D01*
X3012Y3082D01*
X2922Y3082D01*
X2922Y3172D01*
G37*
G36*
X3033Y3172D02*
X3123Y3172D01*
X3123Y3082D01*
X3033Y3082D01*
X3033Y3172D01*
G37*
G36*
X2922Y3064D02*
X3172Y3064D01*
X3172Y3014D01*
X2922Y3014D01*
X2922Y3064D01*
G37*
G36*
X2924Y3239D02*
X3154Y3239D01*
X3154Y3189D01*
X2924Y3189D01*
X2924Y3239D01*
G37*
G54D11*
X2864Y3119D02*
X2943Y3119D01*
G54D11*
X3126Y3214D02*
X3189Y3210D01*
X3189Y3143D01*
X3348Y3143D01*
X3396Y3063D01*
X3078Y3127D02*
G54D13*
D03*
X2920Y2904D02*
G54D13*
D03*
G54D11*
X2920Y2904D02*
X2943Y2904D01*
X2967Y2928D01*
X3015Y2928D01*
G54D11*
X3054Y2373D02*
X3078Y2373D01*
X3102Y2349D01*
X3261Y2349D01*
X3285Y2297D01*
X3316Y2142D01*
X1769Y3063D02*
G54D13*
D03*
X1776Y2841D02*
G54D13*
D03*
X1721Y2333D02*
G54D13*
D03*
X1745Y1777D02*
G54D13*
D03*
X3324Y3047D02*
G54D13*
D03*
X3348Y2841D02*
G54D13*
D03*
X3332Y2150D02*
G54D13*
D03*
X3316Y2031D02*
G54D13*
D03*
G54D11*
X3189Y2262D02*
X3189Y2158D01*
G54D11*
X3054Y2444D02*
X3197Y2444D01*
G36*
X3422Y2486D02*
X3422Y2396D01*
X3332Y2396D01*
X3332Y2486D01*
X3422Y2486D01*
G37*
G36*
X3421Y2319D02*
X3421Y2229D01*
X3331Y2229D01*
X3331Y2319D01*
X3421Y2319D01*
G37*
G54D11*
X3181Y2436D02*
X3281Y2412D01*
X3302Y2375D01*
X3323Y2353D01*
X3437Y2357D01*
X3507Y2428D01*
G36*
X1903Y2634D02*
X1903Y2604D01*
X1743Y2604D01*
X1743Y2634D01*
X1903Y2634D01*
G37*
G36*
X1903Y2539D02*
X1903Y2509D01*
X1743Y2509D01*
X1743Y2539D01*
X1903Y2539D01*
G37*
G36*
X1903Y2444D02*
X1903Y2414D01*
X1743Y2414D01*
X1743Y2444D01*
X1903Y2444D01*
G37*
G54D11*
X1872Y2428D02*
X1888Y2412D01*
X1927Y2373D01*
X2110Y2373D01*
X1951Y2468D02*
G54D13*
D03*
G54D11*
X1872Y2524D02*
X1872Y2508D01*
X1943Y2476D01*
G36*
X1786Y3461D02*
X1786Y3371D01*
X1696Y3371D01*
X1696Y3461D01*
X1786Y3461D01*
G37*
G36*
X1785Y3294D02*
X1785Y3204D01*
X1695Y3204D01*
X1695Y3294D01*
X1785Y3294D01*
G37*
G36*
X1694Y1934D02*
X1694Y2024D01*
X1784Y2024D01*
X1784Y1934D01*
X1694Y1934D01*
G37*
G36*
X1695Y2148D02*
X1695Y2238D01*
X1785Y2238D01*
X1785Y2148D01*
X1695Y2148D01*
G37*
G54D11*
X2158Y2254D02*
X2134Y2182D01*
X2086Y2166D01*
X2070Y2277D02*
G54D13*
D03*
G36*
X1985Y2238D02*
X1985Y2148D01*
X1895Y2148D01*
X1895Y2238D01*
X1985Y2238D01*
G37*
G36*
X1984Y2071D02*
X1984Y1981D01*
X1894Y1981D01*
X1894Y2071D01*
X1984Y2071D01*
G37*
G54D11*
X1832Y2277D02*
X1935Y2198D01*
X1745Y3420D02*
G54D13*
D03*
X1753Y3214D02*
G54D13*
D03*
G36*
X2384Y2036D02*
X2294Y2036D01*
X2294Y2126D01*
X2384Y2126D01*
X2384Y2036D01*
G37*
G36*
X2217Y2037D02*
X2127Y2037D01*
X2127Y2127D01*
X2217Y2127D01*
X2217Y2037D01*
G37*
G54D11*
X1959Y2031D02*
X1975Y2012D01*
X2007Y1992D01*
X2102Y1992D01*
X2126Y2008D01*
X2189Y2079D01*
G54D11*
X2419Y1992D02*
X2332Y1992D01*
X2308Y1968D01*
X2308Y1762D01*
X1872Y1762D01*
X1737Y1896D01*
X1737Y1968D01*
G54D11*
X1737Y2206D02*
X1792Y2262D01*
X1832Y1793D02*
G54D13*
D03*
G54D11*
X3348Y2846D02*
X3551Y2844D01*
X3554Y2756D01*
X3570Y2753D01*
X3586Y2718D01*
X3586Y2246D01*
G54D11*
X3245Y1912D02*
X3308Y1912D01*
X3404Y2008D01*
X3404Y2166D01*
X3412Y2166D01*
X3475Y2230D01*
G36*
X3708Y2343D02*
X3708Y2253D01*
X3618Y2253D01*
X3618Y2343D01*
X3708Y2343D01*
G37*
G36*
X3707Y2176D02*
X3707Y2086D01*
X3617Y2086D01*
X3617Y2176D01*
X3707Y2176D01*
G37*
G36*
X3708Y2653D02*
X3708Y2563D01*
X3618Y2563D01*
X3618Y2653D01*
X3708Y2653D01*
G37*
G36*
X3707Y2486D02*
X3707Y2396D01*
X3617Y2396D01*
X3617Y2486D01*
X3707Y2486D01*
G37*
G36*
X3708Y2986D02*
X3708Y2896D01*
X3618Y2896D01*
X3618Y2986D01*
X3708Y2986D01*
G37*
G36*
X3707Y2819D02*
X3707Y2729D01*
X3617Y2729D01*
X3617Y2819D01*
X3707Y2819D01*
G37*
G36*
X3708Y2034D02*
X3708Y1944D01*
X3618Y1944D01*
X3618Y2034D01*
X3708Y2034D01*
G37*
G36*
X3707Y1867D02*
X3707Y1777D01*
X3617Y1777D01*
X3617Y1867D01*
X3707Y1867D01*
G37*
X3674Y2198D02*
G54D13*
D03*
X3666Y2666D02*
G54D13*
D03*
G54D11*
X3674Y2293D02*
X3674Y2444D01*
X3674Y2460D02*
G54D13*
D03*
X3666Y2936D02*
G54D13*
D03*
G54D11*
X3666Y2770D02*
X3737Y2702D01*
X3737Y1833D01*
X3689Y1801D01*
X3642Y2039D02*
G54D13*
D03*
X3634Y1785D02*
G54D13*
D03*
G36*
X3422Y2732D02*
X3422Y2642D01*
X3332Y2642D01*
X3332Y2732D01*
X3422Y2732D01*
G37*
G36*
X3421Y2565D02*
X3421Y2475D01*
X3331Y2475D01*
X3331Y2565D01*
X3421Y2565D01*
G37*
G54D11*
X3388Y2254D02*
X3459Y2254D01*
X3475Y2238D01*
X3380Y2746D02*
G54D13*
D03*
X3308Y2539D02*
G54D13*
D03*
X2904Y2484D02*
G54D13*
D03*
G54D11*
X2904Y2484D02*
X2904Y2492D01*
X2935Y2524D01*
X3015Y2524D01*
G54D11*
X3300Y2531D02*
X3316Y2531D01*
X3372Y2476D01*
G54D11*
X3507Y3016D02*
X3562Y3016D01*
X3666Y3063D01*
X3666Y3047D02*
G54D13*
D03*
G36*
X3731Y3469D02*
X3731Y3364D01*
X3641Y3364D01*
X3641Y3469D01*
X3731Y3469D01*
G37*
G36*
X3731Y3222D02*
X3731Y3117D01*
X3641Y3117D01*
X3641Y3222D01*
X3731Y3222D01*
G37*
G54D11*
X3737Y2698D02*
X3737Y3095D01*
X3674Y3158D01*
G54D11*
X3348Y3143D02*
X3348Y3222D01*
X3396Y3270D01*
X3507Y3278D01*
X3658Y3420D01*
X3658Y3412D02*
G54D13*
D03*
G54D11*
X2102Y2928D02*
X2102Y2944D01*
X2023Y3016D01*
X1896Y3016D01*
X1832Y2952D01*
X1761Y2952D01*
X1713Y2904D01*
X1713Y2341D01*
X1721Y2333D01*
X2610Y2920D02*
G54D13*
D03*
X2666Y3000D02*
G54D13*
D03*
G54D11*
X2602Y2944D02*
X2602Y3047D01*
X2618Y3063D01*
G54D11*
X2705Y3071D02*
X2705Y3039D01*
X2666Y3000D01*
G36*
X2093Y3285D02*
X2793Y3285D01*
X2793Y3255D01*
X2093Y3255D01*
X2093Y3285D01*
G37*
G36*
X2038Y3362D02*
X2123Y3277D01*
X2102Y3256D01*
X2017Y3341D01*
X2038Y3362D01*
G37*
G36*
X2854Y3326D02*
X2783Y3255D01*
X2762Y3276D01*
X2833Y3347D01*
X2854Y3326D01*
G37*
G54D11*
X1776Y3286D02*
X2070Y3286D01*
X2792Y2960D02*
G54D13*
D03*
G54D11*
X2864Y3063D02*
X2864Y3047D01*
X2792Y2976D01*
G54D11*
X3205Y2452D02*
X3221Y2492D01*
X3245Y2516D01*
X3245Y2571D01*
X3245Y2579D01*
X3285Y2619D01*
X3285Y2722D01*
G36*
X3121Y2521D02*
X3211Y2521D01*
X3211Y2431D01*
X3121Y2431D01*
X3121Y2521D01*
G37*
X1358Y2638D02*
G54D10*
D03*
X1358Y2892D02*
G54D10*
D03*
X1358Y3146D02*
G54D10*
D03*
X1358Y3400D02*
G54D10*
D03*
X3024Y3706D02*
G54D17*
D03*
X2770Y3706D02*
G54D17*
D03*
X2516Y3706D02*
G54D17*
D03*
X2262Y3706D02*
G54D17*
D03*
X2008Y3706D02*
G54D17*
D03*
G54D11*
X1421Y2635D02*
X1421Y2714D01*
X1484Y2778D01*
X1484Y3484D01*
X1588Y3587D01*
G54D11*
X1588Y3587D02*
X2191Y3587D01*
X2254Y3651D01*
G36*
X3474Y3669D02*
X3384Y3669D01*
X3384Y3759D01*
X3474Y3759D01*
X3474Y3669D01*
G37*
G36*
X3307Y3668D02*
X3217Y3668D01*
X3217Y3758D01*
X3307Y3758D01*
X3307Y3668D01*
G37*
G36*
X3474Y3558D02*
X3384Y3558D01*
X3384Y3648D01*
X3474Y3648D01*
X3474Y3558D01*
G37*
G36*
X3307Y3556D02*
X3217Y3556D01*
X3217Y3646D01*
X3307Y3646D01*
X3307Y3556D01*
G37*
G54D11*
X3437Y3595D02*
X3485Y3595D01*
X3524Y3524D01*
X3659Y3420D01*
G54D11*
X3056Y3698D02*
X3254Y3698D01*
X3262Y3706D01*
X3262Y3619D01*
X3254Y3611D01*
G54D11*
X3350Y3516D02*
X3350Y3809D01*
X3342Y3817D01*
X3096Y3817D01*
X3000Y3913D01*
G54D11*
X2834Y3857D02*
X2889Y3817D01*
X2889Y3643D01*
X2953Y3579D01*
X3119Y3579D01*
X3167Y3627D01*
X3167Y3627D02*
G54D13*
D03*
X3524Y3698D02*
G54D13*
D03*
G54D11*
X3524Y3698D02*
X3461Y3698D01*
X3453Y3706D01*
G54D11*
X1365Y2897D02*
X1246Y2897D01*
X1222Y2897D01*
X1222Y3484D01*
X1389Y3651D01*
X2000Y3651D01*
X2241Y3984D02*
G54D10*
D03*
X1987Y3984D02*
G54D10*
D03*
X1733Y3984D02*
G54D10*
D03*
X3884Y824D02*
G54D10*
D03*
X3630Y824D02*
G54D10*
D03*
X3376Y824D02*
G54D10*
D03*
X2241Y824D02*
G54D10*
D03*
X1987Y824D02*
G54D10*
D03*
X1733Y824D02*
G54D10*
D03*
X3731Y3992D02*
G54D10*
D03*
G54D11*
X1691Y3984D02*
X1595Y3986D01*
X1595Y3774D01*
X1595Y3651D01*
X2834Y3857D02*
G54D13*
D03*
G54D11*
X3199Y3412D02*
X3191Y3412D01*
X3080Y3524D01*
X2778Y3524D01*
X2643Y3659D01*
X2643Y3746D01*
X2643Y3817D01*
G54D11*
X1905Y3460D02*
X1873Y3460D01*
X1834Y3492D01*
X1659Y3492D01*
X1659Y1238D01*
G54D11*
X2167Y3460D02*
X2167Y3468D01*
X2096Y3540D01*
X1611Y3540D01*
X1595Y3524D01*
X1595Y1198D01*
X1937Y857D01*
G54D11*
X1659Y1238D02*
X1730Y1238D01*
X1929Y1039D01*
X3469Y1039D01*
X3635Y872D01*
X1921Y968D02*
G54D13*
D03*
G54D11*
X1921Y976D02*
X3254Y976D01*
X3381Y849D01*
X1532Y2682D02*
G54D13*
D03*
G54D11*
X1532Y2682D02*
X1532Y1111D01*
X1532Y872D01*
X1770Y872D01*
G54D11*
X3381Y3865D02*
X3429Y3825D01*
X3675Y3825D01*
X3858Y3643D01*
X3858Y3452D01*
G36*
X3816Y3235D02*
X3816Y3325D01*
X3906Y3325D01*
X3906Y3235D01*
X3816Y3235D01*
G37*
G36*
X3815Y3402D02*
X3815Y3492D01*
X3905Y3492D01*
X3905Y3402D01*
X3815Y3402D01*
G37*
G54D11*
X3691Y3405D02*
X3691Y3357D01*
X3770Y3278D01*
X3858Y3278D01*
G36*
X3943Y3235D02*
X3943Y3325D01*
X4033Y3325D01*
X4033Y3235D01*
X3943Y3235D01*
G37*
G36*
X3942Y3402D02*
X3942Y3492D01*
X4032Y3492D01*
X4032Y3402D01*
X3942Y3402D01*
G37*
G54D11*
X3866Y3436D02*
X3921Y3365D01*
X3961Y3341D01*
X3961Y3301D01*
G54D11*
X3739Y3936D02*
X3739Y3849D01*
X3977Y3611D01*
X3977Y3452D01*
G36*
X3845Y2662D02*
X4045Y2662D01*
X4045Y2162D01*
X3845Y2162D01*
X3845Y2662D01*
G37*
G54D11*
X3985Y3270D02*
X3985Y2944D01*
G36*
X1257Y1773D02*
X1457Y1773D01*
X1457Y1273D01*
X1257Y1273D01*
X1257Y1773D01*
G37*
G36*
X3853Y1781D02*
X4053Y1781D01*
X4053Y1281D01*
X3853Y1281D01*
X3853Y1781D01*
G37*
G54D11*
X1524Y1738D02*
X1421Y1738D01*
G36*
X3551Y3648D02*
X3641Y3648D01*
X3641Y3558D01*
X3551Y3558D01*
X3551Y3648D01*
G37*
G36*
X3718Y3647D02*
X3808Y3647D01*
X3808Y3557D01*
X3718Y3557D01*
X3718Y3647D01*
G37*
X3342Y3508D02*
G54D13*
D03*
X3651Y3698D02*
G54D13*
D03*
G54D11*
X3651Y3698D02*
X3683Y3698D01*
X3754Y3627D01*
X3620Y3563D02*
G54D13*
D03*
G36*
X3992Y3743D02*
X3992Y3833D01*
X4082Y3833D01*
X4082Y3743D01*
X3992Y3743D01*
G37*
G36*
X3991Y3910D02*
X3991Y4000D01*
X4081Y4000D01*
X4081Y3910D01*
X3991Y3910D01*
G37*
X3953Y3786D02*
G54D13*
D03*
G36*
X4034Y2977D02*
X4034Y2887D01*
X3944Y2887D01*
X3944Y2977D01*
X4034Y2977D01*
G37*
G36*
X4033Y2810D02*
X4033Y2720D01*
X3943Y2720D01*
X3943Y2810D01*
X4033Y2810D01*
G37*
G54D11*
X3993Y2762D02*
X3993Y2587D01*
G36*
X1558Y3807D02*
X1648Y3807D01*
X1648Y3717D01*
X1558Y3717D01*
X1558Y3807D01*
G37*
G36*
X1725Y3806D02*
X1815Y3806D01*
X1815Y3716D01*
X1725Y3716D01*
X1725Y3806D01*
G37*
G54D11*
X1778Y3770D02*
X1778Y3778D01*
X1937Y3936D01*
G36*
X1487Y1138D02*
X1577Y1138D01*
X1577Y1048D01*
X1487Y1048D01*
X1487Y1138D01*
G37*
G36*
X1654Y1139D02*
X1744Y1139D01*
X1744Y1049D01*
X1654Y1049D01*
X1654Y1139D01*
G37*
G36*
X2508Y878D02*
X2508Y968D01*
X2598Y968D01*
X2598Y878D01*
X2508Y878D01*
G37*
G36*
X2507Y1045D02*
X2507Y1135D01*
X2597Y1135D01*
X2597Y1045D01*
X2507Y1045D01*
G37*
G36*
X1421Y3759D02*
X1421Y3849D01*
X1511Y3849D01*
X1511Y3759D01*
X1421Y3759D01*
G37*
G36*
X1420Y3926D02*
X1420Y4016D01*
X1510Y4016D01*
X1510Y3926D01*
X1420Y3926D01*
G37*
G36*
X1302Y3759D02*
X1302Y3849D01*
X1392Y3849D01*
X1392Y3759D01*
X1302Y3759D01*
G37*
G36*
X1301Y3926D02*
X1301Y4016D01*
X1391Y4016D01*
X1391Y3926D01*
X1301Y3926D01*
G37*
G54D11*
X1468Y3809D02*
X1468Y3746D01*
G54D11*
X1341Y3801D02*
X1341Y3738D01*
G54D11*
X1334Y3976D02*
X1667Y3976D01*
X1349Y3730D02*
G54D13*
D03*
X1468Y3730D02*
G54D13*
D03*
X3945Y3952D02*
G54D13*
D03*
G36*
X3881Y3862D02*
X3881Y3952D01*
X3971Y3952D01*
X3971Y3862D01*
X3881Y3862D01*
G37*
G36*
X3880Y4029D02*
X3880Y4119D01*
X3970Y4119D01*
X3970Y4029D01*
X3880Y4029D01*
G37*
G54D11*
X3945Y3960D02*
X4032Y3960D01*
G54D11*
X3953Y3786D02*
X4024Y3786D01*
G54D11*
X3477Y3992D02*
X3477Y4111D01*
X3897Y4111D01*
X3921Y4087D01*
X3112Y952D02*
G54D13*
D03*
G36*
X2842Y1186D02*
X2932Y1186D01*
X2932Y1096D01*
X2842Y1096D01*
X2842Y1186D01*
G37*
G36*
X3009Y1187D02*
X3099Y1187D01*
X3099Y1097D01*
X3009Y1097D01*
X3009Y1187D01*
G37*
G36*
X2493Y1257D02*
X2583Y1257D01*
X2583Y1167D01*
X2493Y1167D01*
X2493Y1257D01*
G37*
G36*
X2660Y1258D02*
X2750Y1258D01*
X2750Y1168D01*
X2660Y1168D01*
X2660Y1258D01*
G37*
X2858Y1142D02*
G54D13*
D03*
X2730Y1214D02*
G54D13*
D03*
G54D11*
X3048Y1142D02*
X3048Y1047D01*
G54D11*
X1976Y769D02*
X1992Y769D01*
X2064Y698D01*
X2365Y698D01*
X2421Y753D01*
X2421Y841D01*
X2373Y888D01*
X2365Y888D02*
G54D13*
D03*
G54D11*
X2540Y1238D02*
X2365Y1238D01*
X2365Y1126D01*
X2365Y1126D02*
G54D13*
D03*
G36*
X2163Y1658D02*
X2313Y1658D01*
X2313Y1358D01*
X2163Y1358D01*
X2163Y1658D01*
G37*
G36*
X2386Y1658D02*
X2536Y1658D01*
X2536Y1358D01*
X2386Y1358D01*
X2386Y1658D01*
G37*
G36*
X2600Y1658D02*
X2750Y1658D01*
X2750Y1358D01*
X2600Y1358D01*
X2600Y1658D01*
G37*
G36*
X2798Y1658D02*
X2948Y1658D01*
X2948Y1358D01*
X2798Y1358D01*
X2798Y1658D01*
G37*
X2858Y1388D02*
G54D13*
D03*
X2730Y1388D02*
G54D13*
D03*
X2270Y1388D02*
G54D13*
D03*
X2604Y1309D02*
G54D13*
D03*
G54D11*
X2476Y1388D02*
X2476Y1309D01*
X2604Y1309D01*
G36*
X3748Y1660D02*
X3748Y1570D01*
X3658Y1570D01*
X3658Y1660D01*
X3748Y1660D01*
G37*
G36*
X3747Y1493D02*
X3747Y1403D01*
X3657Y1403D01*
X3657Y1493D01*
X3747Y1493D01*
G37*
G36*
X3748Y1358D02*
X3748Y1268D01*
X3658Y1268D01*
X3658Y1358D01*
X3748Y1358D01*
G37*
G36*
X3747Y1191D02*
X3747Y1101D01*
X3657Y1101D01*
X3657Y1191D01*
X3747Y1191D01*
G37*
G54D12*
X3707Y1301D02*
X3707Y1444D01*
X3945Y1444D01*
G54D11*
X3739Y1841D02*
X3739Y1642D01*
X3723Y1627D01*
G54D11*
X3707Y1142D02*
X3707Y1063D01*
X3881Y888D01*
G54D11*
X3381Y3865D02*
X3143Y3865D01*
X3096Y3913D01*
X3096Y4111D01*
X2850Y4111D01*
X2723Y3984D01*
G54D11*
X2016Y4048D02*
X2016Y4055D01*
X2072Y4111D01*
X2540Y4111D01*
X2540Y3857D01*
X2604Y3857D01*
X2643Y3817D01*
G36*
X2486Y4080D02*
X2486Y3990D01*
X2396Y3990D01*
X2396Y4080D01*
X2486Y4080D01*
G37*
G36*
X2485Y3913D02*
X2485Y3823D01*
X2395Y3823D01*
X2395Y3913D01*
X2485Y3913D01*
G37*
X2445Y3936D02*
G54D13*
D03*
X2445Y4040D02*
G54D13*
D03*
X5326Y3376D02*
G54D18*
D03*
X4573Y3376D02*
G54D18*
D03*
X4570Y1863D02*
G54D19*
D03*
X5323Y1863D02*
G54D19*
D03*
X4570Y1361D02*
G54D19*
D03*
X5323Y1361D02*
G54D19*
D03*
X4570Y859D02*
G54D19*
D03*
X5323Y859D02*
G54D19*
D03*
G54D20*
X5300Y3387D02*
X4840Y3387D01*
X4776Y3324D01*
X4776Y2419D01*
X4998Y2419D01*
X4927Y2411D02*
G54D13*
D03*
G54D21*
X5743Y871D02*
X4569Y871D01*
X5743Y871D02*
G54D22*
D03*
G54D21*
X5753Y1363D02*
X4578Y1363D01*
X5753Y1363D02*
G54D22*
D03*
G54D21*
X5751Y1871D02*
X4577Y1871D01*
X5751Y1871D02*
G54D22*
D03*
M02*
