%FSLAX32Y32*%
%MOMM*%
%LNBESTUECKUNG2*%
G71*
G01*
%ADD10C, 0.07*%
%ADD11C, 0.06*%
%ADD12C, 0.20*%
%ADD13C, 0.17*%
%ADD14C, 0.10*%
%ADD15C, 0.19*%
%ADD16C, 0.09*%
%ADD17C, 0.11*%
%ADD18C, 0.30*%
%ADD19C, 0.12*%
%LPD*%
G54D10*
X3136Y3248D02*
X3156Y3301D01*
X3176Y3248D01*
G54D10*
X3144Y3268D02*
X3168Y3268D01*
G54D10*
X3191Y3248D02*
X3191Y3301D01*
X3211Y3301D01*
X3219Y3298D01*
X3223Y3291D01*
X3223Y3258D01*
X3219Y3251D01*
X3211Y3248D01*
X3191Y3248D01*
G54D10*
X3270Y3248D02*
X3238Y3248D01*
X3238Y3251D01*
X3242Y3258D01*
X3266Y3278D01*
X3270Y3285D01*
X3270Y3291D01*
X3266Y3298D01*
X3258Y3301D01*
X3250Y3301D01*
X3242Y3298D01*
X3238Y3291D01*
G54D10*
X2913Y3291D02*
X2913Y3258D01*
X2909Y3251D01*
X2901Y3248D01*
X2893Y3248D01*
X2885Y3251D01*
X2881Y3258D01*
X2881Y3291D01*
X2885Y3298D01*
X2893Y3301D01*
X2901Y3301D01*
X2909Y3298D01*
X2913Y3291D01*
G54D10*
X2960Y3258D02*
X2956Y3251D01*
X2948Y3248D01*
X2940Y3248D01*
X2932Y3251D01*
X2928Y3258D01*
X2928Y3291D01*
X2932Y3298D01*
X2940Y3301D01*
X2948Y3301D01*
X2956Y3298D01*
X2960Y3291D01*
G54D10*
X2975Y3281D02*
X2995Y3301D01*
X2995Y3248D01*
G54D10*
X3010Y3275D02*
X3018Y3278D01*
X3027Y3278D01*
X3034Y3271D01*
X3034Y3248D01*
G54D10*
X3034Y3258D02*
X3030Y3265D01*
X3022Y3266D01*
X3014Y3265D01*
X3010Y3258D01*
X3011Y3251D01*
X3018Y3248D01*
X3022Y3248D01*
X3023Y3248D01*
X3030Y3251D01*
X3034Y3258D01*
G54D11*
X2585Y3189D02*
X2589Y3183D01*
X2595Y3181D01*
X2602Y3181D01*
X2609Y3183D01*
X2612Y3189D01*
X2612Y3195D01*
X2609Y3200D01*
X2602Y3203D01*
X2595Y3203D01*
X2589Y3206D01*
X2585Y3211D01*
X2585Y3217D01*
X2589Y3222D01*
X2595Y3225D01*
X2602Y3225D01*
X2609Y3222D01*
X2612Y3217D01*
G54D11*
X2624Y3181D02*
X2624Y3225D01*
X2641Y3225D01*
X2648Y3222D01*
X2651Y3217D01*
X2651Y3189D01*
X2648Y3183D01*
X2641Y3181D01*
X2624Y3181D01*
G54D11*
X2663Y3181D02*
X2680Y3225D01*
X2697Y3181D01*
G54D11*
X2670Y3197D02*
X2690Y3197D01*
G54D11*
X2708Y3181D02*
X2735Y3225D01*
G54D11*
X2747Y3181D02*
X2764Y3225D01*
X2781Y3181D01*
G54D11*
X2754Y3197D02*
X2774Y3197D01*
G54D11*
X2792Y3181D02*
X2792Y3225D01*
X2809Y3225D01*
X2816Y3222D01*
X2819Y3217D01*
X2819Y3189D01*
X2816Y3183D01*
X2809Y3181D01*
X2792Y3181D01*
G54D11*
X2851Y3181D02*
X2851Y3225D01*
X2831Y3197D01*
X2831Y3192D01*
X2858Y3192D01*
G54D11*
X2285Y3197D02*
X2288Y3191D01*
X2295Y3189D01*
X2301Y3189D01*
X2308Y3191D01*
X2311Y3197D01*
X2311Y3202D01*
X2308Y3208D01*
X2301Y3211D01*
X2295Y3211D01*
X2288Y3214D01*
X2285Y3219D01*
X2285Y3225D01*
X2288Y3230D01*
X2295Y3233D01*
X2301Y3233D01*
X2308Y3230D01*
X2311Y3225D01*
G54D11*
X2350Y3197D02*
X2347Y3191D01*
X2340Y3189D01*
X2334Y3189D01*
X2327Y3191D01*
X2324Y3197D01*
X2324Y3225D01*
X2327Y3230D01*
X2334Y3233D01*
X2340Y3233D01*
X2347Y3230D01*
X2350Y3225D01*
G54D11*
X2363Y3233D02*
X2363Y3189D01*
X2386Y3189D01*
G54D11*
X2398Y3189D02*
X2424Y3233D01*
G54D11*
X2437Y3189D02*
X2453Y3233D01*
X2470Y3189D01*
G54D11*
X2443Y3205D02*
X2463Y3205D01*
G54D11*
X2482Y3189D02*
X2482Y3233D01*
X2498Y3233D01*
X2505Y3230D01*
X2508Y3225D01*
X2508Y3197D01*
X2505Y3191D01*
X2498Y3189D01*
X2482Y3189D01*
G54D11*
X2547Y3233D02*
X2521Y3233D01*
X2521Y3214D01*
X2524Y3214D01*
X2531Y3216D01*
X2537Y3216D01*
X2544Y3214D01*
X2547Y3208D01*
X2547Y3197D01*
X2544Y3191D01*
X2537Y3189D01*
X2531Y3189D01*
X2524Y3191D01*
X2521Y3197D01*
G54D10*
X2145Y3211D02*
X2157Y3204D01*
X2161Y3197D01*
X2161Y3184D01*
G54D10*
X2129Y3184D02*
X2129Y3237D01*
X2149Y3237D01*
X2157Y3234D01*
X2161Y3227D01*
X2161Y3221D01*
X2157Y3214D01*
X2149Y3211D01*
X2129Y3211D01*
G54D10*
X2176Y3237D02*
X2216Y3184D01*
G54D10*
X2176Y3184D02*
X2216Y3237D01*
G54D10*
X1907Y3184D02*
X1907Y3237D01*
G54D10*
X1891Y3237D02*
X1923Y3237D01*
G54D10*
X1938Y3237D02*
X1978Y3184D01*
G54D10*
X1938Y3184D02*
X1978Y3237D01*
G54D10*
X3560Y3483D02*
X3613Y3463D01*
X3560Y3443D01*
G54D10*
X3580Y3475D02*
X3580Y3451D01*
G54D10*
X3560Y3428D02*
X3613Y3428D01*
X3613Y3408D01*
X3610Y3400D01*
X3603Y3396D01*
X3570Y3396D01*
X3563Y3400D01*
X3560Y3408D01*
X3560Y3428D01*
G54D10*
X3603Y3381D02*
X3610Y3377D01*
X3613Y3369D01*
X3613Y3361D01*
X3610Y3353D01*
X3603Y3349D01*
X3596Y3349D01*
X3590Y3353D01*
X3586Y3361D01*
X3583Y3353D01*
X3576Y3349D01*
X3570Y3349D01*
X3563Y3353D01*
X3560Y3361D01*
X3560Y3369D01*
X3563Y3377D01*
X3570Y3381D01*
G54D12*
X3237Y1746D02*
X3141Y1746D01*
G54D10*
X1863Y1743D02*
X1867Y1750D01*
X1875Y1753D01*
X1883Y1753D01*
X1891Y1750D01*
X1895Y1743D01*
X1895Y1737D01*
X1891Y1730D01*
X1883Y1727D01*
X1891Y1723D01*
X1895Y1717D01*
X1895Y1710D01*
X1891Y1703D01*
X1883Y1700D01*
X1875Y1700D01*
X1867Y1703D01*
X1863Y1710D01*
G54D10*
X1918Y1700D02*
X1918Y1693D01*
X1914Y1687D01*
X1910Y1687D01*
G54D10*
X1933Y1743D02*
X1937Y1750D01*
X1945Y1753D01*
X1953Y1753D01*
X1961Y1750D01*
X1965Y1743D01*
X1965Y1737D01*
X1961Y1730D01*
X1953Y1727D01*
X1961Y1723D01*
X1965Y1717D01*
X1965Y1710D01*
X1961Y1703D01*
X1953Y1700D01*
X1945Y1700D01*
X1937Y1703D01*
X1933Y1710D01*
G54D10*
X1980Y1753D02*
X2000Y1700D01*
X2020Y1753D01*
G54D10*
X2871Y1736D02*
X2871Y1789D01*
X2891Y1756D01*
X2911Y1789D01*
X2911Y1736D01*
G54D10*
X2926Y1736D02*
X2926Y1766D01*
G54D10*
X2926Y1776D02*
X2926Y1776D01*
G54D10*
X2941Y1739D02*
X2949Y1736D01*
X2957Y1736D01*
X2965Y1739D01*
X2965Y1746D01*
X2961Y1749D01*
X2945Y1753D01*
X2941Y1756D01*
X2941Y1763D01*
X2949Y1766D01*
X2957Y1766D01*
X2965Y1763D01*
G54D10*
X3004Y1744D02*
X3004Y1757D01*
X3000Y1764D01*
X2992Y1766D01*
X2984Y1764D01*
X2980Y1757D01*
X2980Y1744D01*
X2984Y1737D01*
X2992Y1736D01*
X3000Y1737D01*
X3004Y1744D01*
G54D10*
X2609Y1736D02*
X2609Y1789D01*
X2629Y1756D01*
X2649Y1789D01*
X2649Y1736D01*
G54D10*
X2688Y1744D02*
X2688Y1757D01*
X2684Y1764D01*
X2676Y1766D01*
X2668Y1764D01*
X2664Y1757D01*
X2664Y1744D01*
X2668Y1737D01*
X2676Y1736D01*
X2684Y1737D01*
X2688Y1744D01*
G54D10*
X2703Y1739D02*
X2711Y1736D01*
X2719Y1736D01*
X2727Y1739D01*
X2727Y1746D01*
X2723Y1749D01*
X2707Y1753D01*
X2703Y1756D01*
X2703Y1763D01*
X2711Y1766D01*
X2719Y1766D01*
X2727Y1763D01*
G54D10*
X2742Y1736D02*
X2742Y1766D01*
G54D10*
X2742Y1776D02*
X2742Y1776D01*
G54D10*
X2364Y1738D02*
X2368Y1731D01*
X2376Y1728D01*
X2384Y1728D01*
X2392Y1731D01*
X2396Y1738D01*
X2396Y1745D01*
X2392Y1751D01*
X2384Y1755D01*
X2376Y1755D01*
X2368Y1758D01*
X2364Y1765D01*
X2364Y1771D01*
X2368Y1778D01*
X2376Y1781D01*
X2384Y1781D01*
X2392Y1778D01*
X2396Y1771D01*
G54D10*
X2443Y1738D02*
X2439Y1731D01*
X2431Y1728D01*
X2423Y1728D01*
X2415Y1731D01*
X2411Y1738D01*
X2411Y1771D01*
X2415Y1778D01*
X2423Y1781D01*
X2431Y1781D01*
X2439Y1778D01*
X2443Y1771D01*
G54D10*
X2458Y1728D02*
X2458Y1781D01*
G54D10*
X2458Y1745D02*
X2490Y1781D01*
G54D10*
X2470Y1755D02*
X2490Y1728D01*
G54D10*
X2127Y1755D02*
X2139Y1748D01*
X2143Y1741D01*
X2143Y1728D01*
G54D10*
X2111Y1728D02*
X2111Y1781D01*
X2131Y1781D01*
X2139Y1778D01*
X2143Y1771D01*
X2143Y1765D01*
X2139Y1758D01*
X2131Y1755D01*
X2111Y1755D01*
G54D10*
X2182Y1731D02*
X2176Y1728D01*
X2168Y1728D01*
X2160Y1731D01*
X2158Y1738D01*
X2158Y1749D01*
X2162Y1756D01*
X2170Y1758D01*
X2178Y1756D01*
X2182Y1751D01*
X2182Y1745D01*
X2158Y1745D01*
G54D10*
X2197Y1731D02*
X2205Y1728D01*
X2213Y1728D01*
X2221Y1731D01*
X2221Y1738D01*
X2217Y1741D01*
X2201Y1745D01*
X2197Y1748D01*
X2197Y1755D01*
X2205Y1758D01*
X2213Y1758D01*
X2221Y1755D01*
G54D13*
X3602Y2757D02*
X3522Y2757D01*
G54D13*
X3562Y2790D02*
X3562Y2724D01*
G54D10*
X3442Y1773D02*
X3410Y1773D01*
X3410Y1750D01*
X3414Y1750D01*
X3422Y1753D01*
X3430Y1753D01*
X3438Y1750D01*
X3442Y1743D01*
X3442Y1730D01*
X3438Y1723D01*
X3430Y1720D01*
X3422Y1720D01*
X3414Y1723D01*
X3410Y1730D01*
G54D10*
X3457Y1773D02*
X3477Y1720D01*
X3497Y1773D01*
G54D10*
X3287Y3197D02*
X3287Y3163D01*
X3283Y3157D01*
X3275Y3153D01*
X3267Y3153D01*
X3259Y3157D01*
X3255Y3163D01*
X3255Y3197D01*
X3259Y3203D01*
X3267Y3207D01*
X3275Y3207D01*
X3283Y3203D01*
X3287Y3197D01*
G54D10*
X3302Y3153D02*
X3302Y3207D01*
X3330Y3207D01*
G54D10*
X3302Y3180D02*
X3330Y3180D01*
G54D10*
X3345Y3153D02*
X3345Y3207D01*
X3373Y3207D01*
G54D10*
X3345Y3180D02*
X3373Y3180D01*
G54D10*
X3290Y3126D02*
X3290Y3093D01*
X3286Y3086D01*
X3278Y3083D01*
X3270Y3083D01*
X3262Y3086D01*
X3258Y3093D01*
X3258Y3126D01*
X3262Y3133D01*
X3270Y3136D01*
X3278Y3136D01*
X3286Y3133D01*
X3290Y3126D01*
G54D10*
X3305Y3083D02*
X3305Y3136D01*
X3337Y3083D01*
X3337Y3136D01*
G54D14*
X1710Y1867D02*
X1782Y1867D01*
X1742Y1906D01*
X1742Y1898D01*
X1710Y1867D01*
G54D14*
X1710Y1906D02*
X1774Y1906D01*
X1782Y1906D01*
G54D14*
X1900Y2328D02*
X1900Y2256D01*
X1940Y2296D01*
X1932Y2296D01*
X1900Y2328D01*
G54D14*
X1940Y2328D02*
X1940Y2264D01*
X1940Y2256D01*
G54D14*
X2400Y2121D02*
X2400Y2050D01*
X2440Y2089D01*
X2432Y2089D01*
X2400Y2121D01*
G54D14*
X2440Y2121D02*
X2440Y2058D01*
X2440Y2050D01*
G54D14*
X2750Y2105D02*
X2750Y2034D01*
X2789Y2074D01*
X2781Y2074D01*
X2750Y2105D01*
G54D14*
X2789Y2105D02*
X2789Y2042D01*
X2789Y2034D01*
G54D14*
X3099Y2185D02*
X3099Y2113D01*
X3139Y2153D01*
X3131Y2153D01*
X3099Y2185D01*
G54D14*
X3139Y2185D02*
X3139Y2121D01*
X3139Y2113D01*
G54D10*
X3719Y2709D02*
X3719Y2762D01*
G54D10*
X3751Y2709D02*
X3751Y2762D01*
G54D10*
X3719Y2735D02*
X3751Y2735D01*
G54D10*
X3719Y2312D02*
X3719Y2365D01*
G54D10*
X3751Y2312D02*
X3751Y2365D01*
G54D10*
X3719Y2338D02*
X3751Y2338D01*
G54D10*
X3718Y2970D02*
X3718Y2917D01*
X3746Y2917D01*
G54D10*
X3726Y2081D02*
X3726Y2028D01*
X3754Y2028D01*
G54D15*
X3737Y3051D02*
X3737Y3141D01*
G54D15*
X3737Y3392D02*
X3737Y3483D01*
G54D15*
X3737Y3241D02*
X3737Y3332D01*
G54D10*
X3253Y2308D02*
X3306Y2328D01*
X3253Y2348D01*
G54D10*
X3306Y2363D02*
X3276Y2363D01*
G54D10*
X3283Y2363D02*
X3276Y2371D01*
X3276Y2379D01*
G54D10*
X3303Y2418D02*
X3306Y2412D01*
X3306Y2404D01*
X3303Y2396D01*
X3296Y2394D01*
X3285Y2394D01*
X3278Y2398D01*
X3276Y2406D01*
X3278Y2414D01*
X3283Y2418D01*
X3289Y2418D01*
X3289Y2394D01*
G54D10*
X3306Y2441D02*
X3256Y2441D01*
X3253Y2445D01*
X3255Y2449D01*
G54D10*
X3276Y2433D02*
X3276Y2449D01*
G54D11*
X3226Y2545D02*
X3270Y2529D01*
X3226Y2512D01*
G54D11*
X3270Y2500D02*
X3270Y2467D01*
G54D10*
X3261Y2969D02*
X3273Y2962D01*
X3277Y2955D01*
X3277Y2942D01*
G54D10*
X3245Y2942D02*
X3245Y2995D01*
X3265Y2995D01*
X3273Y2992D01*
X3277Y2985D01*
X3277Y2979D01*
X3273Y2972D01*
X3265Y2969D01*
X3245Y2969D01*
G54D10*
X3292Y2975D02*
X3312Y2995D01*
X3312Y2942D01*
G54D10*
X2055Y2998D02*
X2048Y2986D01*
X2042Y2982D01*
X2028Y2982D01*
G54D10*
X2028Y3014D02*
X2082Y3014D01*
X2082Y2994D01*
X2078Y2986D01*
X2072Y2982D01*
X2065Y2982D01*
X2058Y2986D01*
X2055Y2994D01*
X2055Y3014D01*
G54D10*
X2028Y2935D02*
X2028Y2967D01*
X2032Y2967D01*
X2038Y2963D01*
X2058Y2939D01*
X2065Y2935D01*
X2072Y2935D01*
X2078Y2939D01*
X2082Y2947D01*
X2082Y2955D01*
X2078Y2963D01*
X2072Y2967D01*
G54D16*
X3374Y2079D02*
X3390Y2070D01*
X3395Y2061D01*
X3395Y2044D01*
G54D16*
X3352Y2044D02*
X3352Y2115D01*
X3379Y2115D01*
X3390Y2110D01*
X3395Y2101D01*
X3395Y2093D01*
X3390Y2084D01*
X3379Y2079D01*
X3352Y2079D01*
G54D16*
X3415Y2101D02*
X3421Y2110D01*
X3431Y2115D01*
X3442Y2115D01*
X3453Y2110D01*
X3458Y2101D01*
X3458Y2093D01*
X3453Y2084D01*
X3442Y2079D01*
X3453Y2075D01*
X3458Y2066D01*
X3458Y2057D01*
X3453Y2048D01*
X3442Y2044D01*
X3431Y2044D01*
X3421Y2048D01*
X3415Y2057D01*
G54D10*
X3481Y2492D02*
X3493Y2485D01*
X3497Y2479D01*
X3497Y2465D01*
G54D10*
X3465Y2465D02*
X3465Y2519D01*
X3485Y2519D01*
X3493Y2515D01*
X3497Y2509D01*
X3497Y2502D01*
X3493Y2495D01*
X3485Y2492D01*
X3465Y2492D01*
G54D10*
X3536Y2465D02*
X3536Y2519D01*
X3512Y2485D01*
X3512Y2479D01*
X3544Y2479D01*
G54D10*
X3411Y2954D02*
X3404Y2942D01*
X3397Y2938D01*
X3384Y2938D01*
G54D10*
X3384Y2970D02*
X3437Y2970D01*
X3437Y2950D01*
X3434Y2942D01*
X3427Y2938D01*
X3421Y2938D01*
X3414Y2942D01*
X3411Y2950D01*
X3411Y2970D01*
G54D10*
X3437Y2891D02*
X3437Y2923D01*
X3414Y2923D01*
X3414Y2919D01*
X3417Y2911D01*
X3417Y2903D01*
X3414Y2895D01*
X3407Y2891D01*
X3394Y2891D01*
X3387Y2895D01*
X3384Y2903D01*
X3384Y2911D01*
X3387Y2919D01*
X3394Y2923D01*
G54D10*
X2199Y2175D02*
X2211Y2168D01*
X2215Y2161D01*
X2215Y2148D01*
G54D10*
X2183Y2148D02*
X2183Y2201D01*
X2203Y2201D01*
X2211Y2198D01*
X2215Y2191D01*
X2215Y2185D01*
X2211Y2178D01*
X2203Y2175D01*
X2183Y2175D01*
G54D10*
X2250Y2175D02*
X2242Y2175D01*
X2234Y2178D01*
X2230Y2185D01*
X2230Y2191D01*
X2234Y2198D01*
X2242Y2201D01*
X2250Y2201D01*
X2258Y2198D01*
X2262Y2191D01*
X2262Y2185D01*
X2258Y2178D01*
X2250Y2175D01*
X2258Y2171D01*
X2262Y2165D01*
X2262Y2158D01*
X2258Y2151D01*
X2250Y2148D01*
X2242Y2148D01*
X2234Y2151D01*
X2230Y2158D01*
X2230Y2165D01*
X2234Y2171D01*
X2242Y2175D01*
G54D10*
X3358Y2601D02*
X3370Y2594D01*
X3374Y2587D01*
X3374Y2574D01*
G54D10*
X3342Y2574D02*
X3342Y2627D01*
X3362Y2627D01*
X3370Y2624D01*
X3374Y2617D01*
X3374Y2611D01*
X3370Y2604D01*
X3362Y2601D01*
X3342Y2601D01*
G54D10*
X3421Y2617D02*
X3417Y2624D01*
X3409Y2627D01*
X3401Y2627D01*
X3393Y2624D01*
X3389Y2617D01*
X3389Y2601D01*
X3389Y2597D01*
X3401Y2604D01*
X3409Y2604D01*
X3417Y2601D01*
X3421Y2594D01*
X3421Y2584D01*
X3417Y2577D01*
X3409Y2574D01*
X3401Y2574D01*
X3393Y2577D01*
X3389Y2584D01*
X3389Y2601D01*
G54D10*
X3364Y2356D02*
X3376Y2349D01*
X3380Y2343D01*
X3380Y2329D01*
G54D10*
X3348Y2329D02*
X3348Y2383D01*
X3368Y2383D01*
X3376Y2379D01*
X3380Y2373D01*
X3380Y2366D01*
X3376Y2359D01*
X3368Y2356D01*
X3348Y2356D01*
G54D10*
X3395Y2383D02*
X3427Y2383D01*
X3423Y2376D01*
X3415Y2366D01*
X3407Y2353D01*
X3403Y2343D01*
X3403Y2329D01*
G54D10*
X3743Y2879D02*
X3737Y2867D01*
X3730Y2863D01*
X3717Y2863D01*
G54D10*
X3717Y2895D02*
X3770Y2895D01*
X3770Y2875D01*
X3767Y2867D01*
X3760Y2863D01*
X3753Y2863D01*
X3747Y2867D01*
X3743Y2875D01*
X3743Y2895D01*
G54D10*
X3750Y2848D02*
X3770Y2828D01*
X3717Y2828D01*
G54D10*
X3760Y2781D02*
X3727Y2781D01*
X3720Y2785D01*
X3717Y2793D01*
X3717Y2801D01*
X3720Y2809D01*
X3727Y2813D01*
X3760Y2813D01*
X3767Y2809D01*
X3770Y2801D01*
X3770Y2793D01*
X3767Y2785D01*
X3760Y2781D01*
G54D10*
X3584Y1990D02*
X3578Y1978D01*
X3571Y1974D01*
X3558Y1974D01*
G54D10*
X3558Y2006D02*
X3611Y2006D01*
X3611Y1986D01*
X3608Y1978D01*
X3601Y1974D01*
X3594Y1974D01*
X3588Y1978D01*
X3584Y1986D01*
X3584Y2006D01*
G54D10*
X3591Y1959D02*
X3611Y1939D01*
X3558Y1939D01*
G54D10*
X3558Y1892D02*
X3558Y1924D01*
X3561Y1924D01*
X3568Y1920D01*
X3588Y1896D01*
X3594Y1892D01*
X3601Y1892D01*
X3608Y1896D01*
X3611Y1904D01*
X3611Y1912D01*
X3608Y1920D01*
X3601Y1924D01*
G54D10*
X3759Y2256D02*
X3752Y2244D01*
X3746Y2240D01*
X3732Y2240D01*
G54D10*
X3732Y2272D02*
X3786Y2272D01*
X3786Y2252D01*
X3782Y2244D01*
X3776Y2240D01*
X3769Y2240D01*
X3762Y2244D01*
X3759Y2252D01*
X3759Y2272D01*
G54D10*
X3766Y2225D02*
X3786Y2205D01*
X3732Y2205D01*
G54D10*
X3766Y2190D02*
X3786Y2170D01*
X3732Y2170D01*
G54D10*
X3759Y2552D02*
X3752Y2540D01*
X3746Y2536D01*
X3732Y2536D01*
G54D10*
X3732Y2568D02*
X3786Y2568D01*
X3786Y2548D01*
X3782Y2540D01*
X3776Y2536D01*
X3769Y2536D01*
X3762Y2540D01*
X3759Y2548D01*
X3759Y2568D01*
G54D10*
X3742Y2521D02*
X3736Y2517D01*
X3732Y2509D01*
X3732Y2501D01*
X3736Y2493D01*
X3742Y2489D01*
X3759Y2489D01*
X3762Y2489D01*
X3756Y2501D01*
X3756Y2509D01*
X3759Y2517D01*
X3766Y2521D01*
X3776Y2521D01*
X3782Y2517D01*
X3786Y2509D01*
X3786Y2501D01*
X3782Y2493D01*
X3776Y2489D01*
X3759Y2489D01*
G54D10*
X1677Y2051D02*
X1677Y2104D01*
X1697Y2104D01*
X1705Y2101D01*
X1709Y2094D01*
X1709Y2061D01*
X1705Y2054D01*
X1697Y2051D01*
X1677Y2051D01*
G54D10*
X1724Y2084D02*
X1744Y2104D01*
X1744Y2051D01*
G54D10*
X1939Y2415D02*
X1992Y2415D01*
X1992Y2395D01*
X1989Y2387D01*
X1982Y2383D01*
X1949Y2383D01*
X1942Y2387D01*
X1939Y2395D01*
X1939Y2415D01*
G54D10*
X1939Y2336D02*
X1939Y2368D01*
X1942Y2368D01*
X1949Y2364D01*
X1969Y2340D01*
X1975Y2336D01*
X1982Y2336D01*
X1989Y2340D01*
X1992Y2348D01*
X1992Y2356D01*
X1989Y2364D01*
X1982Y2368D01*
G54D10*
X1935Y2089D02*
X1931Y2082D01*
X1923Y2079D01*
X1915Y2079D01*
X1907Y2082D01*
X1903Y2089D01*
X1903Y2122D01*
X1907Y2129D01*
X1915Y2132D01*
X1923Y2132D01*
X1931Y2129D01*
X1935Y2122D01*
G54D10*
X1950Y2122D02*
X1954Y2129D01*
X1962Y2132D01*
X1970Y2132D01*
X1978Y2129D01*
X1982Y2122D01*
X1982Y2115D01*
X1978Y2109D01*
X1970Y2105D01*
X1978Y2102D01*
X1982Y2095D01*
X1982Y2089D01*
X1978Y2082D01*
X1970Y2079D01*
X1962Y2079D01*
X1954Y2082D01*
X1950Y2089D01*
G54D10*
X3234Y2657D02*
X3228Y2661D01*
X3224Y2669D01*
X3224Y2677D01*
X3228Y2685D01*
X3234Y2689D01*
X3268Y2689D01*
X3274Y2685D01*
X3278Y2677D01*
X3278Y2669D01*
X3274Y2661D01*
X3268Y2657D01*
G54D10*
X3258Y2642D02*
X3278Y2622D01*
X3224Y2622D01*
G54D10*
X1877Y2756D02*
X1870Y2760D01*
X1867Y2768D01*
X1867Y2776D01*
X1870Y2784D01*
X1877Y2788D01*
X1910Y2788D01*
X1917Y2784D01*
X1920Y2776D01*
X1920Y2768D01*
X1917Y2760D01*
X1910Y2756D01*
G54D10*
X1867Y2709D02*
X1867Y2741D01*
X1870Y2741D01*
X1877Y2737D01*
X1897Y2713D01*
X1904Y2709D01*
X1910Y2709D01*
X1917Y2713D01*
X1920Y2721D01*
X1920Y2729D01*
X1917Y2737D01*
X1910Y2741D01*
G54D10*
X3092Y2315D02*
X3086Y2303D01*
X3079Y2299D01*
X3066Y2299D01*
G54D10*
X3066Y2331D02*
X3119Y2331D01*
X3119Y2311D01*
X3116Y2303D01*
X3109Y2299D01*
X3102Y2299D01*
X3096Y2303D01*
X3092Y2311D01*
X3092Y2331D01*
G54D10*
X3099Y2284D02*
X3119Y2264D01*
X3066Y2264D01*
G54D10*
X3109Y2249D02*
X3116Y2245D01*
X3119Y2237D01*
X3119Y2229D01*
X3116Y2221D01*
X3109Y2217D01*
X3102Y2217D01*
X3096Y2221D01*
X3092Y2229D01*
X3089Y2221D01*
X3082Y2217D01*
X3076Y2217D01*
X3069Y2221D01*
X3066Y2229D01*
X3066Y2237D01*
X3069Y2245D01*
X3076Y2249D01*
G54D10*
X1814Y3272D02*
X1807Y3276D01*
X1804Y3284D01*
X1804Y3292D01*
X1807Y3300D01*
X1814Y3304D01*
X1847Y3304D01*
X1854Y3300D01*
X1857Y3292D01*
X1857Y3284D01*
X1854Y3276D01*
X1847Y3272D01*
G54D10*
X1804Y3233D02*
X1857Y3233D01*
X1824Y3257D01*
X1817Y3257D01*
X1817Y3225D01*
G54D10*
X1527Y2631D02*
X1531Y2637D01*
X1539Y2641D01*
X1547Y2641D01*
X1555Y2637D01*
X1559Y2631D01*
X1559Y2624D01*
X1555Y2617D01*
X1547Y2614D01*
X1555Y2611D01*
X1559Y2604D01*
X1559Y2597D01*
X1555Y2591D01*
X1547Y2587D01*
X1539Y2587D01*
X1531Y2591D01*
X1527Y2597D01*
G54D10*
X1582Y2587D02*
X1582Y2581D01*
X1578Y2574D01*
X1574Y2574D01*
G54D10*
X1597Y2631D02*
X1601Y2637D01*
X1609Y2641D01*
X1617Y2641D01*
X1625Y2637D01*
X1629Y2631D01*
X1629Y2624D01*
X1625Y2617D01*
X1617Y2614D01*
X1625Y2611D01*
X1629Y2604D01*
X1629Y2597D01*
X1625Y2591D01*
X1617Y2587D01*
X1609Y2587D01*
X1601Y2591D01*
X1597Y2597D01*
G54D10*
X1644Y2641D02*
X1664Y2587D01*
X1684Y2641D01*
G54D10*
X1551Y2887D02*
X1567Y2887D01*
X1567Y2870D01*
X1563Y2864D01*
X1555Y2860D01*
X1547Y2860D01*
X1539Y2864D01*
X1535Y2870D01*
X1535Y2904D01*
X1539Y2910D01*
X1547Y2914D01*
X1555Y2914D01*
X1563Y2910D01*
X1567Y2904D01*
G54D10*
X1582Y2860D02*
X1582Y2914D01*
X1614Y2860D01*
X1614Y2914D01*
G54D10*
X1629Y2860D02*
X1629Y2914D01*
X1649Y2914D01*
X1657Y2910D01*
X1661Y2904D01*
X1661Y2870D01*
X1657Y2864D01*
X1649Y2860D01*
X1629Y2860D01*
G54D10*
X1519Y3378D02*
X1523Y3372D01*
X1531Y3368D01*
X1539Y3368D01*
X1547Y3372D01*
X1551Y3378D01*
X1551Y3385D01*
X1547Y3392D01*
X1539Y3395D01*
X1531Y3395D01*
X1523Y3398D01*
X1519Y3405D01*
X1519Y3412D01*
X1523Y3418D01*
X1531Y3422D01*
X1539Y3422D01*
X1547Y3418D01*
X1551Y3412D01*
G54D10*
X1566Y3368D02*
X1566Y3422D01*
X1586Y3422D01*
X1594Y3418D01*
X1598Y3412D01*
X1598Y3378D01*
X1594Y3372D01*
X1586Y3368D01*
X1566Y3368D01*
G54D10*
X1613Y3368D02*
X1633Y3422D01*
X1653Y3368D01*
G54D10*
X1621Y3388D02*
X1645Y3388D01*
G54D10*
X1527Y3124D02*
X1531Y3118D01*
X1539Y3114D01*
X1547Y3114D01*
X1555Y3118D01*
X1559Y3124D01*
X1559Y3131D01*
X1555Y3138D01*
X1547Y3141D01*
X1539Y3141D01*
X1531Y3144D01*
X1527Y3151D01*
X1527Y3158D01*
X1531Y3164D01*
X1539Y3168D01*
X1547Y3168D01*
X1555Y3164D01*
X1559Y3158D01*
G54D10*
X1606Y3124D02*
X1602Y3118D01*
X1594Y3114D01*
X1586Y3114D01*
X1578Y3118D01*
X1574Y3124D01*
X1574Y3158D01*
X1578Y3164D01*
X1586Y3168D01*
X1594Y3168D01*
X1602Y3164D01*
X1606Y3158D01*
G54D10*
X1621Y3168D02*
X1621Y3114D01*
X1649Y3114D01*
G54D10*
X3178Y3847D02*
X3194Y3847D01*
X3194Y3831D01*
X3190Y3824D01*
X3182Y3821D01*
X3174Y3821D01*
X3166Y3824D01*
X3162Y3831D01*
X3162Y3864D01*
X3166Y3871D01*
X3174Y3874D01*
X3182Y3874D01*
X3190Y3871D01*
X3194Y3864D01*
G54D10*
X3209Y3821D02*
X3209Y3874D01*
X3241Y3821D01*
X3241Y3874D01*
G54D10*
X3256Y3821D02*
X3256Y3874D01*
X3276Y3874D01*
X3284Y3871D01*
X3288Y3864D01*
X3288Y3831D01*
X3284Y3824D01*
X3276Y3821D01*
X3256Y3821D01*
G54D10*
X2186Y3575D02*
X2190Y3582D01*
X2198Y3585D01*
X2206Y3585D01*
X2214Y3582D01*
X2218Y3575D01*
X2218Y3569D01*
X2214Y3562D01*
X2206Y3559D01*
X2214Y3555D01*
X2218Y3549D01*
X2218Y3542D01*
X2214Y3535D01*
X2206Y3532D01*
X2198Y3532D01*
X2190Y3535D01*
X2186Y3542D01*
G54D10*
X2241Y3532D02*
X2241Y3525D01*
X2237Y3519D01*
X2233Y3519D01*
G54D10*
X2256Y3575D02*
X2260Y3582D01*
X2268Y3585D01*
X2276Y3585D01*
X2284Y3582D01*
X2288Y3575D01*
X2288Y3569D01*
X2284Y3562D01*
X2276Y3559D01*
X2284Y3555D01*
X2288Y3549D01*
X2288Y3542D01*
X2284Y3535D01*
X2276Y3532D01*
X2268Y3532D01*
X2260Y3535D01*
X2256Y3542D01*
G54D10*
X2303Y3585D02*
X2323Y3532D01*
X2343Y3585D01*
G54D10*
X1964Y3554D02*
X1980Y3554D01*
X1980Y3537D01*
X1976Y3530D01*
X1968Y3527D01*
X1960Y3527D01*
X1952Y3530D01*
X1948Y3537D01*
X1948Y3570D01*
X1952Y3577D01*
X1960Y3580D01*
X1968Y3580D01*
X1976Y3577D01*
X1980Y3570D01*
G54D10*
X1995Y3527D02*
X1995Y3580D01*
X2027Y3527D01*
X2027Y3580D01*
G54D10*
X2042Y3527D02*
X2042Y3580D01*
X2062Y3580D01*
X2070Y3577D01*
X2074Y3570D01*
X2074Y3537D01*
X2070Y3530D01*
X2062Y3527D01*
X2042Y3527D01*
G54D10*
X2464Y3537D02*
X2468Y3530D01*
X2476Y3527D01*
X2484Y3527D01*
X2492Y3530D01*
X2496Y3537D01*
X2496Y3544D01*
X2492Y3550D01*
X2484Y3554D01*
X2476Y3554D01*
X2468Y3557D01*
X2464Y3564D01*
X2464Y3570D01*
X2468Y3577D01*
X2476Y3580D01*
X2484Y3580D01*
X2492Y3577D01*
X2496Y3570D01*
G54D10*
X2543Y3537D02*
X2539Y3530D01*
X2531Y3527D01*
X2523Y3527D01*
X2515Y3530D01*
X2511Y3537D01*
X2511Y3570D01*
X2515Y3577D01*
X2523Y3580D01*
X2531Y3580D01*
X2539Y3577D01*
X2543Y3570D01*
G54D10*
X2558Y3580D02*
X2558Y3527D01*
X2586Y3527D01*
G54D10*
X2710Y3537D02*
X2714Y3530D01*
X2722Y3527D01*
X2730Y3527D01*
X2738Y3530D01*
X2742Y3537D01*
X2742Y3544D01*
X2738Y3550D01*
X2730Y3554D01*
X2722Y3554D01*
X2714Y3557D01*
X2710Y3564D01*
X2710Y3570D01*
X2714Y3577D01*
X2722Y3580D01*
X2730Y3580D01*
X2738Y3577D01*
X2742Y3570D01*
G54D10*
X2757Y3527D02*
X2757Y3580D01*
X2777Y3580D01*
X2785Y3577D01*
X2789Y3570D01*
X2789Y3537D01*
X2785Y3530D01*
X2777Y3527D01*
X2757Y3527D01*
G54D10*
X2804Y3527D02*
X2824Y3580D01*
X2844Y3527D01*
G54D10*
X2812Y3547D02*
X2836Y3547D01*
G54D10*
X2980Y3554D02*
X2992Y3547D01*
X2996Y3540D01*
X2996Y3527D01*
G54D10*
X2964Y3527D02*
X2964Y3580D01*
X2984Y3580D01*
X2992Y3577D01*
X2996Y3570D01*
X2996Y3564D01*
X2992Y3557D01*
X2984Y3554D01*
X2964Y3554D01*
G54D10*
X3039Y3527D02*
X3011Y3527D01*
X3011Y3580D01*
X3039Y3580D01*
G54D10*
X3011Y3554D02*
X3039Y3554D01*
G54D10*
X3054Y3537D02*
X3058Y3530D01*
X3066Y3527D01*
X3074Y3527D01*
X3082Y3530D01*
X3086Y3537D01*
X3086Y3544D01*
X3082Y3550D01*
X3074Y3554D01*
X3066Y3554D01*
X3058Y3557D01*
X3054Y3564D01*
X3054Y3570D01*
X3058Y3577D01*
X3066Y3580D01*
X3074Y3580D01*
X3082Y3577D01*
X3086Y3570D01*
G54D16*
X1561Y3620D02*
X1561Y3691D01*
X1587Y3691D01*
X1598Y3687D01*
X1603Y3678D01*
X1603Y3634D01*
X1598Y3625D01*
X1587Y3620D01*
X1561Y3620D01*
G54D16*
X1624Y3620D02*
X1624Y3660D01*
G54D16*
X1624Y3674D02*
X1624Y3674D01*
G54D16*
X1644Y3625D02*
X1654Y3620D01*
X1665Y3620D01*
X1676Y3625D01*
X1676Y3634D01*
X1670Y3638D01*
X1649Y3642D01*
X1644Y3647D01*
X1644Y3656D01*
X1654Y3660D01*
X1665Y3660D01*
X1676Y3656D01*
G54D16*
X1696Y3660D02*
X1696Y3602D01*
G54D16*
X1696Y3634D02*
X1701Y3622D01*
X1712Y3620D01*
X1722Y3622D01*
X1728Y3631D01*
X1728Y3649D01*
X1722Y3658D01*
X1712Y3660D01*
X1701Y3658D01*
X1696Y3647D01*
G54D16*
X1748Y3620D02*
X1748Y3691D01*
G54D16*
X1768Y3656D02*
X1778Y3660D01*
X1791Y3660D01*
X1800Y3651D01*
X1800Y3620D01*
G54D16*
X1800Y3634D02*
X1794Y3642D01*
X1784Y3644D01*
X1773Y3642D01*
X1768Y3634D01*
X1770Y3625D01*
X1778Y3620D01*
X1784Y3620D01*
X1786Y3620D01*
X1794Y3625D01*
X1800Y3634D01*
G54D16*
X1820Y3660D02*
X1841Y3620D01*
X1862Y3660D01*
G54D16*
X1841Y3620D02*
X1836Y3607D01*
X1830Y3602D01*
X1825Y3602D01*
G54D16*
X1389Y2010D02*
X1318Y2010D01*
X1318Y2036D01*
X1322Y2047D01*
X1331Y2052D01*
X1340Y2052D01*
X1349Y2047D01*
X1353Y2036D01*
X1358Y2047D01*
X1367Y2052D01*
X1375Y2052D01*
X1384Y2047D01*
X1389Y2036D01*
X1389Y2010D01*
G54D16*
X1353Y2010D02*
X1353Y2036D01*
G54D16*
X1389Y2073D02*
X1318Y2073D01*
X1362Y2099D01*
X1318Y2126D01*
X1389Y2126D01*
G54D16*
X1389Y2183D02*
X1389Y2146D01*
X1318Y2146D01*
X1318Y2183D01*
G54D16*
X1353Y2146D02*
X1353Y2183D01*
G54D16*
X1389Y2203D02*
X1318Y2245D01*
G54D16*
X1389Y2266D02*
X1318Y2266D01*
X1318Y2292D01*
X1322Y2303D01*
X1331Y2308D01*
X1340Y2308D01*
X1349Y2303D01*
X1353Y2292D01*
X1353Y2266D01*
G54D16*
X1389Y2371D02*
X1389Y2329D01*
X1384Y2329D01*
X1375Y2334D01*
X1349Y2366D01*
X1340Y2371D01*
X1331Y2371D01*
X1322Y2366D01*
X1318Y2355D01*
X1318Y2345D01*
X1322Y2334D01*
X1331Y2329D01*
G54D16*
X1353Y2418D02*
X1353Y2408D01*
X1349Y2397D01*
X1340Y2392D01*
X1331Y2392D01*
X1322Y2397D01*
X1318Y2408D01*
X1318Y2418D01*
X1322Y2429D01*
X1331Y2434D01*
X1340Y2434D01*
X1349Y2429D01*
X1353Y2418D01*
X1358Y2429D01*
X1367Y2434D01*
X1375Y2434D01*
X1384Y2429D01*
X1389Y2418D01*
X1389Y2408D01*
X1384Y2397D01*
X1375Y2392D01*
X1367Y2392D01*
X1358Y2397D01*
X1353Y2408D01*
G54D16*
X1331Y2497D02*
X1375Y2497D01*
X1384Y2492D01*
X1389Y2481D01*
X1389Y2471D01*
X1384Y2460D01*
X1375Y2455D01*
X1331Y2455D01*
X1322Y2460D01*
X1318Y2471D01*
X1318Y2481D01*
X1322Y2492D01*
X1331Y2497D01*
G54D10*
X2893Y3828D02*
X2913Y3881D01*
X2933Y3828D01*
G54D10*
X2901Y3848D02*
X2925Y3848D01*
G54D10*
X2948Y3828D02*
X2948Y3881D01*
X2968Y3881D01*
X2976Y3878D01*
X2980Y3871D01*
X2980Y3838D01*
X2976Y3831D01*
X2968Y3828D01*
X2948Y3828D01*
G54D10*
X2995Y3871D02*
X2999Y3878D01*
X3007Y3881D01*
X3015Y3881D01*
X3023Y3878D01*
X3027Y3871D01*
X3027Y3865D01*
X3023Y3858D01*
X3015Y3855D01*
X3023Y3851D01*
X3027Y3845D01*
X3027Y3838D01*
X3023Y3831D01*
X3015Y3828D01*
X3007Y3828D01*
X2999Y3831D01*
X2995Y3838D01*
G54D10*
X3440Y3872D02*
X3440Y3839D01*
X3436Y3832D01*
X3428Y3829D01*
X3420Y3829D01*
X3412Y3832D01*
X3408Y3839D01*
X3408Y3872D01*
X3412Y3879D01*
X3420Y3882D01*
X3428Y3882D01*
X3436Y3879D01*
X3440Y3872D01*
G54D10*
X3488Y3839D02*
X3484Y3832D01*
X3476Y3829D01*
X3468Y3829D01*
X3460Y3832D01*
X3456Y3839D01*
X3456Y3872D01*
X3460Y3879D01*
X3468Y3882D01*
X3476Y3882D01*
X3484Y3879D01*
X3488Y3872D01*
G54D10*
X3502Y3862D02*
X3522Y3882D01*
X3522Y3829D01*
G54D10*
X3538Y3855D02*
X3546Y3859D01*
X3555Y3859D01*
X3562Y3852D01*
X3562Y3829D01*
G54D10*
X3562Y3839D02*
X3558Y3845D01*
X3550Y3847D01*
X3542Y3845D01*
X3538Y3839D01*
X3539Y3832D01*
X3546Y3829D01*
X3550Y3829D01*
X3551Y3829D01*
X3558Y3832D01*
X3562Y3839D01*
G54D10*
X2170Y3877D02*
X2174Y3884D01*
X2182Y3887D01*
X2190Y3887D01*
X2198Y3884D01*
X2202Y3877D01*
X2202Y3870D01*
X2198Y3864D01*
X2190Y3860D01*
X2198Y3857D01*
X2202Y3850D01*
X2202Y3844D01*
X2198Y3837D01*
X2190Y3834D01*
X2182Y3834D01*
X2174Y3837D01*
X2170Y3844D01*
G54D10*
X2225Y3834D02*
X2225Y3827D01*
X2221Y3820D01*
X2217Y3820D01*
G54D10*
X2240Y3877D02*
X2244Y3884D01*
X2252Y3887D01*
X2260Y3887D01*
X2268Y3884D01*
X2272Y3877D01*
X2272Y3870D01*
X2268Y3864D01*
X2260Y3860D01*
X2268Y3857D01*
X2272Y3850D01*
X2272Y3844D01*
X2268Y3837D01*
X2260Y3834D01*
X2252Y3834D01*
X2244Y3837D01*
X2240Y3844D01*
G54D10*
X2287Y3887D02*
X2307Y3834D01*
X2327Y3887D01*
G54D10*
X1678Y3863D02*
X1694Y3863D01*
X1694Y3846D01*
X1690Y3840D01*
X1682Y3836D01*
X1674Y3836D01*
X1666Y3840D01*
X1662Y3846D01*
X1662Y3880D01*
X1666Y3886D01*
X1674Y3890D01*
X1682Y3890D01*
X1690Y3886D01*
X1694Y3880D01*
G54D10*
X1709Y3836D02*
X1709Y3890D01*
X1741Y3836D01*
X1741Y3890D01*
G54D10*
X1756Y3836D02*
X1756Y3890D01*
X1776Y3890D01*
X1784Y3886D01*
X1788Y3880D01*
X1788Y3846D01*
X1784Y3840D01*
X1776Y3836D01*
X1756Y3836D01*
G54D10*
X3662Y3877D02*
X3666Y3884D01*
X3674Y3887D01*
X3682Y3887D01*
X3690Y3884D01*
X3694Y3877D01*
X3694Y3870D01*
X3690Y3864D01*
X3682Y3860D01*
X3690Y3857D01*
X3694Y3850D01*
X3694Y3844D01*
X3690Y3837D01*
X3682Y3834D01*
X3674Y3834D01*
X3666Y3837D01*
X3662Y3844D01*
G54D10*
X3718Y3834D02*
X3718Y3827D01*
X3714Y3820D01*
X3710Y3820D01*
G54D10*
X3732Y3877D02*
X3736Y3884D01*
X3744Y3887D01*
X3752Y3887D01*
X3760Y3884D01*
X3764Y3877D01*
X3764Y3870D01*
X3760Y3864D01*
X3752Y3860D01*
X3760Y3857D01*
X3764Y3850D01*
X3764Y3844D01*
X3760Y3837D01*
X3752Y3834D01*
X3744Y3834D01*
X3736Y3837D01*
X3732Y3844D01*
G54D10*
X3780Y3887D02*
X3800Y3834D01*
X3820Y3887D01*
G54D16*
X2144Y1004D02*
X2149Y1012D01*
X2160Y1017D01*
X2170Y1017D01*
X2181Y1012D01*
X2186Y1004D01*
X2186Y995D01*
X2181Y986D01*
X2170Y981D01*
X2181Y977D01*
X2186Y968D01*
X2186Y959D01*
X2181Y950D01*
X2170Y946D01*
X2160Y946D01*
X2149Y950D01*
X2144Y959D01*
G54D16*
X2217Y946D02*
X2217Y937D01*
X2212Y928D01*
X2207Y928D01*
G54D16*
X2238Y1004D02*
X2243Y1012D01*
X2254Y1017D01*
X2264Y1017D01*
X2275Y1012D01*
X2280Y1004D01*
X2280Y995D01*
X2275Y986D01*
X2264Y981D01*
X2275Y977D01*
X2280Y968D01*
X2280Y959D01*
X2275Y950D01*
X2264Y946D01*
X2254Y946D01*
X2243Y950D01*
X2238Y959D01*
G54D16*
X2301Y1017D02*
X2327Y946D01*
X2354Y1017D01*
G54D16*
X1670Y974D02*
X1691Y974D01*
X1691Y952D01*
X1686Y943D01*
X1675Y938D01*
X1665Y938D01*
X1654Y943D01*
X1649Y952D01*
X1649Y996D01*
X1654Y1005D01*
X1665Y1009D01*
X1675Y1009D01*
X1686Y1005D01*
X1691Y996D01*
G54D16*
X1712Y938D02*
X1712Y1009D01*
X1754Y938D01*
X1754Y1009D01*
G54D16*
X1775Y938D02*
X1775Y1009D01*
X1801Y1009D01*
X1812Y1005D01*
X1817Y996D01*
X1817Y952D01*
X1812Y943D01*
X1801Y938D01*
X1775Y938D01*
G54D16*
X1978Y976D02*
X1994Y967D01*
X2000Y958D01*
X2000Y940D01*
G54D16*
X1957Y940D02*
X1957Y1011D01*
X1984Y1011D01*
X1994Y1007D01*
X2000Y998D01*
X2000Y989D01*
X1994Y980D01*
X1984Y976D01*
X1957Y976D01*
G54D16*
X2020Y1011D02*
X2073Y940D01*
G54D16*
X2020Y940D02*
X2073Y1011D01*
G54D16*
X3771Y1019D02*
X3776Y1028D01*
X3787Y1033D01*
X3798Y1033D01*
X3808Y1028D01*
X3814Y1019D01*
X3814Y1011D01*
X3808Y1002D01*
X3798Y997D01*
X3808Y993D01*
X3814Y984D01*
X3814Y975D01*
X3808Y966D01*
X3798Y962D01*
X3787Y962D01*
X3776Y966D01*
X3771Y975D01*
G54D16*
X3845Y962D02*
X3845Y953D01*
X3839Y944D01*
X3834Y944D01*
G54D16*
X3865Y1019D02*
X3870Y1028D01*
X3881Y1033D01*
X3892Y1033D01*
X3902Y1028D01*
X3908Y1019D01*
X3908Y1011D01*
X3902Y1002D01*
X3892Y997D01*
X3902Y993D01*
X3908Y984D01*
X3908Y975D01*
X3902Y966D01*
X3892Y962D01*
X3881Y962D01*
X3870Y966D01*
X3865Y975D01*
G54D16*
X3928Y1033D02*
X3955Y962D01*
X3981Y1033D01*
G54D16*
X3297Y990D02*
X3319Y990D01*
X3319Y967D01*
X3313Y959D01*
X3303Y954D01*
X3292Y954D01*
X3281Y959D01*
X3276Y967D01*
X3276Y1012D01*
X3281Y1021D01*
X3292Y1025D01*
X3303Y1025D01*
X3313Y1021D01*
X3319Y1012D01*
G54D16*
X3339Y954D02*
X3339Y1025D01*
X3382Y954D01*
X3382Y1025D01*
G54D16*
X3402Y954D02*
X3402Y1025D01*
X3429Y1025D01*
X3439Y1021D01*
X3445Y1012D01*
X3445Y967D01*
X3439Y959D01*
X3429Y954D01*
X3402Y954D01*
G54D16*
X3590Y956D02*
X3590Y1027D01*
G54D16*
X3568Y1027D02*
X3611Y1027D01*
G54D16*
X3631Y1027D02*
X3685Y956D01*
G54D16*
X3631Y956D02*
X3685Y1027D01*
G54D16*
X3996Y3210D02*
X4005Y3205D01*
X4010Y3194D01*
X4010Y3183D01*
X4005Y3173D01*
X3996Y3167D01*
X3987Y3167D01*
X3979Y3173D01*
X3974Y3183D01*
X3970Y3173D01*
X3961Y3167D01*
X3952Y3167D01*
X3943Y3173D01*
X3939Y3183D01*
X3939Y3194D01*
X3943Y3205D01*
X3952Y3210D01*
G54D16*
X3939Y3136D02*
X3930Y3136D01*
X3921Y3142D01*
X3921Y3147D01*
G54D16*
X3996Y3116D02*
X4005Y3111D01*
X4010Y3100D01*
X4010Y3089D01*
X4005Y3079D01*
X3996Y3073D01*
X3987Y3073D01*
X3979Y3079D01*
X3974Y3089D01*
X3970Y3079D01*
X3961Y3073D01*
X3952Y3073D01*
X3943Y3079D01*
X3939Y3089D01*
X3939Y3100D01*
X3943Y3111D01*
X3952Y3116D01*
G54D16*
X4010Y3053D02*
X3939Y3026D01*
X4010Y3000D01*
G54D16*
X3861Y3181D02*
X3861Y3159D01*
X3839Y3159D01*
X3830Y3165D01*
X3825Y3175D01*
X3825Y3186D01*
X3830Y3197D01*
X3839Y3202D01*
X3883Y3202D01*
X3892Y3197D01*
X3896Y3186D01*
X3896Y3175D01*
X3892Y3165D01*
X3883Y3159D01*
G54D16*
X3825Y3139D02*
X3896Y3139D01*
X3825Y3096D01*
X3896Y3096D01*
G54D16*
X3825Y3076D02*
X3896Y3076D01*
X3896Y3049D01*
X3892Y3039D01*
X3883Y3033D01*
X3839Y3033D01*
X3830Y3039D01*
X3825Y3049D01*
X3825Y3076D01*
G54D17*
X1283Y1212D02*
X1309Y1212D01*
X1309Y1184D01*
X1303Y1173D01*
X1289Y1167D01*
X1276Y1167D01*
X1263Y1173D01*
X1256Y1184D01*
X1256Y1240D01*
X1263Y1251D01*
X1276Y1256D01*
X1289Y1256D01*
X1303Y1251D01*
X1309Y1240D01*
G54D17*
X1333Y1167D02*
X1333Y1256D01*
X1386Y1167D01*
X1386Y1256D01*
G54D17*
X1410Y1167D02*
X1410Y1256D01*
X1443Y1256D01*
X1457Y1251D01*
X1463Y1240D01*
X1463Y1184D01*
X1457Y1173D01*
X1443Y1167D01*
X1410Y1167D01*
G54D17*
X3886Y1255D02*
X3919Y1166D01*
X3952Y1255D01*
G54D17*
X3977Y1166D02*
X3977Y1216D01*
G54D17*
X3977Y1233D02*
X3977Y1233D01*
G54D17*
X4001Y1166D02*
X4001Y1216D01*
G54D17*
X4001Y1205D02*
X4007Y1213D01*
X4021Y1216D01*
X4034Y1213D01*
X4041Y1205D01*
X4041Y1166D01*
G54D17*
X3823Y2140D02*
X3856Y2051D01*
X3890Y2140D01*
G54D17*
X3914Y2051D02*
X3914Y2140D01*
X3947Y2140D01*
X3961Y2134D01*
X3967Y2123D01*
X3967Y2112D01*
X3961Y2101D01*
X3947Y2095D01*
X3914Y2095D01*
G54D17*
X3991Y2051D02*
X3991Y2140D01*
G54D17*
X4042Y2095D02*
X4062Y2084D01*
X4068Y2073D01*
X4068Y2051D01*
G54D17*
X4015Y2051D02*
X4015Y2140D01*
X4048Y2140D01*
X4062Y2134D01*
X4068Y2123D01*
X4068Y2112D01*
X4062Y2101D01*
X4048Y2095D01*
X4015Y2095D01*
G54D10*
X1912Y3836D02*
X1932Y3890D01*
X1952Y3836D01*
G54D10*
X1920Y3856D02*
X1944Y3856D01*
G54D10*
X1967Y3836D02*
X1967Y3890D01*
X1987Y3890D01*
X1995Y3886D01*
X1999Y3880D01*
X1999Y3846D01*
X1995Y3840D01*
X1987Y3836D01*
X1967Y3836D01*
G54D10*
X2046Y3836D02*
X2014Y3836D01*
X2014Y3840D01*
X2018Y3846D01*
X2042Y3866D01*
X2046Y3873D01*
X2046Y3880D01*
X2042Y3886D01*
X2034Y3890D01*
X2026Y3890D01*
X2018Y3886D01*
X2014Y3880D01*
G54D16*
X3313Y1107D02*
X3313Y1178D01*
G54D16*
X3292Y1178D02*
X3334Y1178D01*
G54D16*
X3355Y1178D02*
X3408Y1107D01*
G54D16*
X3355Y1107D02*
X3408Y1178D01*
G54D16*
X3428Y1138D02*
X3470Y1138D01*
G54D16*
X3491Y1156D02*
X3533Y1138D01*
G54D16*
X3491Y1120D02*
X3533Y1138D01*
G54D16*
X3554Y1165D02*
X3559Y1174D01*
X3570Y1178D01*
X3580Y1178D01*
X3591Y1174D01*
X3596Y1165D01*
X3596Y1156D01*
X3591Y1147D01*
X3580Y1143D01*
X3591Y1138D01*
X3596Y1129D01*
X3596Y1120D01*
X3591Y1111D01*
X3580Y1107D01*
X3570Y1107D01*
X3559Y1111D01*
X3554Y1120D01*
G54D16*
X1987Y1174D02*
X2003Y1165D01*
X2009Y1157D01*
X2009Y1139D01*
G54D16*
X1966Y1139D02*
X1966Y1210D01*
X1993Y1210D01*
X2003Y1205D01*
X2009Y1197D01*
X2009Y1188D01*
X2003Y1179D01*
X1993Y1174D01*
X1966Y1174D01*
G54D16*
X2029Y1210D02*
X2082Y1139D01*
G54D16*
X2029Y1139D02*
X2082Y1210D01*
G54D16*
X2102Y1170D02*
X2145Y1170D01*
G54D16*
X2165Y1188D02*
X2208Y1170D01*
G54D16*
X2165Y1152D02*
X2208Y1170D01*
G54D16*
X2260Y1139D02*
X2260Y1210D01*
X2228Y1165D01*
X2228Y1157D01*
X2271Y1157D01*
G54D16*
X2254Y1331D02*
X2248Y1340D01*
X2238Y1345D01*
X2227Y1345D01*
X2216Y1340D01*
X2211Y1331D01*
X2211Y1309D01*
X2211Y1305D01*
X2227Y1314D01*
X2238Y1314D01*
X2248Y1309D01*
X2254Y1300D01*
X2254Y1287D01*
X2248Y1278D01*
X2238Y1274D01*
X2227Y1274D01*
X2216Y1278D01*
X2211Y1287D01*
X2211Y1309D01*
G54D16*
X2476Y1345D02*
X2433Y1345D01*
X2433Y1314D01*
X2439Y1314D01*
X2449Y1318D01*
X2460Y1318D01*
X2471Y1314D01*
X2476Y1305D01*
X2476Y1287D01*
X2471Y1278D01*
X2460Y1274D01*
X2449Y1274D01*
X2439Y1278D01*
X2433Y1287D01*
G54D16*
X2687Y1282D02*
X2687Y1353D01*
X2655Y1308D01*
X2655Y1299D01*
X2698Y1299D01*
G54D16*
X2862Y1331D02*
X2867Y1340D01*
X2878Y1345D01*
X2888Y1345D01*
X2899Y1340D01*
X2904Y1331D01*
X2904Y1323D01*
X2899Y1314D01*
X2888Y1309D01*
X2899Y1305D01*
X2904Y1296D01*
X2904Y1287D01*
X2899Y1278D01*
X2888Y1274D01*
X2878Y1274D01*
X2867Y1278D01*
X2862Y1287D01*
G54D12*
X2302Y1182D02*
X2365Y1214D01*
X2453Y1214D01*
G54D12*
X3143Y1134D02*
X3246Y1134D01*
G54D16*
X3235Y1485D02*
X3262Y1511D01*
X3262Y1440D01*
G54D16*
X3282Y1480D02*
X3325Y1480D01*
G54D16*
X3282Y1463D02*
X3325Y1463D01*
G54D16*
X3366Y1476D02*
X3388Y1476D01*
X3388Y1454D01*
X3382Y1445D01*
X3372Y1440D01*
X3361Y1440D01*
X3350Y1445D01*
X3345Y1454D01*
X3345Y1498D01*
X3350Y1507D01*
X3361Y1511D01*
X3372Y1511D01*
X3382Y1507D01*
X3388Y1498D01*
G54D16*
X3408Y1440D02*
X3408Y1511D01*
X3451Y1440D01*
X3451Y1511D01*
G54D16*
X3471Y1440D02*
X3471Y1511D01*
X3498Y1511D01*
X3508Y1507D01*
X3514Y1498D01*
X3514Y1454D01*
X3508Y1445D01*
X3498Y1440D01*
X3471Y1440D01*
G54D16*
X3262Y1339D02*
X3219Y1339D01*
X3219Y1344D01*
X3224Y1353D01*
X3256Y1379D01*
X3262Y1388D01*
X3262Y1397D01*
X3256Y1406D01*
X3246Y1410D01*
X3235Y1410D01*
X3224Y1406D01*
X3219Y1397D01*
G54D16*
X3282Y1379D02*
X3325Y1379D01*
G54D16*
X3282Y1362D02*
X3325Y1362D01*
G54D16*
X3345Y1397D02*
X3350Y1406D01*
X3361Y1410D01*
X3372Y1410D01*
X3382Y1406D01*
X3388Y1397D01*
X3388Y1388D01*
X3382Y1379D01*
X3372Y1375D01*
X3382Y1370D01*
X3388Y1362D01*
X3388Y1353D01*
X3382Y1344D01*
X3372Y1339D01*
X3361Y1339D01*
X3350Y1344D01*
X3345Y1353D01*
G54D16*
X3419Y1339D02*
X3419Y1330D01*
X3413Y1322D01*
X3408Y1322D01*
G54D16*
X3439Y1397D02*
X3444Y1406D01*
X3455Y1410D01*
X3466Y1410D01*
X3476Y1406D01*
X3482Y1397D01*
X3482Y1388D01*
X3476Y1379D01*
X3466Y1375D01*
X3476Y1370D01*
X3482Y1362D01*
X3482Y1353D01*
X3476Y1344D01*
X3466Y1339D01*
X3455Y1339D01*
X3444Y1344D01*
X3439Y1353D01*
G54D16*
X3502Y1410D02*
X3529Y1339D01*
X3555Y1410D01*
G54D18*
X3540Y1762D02*
X3540Y1619D01*
X3627Y1531D01*
G54D18*
X3762Y1230D02*
X3810Y1230D01*
X3810Y1150D01*
X3889Y1071D01*
G54D10*
X2623Y3881D02*
X2643Y3828D01*
X2663Y3881D01*
G54D10*
X2678Y3858D02*
X2710Y3828D01*
G54D10*
X2678Y3828D02*
X2710Y3858D01*
G54D10*
X2725Y3858D02*
X2757Y3828D01*
G54D10*
X2725Y3828D02*
X2757Y3858D01*
G54D10*
X4054Y3355D02*
X4048Y3351D01*
X4044Y3343D01*
X4044Y3335D01*
X4048Y3327D01*
X4054Y3323D01*
X4061Y3323D01*
X4068Y3327D01*
X4071Y3335D01*
X4071Y3343D01*
X4074Y3351D01*
X4081Y3355D01*
X4088Y3355D01*
X4094Y3351D01*
X4098Y3343D01*
X4098Y3335D01*
X4094Y3327D01*
X4088Y3323D01*
G54D10*
X4048Y3284D02*
X4044Y3291D01*
X4044Y3299D01*
X4048Y3307D01*
X4054Y3308D01*
X4066Y3308D01*
X4072Y3304D01*
X4074Y3296D01*
X4072Y3288D01*
X4068Y3284D01*
X4061Y3284D01*
X4061Y3308D01*
G54D10*
X4098Y3261D02*
X4048Y3261D01*
X4044Y3257D01*
X4046Y3253D01*
G54D10*
X4074Y3269D02*
X4074Y3253D01*
G54D10*
X4071Y3206D02*
X4064Y3194D01*
X4058Y3190D01*
X4044Y3190D01*
G54D10*
X4044Y3222D02*
X4098Y3222D01*
X4098Y3202D01*
X4094Y3194D01*
X4088Y3190D01*
X4081Y3190D01*
X4074Y3194D01*
X4071Y3202D01*
X4071Y3222D01*
G54D10*
X4044Y3151D02*
X4094Y3151D01*
X4098Y3147D01*
X4096Y3143D01*
G54D10*
X4074Y3159D02*
X4074Y3143D01*
G54D10*
X4052Y3104D02*
X4066Y3104D01*
X4072Y3108D01*
X4074Y3116D01*
X4072Y3124D01*
X4066Y3128D01*
X4052Y3128D01*
X4046Y3124D01*
X4044Y3116D01*
X4046Y3108D01*
X4052Y3104D01*
G54D10*
X4044Y3089D02*
X4074Y3089D01*
G54D10*
X4068Y3089D02*
X4074Y3081D01*
X4074Y3073D01*
G54D10*
X4098Y3042D02*
X4044Y3022D01*
X4098Y3002D01*
G54D10*
X4074Y2987D02*
X4044Y2955D01*
G54D10*
X4044Y2987D02*
X4074Y2955D01*
G54D10*
X4074Y2940D02*
X4044Y2908D01*
G54D10*
X4044Y2940D02*
X4074Y2908D01*
G54D10*
X4098Y2877D02*
X4058Y2877D01*
G54D10*
X4044Y2877D02*
X4044Y2877D01*
G54D10*
X1346Y4125D02*
X1339Y4113D01*
X1333Y4109D01*
X1319Y4109D01*
G54D10*
X1319Y4141D02*
X1373Y4141D01*
X1373Y4121D01*
X1369Y4113D01*
X1363Y4109D01*
X1356Y4109D01*
X1349Y4113D01*
X1346Y4121D01*
X1346Y4141D01*
G54D10*
X1353Y4094D02*
X1373Y4074D01*
X1319Y4074D01*
G54D10*
X1319Y4035D02*
X1373Y4035D01*
X1339Y4059D01*
X1333Y4059D01*
X1333Y4027D01*
G54D10*
X1473Y4125D02*
X1466Y4113D01*
X1460Y4109D01*
X1446Y4109D01*
G54D10*
X1446Y4141D02*
X1500Y4141D01*
X1500Y4121D01*
X1496Y4113D01*
X1490Y4109D01*
X1483Y4109D01*
X1476Y4113D01*
X1473Y4121D01*
X1473Y4141D01*
G54D10*
X1480Y4094D02*
X1500Y4074D01*
X1446Y4074D01*
G54D10*
X1500Y4027D02*
X1500Y4059D01*
X1476Y4059D01*
X1476Y4055D01*
X1480Y4047D01*
X1480Y4039D01*
X1476Y4031D01*
X1470Y4027D01*
X1456Y4027D01*
X1450Y4031D01*
X1446Y4039D01*
X1446Y4047D01*
X1450Y4055D01*
X1456Y4059D01*
G54D10*
X3886Y3823D02*
X3879Y3811D01*
X3873Y3807D01*
X3859Y3807D01*
G54D10*
X3859Y3839D02*
X3913Y3839D01*
X3913Y3819D01*
X3909Y3811D01*
X3903Y3807D01*
X3896Y3807D01*
X3889Y3811D01*
X3886Y3819D01*
X3886Y3839D01*
G54D10*
X3893Y3792D02*
X3913Y3772D01*
X3859Y3772D01*
G54D10*
X3903Y3725D02*
X3909Y3729D01*
X3913Y3737D01*
X3913Y3745D01*
X3909Y3753D01*
X3903Y3757D01*
X3886Y3757D01*
X3883Y3757D01*
X3889Y3745D01*
X3889Y3737D01*
X3886Y3729D01*
X3879Y3725D01*
X3869Y3725D01*
X3863Y3729D01*
X3859Y3737D01*
X3859Y3745D01*
X3863Y3753D01*
X3869Y3757D01*
X3886Y3757D01*
G54D10*
X4037Y3704D02*
X4030Y3692D01*
X4024Y3688D01*
X4010Y3688D01*
G54D10*
X4010Y3720D02*
X4064Y3720D01*
X4064Y3700D01*
X4060Y3692D01*
X4054Y3688D01*
X4047Y3688D01*
X4040Y3692D01*
X4037Y3700D01*
X4037Y3720D01*
G54D10*
X4044Y3673D02*
X4064Y3653D01*
X4010Y3653D01*
G54D10*
X4064Y3638D02*
X4064Y3606D01*
X4057Y3610D01*
X4047Y3618D01*
X4034Y3626D01*
X4024Y3630D01*
X4010Y3630D01*
G54D10*
X1418Y1069D02*
X1411Y1057D01*
X1404Y1053D01*
X1391Y1053D01*
G54D10*
X1391Y1085D02*
X1444Y1085D01*
X1444Y1065D01*
X1441Y1057D01*
X1434Y1053D01*
X1428Y1053D01*
X1421Y1057D01*
X1418Y1065D01*
X1418Y1085D01*
G54D10*
X1424Y1038D02*
X1444Y1018D01*
X1391Y1018D01*
G54D10*
X1418Y983D02*
X1418Y991D01*
X1421Y999D01*
X1428Y1003D01*
X1434Y1003D01*
X1441Y999D01*
X1444Y991D01*
X1444Y983D01*
X1441Y975D01*
X1434Y971D01*
X1428Y971D01*
X1421Y975D01*
X1418Y983D01*
X1414Y975D01*
X1408Y971D01*
X1401Y971D01*
X1394Y975D01*
X1391Y983D01*
X1391Y991D01*
X1394Y999D01*
X1401Y1003D01*
X1408Y1003D01*
X1414Y999D01*
X1418Y991D01*
G54D10*
X2545Y831D02*
X2538Y819D01*
X2531Y815D01*
X2518Y815D01*
G54D10*
X2518Y847D02*
X2571Y847D01*
X2571Y827D01*
X2568Y819D01*
X2561Y815D01*
X2555Y815D01*
X2548Y819D01*
X2545Y827D01*
X2545Y847D01*
G54D10*
X2551Y800D02*
X2571Y780D01*
X2518Y780D01*
G54D10*
X2528Y765D02*
X2521Y761D01*
X2518Y753D01*
X2518Y745D01*
X2521Y737D01*
X2528Y733D01*
X2545Y733D01*
X2548Y733D01*
X2541Y745D01*
X2541Y753D01*
X2545Y761D01*
X2551Y765D01*
X2561Y765D01*
X2568Y761D01*
X2571Y753D01*
X2571Y745D01*
X2568Y737D01*
X2561Y733D01*
X2545Y733D01*
G54D10*
X1854Y3790D02*
X1847Y3778D01*
X1841Y3774D01*
X1827Y3774D01*
G54D10*
X1827Y3806D02*
X1881Y3806D01*
X1881Y3786D01*
X1877Y3778D01*
X1871Y3774D01*
X1864Y3774D01*
X1857Y3778D01*
X1854Y3786D01*
X1854Y3806D01*
G54D10*
X1827Y3727D02*
X1827Y3759D01*
X1831Y3759D01*
X1837Y3755D01*
X1857Y3731D01*
X1864Y3727D01*
X1871Y3727D01*
X1877Y3731D01*
X1881Y3739D01*
X1881Y3747D01*
X1877Y3755D01*
X1871Y3759D01*
G54D10*
X1871Y3680D02*
X1837Y3680D01*
X1831Y3684D01*
X1827Y3692D01*
X1827Y3700D01*
X1831Y3708D01*
X1837Y3712D01*
X1871Y3712D01*
X1877Y3708D01*
X1881Y3700D01*
X1881Y3692D01*
X1877Y3684D01*
X1871Y3680D01*
G54D10*
X3522Y3760D02*
X3534Y3753D01*
X3538Y3746D01*
X3538Y3733D01*
G54D10*
X3506Y3733D02*
X3506Y3786D01*
X3526Y3786D01*
X3534Y3783D01*
X3538Y3776D01*
X3538Y3770D01*
X3534Y3763D01*
X3526Y3760D01*
X3506Y3760D01*
G54D10*
X3585Y3733D02*
X3553Y3733D01*
X3553Y3736D01*
X3557Y3743D01*
X3581Y3763D01*
X3585Y3770D01*
X3585Y3776D01*
X3581Y3783D01*
X3573Y3786D01*
X3565Y3786D01*
X3557Y3783D01*
X3553Y3776D01*
G54D10*
X3600Y3766D02*
X3620Y3786D01*
X3620Y3733D01*
G54D10*
X3841Y3601D02*
X3853Y3594D01*
X3857Y3588D01*
X3857Y3574D01*
G54D10*
X3825Y3574D02*
X3825Y3628D01*
X3845Y3628D01*
X3853Y3624D01*
X3857Y3618D01*
X3857Y3611D01*
X3853Y3604D01*
X3845Y3601D01*
X3825Y3601D01*
G54D10*
X3904Y3574D02*
X3872Y3574D01*
X3872Y3578D01*
X3876Y3584D01*
X3900Y3604D01*
X3904Y3611D01*
X3904Y3618D01*
X3900Y3624D01*
X3892Y3628D01*
X3884Y3628D01*
X3876Y3624D01*
X3872Y3618D01*
G54D10*
X3951Y3574D02*
X3919Y3574D01*
X3919Y3578D01*
X3923Y3584D01*
X3947Y3604D01*
X3951Y3611D01*
X3951Y3618D01*
X3947Y3624D01*
X3939Y3628D01*
X3931Y3628D01*
X3923Y3624D01*
X3919Y3618D01*
G54D10*
X3787Y3363D02*
X3799Y3356D01*
X3803Y3349D01*
X3803Y3336D01*
G54D10*
X3771Y3336D02*
X3771Y3389D01*
X3791Y3389D01*
X3799Y3386D01*
X3803Y3379D01*
X3803Y3373D01*
X3799Y3366D01*
X3791Y3363D01*
X3771Y3363D01*
G54D10*
X3850Y3336D02*
X3818Y3336D01*
X3818Y3339D01*
X3822Y3346D01*
X3846Y3366D01*
X3850Y3373D01*
X3850Y3379D01*
X3846Y3386D01*
X3838Y3389D01*
X3830Y3389D01*
X3822Y3386D01*
X3818Y3379D01*
G54D10*
X3865Y3379D02*
X3869Y3386D01*
X3877Y3389D01*
X3885Y3389D01*
X3893Y3386D01*
X3897Y3379D01*
X3897Y3373D01*
X3893Y3366D01*
X3885Y3363D01*
X3893Y3359D01*
X3897Y3353D01*
X3897Y3346D01*
X3893Y3339D01*
X3885Y3336D01*
X3877Y3336D01*
X3869Y3339D01*
X3865Y3346D01*
G54D10*
X3912Y3336D02*
X3944Y3389D01*
G54D10*
X3991Y3336D02*
X3959Y3336D01*
X3959Y3339D01*
X3963Y3346D01*
X3987Y3366D01*
X3991Y3373D01*
X3991Y3379D01*
X3987Y3386D01*
X3979Y3389D01*
X3971Y3389D01*
X3963Y3386D01*
X3959Y3379D01*
G54D10*
X4030Y3336D02*
X4030Y3389D01*
X4006Y3356D01*
X4006Y3349D01*
X4038Y3349D01*
G54D10*
X3826Y2847D02*
X3838Y2840D01*
X3842Y2833D01*
X3842Y2820D01*
G54D10*
X3810Y2820D02*
X3810Y2873D01*
X3830Y2873D01*
X3838Y2870D01*
X3842Y2863D01*
X3842Y2857D01*
X3838Y2850D01*
X3830Y2847D01*
X3810Y2847D01*
G54D10*
X3889Y2820D02*
X3857Y2820D01*
X3857Y2823D01*
X3861Y2830D01*
X3885Y2850D01*
X3889Y2857D01*
X3889Y2863D01*
X3885Y2870D01*
X3877Y2873D01*
X3869Y2873D01*
X3861Y2870D01*
X3857Y2863D01*
G54D10*
X3936Y2873D02*
X3904Y2873D01*
X3904Y2850D01*
X3908Y2850D01*
X3916Y2853D01*
X3924Y2853D01*
X3932Y2850D01*
X3936Y2843D01*
X3936Y2830D01*
X3932Y2823D01*
X3924Y2820D01*
X3916Y2820D01*
X3908Y2823D01*
X3904Y2830D01*
G54D10*
X3699Y1529D02*
X3711Y1523D01*
X3715Y1516D01*
X3715Y1503D01*
G54D10*
X3683Y1503D02*
X3683Y1556D01*
X3703Y1556D01*
X3711Y1553D01*
X3715Y1546D01*
X3715Y1539D01*
X3711Y1533D01*
X3703Y1529D01*
X3683Y1529D01*
G54D10*
X3762Y1503D02*
X3730Y1503D01*
X3730Y1506D01*
X3734Y1513D01*
X3758Y1533D01*
X3762Y1539D01*
X3762Y1546D01*
X3758Y1553D01*
X3750Y1556D01*
X3742Y1556D01*
X3734Y1553D01*
X3730Y1546D01*
G54D10*
X3809Y1546D02*
X3805Y1553D01*
X3797Y1556D01*
X3789Y1556D01*
X3781Y1553D01*
X3777Y1546D01*
X3777Y1529D01*
X3777Y1526D01*
X3789Y1533D01*
X3797Y1533D01*
X3805Y1529D01*
X3809Y1523D01*
X3809Y1513D01*
X3805Y1506D01*
X3797Y1503D01*
X3789Y1503D01*
X3781Y1506D01*
X3777Y1513D01*
X3777Y1529D01*
G54D10*
X3532Y1236D02*
X3544Y1229D01*
X3548Y1222D01*
X3548Y1209D01*
G54D10*
X3516Y1209D02*
X3516Y1262D01*
X3536Y1262D01*
X3544Y1259D01*
X3548Y1252D01*
X3548Y1246D01*
X3544Y1239D01*
X3536Y1236D01*
X3516Y1236D01*
G54D10*
X3595Y1209D02*
X3563Y1209D01*
X3563Y1212D01*
X3567Y1219D01*
X3591Y1239D01*
X3595Y1246D01*
X3595Y1252D01*
X3591Y1259D01*
X3583Y1262D01*
X3575Y1262D01*
X3567Y1259D01*
X3563Y1252D01*
G54D10*
X3610Y1262D02*
X3642Y1262D01*
X3638Y1256D01*
X3630Y1246D01*
X3622Y1232D01*
X3618Y1222D01*
X3618Y1209D01*
G54D10*
X2921Y1045D02*
X2933Y1038D01*
X2937Y1032D01*
X2937Y1018D01*
G54D10*
X2905Y1018D02*
X2905Y1072D01*
X2925Y1072D01*
X2933Y1068D01*
X2937Y1062D01*
X2937Y1055D01*
X2933Y1048D01*
X2925Y1045D01*
X2905Y1045D01*
G54D10*
X2984Y1018D02*
X2952Y1018D01*
X2952Y1022D01*
X2956Y1028D01*
X2980Y1048D01*
X2984Y1055D01*
X2984Y1062D01*
X2980Y1068D01*
X2972Y1072D01*
X2964Y1072D01*
X2956Y1068D01*
X2952Y1062D01*
G54D10*
X3019Y1045D02*
X3011Y1045D01*
X3003Y1048D01*
X2999Y1055D01*
X2999Y1062D01*
X3003Y1068D01*
X3011Y1072D01*
X3019Y1072D01*
X3027Y1068D01*
X3031Y1062D01*
X3031Y1055D01*
X3027Y1048D01*
X3019Y1045D01*
X3027Y1042D01*
X3031Y1035D01*
X3031Y1028D01*
X3027Y1022D01*
X3019Y1018D01*
X3011Y1018D01*
X3003Y1022D01*
X2999Y1028D01*
X2999Y1035D01*
X3003Y1042D01*
X3011Y1045D01*
G54D10*
X2667Y1124D02*
X2679Y1118D01*
X2683Y1111D01*
X2683Y1098D01*
G54D10*
X2651Y1098D02*
X2651Y1151D01*
X2671Y1151D01*
X2679Y1148D01*
X2683Y1141D01*
X2683Y1134D01*
X2679Y1128D01*
X2671Y1124D01*
X2651Y1124D01*
G54D10*
X2730Y1098D02*
X2698Y1098D01*
X2698Y1101D01*
X2702Y1108D01*
X2726Y1128D01*
X2730Y1134D01*
X2730Y1141D01*
X2726Y1148D01*
X2718Y1151D01*
X2710Y1151D01*
X2702Y1148D01*
X2698Y1141D01*
G54D10*
X2745Y1108D02*
X2749Y1101D01*
X2757Y1098D01*
X2765Y1098D01*
X2773Y1101D01*
X2777Y1108D01*
X2777Y1124D01*
X2777Y1128D01*
X2765Y1121D01*
X2757Y1121D01*
X2749Y1124D01*
X2745Y1131D01*
X2745Y1141D01*
X2749Y1148D01*
X2757Y1151D01*
X2765Y1151D01*
X2773Y1148D01*
X2777Y1141D01*
X2777Y1124D01*
G54D14*
X5602Y3594D02*
X4316Y3594D01*
X4316Y609D01*
X5602Y609D01*
X5602Y3594D01*
G54D14*
X5135Y3248D02*
X4735Y3248D01*
X4735Y3498D01*
X5135Y3498D01*
X5135Y3248D01*
G36*
X5135Y3246D02*
X5135Y3496D01*
X5035Y3496D01*
X5035Y3246D01*
X5135Y3246D01*
G37*
G54D14*
X5135Y3246D02*
X5135Y3496D01*
X5035Y3496D01*
X5035Y3246D01*
X5135Y3246D01*
G54D14*
X4522Y2847D02*
X4395Y2847D01*
X4395Y3165D01*
X4522Y3165D01*
X4522Y2847D01*
G54D14*
X4658Y2932D02*
X4736Y2932D01*
X4736Y3088D01*
X4658Y3088D01*
X4658Y2932D01*
G36*
X5003Y3432D02*
X5003Y3306D01*
X4947Y3306D01*
X4947Y3432D01*
X5003Y3432D01*
G37*
G54D14*
X5003Y3432D02*
X5003Y3306D01*
X4947Y3306D01*
X4947Y3432D01*
X5003Y3432D01*
G54D14*
X5002Y3434D02*
X5002Y3307D01*
X4835Y3307D01*
X4835Y3434D01*
X5002Y3434D01*
G54D14*
X4980Y2993D02*
X4980Y2915D01*
X4824Y2915D01*
X4824Y2993D01*
X4980Y2993D01*
G54D19*
X5705Y2168D02*
X5705Y2265D01*
X5764Y2168D01*
X5764Y2265D01*
G54D19*
X5850Y2247D02*
X5850Y2186D01*
X5842Y2174D01*
X5828Y2168D01*
X5813Y2168D01*
X5798Y2174D01*
X5791Y2186D01*
X5791Y2247D01*
X5798Y2259D01*
X5813Y2265D01*
X5828Y2265D01*
X5842Y2259D01*
X5850Y2247D01*
G54D19*
X5704Y2676D02*
X5704Y2773D01*
X5763Y2676D01*
X5763Y2773D01*
G54D19*
X5849Y2694D02*
X5842Y2682D01*
X5827Y2676D01*
X5812Y2676D01*
X5798Y2682D01*
X5790Y2694D01*
X5790Y2755D01*
X5798Y2767D01*
X5812Y2773D01*
X5827Y2773D01*
X5842Y2767D01*
X5849Y2755D01*
G54D19*
X5720Y2447D02*
X5713Y2435D01*
X5698Y2429D01*
X5683Y2429D01*
X5669Y2435D01*
X5661Y2447D01*
X5661Y2508D01*
X5669Y2520D01*
X5683Y2526D01*
X5698Y2526D01*
X5713Y2520D01*
X5720Y2508D01*
G54D19*
X5806Y2508D02*
X5806Y2447D01*
X5799Y2435D01*
X5784Y2429D01*
X5769Y2429D01*
X5755Y2435D01*
X5747Y2447D01*
X5747Y2508D01*
X5755Y2520D01*
X5769Y2526D01*
X5784Y2526D01*
X5799Y2520D01*
X5806Y2508D01*
G54D19*
X5833Y2429D02*
X5833Y2526D01*
X5870Y2465D01*
X5907Y2526D01*
X5907Y2429D01*
M02*
