%FSLAX32Y32*%
%MOMM*%
%LNSMD_Maske1*%
G71*
G01*
%LPD*%
G36*
X2094Y2938D02*
X2174Y2938D01*
X2174Y2918D01*
X2094Y2918D01*
X2094Y2938D01*
G37*
G36*
X2094Y2858D02*
X2174Y2858D01*
X2174Y2838D01*
X2094Y2838D01*
X2094Y2858D01*
G37*
G36*
X2094Y2778D02*
X2174Y2778D01*
X2174Y2758D01*
X2094Y2758D01*
X2094Y2778D01*
G37*
G36*
X2094Y2698D02*
X2174Y2698D01*
X2174Y2678D01*
X2094Y2678D01*
X2094Y2698D01*
G37*
G36*
X2094Y2618D02*
X2174Y2618D01*
X2174Y2598D01*
X2094Y2598D01*
X2094Y2618D01*
G37*
G36*
X2094Y2538D02*
X2174Y2538D01*
X2174Y2518D01*
X2094Y2518D01*
X2094Y2538D01*
G37*
G36*
X2094Y2458D02*
X2174Y2458D01*
X2174Y2438D01*
X2094Y2438D01*
X2094Y2458D01*
G37*
G36*
X2094Y2378D02*
X2174Y2378D01*
X2174Y2358D01*
X2094Y2358D01*
X2094Y2378D01*
G37*
G36*
X2994Y2938D02*
X3074Y2938D01*
X3074Y2918D01*
X2994Y2918D01*
X2994Y2938D01*
G37*
G36*
X2994Y2858D02*
X3074Y2858D01*
X3074Y2838D01*
X2994Y2838D01*
X2994Y2858D01*
G37*
G36*
X2994Y2778D02*
X3074Y2778D01*
X3074Y2758D01*
X2994Y2758D01*
X2994Y2778D01*
G37*
G36*
X2994Y2698D02*
X3074Y2698D01*
X3074Y2678D01*
X2994Y2678D01*
X2994Y2698D01*
G37*
G36*
X2994Y2618D02*
X3074Y2618D01*
X3074Y2598D01*
X2994Y2598D01*
X2994Y2618D01*
G37*
G36*
X2994Y2538D02*
X3074Y2538D01*
X3074Y2518D01*
X2994Y2518D01*
X2994Y2538D01*
G37*
G36*
X2994Y2458D02*
X3074Y2458D01*
X3074Y2438D01*
X2994Y2438D01*
X2994Y2458D01*
G37*
G36*
X2994Y2378D02*
X3074Y2378D01*
X3074Y2358D01*
X2994Y2358D01*
X2994Y2378D01*
G37*
G36*
X2294Y3138D02*
X2314Y3138D01*
X2314Y3058D01*
X2294Y3058D01*
X2294Y3138D01*
G37*
G36*
X2374Y3138D02*
X2394Y3138D01*
X2394Y3058D01*
X2374Y3058D01*
X2374Y3138D01*
G37*
G36*
X2454Y3138D02*
X2474Y3138D01*
X2474Y3058D01*
X2454Y3058D01*
X2454Y3138D01*
G37*
G36*
X2534Y3138D02*
X2554Y3138D01*
X2554Y3058D01*
X2534Y3058D01*
X2534Y3138D01*
G37*
G36*
X2614Y3138D02*
X2634Y3138D01*
X2634Y3058D01*
X2614Y3058D01*
X2614Y3138D01*
G37*
G36*
X2694Y3138D02*
X2714Y3138D01*
X2714Y3058D01*
X2694Y3058D01*
X2694Y3138D01*
G37*
G36*
X2774Y3138D02*
X2794Y3138D01*
X2794Y3058D01*
X2774Y3058D01*
X2774Y3138D01*
G37*
G36*
X2854Y3138D02*
X2874Y3138D01*
X2874Y3058D01*
X2854Y3058D01*
X2854Y3138D01*
G37*
G36*
X2294Y2238D02*
X2314Y2238D01*
X2314Y2158D01*
X2294Y2158D01*
X2294Y2238D01*
G37*
G36*
X2374Y2238D02*
X2394Y2238D01*
X2394Y2158D01*
X2374Y2158D01*
X2374Y2238D01*
G37*
G36*
X2464Y2238D02*
X2484Y2238D01*
X2484Y2158D01*
X2464Y2158D01*
X2464Y2238D01*
G37*
G36*
X2534Y2238D02*
X2554Y2238D01*
X2554Y2158D01*
X2534Y2158D01*
X2534Y2238D01*
G37*
G36*
X2614Y2238D02*
X2634Y2238D01*
X2634Y2158D01*
X2614Y2158D01*
X2614Y2238D01*
G37*
G36*
X2694Y2238D02*
X2714Y2238D01*
X2714Y2158D01*
X2694Y2158D01*
X2694Y2238D01*
G37*
G36*
X2774Y2238D02*
X2794Y2238D01*
X2794Y2158D01*
X2774Y2158D01*
X2774Y2238D01*
G37*
G36*
X2854Y2238D02*
X2874Y2238D01*
X2874Y2158D01*
X2854Y2158D01*
X2854Y2238D01*
G37*
G36*
X3198Y2794D02*
X3198Y2724D01*
X3128Y2724D01*
X3128Y2794D01*
X3198Y2794D01*
G37*
G36*
X3196Y2627D02*
X3196Y2557D01*
X3126Y2557D01*
X3126Y2627D01*
X3196Y2627D01*
G37*
G36*
X2022Y2848D02*
X2022Y2778D01*
X1952Y2778D01*
X1952Y2848D01*
X2022Y2848D01*
G37*
G36*
X2021Y2681D02*
X2021Y2611D01*
X1951Y2611D01*
X1951Y2681D01*
X2021Y2681D01*
G37*
G36*
X3237Y3095D02*
X3237Y3025D01*
X3167Y3025D01*
X3167Y3095D01*
X3237Y3095D01*
G37*
G36*
X3236Y2928D02*
X3236Y2858D01*
X3166Y2858D01*
X3166Y2928D01*
X3236Y2928D01*
G37*
G36*
X1775Y2064D02*
X1775Y2114D01*
X1855Y2114D01*
X1855Y2064D01*
X1775Y2064D01*
G37*
G36*
X1775Y2254D02*
X1775Y2304D01*
X1855Y2304D01*
X1855Y2254D01*
X1775Y2254D01*
G37*
G36*
X2013Y2064D02*
X2013Y2114D01*
X2093Y2114D01*
X2093Y2064D01*
X2013Y2064D01*
G37*
G36*
X2013Y2254D02*
X2013Y2304D01*
X2093Y2304D01*
X2093Y2254D01*
X2013Y2254D01*
G37*
G36*
X2013Y2159D02*
X2013Y2209D01*
X2093Y2209D01*
X2093Y2159D01*
X2013Y2159D01*
G37*
G36*
X2006Y3134D02*
X2006Y3064D01*
X1936Y3064D01*
X1936Y3134D01*
X2006Y3134D01*
G37*
G36*
X2005Y2967D02*
X2005Y2897D01*
X1935Y2897D01*
X1935Y2967D01*
X2005Y2967D01*
G37*
G36*
X3539Y2611D02*
X3539Y2541D01*
X3469Y2541D01*
X3469Y2611D01*
X3539Y2611D01*
G37*
G36*
X3538Y2444D02*
X3538Y2374D01*
X3468Y2374D01*
X3468Y2444D01*
X3538Y2444D01*
G37*
G36*
X3531Y2286D02*
X3531Y2216D01*
X3461Y2216D01*
X3461Y2286D01*
X3531Y2286D01*
G37*
G36*
X3530Y2119D02*
X3530Y2049D01*
X3460Y2049D01*
X3460Y2119D01*
X3530Y2119D01*
G37*
G36*
X3459Y2706D02*
X3539Y2706D01*
X3539Y2626D01*
X3459Y2626D01*
X3459Y2706D01*
G37*
G36*
X2542Y2045D02*
X2472Y2045D01*
X2472Y2115D01*
X2542Y2115D01*
X2542Y2045D01*
G37*
G36*
X2375Y2046D02*
X2305Y2046D01*
X2305Y2116D01*
X2375Y2116D01*
X2375Y2046D01*
G37*
G36*
X2891Y2037D02*
X2821Y2037D01*
X2821Y2107D01*
X2891Y2107D01*
X2891Y2037D01*
G37*
G36*
X2724Y2038D02*
X2654Y2038D01*
X2654Y2108D01*
X2724Y2108D01*
X2724Y2038D01*
G37*
G36*
X3149Y2233D02*
X3149Y2303D01*
X3219Y2303D01*
X3219Y2233D01*
X3149Y2233D01*
G37*
G36*
X3150Y2400D02*
X3150Y2470D01*
X3220Y2470D01*
X3220Y2400D01*
X3150Y2400D01*
G37*
G36*
X3233Y2029D02*
X3163Y2029D01*
X3163Y2099D01*
X3233Y2099D01*
X3233Y2029D01*
G37*
G36*
X3066Y2030D02*
X2996Y2030D01*
X2996Y2100D01*
X3066Y2100D01*
X3066Y2030D01*
G37*
G36*
X3459Y2788D02*
X3459Y2858D01*
X3529Y2858D01*
X3529Y2788D01*
X3459Y2788D01*
G37*
G36*
X3460Y2955D02*
X3460Y3025D01*
X3530Y3025D01*
X3530Y2955D01*
X3460Y2955D01*
G37*
G36*
X2932Y3162D02*
X3002Y3162D01*
X3002Y3092D01*
X2932Y3092D01*
X2932Y3162D01*
G37*
G36*
X3043Y3162D02*
X3113Y3162D01*
X3113Y3092D01*
X3043Y3092D01*
X3043Y3162D01*
G37*
G36*
X2932Y3054D02*
X3162Y3054D01*
X3162Y3024D01*
X2932Y3024D01*
X2932Y3054D01*
G37*
G36*
X2934Y3229D02*
X3144Y3229D01*
X3144Y3199D01*
X2934Y3199D01*
X2934Y3229D01*
G37*
G36*
X3412Y2476D02*
X3412Y2406D01*
X3342Y2406D01*
X3342Y2476D01*
X3412Y2476D01*
G37*
G36*
X3411Y2309D02*
X3411Y2239D01*
X3341Y2239D01*
X3341Y2309D01*
X3411Y2309D01*
G37*
G36*
X1893Y2624D02*
X1893Y2614D01*
X1753Y2614D01*
X1753Y2624D01*
X1893Y2624D01*
G37*
G36*
X1893Y2529D02*
X1893Y2519D01*
X1753Y2519D01*
X1753Y2529D01*
X1893Y2529D01*
G37*
G36*
X1893Y2434D02*
X1893Y2424D01*
X1753Y2424D01*
X1753Y2434D01*
X1893Y2434D01*
G37*
G36*
X1776Y3451D02*
X1776Y3381D01*
X1706Y3381D01*
X1706Y3451D01*
X1776Y3451D01*
G37*
G36*
X1775Y3284D02*
X1775Y3214D01*
X1705Y3214D01*
X1705Y3284D01*
X1775Y3284D01*
G37*
G36*
X1704Y1944D02*
X1704Y2014D01*
X1774Y2014D01*
X1774Y1944D01*
X1704Y1944D01*
G37*
G36*
X1705Y2158D02*
X1705Y2228D01*
X1775Y2228D01*
X1775Y2158D01*
X1705Y2158D01*
G37*
G36*
X1975Y2228D02*
X1975Y2158D01*
X1905Y2158D01*
X1905Y2228D01*
X1975Y2228D01*
G37*
G36*
X1974Y2061D02*
X1974Y1991D01*
X1904Y1991D01*
X1904Y2061D01*
X1974Y2061D01*
G37*
G36*
X2374Y2046D02*
X2304Y2046D01*
X2304Y2116D01*
X2374Y2116D01*
X2374Y2046D01*
G37*
G36*
X2207Y2047D02*
X2137Y2047D01*
X2137Y2117D01*
X2207Y2117D01*
X2207Y2047D01*
G37*
G36*
X3698Y2333D02*
X3698Y2263D01*
X3628Y2263D01*
X3628Y2333D01*
X3698Y2333D01*
G37*
G36*
X3697Y2166D02*
X3697Y2096D01*
X3627Y2096D01*
X3627Y2166D01*
X3697Y2166D01*
G37*
G36*
X3698Y2643D02*
X3698Y2573D01*
X3628Y2573D01*
X3628Y2643D01*
X3698Y2643D01*
G37*
G36*
X3697Y2476D02*
X3697Y2406D01*
X3627Y2406D01*
X3627Y2476D01*
X3697Y2476D01*
G37*
G36*
X3698Y2976D02*
X3698Y2906D01*
X3628Y2906D01*
X3628Y2976D01*
X3698Y2976D01*
G37*
G36*
X3697Y2809D02*
X3697Y2739D01*
X3627Y2739D01*
X3627Y2809D01*
X3697Y2809D01*
G37*
G36*
X3698Y2024D02*
X3698Y1954D01*
X3628Y1954D01*
X3628Y2024D01*
X3698Y2024D01*
G37*
G36*
X3697Y1857D02*
X3697Y1787D01*
X3627Y1787D01*
X3627Y1857D01*
X3697Y1857D01*
G37*
G36*
X3412Y2722D02*
X3412Y2652D01*
X3342Y2652D01*
X3342Y2722D01*
X3412Y2722D01*
G37*
G36*
X3411Y2555D02*
X3411Y2485D01*
X3341Y2485D01*
X3341Y2555D01*
X3411Y2555D01*
G37*
G36*
X3721Y3459D02*
X3721Y3374D01*
X3651Y3374D01*
X3651Y3459D01*
X3721Y3459D01*
G37*
G36*
X3721Y3212D02*
X3721Y3127D01*
X3651Y3127D01*
X3651Y3212D01*
X3721Y3212D01*
G37*
G36*
X2103Y3275D02*
X2783Y3275D01*
X2783Y3265D01*
X2103Y3265D01*
X2103Y3275D01*
G37*
G36*
X2038Y3348D02*
X2109Y3277D01*
X2102Y3270D01*
X2031Y3341D01*
X2038Y3348D01*
G37*
G36*
X2840Y3326D02*
X2783Y3269D01*
X2776Y3276D01*
X2833Y3333D01*
X2840Y3326D01*
G37*
G36*
X3131Y2511D02*
X3201Y2511D01*
X3201Y2441D01*
X3131Y2441D01*
X3131Y2511D01*
G37*
G36*
X3464Y3679D02*
X3394Y3679D01*
X3394Y3749D01*
X3464Y3749D01*
X3464Y3679D01*
G37*
G36*
X3297Y3678D02*
X3227Y3678D01*
X3227Y3748D01*
X3297Y3748D01*
X3297Y3678D01*
G37*
G36*
X3464Y3568D02*
X3394Y3568D01*
X3394Y3638D01*
X3464Y3638D01*
X3464Y3568D01*
G37*
G36*
X3297Y3566D02*
X3227Y3566D01*
X3227Y3636D01*
X3297Y3636D01*
X3297Y3566D01*
G37*
G36*
X3826Y3245D02*
X3826Y3315D01*
X3896Y3315D01*
X3896Y3245D01*
X3826Y3245D01*
G37*
G36*
X3825Y3412D02*
X3825Y3482D01*
X3895Y3482D01*
X3895Y3412D01*
X3825Y3412D01*
G37*
G36*
X3953Y3245D02*
X3953Y3315D01*
X4023Y3315D01*
X4023Y3245D01*
X3953Y3245D01*
G37*
G36*
X3952Y3412D02*
X3952Y3482D01*
X4022Y3482D01*
X4022Y3412D01*
X3952Y3412D01*
G37*
G36*
X3855Y2652D02*
X4035Y2652D01*
X4035Y2172D01*
X3855Y2172D01*
X3855Y2652D01*
G37*
G36*
X1267Y1763D02*
X1447Y1763D01*
X1447Y1283D01*
X1267Y1283D01*
X1267Y1763D01*
G37*
G36*
X3863Y1771D02*
X4043Y1771D01*
X4043Y1291D01*
X3863Y1291D01*
X3863Y1771D01*
G37*
G36*
X3561Y3638D02*
X3631Y3638D01*
X3631Y3568D01*
X3561Y3568D01*
X3561Y3638D01*
G37*
G36*
X3728Y3637D02*
X3798Y3637D01*
X3798Y3567D01*
X3728Y3567D01*
X3728Y3637D01*
G37*
G36*
X4002Y3753D02*
X4002Y3823D01*
X4072Y3823D01*
X4072Y3753D01*
X4002Y3753D01*
G37*
G36*
X4001Y3920D02*
X4001Y3990D01*
X4071Y3990D01*
X4071Y3920D01*
X4001Y3920D01*
G37*
G36*
X4024Y2967D02*
X4024Y2897D01*
X3954Y2897D01*
X3954Y2967D01*
X4024Y2967D01*
G37*
G36*
X4023Y2800D02*
X4023Y2730D01*
X3953Y2730D01*
X3953Y2800D01*
X4023Y2800D01*
G37*
G36*
X1568Y3797D02*
X1638Y3797D01*
X1638Y3727D01*
X1568Y3727D01*
X1568Y3797D01*
G37*
G36*
X1735Y3796D02*
X1805Y3796D01*
X1805Y3726D01*
X1735Y3726D01*
X1735Y3796D01*
G37*
G36*
X1497Y1128D02*
X1567Y1128D01*
X1567Y1058D01*
X1497Y1058D01*
X1497Y1128D01*
G37*
G36*
X1664Y1129D02*
X1734Y1129D01*
X1734Y1059D01*
X1664Y1059D01*
X1664Y1129D01*
G37*
G36*
X2518Y888D02*
X2518Y958D01*
X2588Y958D01*
X2588Y888D01*
X2518Y888D01*
G37*
G36*
X2517Y1055D02*
X2517Y1125D01*
X2587Y1125D01*
X2587Y1055D01*
X2517Y1055D01*
G37*
G36*
X1431Y3769D02*
X1431Y3839D01*
X1501Y3839D01*
X1501Y3769D01*
X1431Y3769D01*
G37*
G36*
X1430Y3936D02*
X1430Y4006D01*
X1500Y4006D01*
X1500Y3936D01*
X1430Y3936D01*
G37*
G36*
X1312Y3769D02*
X1312Y3839D01*
X1382Y3839D01*
X1382Y3769D01*
X1312Y3769D01*
G37*
G36*
X1311Y3936D02*
X1311Y4006D01*
X1381Y4006D01*
X1381Y3936D01*
X1311Y3936D01*
G37*
G36*
X3891Y3872D02*
X3891Y3942D01*
X3961Y3942D01*
X3961Y3872D01*
X3891Y3872D01*
G37*
G36*
X3890Y4039D02*
X3890Y4109D01*
X3960Y4109D01*
X3960Y4039D01*
X3890Y4039D01*
G37*
G36*
X2852Y1176D02*
X2922Y1176D01*
X2922Y1106D01*
X2852Y1106D01*
X2852Y1176D01*
G37*
G36*
X3019Y1177D02*
X3089Y1177D01*
X3089Y1107D01*
X3019Y1107D01*
X3019Y1177D01*
G37*
G36*
X2503Y1247D02*
X2573Y1247D01*
X2573Y1177D01*
X2503Y1177D01*
X2503Y1247D01*
G37*
G36*
X2670Y1248D02*
X2740Y1248D01*
X2740Y1178D01*
X2670Y1178D01*
X2670Y1248D01*
G37*
G36*
X2173Y1648D02*
X2303Y1648D01*
X2303Y1368D01*
X2173Y1368D01*
X2173Y1648D01*
G37*
G36*
X2396Y1648D02*
X2526Y1648D01*
X2526Y1368D01*
X2396Y1368D01*
X2396Y1648D01*
G37*
G36*
X2610Y1648D02*
X2740Y1648D01*
X2740Y1368D01*
X2610Y1368D01*
X2610Y1648D01*
G37*
G36*
X2808Y1648D02*
X2938Y1648D01*
X2938Y1368D01*
X2808Y1368D01*
X2808Y1648D01*
G37*
G36*
X3738Y1650D02*
X3738Y1580D01*
X3668Y1580D01*
X3668Y1650D01*
X3738Y1650D01*
G37*
G36*
X3737Y1483D02*
X3737Y1413D01*
X3667Y1413D01*
X3667Y1483D01*
X3737Y1483D01*
G37*
G36*
X3738Y1348D02*
X3738Y1278D01*
X3668Y1278D01*
X3668Y1348D01*
X3738Y1348D01*
G37*
G36*
X3737Y1181D02*
X3737Y1111D01*
X3667Y1111D01*
X3667Y1181D01*
X3737Y1181D01*
G37*
G36*
X2476Y4070D02*
X2476Y4000D01*
X2406Y4000D01*
X2406Y4070D01*
X2476Y4070D01*
G37*
G36*
X2475Y3903D02*
X2475Y3833D01*
X2405Y3833D01*
X2405Y3903D01*
X2475Y3903D01*
G37*
M02*
